<svg width="105" height="105" viewBox="0 0 105 105" fill="none" xmlns="http://www.w3.org/2000/svg">
<path d="M18.7236 92.3998C0.069334 81.6184 0.069334 64.1569 18.7236 53.386C37.3779 42.6151 67.6221 42.6172 86.2764 53.386C104.931 64.1548 104.931 81.6184 86.2764 92.3893C67.6221 103.16 37.38 103.16 18.7236 92.3998Z" fill="#F5F5F5"/>
<path opacity="0.15" d="M60.0791 79.8545C58.9472 79.2014 57.452 78.8423 55.8791 78.8423C54.3062 78.8423 52.8572 79.1888 51.7358 79.8167C50.4927 79.8345 49.2724 80.1522 48.1784 80.7428C47.0822 81.3728 46.4795 82.2359 46.4795 83.1662C46.4795 84.0965 47.0822 84.9575 48.1784 85.5896C49.2179 86.1902 50.5934 86.5199 52.0529 86.5199C52.9983 86.5267 53.9384 86.3777 54.8354 86.0789C55.1842 86.1154 55.5347 86.1336 55.8854 86.1335C57.4688 86.1335 58.9661 85.7744 60.0854 85.1213C61.2761 84.4346 61.9313 83.498 61.9313 82.4879C61.9313 81.4778 61.2698 80.5412 60.0791 79.8545ZM55.3247 84.5543C55.1819 84.6362 55.0307 84.7118 54.8711 84.7832C53.9698 84.6987 53.0952 84.4315 52.3007 83.9978C51.5258 83.5505 51.0974 83.0108 51.0974 82.4795C51.0974 81.9482 51.5174 81.4295 52.2524 80.9906C53.3237 80.9934 54.3782 81.2572 55.3247 81.7592C56.0387 82.1792 56.4314 82.6685 56.4314 83.1578C56.4314 83.6471 56.0387 84.1511 55.3247 84.5543ZM52.0424 85.3271C50.9002 85.354 49.7702 85.088 48.7601 84.5543C48.0461 84.1343 47.6534 83.6471 47.6534 83.1578C47.6534 82.6685 48.0461 82.1729 48.7601 81.7592C49.209 81.5119 49.6904 81.3288 50.1902 81.2153C49.9521 81.5973 49.8242 82.0377 49.8206 82.4879C49.8206 83.498 50.4779 84.4346 51.6686 85.1213C51.7988 85.1969 51.9353 85.2683 52.0739 85.3313L52.0424 85.3271ZM59.4344 83.9978C58.664 84.4191 57.8173 84.6825 56.9438 84.7727C57.3631 84.3382 57.6031 83.7615 57.6158 83.1578C57.6158 82.2275 57.011 81.3665 55.9169 80.7344C55.5275 80.5129 55.1157 80.3334 54.6884 80.1989C55.0797 80.1472 55.4739 80.1213 55.8686 80.1212C57.2294 80.1212 58.4978 80.4194 59.4386 80.9612C60.2156 81.4085 60.6419 81.9482 60.6419 82.4795C60.6419 83.0108 60.2114 83.5589 59.4302 84.0062L59.4344 83.9978Z" fill="black"/>
<path d="M61.5742 80.3813V82.3028C61.5742 83.1428 61.0177 83.9828 59.8942 84.6338C57.6661 85.919 54.052 85.919 51.826 84.6338C50.7109 83.9912 50.146 83.147 50.146 82.3028V80.3813C50.146 81.2213 50.7025 82.0613 51.826 82.7102C54.052 83.9975 57.6661 83.9975 59.8942 82.7102C61.0177 82.0676 61.5742 81.2255 61.5742 80.3813Z" fill="#F28F8F"/>
<path opacity="0.55" d="M61.5742 80.3813V82.3028C61.5742 83.1428 61.0177 83.9828 59.8942 84.6338C57.6661 85.919 54.052 85.919 51.826 84.6338C50.7109 83.9912 50.146 83.147 50.146 82.3028V80.3813C50.146 81.2213 50.7025 82.0613 51.826 82.7102C54.052 83.9975 57.6661 83.9975 59.8942 82.7102C61.0177 82.0676 61.5742 81.2255 61.5742 80.3813Z" fill="white"/>
<path opacity="0.1" d="M60.0771 84.527C56.9271 85.7765 53.8338 85.157 53.7771 84.6656C53.7204 84.1742 54.3777 83.561 54.3777 83.561C53.4867 83.4379 52.6256 83.1533 51.8367 82.721C50.7216 82.0784 50.1567 81.2363 50.1567 80.3921V82.3136C50.1567 83.1536 50.7132 83.9936 51.8367 84.6446C54.0627 85.9298 57.6768 85.9298 59.9049 84.6446L60.0771 84.527Z" fill="black"/>
<path d="M60.9883 80.3814C60.9805 80.7318 60.8572 81.0699 60.6376 81.3432C60.3562 80.9905 60.007 80.6978 59.6107 80.4822C58.6195 79.911 57.2902 79.596 55.8664 79.596C54.4426 79.596 53.1154 79.911 52.1263 80.4822C51.7289 80.6971 51.3789 80.9899 51.0973 81.3432C50.8786 81.0694 50.7555 80.7316 50.7466 80.3814C50.7466 79.7199 51.2359 79.0731 52.1263 78.5586C53.1154 77.9874 54.4363 77.6724 55.8664 77.6724C57.2965 77.6724 58.6195 77.9874 59.6107 78.5586C60.499 79.0731 60.9883 79.7241 60.9883 80.3814Z" fill="#EE776F"/>
<path opacity="0.5" d="M60.9883 80.3814C60.9805 80.7318 60.8572 81.0699 60.6376 81.3432C60.3562 80.9905 60.007 80.6978 59.6107 80.4822C58.6195 79.911 57.2902 79.596 55.8664 79.596C54.4426 79.596 53.1154 79.911 52.1263 80.4822C51.7289 80.6971 51.3789 80.9899 51.0973 81.3432C50.8786 81.0694 50.7555 80.7316 50.7466 80.3814C50.7466 79.7199 51.2359 79.0731 52.1263 78.5586C53.1154 77.9874 54.4363 77.6724 55.8664 77.6724C57.2965 77.6724 58.6195 77.9874 59.6107 78.5586C60.499 79.0731 60.9883 79.7241 60.9883 80.3814Z" fill="white"/>
<path opacity="0.1" d="M60.9883 80.3814C60.9805 80.7318 60.8572 81.0699 60.6376 81.3432C60.3562 80.9905 60.007 80.6978 59.6107 80.4822C58.6195 79.911 57.2902 79.596 55.8664 79.596C54.4426 79.596 53.1154 79.911 52.1263 80.4822C51.7289 80.6971 51.3789 80.9899 51.0973 81.3432C50.8786 81.0694 50.7555 80.7316 50.7466 80.3814C50.7466 79.7199 51.2359 79.0731 52.1263 78.5586C53.1154 77.9874 54.4363 77.6724 55.8664 77.6724C57.2965 77.6724 58.6195 77.9874 59.6107 78.5586C60.499 79.0731 60.9883 79.7241 60.9883 80.3814Z" fill="black"/>
<path opacity="0.1" d="M51.3955 79.8334V79.0942C51.2044 79.2525 51.0482 79.4485 50.9365 79.6701C50.8248 79.8916 50.7602 80.1338 50.7466 80.3815C50.7555 80.7318 50.8786 81.0696 51.0973 81.3433C51.3789 80.9901 51.7289 80.6972 52.1263 80.4823C53.1467 79.9338 54.2819 79.6331 55.4401 79.6045C53.0041 79.2916 51.3955 80.4214 51.3955 79.8334Z" fill="black"/>
<path d="M59.9024 78.0441C57.6743 76.7568 54.0602 76.7568 51.8321 78.0441C50.7191 78.6867 50.1626 79.5309 50.1626 80.373C50.1626 81.2151 50.7191 82.053 51.8321 82.704C54.0623 83.9892 57.6743 83.9892 59.9024 82.704C61.0175 82.0593 61.5824 81.2172 61.5824 80.373C61.5824 79.5288 61.0154 78.6951 59.9024 78.0441ZM59.6105 82.1958C58.6193 82.7775 57.29 83.0841 55.8599 83.0841C54.4298 83.0841 53.1068 82.7712 52.1177 82.1979C51.2273 81.6855 50.738 81.0387 50.738 80.3751C50.738 79.7115 51.2273 79.0668 52.1177 78.5523C53.1068 77.9811 54.4277 77.6661 55.8599 77.6661C57.2921 77.6661 58.6109 77.9811 59.6021 78.5523C60.4904 79.0668 60.9797 79.7136 60.9797 80.3751C60.9797 81.0366 60.4988 81.6918 59.6105 82.2042V82.1958Z" fill="#FFA8A7"/>
<path opacity="0.8" d="M59.9024 78.0441C57.6743 76.7568 54.0602 76.7568 51.8321 78.0441C50.7191 78.6867 50.1626 79.5309 50.1626 80.373C50.1626 81.2151 50.7191 82.053 51.8321 82.704C54.0623 83.9892 57.6743 83.9892 59.9024 82.704C61.0175 82.0593 61.5824 81.2172 61.5824 80.373C61.5824 79.5288 61.0154 78.6951 59.9024 78.0441ZM59.6105 82.1958C58.6193 82.7775 57.29 83.0841 55.8599 83.0841C54.4298 83.0841 53.1068 82.7712 52.1177 82.1979C51.2273 81.6855 50.738 81.0387 50.738 80.3751C50.738 79.7115 51.2273 79.0668 52.1177 78.5523C53.1068 77.9811 54.4277 77.6661 55.8599 77.6661C57.2921 77.6661 58.6109 77.9811 59.6021 78.5523C60.4904 79.0668 60.9797 79.7136 60.9797 80.3751C60.9797 81.0366 60.4988 81.6918 59.6105 82.2042V82.1958Z" fill="white"/>
<path d="M51.8325 82.7123C52.6755 83.1478 53.5905 83.4268 54.5331 83.5355C55.4707 83.6599 56.4212 83.6485 57.3555 83.5019C57.8222 83.4329 58.2818 83.3225 58.7289 83.1722C59.1763 83.0259 59.6065 82.8315 60.012 82.5926C60.4205 82.3568 60.7815 82.047 61.0767 81.6791C61.3795 81.3123 61.5543 80.8566 61.5744 80.3813C61.5726 80.8631 61.4141 81.3311 61.1229 81.7148C60.8305 82.0943 60.4702 82.4161 60.0603 82.664C59.6528 82.9157 59.2173 83.1187 58.7625 83.2688C58.3101 83.4242 57.8449 83.5395 57.3723 83.6132C56.427 83.755 55.4658 83.755 54.5205 83.6132C54.049 83.5459 53.584 83.4391 53.1303 83.294C52.6796 83.1433 52.2449 82.9484 51.8325 82.7123Z" fill="white"/>
<g opacity="0.1">
<path opacity="0.75" d="M51.2212 78.4645C52.1951 78.0331 53.2473 77.8065 54.3124 77.7988C54.8264 77.7102 55.347 77.666 55.8685 77.6665C56.0218 77.6665 56.1772 77.6665 56.3284 77.6791C55.8455 77.4245 55.3148 77.2735 54.7702 77.236C54.6085 77.2213 54.4426 77.2129 54.2746 77.2129C53.4172 77.3462 52.5903 77.6306 51.8323 78.0529C51.6188 78.1749 51.4145 78.3125 51.2212 78.4645Z" fill="black"/>
<path opacity="0.75" d="M54.2555 82.9502C54.014 83.1014 53.7578 83.2463 53.4932 83.3702C53.7837 83.4466 54.0781 83.5076 54.3752 83.5529C54.6351 83.3998 54.8868 83.2329 55.1291 83.0531C54.8309 83.0384 54.539 83.0006 54.2555 82.9502Z" fill="black"/>
</g>
<path d="M56.364 76.6016L57.1704 78.3467C57.5253 79.1111 57.3804 80.1107 56.6307 81.1628C55.1502 83.2628 51.87 84.7832 49.308 84.5501C48.027 84.4346 47.166 83.9033 46.8132 83.1389L46.0068 81.4043C46.3596 82.1708 47.2206 82.7021 48.5016 82.8155C51.0636 83.0486 54.3438 81.5303 55.8243 79.4282C56.5656 78.3656 56.7168 77.366 56.364 76.6016Z" fill="#EE776F"/>
<path opacity="0.55" d="M56.364 76.6016L57.1704 78.3467C57.5253 79.1111 57.3804 80.1107 56.6307 81.1628C55.1502 83.2628 51.87 84.7832 49.308 84.5501C48.027 84.4346 47.166 83.9033 46.8132 83.1389L46.0068 81.4043C46.3596 82.1708 47.2206 82.7021 48.5016 82.8155C51.0636 83.0486 54.3438 81.5303 55.8243 79.4282C56.5656 78.3656 56.7168 77.366 56.364 76.6016Z" fill="white"/>
<path opacity="0.1" d="M47.7834 83.4012C47.7057 83.2122 47.5587 82.8573 47.4495 82.5885C47.14 82.4987 46.8523 82.3464 46.6041 82.1408C46.3559 81.9353 46.1526 81.6809 46.0068 81.3936L46.8132 83.1387C47.166 83.9031 48.027 84.4344 49.308 84.5499C50.5769 84.6254 51.8456 84.3994 53.0103 83.8905C49.2387 84.9972 47.9199 83.7288 47.7834 83.4012Z" fill="black"/>
<path d="M55.8328 76.8471C55.9709 77.1691 56.0004 77.5274 55.9168 77.8677C55.5135 77.6651 55.0736 77.5458 54.6232 77.517C53.4829 77.4141 52.1452 77.685 50.8432 78.2835C49.5412 78.882 48.4786 79.7262 47.8192 80.6586C47.5496 81.0214 47.3561 81.435 47.2501 81.8745C46.9364 81.717 46.6822 81.462 46.5256 81.1479C46.2484 80.5473 46.4206 79.7556 47.0128 78.9156C47.6701 77.9811 48.7453 77.1369 50.0368 76.5384C51.3283 75.9399 52.666 75.669 53.8042 75.7719C54.8395 75.8643 55.5535 76.2465 55.8328 76.8471Z" fill="#EE776F"/>
<path opacity="0.5" d="M55.8328 76.8471C55.9709 77.1691 56.0004 77.5274 55.9168 77.8677C55.5135 77.6651 55.0736 77.5458 54.6232 77.517C53.4829 77.4141 52.1452 77.685 50.8432 78.2835C49.5412 78.882 48.4786 79.7262 47.8192 80.6586C47.5496 81.0214 47.3561 81.435 47.2501 81.8745C46.9364 81.717 46.6822 81.462 46.5256 81.1479C46.2484 80.5473 46.4206 79.7556 47.0128 78.9156C47.6701 77.9811 48.7453 77.1369 50.0368 76.5384C51.3283 75.9399 52.666 75.669 53.8042 75.7719C54.8395 75.8643 55.5535 76.2465 55.8328 76.8471Z" fill="#EE776F"/>
<path opacity="0.1" d="M55.8328 76.8471C55.9709 77.1691 56.0004 77.5274 55.9168 77.8677C55.5135 77.6651 55.0736 77.5458 54.6232 77.517C53.4829 77.4141 52.1452 77.685 50.8432 78.2835C49.5412 78.882 48.4786 79.7262 47.8192 80.6586C47.5496 81.0214 47.3561 81.435 47.2501 81.8745C46.9364 81.717 46.6822 81.462 46.5256 81.1479C46.2484 80.5473 46.4206 79.7556 47.0128 78.9156C47.6701 77.9811 48.7453 77.1369 50.0368 76.5384C51.3283 75.9399 52.666 75.669 53.8042 75.7719C54.8395 75.8643 55.5535 76.2465 55.8328 76.8471Z" fill="black"/>
<path opacity="0.1" d="M47.2271 80.8079C46.868 80.9276 46.5509 80.222 46.6475 79.5605C46.3724 80.1548 46.3325 80.705 46.5383 81.1481C46.6934 81.4625 46.9471 81.7177 47.2607 81.8747C47.3666 81.4352 47.5602 81.0217 47.8298 80.6588C48.5664 79.6843 49.5304 78.905 50.6375 78.3887C48.2393 79.3673 47.5883 80.6861 47.2271 80.8079Z" fill="black"/>
<path d="M53.8693 75.1906C51.3052 74.9575 48.0271 76.4758 46.5445 78.5779C45.8032 79.6279 45.652 80.6296 46.0069 81.394C46.3618 82.1584 47.2207 82.6918 48.5017 82.8073C51.0637 83.0383 54.3418 81.5221 55.8244 79.4179C56.5657 78.3679 56.7169 77.3662 56.3641 76.6018C56.0113 75.8374 55.1503 75.3145 53.8693 75.1906ZM55.3393 79.0819C54.682 80.0164 53.6068 80.8585 52.3153 81.457C51.0238 82.0555 49.6861 82.3264 48.5479 82.2235C47.5252 82.1311 46.8091 81.7489 46.5319 81.1483C46.2547 80.5477 46.4248 79.7539 47.017 78.916C47.6743 77.9815 48.7495 77.1373 50.041 76.5388C51.3325 75.9403 52.6702 75.6694 53.8084 75.7723C54.8311 75.8647 55.5472 76.2469 55.8265 76.8475C56.1058 77.4481 55.9378 78.2419 55.3456 79.0819H55.3393Z" fill="#F28F8F"/>
<path opacity="0.8" d="M53.8693 75.1906C51.3052 74.9575 48.0271 76.4758 46.5445 78.5779C45.8032 79.6279 45.652 80.6296 46.0069 81.394C46.3618 82.1584 47.2207 82.6918 48.5017 82.8073C51.0637 83.0383 54.3418 81.5221 55.8244 79.4179C56.5657 78.3679 56.7169 77.3662 56.3641 76.6018C56.0113 75.8374 55.1503 75.3145 53.8693 75.1906ZM55.3393 79.0819C54.682 80.0164 53.6068 80.8585 52.3153 81.457C51.0238 82.0555 49.6861 82.3264 48.5479 82.2235C47.5252 82.1311 46.8091 81.7489 46.5319 81.1483C46.2547 80.5477 46.4248 79.7539 47.017 78.916C47.6743 77.9815 48.7495 77.1373 50.041 76.5388C51.3325 75.9403 52.6702 75.6694 53.8084 75.7723C54.8311 75.8647 55.5472 76.2469 55.8265 76.8475C56.1058 77.4481 55.9378 78.2419 55.3456 79.0819H55.3393Z" fill="white"/>
<path d="M48.5103 82.8071C49.4577 82.8486 50.4047 82.7177 51.3054 82.4207C52.2087 82.1404 53.0667 81.7308 53.8527 81.2048C54.2471 80.9457 54.6181 80.6527 54.9615 80.3291C55.3056 80.0078 55.6146 79.6509 55.8834 79.2644C56.1547 78.8793 56.352 78.447 56.4651 77.9897C56.5862 77.5292 56.5538 77.0419 56.3727 76.6016C56.5727 77.0393 56.625 77.5301 56.5218 78.0002C56.4172 78.4691 56.2255 78.9143 55.9569 79.3127C55.6933 79.7121 55.3839 80.0793 55.035 80.4068C54.6899 80.7376 54.3161 81.037 53.9178 81.3014C53.1208 81.8295 52.2495 82.2358 51.3327 82.5068C50.8756 82.6431 50.4077 82.7401 49.9341 82.7966C49.461 82.8473 48.984 82.8508 48.5103 82.8071Z" fill="white"/>
<path d="M78.5129 43.909C78.6872 42.8968 79.9829 41.8636 81.2702 41.1496C82.4756 40.4818 92.018 34.9231 93.2402 34.2196C94.37 33.6043 95.0756 32.2393 95.0756 30.2758C95.0756 26.4244 92.3708 21.7435 89.0381 19.8178C87.2111 18.7678 85.5773 18.7678 84.4706 19.5952C84.4706 19.5952 75.1823 27.7138 72.1583 30.0952C69.5942 32.1091 67.1708 34.0033 65.0015 35.3263C62.9603 36.5695 61.883 36.8299 60.4802 38.7976C58.7414 41.2336 55.7825 45.211 55.1189 45.8578C54.4553 46.5046 53.6951 47.0464 53.1953 48.55C52.6829 50.0935 50.417 54.9151 49.9361 56.0932C49.1255 58.084 48.1238 59.848 48.3065 61.1962C48.4976 62.6074 49.4111 66.0745 49.6631 66.5197C50.7509 66.6352 51.8324 65.2849 51.8324 63.2311C51.8324 61.1773 51.8324 60.4171 51.8324 60.4171C51.8324 60.4171 53.3528 58.6531 53.9723 57.9748C54.5918 57.2965 56.2277 55.3645 56.2277 55.3645C56.2277 55.3645 56.8934 60.8686 57.7397 61.7191C58.586 62.5696 60.5327 62.6536 60.8603 62.4625C60.8973 62.917 61.1034 63.3411 61.4378 63.6511C62.0237 64.1929 63.3824 64.5835 64.5395 64.6717C65.1905 64.7221 66.3182 63.9682 66.3182 63.9682C66.587 65.1253 66.6899 65.7301 67.0175 65.9842C67.49 66.3517 71.7152 67.5319 72.5657 67.0573C73.4162 66.5827 74.8757 64.1173 75.7976 63.2227C76.7195 62.3281 77.5427 61.5427 77.2676 61.1689C76.9925 60.7951 75.6905 59.7367 73.9328 60.2428C72.1751 60.7489 71.3729 61.6645 71.3729 61.6645C71.3729 61.6645 71.3435 60.4654 71.4611 58.9492C71.5082 58.1699 71.6761 57.4027 71.9588 56.6749C72.146 56.1309 72.27 55.5672 72.3284 54.9949C72.6456 54.9049 72.9783 54.8838 73.3043 54.933C73.6303 54.9823 73.942 55.1008 74.2184 55.2805C74.6195 55.8349 74.9387 57.7522 74.9954 58.8757C75.0333 60.494 75.3901 62.089 76.0454 63.5692C76.9568 65.6293 78.956 65.6692 79.4894 65.4592C80.0228 65.2492 79.712 64.2832 79.6721 62.4079C79.6364 60.7783 79.5776 60.2953 79.9556 56.8786C80.2895 53.8441 80.3756 52.6219 79.7456 50.2531C79.2521 48.3673 78.2777 45.2635 78.5129 43.909Z" fill="#9E6767" fill-opacity="0.87"/>
<path d="M78.5131 43.909C78.6496 42.0421 78.2926 41.5276 78.7231 40.0849C78.7546 39.9757 78.7987 39.7279 78.9604 39.751C78.9959 39.7585 79.0293 39.774 79.058 39.7961C79.0867 39.8183 79.1101 39.8467 79.1263 39.8791C79.2002 40.0272 79.228 40.1939 79.2061 40.3579C79.162 41.0908 78.8806 41.8279 78.7399 42.5524C78.6601 43.0039 78.5803 43.4554 78.5131 43.909Z" fill="#874C4C"/>
<path d="M59.6862 53.384C59.3082 53.2874 58.9113 53.9447 59.0751 54.7133C59.2389 55.4819 60.186 60.5933 60.1251 61.3598C60.0642 62.1263 58.5144 62.1536 57.7437 61.7084C58.5837 62.5484 60.5366 62.6429 60.8642 62.4518C60.5429 60.0809 59.9403 56.3765 59.8773 55.4189C59.8143 54.4613 60.06 53.4743 59.6862 53.384Z" fill="#874C4C"/>
<path d="M53.1993 57.4268C53.5563 56.5868 54.2493 56.2949 54.5622 55.6439C54.8751 54.9929 55.0557 53.7728 55.2048 53.1239C55.3539 52.475 55.7823 51.5846 56.0847 51.4439C56.3871 51.3032 56.0049 51.9185 56.0574 52.79C56.1099 53.6615 56.2275 55.3499 56.2275 55.3499C56.2275 55.3499 54.18 57.6746 53.97 57.956C53.97 57.956 52.8801 59.1887 51.8301 60.3983C52.3494 59.438 52.8068 58.4455 53.1993 57.4268Z" fill="#874C4C"/>
<path d="M65.2368 55.2111C64.9302 55.356 64.5648 56.0217 64.6257 57.162C64.6866 58.3023 64.9071 60.3246 64.8357 61.0638C64.7643 61.803 64.8105 62.5611 64.506 63.0252C64.2015 63.4893 64.7916 63.2499 64.9995 63.0252C65.1034 62.9348 65.2366 62.885 65.3743 62.885C65.5121 62.885 65.6452 62.9348 65.7492 63.0252C65.85 63.1701 65.6379 64.2558 64.6677 64.6611C65.3292 64.617 66.3162 63.9576 66.3162 63.9576C66.0768 62.5275 65.3964 57.8886 65.3502 56.973C65.304 56.0574 65.5434 55.0683 65.2368 55.2111Z" fill="#874C4C"/>
<path d="M75.8667 63.1343C75.8415 63.1616 75.8205 63.1805 75.7953 63.2036C75.705 63.2897 75.6063 63.401 75.5076 63.5165C75.0944 62.9027 74.8331 62.1995 74.7453 61.4648C74.7453 61.4648 73.5588 61.5257 73.2249 62.4854C72.891 63.4451 73.3572 64.4552 72.9036 64.0499C72.45 63.6446 71.5869 63.4199 71.3727 63.2099C71.1585 62.9999 71.3832 62.6345 71.3727 61.6622C71.3727 61.6622 72.1728 60.7361 73.9305 60.23C74.3071 60.1195 74.7001 60.0754 75.0918 60.0998C75.2122 61.1416 75.4729 62.1623 75.8667 63.1343Z" fill="#874C4C"/>
<path d="M49.8375 60.5496C49.8375 60.5496 51.8283 61.2699 51.8325 63.0234C51.8325 61.1145 51.8325 60.3984 51.8325 60.3984L53.0064 58.7037L51.4734 56.8872L49.3587 57.4122L49.0962 58.0086C49.0962 58.0086 51.0072 60.3669 50.9421 60.6483C50.877 60.9297 50.478 60.5265 49.8375 60.5496Z" fill="#874C4C"/>
<path d="M74.2205 55.2825C74.4255 55.6496 74.5675 56.0486 74.6405 56.4627C74.5166 55.6584 74.483 54.9381 74.8862 54.3165C75.2894 53.6949 75.0374 53.5563 74.6405 53.7579C74.2436 53.9595 74.1869 54.474 73.6913 54.621C73.1957 54.768 72.5489 54.3816 72.4124 53.5542C72.3872 54.0267 72.3641 54.5244 72.3179 54.9969C72.6368 54.904 72.9721 54.8814 73.3005 54.9307C73.629 54.98 73.9429 55.1001 74.2205 55.2825Z" fill="#874C4C"/>
<path opacity="0.4" d="M78.7292 40.0848C79.166 38.64 81.2492 38.0331 85.2602 35.7756C87.5345 34.4946 92.039 31.7856 95.0672 30.0762C95.0672 30.1392 95.0672 30.2043 95.0672 30.2673C95.0672 32.2308 94.3616 33.5958 93.2318 34.2111C92.0096 34.923 82.4672 40.4817 81.2618 41.1411C79.9745 41.8551 78.6242 42.8799 78.5045 43.9005C78.6494 42.042 78.2924 41.5275 78.7292 40.0848Z" fill="#874C4C"/>
<path opacity="0.4" d="M64.9763 51.3366C65.1344 51.1493 65.3174 50.9847 65.5202 50.8473C65.7295 50.6977 65.9603 50.5808 66.2048 50.5008C66.2413 50.4856 66.2812 50.4805 66.3203 50.4861C66.3398 50.4896 66.3573 50.5 66.3696 50.5155C66.382 50.5309 66.3883 50.5503 66.3875 50.5701C66.3804 50.5949 66.3657 50.617 66.3455 50.6331C66.137 50.8175 65.9379 51.0123 65.7491 51.2169C65.5047 51.4841 65.3327 51.8094 65.2493 52.1619C65.1716 52.5357 65.2073 52.9221 65.1674 53.3001C65.1661 53.33 65.1566 53.359 65.1401 53.3841C65.118 53.4033 65.0896 53.4138 65.0603 53.4138C65.031 53.4138 65.0027 53.4033 64.9805 53.3841C64.8976 53.3142 64.8401 53.219 64.8167 53.1132C64.7209 52.8148 64.6755 52.5025 64.6823 52.1892C64.685 51.8806 64.7882 51.5813 64.9763 51.3366Z" fill="#874C4C"/>
<path opacity="0.4" d="M59.9552 49.5495C60.1394 49.3882 60.345 49.2532 60.5663 49.1484C60.7957 49.0321 61.0414 48.9514 61.295 48.909C61.3327 48.8982 61.3727 48.8982 61.4105 48.909C61.4295 48.9148 61.4456 48.9275 61.4556 48.9446C61.4657 48.9617 61.4691 48.9819 61.4651 49.0014C61.454 49.0248 61.4355 49.0439 61.4126 49.056C61.1837 49.2156 60.9485 49.3647 60.7343 49.5432C60.454 49.7715 60.2371 50.068 60.1043 50.4042C60.0005 50.7699 59.9157 51.1407 59.8502 51.5151C59.8447 51.5449 59.8309 51.5726 59.8103 51.5949C59.786 51.6152 59.7548 51.6255 59.7232 51.6235C59.6915 51.6216 59.6618 51.6076 59.6402 51.5844C59.5676 51.5038 59.5246 51.4008 59.5184 51.2925C59.4659 50.9832 59.4659 50.6673 59.5184 50.358C59.5688 50.047 59.7227 49.7621 59.9552 49.5495Z" fill="#874C4C"/>
<path opacity="0.4" d="M56.8955 47.9282C57.0821 47.7699 57.2899 47.6384 57.5129 47.5376C57.7441 47.4247 57.9913 47.3482 58.2458 47.3108C58.2836 47.3 58.3236 47.3 58.3613 47.3108C58.3801 47.3175 58.3957 47.3308 58.4054 47.3482C58.4151 47.3656 58.4181 47.3859 58.4138 47.4053C58.4021 47.4283 58.3839 47.4473 58.3613 47.4599C58.1303 47.6132 57.893 47.7602 57.6746 47.9366C57.3904 48.1569 57.1671 48.446 57.0257 48.7766C56.8871 49.1315 56.8577 49.5179 56.7548 49.8833C56.7486 49.9133 56.734 49.941 56.7128 49.9631C56.6877 49.9783 56.6579 49.9839 56.629 49.9789C56.6 49.9739 56.5739 49.9586 56.5553 49.9358C56.485 49.8535 56.4443 49.75 56.4398 49.6418C56.3949 49.3312 56.4028 49.0153 56.4629 48.7073C56.5193 48.4078 56.6711 48.1345 56.8955 47.9282Z" fill="#874C4C"/>
<path opacity="0.4" d="M76.6165 52.9347C76.4233 54.0645 75.6757 54.768 75.8689 55.8348C76.0621 56.9016 75.3733 60.1251 75.6274 62.1222L75.6925 62.6787C75.6654 62.5739 75.6303 62.4714 75.5875 62.3721C75.3477 61.6366 75.1824 60.8789 75.094 60.1104C75.0835 60.018 75.0751 59.9319 75.0688 59.8479C75.0457 59.6379 75.0331 59.4636 75.0226 59.2935C75.0121 59.1234 75.0058 59.01 74.9995 58.8735C74.9407 57.75 74.6236 55.8306 74.2225 55.2762C73.9458 55.0972 73.6341 54.9792 73.3083 54.9299C72.9824 54.8807 72.6498 54.9013 72.3325 54.9906C72.4963 53.3274 72.364 51.3093 73.0066 51.4542C73.6492 51.5991 73.7395 53.004 74.4766 53.1783C75.2137 53.3526 76.8076 51.7944 76.6165 52.9347Z" fill="#874C4C"/>
<path d="M79.6467 60.8855C78.729 60.4067 77.9793 60.8225 77.9478 61.0304C77.9163 61.2383 77.8323 63.4517 78.3678 64.1993C78.534 64.4217 78.7468 64.6051 78.9913 64.7367C79.2357 64.8684 79.506 64.9452 79.7832 64.9616C79.8336 64.466 79.6971 63.6323 79.6698 62.4164C79.6572 61.8179 79.6404 61.3664 79.6446 60.8855H79.6467Z" fill="#874C4C"/>
<path opacity="0.4" d="M79.6467 60.8855C78.729 60.4067 77.9793 60.8225 77.9478 61.0304C77.9163 61.2383 77.8323 63.4517 78.3678 64.1993C78.534 64.4217 78.7468 64.6051 78.9913 64.7367C79.2357 64.8684 79.506 64.9452 79.7832 64.9616C79.8336 64.466 79.6971 63.6323 79.6698 62.4164C79.6572 61.8179 79.6404 61.3664 79.6446 60.8855H79.6467Z" fill="white"/>
<path d="M79.6467 60.8855C78.729 60.4067 77.9793 60.8225 77.9478 61.0304C78.4535 61.3738 79.0411 61.5774 79.6509 61.6205C79.6509 61.3706 79.6509 61.1333 79.6509 60.8855H79.6467Z" fill="#874C4C"/>
<path d="M50.0706 65.2179C49.9222 64.4619 49.73 63.7152 49.4952 62.9814C49.4952 62.9814 48.8883 62.9289 48.6846 63.0738C49.0311 64.5564 49.4952 66.2028 49.6632 66.501C49.6632 66.4947 50.2701 66.3036 50.0706 65.2179Z" fill="#874C4C"/>
<path opacity="0.4" d="M50.0706 65.2179C49.9222 64.4619 49.73 63.7152 49.4952 62.9814C49.4952 62.9814 48.8883 62.9289 48.6846 63.0738C49.0311 64.5564 49.4952 66.2028 49.6632 66.501C49.6632 66.4947 50.2701 66.3036 50.0706 65.2179Z" fill="white"/>
<path d="M48.6846 63.0737L48.7728 63.4391C49.1424 63.395 49.4952 62.9813 49.4952 62.9813C49.4952 62.9813 48.8883 62.9246 48.6846 63.0737Z" fill="#874C4C"/>
<path d="M59.9005 55.7359L60.0622 56.9728C59.1204 57.3148 58.1007 57.3818 57.1222 57.166C56.1331 56.9119 55.9714 56.2819 55.9714 56.0425C55.9588 55.7548 55.8916 54.793 55.8916 54.793C55.9506 55.0236 56.0683 55.2351 56.2331 55.407C56.3979 55.5788 56.6044 55.7051 56.8324 55.7737C57.6451 56.032 58.8169 55.9942 59.9005 55.7359Z" fill="#E0E0E0"/>
<path d="M59.8689 55.3643C59.4363 55.589 57.9243 55.8851 57.0591 55.5869C56.1939 55.2887 56.1918 54.8351 56.1918 54.8351L56.1603 54.3857C56.0896 54.4257 56.0292 54.4817 55.984 54.5491C55.9388 54.6166 55.91 54.6937 55.8999 54.7742C55.8999 55.0157 56.0595 55.6436 57.0486 55.8977C57.9964 56.1036 58.9824 56.047 59.9004 55.7339L59.8689 55.3643Z" fill="#FAFAFA"/>
<path opacity="0.2" d="M59.9003 55.736V55.7108C59.8898 55.5974 59.8793 55.5008 59.8751 55.4189C59.874 55.407 59.874 55.395 59.8751 55.3832V55.3643C59.6737 55.4578 59.4624 55.5283 59.2451 55.5743C59.327 56.009 59.4278 56.5592 59.5328 57.1472C59.7149 57.1058 59.8933 57.0496 60.0662 56.9792C59.999 56.4941 59.9444 56.0846 59.9108 55.778L59.9003 55.736Z" fill="black"/>
<path d="M54.0689 58.3467C53.8295 57.0972 51.9857 52.158 51.5489 50.7867C51.1121 49.4154 50.6711 48.7644 49.9109 48.2373C49.1507 47.7102 46.1981 44.4573 43.928 42.5106C41.408 40.3476 41.2946 39.5958 39.2534 38.3526C37.0841 37.0296 36.4268 36.4626 33.7178 34.6482C31.0613 32.8611 20.5298 24.9147 20.5298 24.9147C19.4231 24.0747 17.7893 24.0747 15.9623 25.1373C12.6296 27.063 9.9248 31.7439 9.9248 35.5953C9.9248 37.5588 10.6304 38.9259 11.7602 39.5391C12.9824 40.251 22.5248 45.8097 23.7302 46.4691C25.0175 47.1831 26.3678 48.2079 26.4875 49.2285C26.6072 50.2491 27.0314 53.7204 27.8063 55.4025C28.6316 57.1959 29.7257 60.7386 29.7866 61.6395C29.8475 62.5404 29.4107 66.2595 29.7866 66.27C31.9118 66.3708 33.3377 65.6169 33.8375 63.4245C34.2428 61.6521 33.9341 59.4492 33.8375 57.8469C33.7409 56.2446 33.9656 55.3899 33.9656 55.3899L35.0618 56.6604C35.1199 57.2672 35.2202 57.8693 35.3621 58.4622C35.5406 59.0607 36.4373 60.8352 36.5003 61.1439C36.5633 61.4526 36.7397 63.6177 37.04 65.1759C37.3403 66.7341 37.7078 68.1957 37.7078 68.1957C36.9833 69.0735 35.0555 69.8169 34.3583 71.4066C33.6275 73.0866 34.0538 74.3046 34.3583 74.6028C34.6628 74.901 36.977 73.2315 39.0476 72.1458C41.1182 71.0601 41.8679 70.5225 42.0212 68.748C42.185 66.816 42.269 65.4405 42.269 65.4405C42.269 65.4405 42.5084 65.5392 43.4282 65.178C44.348 64.8168 45.251 63.9579 45.251 63.9579C45.4439 64.0046 45.6408 64.0328 45.839 64.0419C46.1561 64.002 47.729 63.6219 48.2393 63.0108C48.7496 62.3997 48.8693 62.3178 48.9974 60.8793C49.1255 59.4408 49.2074 57.7608 49.2074 57.7608C49.2074 57.7608 51.0806 59.7201 51.2801 59.9994C51.2801 59.9994 51.1898 61.8327 51.8408 63.1977C51.8408 63.1977 53.6384 61.146 54.0773 60.6336C54.5162 60.1212 54.3104 59.5962 54.0689 58.3467Z" fill="#FFA8A7"/>
<path d="M37.0843 60.2471C36.7063 59.5268 36.7063 58.2689 36.5299 56.8871C36.3535 55.5053 35.8495 55.898 35.4232 54.3146C34.9969 52.7312 34.1107 53.9681 33.9658 55.4045L35.062 56.675C35.1201 57.2819 35.2204 57.8839 35.3623 58.4768C35.5408 59.0753 36.4375 60.8498 36.5005 61.1585C36.5635 61.4672 36.7399 63.6323 37.0402 65.1905C37.1284 65.6483 37.2208 66.0956 37.3111 66.5009C37.1368 64.9196 37.4623 60.9674 37.0843 60.2471Z" fill="#F28F8F"/>
<path d="M44.7742 64.3737C44.7742 64.3737 43.5268 64.6383 43.1362 64.3233C42.6133 63.9033 42.8863 62.2485 43.069 61.1586C43.2517 60.0687 43.5058 58.4097 43.279 57.8385C42.9535 57.0363 42.439 57.7482 42.439 58.2963C42.439 58.2963 42.3445 63.9663 42.2773 65.4552C42.2773 65.4552 42.5167 65.5539 43.4365 65.1927C43.9182 64.983 44.3684 64.7074 44.7742 64.3737Z" fill="#F28F8F"/>
<path d="M34.9944 72.192C36.0234 70.932 36.7059 71.667 36.8172 70.7387C36.9285 69.8106 37.7076 68.2188 37.7076 68.2188C36.9831 69.0965 35.0553 69.84 34.3581 71.4297C33.6273 73.1097 34.0536 74.3277 34.3581 74.6259C34.3539 74.6175 33.9633 73.4457 34.9944 72.192Z" fill="#F28F8F"/>
<path d="M48.2349 63.0253C48.6108 62.5822 48.7788 62.4142 48.888 61.7947C48.888 61.7947 48.258 62.7082 47.5209 62.9287C46.7838 63.1492 46.3428 62.8069 46.3911 61.0597C46.4394 59.3125 46.6011 57.4372 46.956 56.5972C47.3109 55.7572 46.956 55.2994 46.5633 55.5199C46.1706 55.7404 46.1286 56.2045 46.0362 56.9017C45.9438 57.5989 45.7254 61.4566 45.7044 62.4646C45.6834 63.4726 45.6645 63.5146 45.2466 63.9724C45.4396 64.0181 45.6364 64.0463 45.8346 64.0564C46.2357 64.0102 47.7204 63.6301 48.2349 63.0253Z" fill="#F28F8F"/>
<path d="M51.8322 59.8206C51.7797 59.1738 50.9922 58.4262 50.6709 57.7752C50.3496 57.1242 50.3349 55.9398 50.1879 55.2972C50.1173 55.0294 49.9933 54.7787 49.8233 54.56C49.6533 54.3413 49.4409 54.1592 49.1988 54.0246C48.8964 53.8839 49.3899 54.9654 49.3395 55.8369C49.2891 56.7084 49.1988 57.7752 49.1988 57.7752C49.1988 57.7752 51.072 59.7345 51.2715 60.0138C51.2715 60.0138 51.1812 61.8471 51.8322 63.2121C51.4374 61.4355 51.8826 60.4653 51.8322 59.8206Z" fill="#F28F8F"/>
<path d="M26.4874 49.243C26.3509 47.3782 26.7079 46.8616 26.2774 45.4189C26.2459 45.3097 26.2018 45.0619 26.0401 45.085C26.0047 45.0929 25.9716 45.1085 25.9429 45.1307C25.9142 45.1528 25.8908 45.1809 25.8742 45.2131C25.8003 45.3611 25.7725 45.5279 25.7944 45.6919C25.8385 46.4248 26.1199 47.1619 26.2606 47.8885C26.3404 48.3379 26.4202 48.7894 26.4874 49.243Z" fill="#F28F8F"/>
<path opacity="0.4" d="M26.2711 45.419C25.8343 43.9742 23.8729 43.2728 19.8682 41.009C17.5918 39.7343 12.9613 37.1198 9.93311 35.4146C9.93311 35.4776 9.93311 35.5427 9.93311 35.6057C9.93311 37.5692 10.6387 38.9363 11.7685 39.5495C12.9907 40.2614 22.5331 45.8201 23.7385 46.4795C25.0258 47.1935 26.3761 48.2183 26.4958 49.2389C26.3509 47.3846 26.7079 46.8617 26.2711 45.419Z" fill="#F28F8F"/>
<path opacity="0.4" d="M42.6637 53.8947C42.5067 53.7065 42.3235 53.5417 42.1198 53.4054C41.9113 53.2558 41.6811 53.139 41.4373 53.0589C41.4001 53.0437 41.3595 53.0386 41.3197 53.0442C41.3003 53.0477 41.2827 53.0582 41.2704 53.0736C41.258 53.0891 41.2517 53.1085 41.2525 53.1282C41.26 53.1529 41.2755 53.1743 41.2966 53.1891C41.5066 53.3802 41.7166 53.565 41.893 53.775C42.1376 54.0419 42.309 54.3674 42.3907 54.72C42.4376 55.0971 42.4657 55.4762 42.4747 55.8561C42.4741 55.8867 42.4829 55.9168 42.4999 55.9422C42.5226 55.9612 42.5512 55.9716 42.5808 55.9716C42.6103 55.9716 42.6389 55.9612 42.6616 55.9422C42.7442 55.8725 42.8011 55.7771 42.8233 55.6713C42.9202 55.3725 42.9657 55.0593 42.9577 54.7452C42.9556 54.4371 42.8523 54.1383 42.6637 53.8947Z" fill="#F28F8F"/>
<path opacity="0.4" d="M46.0698 51.7946C45.8853 51.6338 45.6797 51.4989 45.4587 51.3935C45.2299 51.2737 44.9842 51.1894 44.73 51.1436C44.6915 51.1331 44.6509 51.1331 44.6124 51.1436C44.5938 51.1499 44.5782 51.1628 44.5685 51.1798C44.5588 51.1969 44.5558 51.2169 44.5599 51.236C44.5702 51.2593 44.5879 51.2785 44.6103 51.2907C44.8392 51.4503 45.0765 51.5993 45.2886 51.7778C45.5687 52.0064 45.7855 52.3028 45.9186 52.6389C46.0509 52.9959 46.0761 53.3822 46.1727 53.7497C46.1781 53.7796 46.192 53.8073 46.2126 53.8296C46.2375 53.845 46.2671 53.8509 46.296 53.8463C46.325 53.8417 46.3513 53.8268 46.3701 53.8044C46.4413 53.723 46.4834 53.6203 46.4898 53.5124C46.5423 53.2032 46.5423 52.8872 46.4898 52.5779C46.4374 52.2786 46.2901 52.004 46.0698 51.7946Z" fill="#F28F8F"/>
<path opacity="0.4" d="M48.7935 50.2026C48.6069 50.0443 48.3991 49.9128 48.1761 49.812C47.9453 49.6982 47.6979 49.6217 47.4432 49.5852C47.4054 49.5744 47.3654 49.5744 47.3277 49.5852C47.3087 49.5915 47.2927 49.6047 47.283 49.6223C47.2733 49.6398 47.2705 49.6603 47.2752 49.6797C47.2859 49.7029 47.3045 49.7216 47.3277 49.7322C47.5587 49.8876 47.796 50.0346 48.0123 50.2089C48.2984 50.4317 48.5219 50.7247 48.6612 51.0594C48.7714 51.4233 48.8625 51.7927 48.9342 52.1661C48.9397 52.1954 48.9535 52.2224 48.9741 52.2438C49.0003 52.2608 49.032 52.2671 49.0628 52.2617C49.0936 52.2562 49.1211 52.2394 49.14 52.2144C49.2084 52.131 49.2488 52.0281 49.2555 51.9204C49.2994 51.6098 49.2915 51.294 49.2324 50.9859C49.1748 50.6842 49.0208 50.4093 48.7935 50.2026Z" fill="#F28F8F"/>
<g opacity="0.4">
<path d="M30.3556 59.1929C30.4058 59.1332 30.4508 59.0693 30.49 59.0018C30.511 58.9724 30.5173 58.8968 30.4669 58.8989C30.376 58.895 30.2849 58.9028 30.196 58.922C30.0952 58.9472 29.986 58.9661 29.8957 58.9871C29.6886 59.0362 29.478 59.0685 29.2657 59.0837H29.146C29.2069 59.279 29.2636 59.4701 29.3182 59.6549C29.3336 59.6559 29.349 59.6559 29.3644 59.6549C29.5699 59.6105 29.769 59.5399 29.9566 59.4449C30.0445 59.4026 30.1282 59.352 30.2065 59.2937C30.2582 59.2632 30.308 59.2296 30.3556 59.1929Z" fill="#F28F8F"/>
<path d="M30.7211 57.8194C30.6539 57.7921 30.5867 57.7669 30.5111 57.7438C30.3557 57.6955 30.2003 57.643 30.0449 57.6031C29.7139 57.5155 29.3731 57.4704 29.0306 57.4688C28.8949 57.4705 28.7597 57.4867 28.6274 57.517C28.7072 57.748 28.787 57.9811 28.8647 58.2163C29.0346 58.1626 29.21 58.128 29.3876 58.1134C29.6165 58.0882 29.8475 58.0862 30.0764 58.0694C30.2436 58.0525 30.4122 58.0567 30.5783 58.0819L30.7211 58.1113C30.7715 58.1239 30.8261 58.1113 30.8765 58.1302C30.9269 58.1491 30.9752 57.9728 30.9143 57.9412C30.8522 57.8972 30.7877 57.8565 30.7211 57.8194Z" fill="#F28F8F"/>
</g>
<g opacity="0.4">
<path d="M41.2717 68.5949C41.0817 68.6186 40.8955 68.6659 40.7173 68.7356C40.627 68.7713 40.5367 68.8112 40.4464 68.8511C40.3548 68.8808 40.2729 68.9345 40.2091 69.0065C40.1944 69.0275 40.1839 69.0716 40.2091 69.0842C40.271 69.1051 40.3382 69.1051 40.4002 69.0842C40.4884 69.0653 40.5787 69.0527 40.6669 69.0401C40.8538 69.017 41.0449 68.9939 41.2339 68.9855C41.4881 68.9662 41.7429 69.0163 41.971 69.1304C41.9878 69.017 42.0025 68.8994 42.013 68.7734C42.013 68.7503 42.013 68.7314 42.013 68.7083C41.7813 68.602 41.5245 68.5627 41.2717 68.5949Z" fill="#F28F8F"/>
<path d="M40.2133 70.0816C40.1986 70.0249 40.1461 69.9514 40.0789 69.9808C40.0117 70.0102 40.0075 70.1152 40.018 70.1782C40.1093 70.5893 40.3494 70.9521 40.6921 71.1967C40.7908 71.1253 40.8853 71.0518 40.9714 70.9867C40.7849 70.903 40.6197 70.778 40.4884 70.6213C40.3571 70.4645 40.263 70.28 40.2133 70.0816Z" fill="#F28F8F"/>
<path d="M41.2214 69.8906C41.0312 69.8146 40.8546 69.7082 40.6985 69.5756C40.6061 69.4958 40.5494 69.6974 40.6103 69.7583C40.7694 69.9127 40.9515 70.0416 41.15 70.1404C41.2479 70.1863 41.3481 70.2269 41.4503 70.2622L41.5679 70.3106C41.6335 70.2052 41.6911 70.095 41.7401 69.9808C41.6582 69.9808 41.5784 69.9808 41.4965 69.9808C41.4012 69.9631 41.3087 69.9327 41.2214 69.8906Z" fill="#F28F8F"/>
</g>
<path d="M29.7867 61.6649C30.2823 61.1378 31.2441 61.1693 31.2441 61.1693C31.2441 61.1693 31.3848 64.544 30.9669 65.1971C30.549 65.8502 29.6586 65.9951 29.6586 65.9951C29.5274 64.5518 29.5704 63.0979 29.7867 61.6649Z" fill="#FFA8A7"/>
<path opacity="0.4" d="M29.7867 61.6649C30.2823 61.1378 31.2441 61.1693 31.2441 61.1693C31.2441 61.1693 31.3848 64.544 30.9669 65.1971C30.549 65.8502 29.6586 65.9951 29.6586 65.9951C29.5274 64.5518 29.5704 63.0979 29.7867 61.6649Z" fill="white"/>
<path d="M29.7866 61.6648C29.76 61.8398 29.7369 62.012 29.7173 62.1814C30.6665 62.0113 31.244 61.1692 31.244 61.1692C31.244 61.1692 30.2822 61.1272 29.7866 61.6648Z" fill="#F28F8F"/>
<path d="M37.4892 73.0382C37.1553 72.9962 37.0839 72.6392 36.75 72.6749C36.4161 72.7106 35.3178 73.5149 34.8915 73.958C34.4652 74.4011 34.6395 74.6048 34.65 74.6153C35.1771 74.4578 36.2754 73.7585 37.4892 73.0382Z" fill="#FFA8A7"/>
<path opacity="0.4" d="M37.4892 73.0382C37.1553 72.9962 37.0839 72.6392 36.75 72.6749C36.4161 72.7106 35.3178 73.5149 34.8915 73.958C34.4652 74.4011 34.6395 74.6048 34.65 74.6153C35.1771 74.4578 36.2754 73.7585 37.4892 73.0382Z" fill="white"/>
<path d="M37.4892 73.0381C37.2183 73.0045 37.1175 72.7651 36.9117 72.6958C36.902 72.7987 36.9158 72.9026 36.9522 72.9994C36.9886 73.0961 37.0466 73.1834 37.1217 73.2544L37.4829 73.0444L37.4892 73.0381Z" fill="#F28F8F"/>
<path d="M45.9901 57.4167L45.9019 58.6767C46.6797 59.0008 47.5413 59.0656 48.3589 58.8615C49.348 58.6074 49.5076 57.9795 49.5076 57.738C49.5202 57.4503 49.5895 56.478 49.5895 56.478C49.5302 56.7092 49.4122 56.9211 49.2471 57.0932C49.0819 57.2654 48.875 57.392 48.6466 57.4608C47.8381 57.7359 47.0695 57.675 45.9901 57.4167Z" fill="#E0E0E0"/>
<path d="M46.0194 57.0449C46.452 57.2717 47.5608 57.5888 48.4239 57.2906C49.287 56.9924 49.2933 56.5409 49.2933 56.5409L49.3227 56.0894C49.394 56.1294 49.4548 56.1856 49.5004 56.2535C49.546 56.3213 49.5751 56.3989 49.5852 56.48C49.5852 56.7194 49.4235 57.3473 48.4344 57.6014C47.6194 57.8047 46.7605 57.7391 45.9858 57.4145L46.0194 57.0449Z" fill="#FAFAFA"/>
<path opacity="0.2" d="M46.5152 58.8802C46.5604 58.3504 46.6369 57.8238 46.7441 57.3031C46.4934 57.2465 46.2502 57.1605 46.0196 57.0469L45.9881 57.4018V57.4165L45.8999 58.6765C46.0997 58.7595 46.3053 58.8276 46.5152 58.8802Z" fill="black"/>
<path d="M50.9689 37.9853L48.4195 36.4859C47.3875 35.8668 46.3957 35.1829 45.4501 34.4384C43.6084 32.9684 41.1577 30.6584 41.1577 27.3698C41.1682 26.1796 41.5995 25.0315 42.3753 24.1288C43.1512 23.2262 44.2215 22.6272 45.3966 22.4381C46.5717 22.2489 47.7759 22.4818 48.7958 23.0954C49.8157 23.709 50.5855 24.6638 50.9689 25.7906C51.3534 24.6653 52.1234 23.7121 53.1428 23.0997C54.1622 22.4873 55.3653 22.2551 56.5394 22.4441C57.7134 22.6331 58.7829 23.2312 59.5586 24.1326C60.3342 25.034 60.7662 26.1807 60.778 27.3698C60.778 30.6521 58.3294 32.9768 56.4856 34.4384C55.541 35.1832 54.5499 35.8671 53.5183 36.4859L50.9689 37.9853Z" fill="#EE776F"/>
</svg>
