<svg xmlns="http://www.w3.org/2000/svg" viewBox="0 0 201.09 214.62"><defs><style>.cls-1{fill:#c5edd0;}.cls-2{fill:#f78c74;}.cls-3{fill:#ffc3a1;}.cls-4{fill:#775f5f;}.cls-5{fill:#8db8db;}.cls-6{fill:#fff;}.cls-7{fill:#440829;}.cls-8{fill:#6297cc;}.cls-9{fill:#564d4e;}</style></defs><g id="Layer_2" data-name="Layer 2"><g id="Objects"><path class="cls-1" d="M0,100.55A100.55,100.55,0,1,1,100.55,201.09,100.55,100.55,0,0,1,0,100.55"/><path class="cls-2" d="M48.11,99.75l-.2-.2a10.74,10.74,0,0,0,2.19,7.32C50.31,104.57,50.86,101.94,48.11,99.75Z"/><path class="cls-3" d="M99.29,144.19l.27.07c.65,0,1.35-.09,1.86-.08.74,0,1.48-.06,2.22-.12l.56-.12c11.15-2,21.19-8.82,27.81-17.81,4.57-6.82,6.67-14.8,9.08-22.55.64-1.61.9-3.62,2.12-4.9,1.15-.15.51,1.95.45,2.59-.75,3.16-1.53,6.39-2.46,9.59a8.8,8.8,0,0,1,3.45-2.36,9.8,9.8,0,0,0,.89-4,12.42,12.42,0,0,1,2.1-5.06c.69-.84,1.94-3.91,3.27-3a.76.76,0,0,1,.11.91l-.22.27c.66,3.29-1,6.18-3.13,8.55a.2.2,0,0,0,0,.07,5.18,5.18,0,0,1-2.91,4.21,2.49,2.49,0,0,1-.55.16c-1.1.78-2.24,1.5-3.34,2.28a.52.52,0,0,1-.32.07c-.39,1.24-.81,2.48-1.26,3.7,5.63.5,9.57-2.72,12-7.76,4.36-7.71,5.41-25.89-6.59-12.58-1.26,1.49-2.29.5-1.39-1.06,0-.07.08-.14.11-.21a1.07,1.07,0,0,1-.12-.24,50.57,50.57,0,0,1-2.63-22.08c-1.25-2.89-2.78-6.13-2.47-9.34a8.44,8.44,0,0,0-1.51.48,24.44,24.44,0,0,1-8.92,1.55c-2-.19-8.3.17-8-2.79.49-1.1,1.89-1.39,2.81-2.05a42.58,42.58,0,0,0,7.15-5.25,36.79,36.79,0,0,1-10.12,3.23c-1.34.11-2.92.81-4.18.1a1.12,1.12,0,0,1-.07-1.63c1.42-1.1,3-1.93,4.34-3.06a19.87,19.87,0,0,0,2.37-1.94A34,34,0,0,1,113.39,54c-2.14,1.09-3.79,3-6.07,3.83-4,1.69-8.39,1.92-12.65,1.83-1,0-2.06-.56-2-1.65.19-1.58,1.86-2.43,2.9-3.46.69-.59,1.34-1.22,2-1.86A67.85,67.85,0,0,1,89,54.33c-3.86,4.24-7.81,8.59-13.09,11.11-3.15,1.56-6.59,2.38-9.94,3.43-1.06.43-2.64-.1-2.35-1.46s1-2.44,1.45-3.69a45,45,0,0,1-7.43,6.35c-.19.13-.4.3-.62.47l.06.38a49.83,49.83,0,0,1,.41,10.57,102.55,102.55,0,0,1-1.79,12.06c-.3.89,0,2.69-.87,3.25.27.84.14,1.48-.64,1.71-.86.07-1.32-.91-1.73-1.51-7.2-10.47-10.83-2.93-8,6,1.76,6.92,6.47,16.43,14.87,14.83-.57-1.43-1.1-2.88-1.62-4.32a11.56,11.56,0,0,1-3.4-1.62l-.08-.05a3.69,3.69,0,0,1-1.17-.12c-2.56-.84-3-2.26-3-3.94a12.84,12.84,0,0,1-2.63-8.73l-.3-.29a.78.78,0,0,1,1-1.17c2.8,1.89,5.71,5.47,3.52,8.85-.88,2.07,1.22,3.55,3.07,3.74l.07,0a4.41,4.41,0,0,1,2,.89c-1.2-3.51-2.65-7.06-2.85-10.77A.81.81,0,0,1,55,99.61c1.36,1,1.44,3.29,2.09,4.8,3.35,10,6.29,21,14.44,28.17a52.76,52.76,0,0,0,15.72,9.17A46.85,46.85,0,0,0,99.29,144.19Zm16.36-78.07c2.12-.93,4.38.37,6.09,1.6,1.13.64,6.27,5.53,4,6.46a.86.86,0,0,1-1,.11c-2.17-.74-4.58-.85-6.76-1.64-1.36-.47-2.89-1-3.76-2.19A3.17,3.17,0,0,1,115.65,66.12Zm-1.4,19.52c1.8-2.14,5.2-.9,6.14,1.47s.42,6.23-2.09,7.17c-1.48.56-3-.47-3.7-1.68-.55-.94-.35-2.08-.5-3.12C114,88.24,113.45,86.74,114.25,85.64Zm-22.12,20.1c.59-.23,1.2.12,1.79.2a23,23,0,0,0,7.12.34c1.71-.19,3.12-1,4.74-1.19a.8.8,0,0,1,.5,1.23h0a1.28,1.28,0,0,1-.29.28,7.55,7.55,0,0,1-6.82,4.71c-2.88.07-5.31-2.24-6.93-4.37C91.81,106.7,91.62,106,92.13,105.74Zm.26,14.82a43.84,43.84,0,0,0,9.85,0,29.84,29.84,0,0,0,8.74-2.83,26.9,26.9,0,0,0,2.61-1.48c-.93-.59-1.5-1.26-.62-1.95,1.58-.49,3,1.15,4,2.22.16.23.41.37.51.65a.62.62,0,0,1-.77.77,4.74,4.74,0,0,0-.93-.56.91.91,0,0,1-.33.37c-1.35.75-3,1.39-4.34,2a39.48,39.48,0,0,1-15.6,2.75,16,16,0,0,1-4.48-.62C89.84,120.83,91.2,119.66,92.39,120.56ZM72.89,74.18c-2.26-.93,2.88-5.82,4-6.46,1.7-1.23,4-2.53,6.08-1.6a3.16,3.16,0,0,1,1.38,4.34c-.87,1.23-2.39,1.72-3.76,2.19-2.18.79-4.58.9-6.75,1.64A.88.88,0,0,1,72.89,74.18Zm11.66,15.3c-.16,1,0,2.18-.5,3.12-.76,1.21-2.23,2.24-3.7,1.68-2.52-.94-3.07-4.94-2.09-7.17s4.33-3.61,6.14-1.47C85.2,86.74,84.65,88.24,84.55,89.48Z"/><path class="cls-2" d="M150.27,98.3a17.2,17.2,0,0,0-2.39,3.23,4.85,4.85,0,0,0-.57,2.31,10.62,10.62,0,0,0,.29,1.36C149.12,103.13,150.59,100.86,150.27,98.3Z"/><path class="cls-3" d="M80.83,166.24c1.73,1.06,3.14,2.73,5.07,3.45,10.4,4.73,23.15,2.82,32.17-3.94-.26-3.11-.56-6.21-.88-9.37a35.67,35.67,0,0,1-.18-4.13,4.2,4.2,0,0,1,0-.7c-1-.68-.27-2.64-.26-3.69.21-1.16.45-2.33.75-3.48-6.16,5.86-13.79,10.74-22.58,10.09-4.14-.2-7.73-2.52-10.57-5.39a26.82,26.82,0,0,1-3.11-3c.06.47.12.94.16,1.41,0,.92.51,3.16-.16,4,.17,3.67-.17,7.37-.29,11C80.94,163.77,80.89,165,80.83,166.24Z"/><path class="cls-2" d="M99,110.44c2.36,0,4.42-1.57,5.74-3.37a18.56,18.56,0,0,1-10.33.65A6.44,6.44,0,0,0,99,110.44Z"/><path class="cls-4" d="M82.06,67.81c-3-.57-6.18,2.66-7.85,4.82C75.8,72.11,85.86,70.5,82.06,67.81Z"/><path class="cls-4" d="M124.43,72.63c-1.66-2.16-4.87-5.39-7.85-4.82C112.78,70.5,122.85,72.11,124.43,72.63Z"/><path class="cls-4" d="M154.32,70.84c-.59,2.74-1.16,5.5-1.79,8.25-.69,3-1.44,6.1-2.33,9.11a4.93,4.93,0,0,0-.36,1.63c-.34.08-.7.18-1.06.29a13,13,0,0,0-4,3.06c-.64-2.3-1.28-4.61-1.76-7a37.93,37.93,0,0,1-.29-14.13c-1-3-2.89-6-2.61-9.31,0-.48,0-1.16-.44-1.42-.89-.81-2.9.64-4.06.81A25.68,25.68,0,0,1,122.2,63c4-2,8.13-4.28,10.77-8,.63-.94-.22-2.31-1.32-1.73-1.21,1.45-3.08,2-4.79,2.68a26.51,26.51,0,0,1-8.47,1.52,29.82,29.82,0,0,0,5.55-4.27,21.75,21.75,0,0,0,3.17-4c1.18-1,2.06-2.25.92-2.78a1.06,1.06,0,0,0-.55.15,26.34,26.34,0,0,1-4.2,2.86c-3,1.52-6.54,1.8-9.75,2.68-5,3.89-11.45,5.44-17.77,5.31a55.32,55.32,0,0,0,5.5-5.54.77.77,0,0,0,.15-.3c.15-.15.3-.32.44-.48a15.42,15.42,0,0,0,3-2,8,8,0,0,0,1.74-2,.35.35,0,0,0-.47-.49c-1.77.84-3.42,1.92-5.24,2.66-3.63,1.45-7.52,2-11.33,2.85a2,2,0,0,0-1.76,1.24C82.51,60.42,74,64.36,65.59,66.75c.92-2.6,2.08-5.1,3-7.69.2-.54.57-1.19.16-1.73s-1.45-.24-1.8.4a35.9,35.9,0,0,1-3,3.88,51,51,0,0,1-6.57,6.21c-.4.44-1.28.85-1.89,1.35a1.26,1.26,0,0,0-.68,1.28,56.66,56.66,0,0,1-.44,19.65c-.21,1.53-.53,3-.82,4.55a19.32,19.32,0,0,0-3.79-3.86,7.85,7.85,0,0,0-1-.66,9.55,9.55,0,0,1-.62-1.45c-.74-2.45-1.38-5.1-1.91-7.62s-.85-5.27-1.23-7.91c-.23-1.84-1.6-2.5-3.07-1.32.45-3,.72-6,1.29-9a84.23,84.23,0,0,1,7-15.92C58.14,33.51,70,20.78,85.88,17.77a46.34,46.34,0,0,1,15.93-.54,1.16,1.16,0,0,0,.76.09c1,.14,2,.53,2.93.09,1.27-1.44-.73-2.14-3.29-2.49-1.14-1-2.33-2-3.39-3.16,11.91,2,24.56,6.11,33.08,15.11a42.76,42.76,0,0,1,6.81,10.6c.24.59.59,1.35,1.3,1.41a2.36,2.36,0,0,0,.29,0c.37.19.79.31,1.15.5C154.34,44.34,157.19,58.55,154.32,70.84Z"/><path class="cls-2" d="M118.6,141.2A36.22,36.22,0,0,1,106,146a24,24,0,0,1-6.33.49,1.15,1.15,0,0,1-.73.12,52.13,52.13,0,0,1-18.77-5.33c.07.17.12.35.18.53a4.39,4.39,0,0,1,.44.65c2,2.73,3.25,6.15,6.13,8.15,9.69,7.27,21.48.7,29.07-6.47.8-.71,1.56-1.47,2.32-2.24Z"/><path class="cls-5" d="M136.53,197.26c1-2,2-4.34,1.55-6.66-2.43-7.48-7.16-14.09-11.74-20.35-1.6-2.09-3-4.33-4.55-6.41-.63-2.14,6.33,4.85,6.5,5.37,2.06,2.66,4,5.41,5.85,8.26.19-.17.37-.33.51-.48a30.77,30.77,0,0,0,4.84-6.41c1.55-2.51-.45-5.22-1.84-7.21a85.16,85.16,0,0,0-9.77-11.4c-2.5-2.61-5.4-4.79-8.06-7.23-.32,1.11-.59,2.22-.8,3.3-.29.76-.18,2.26-.64,3.09.82,1.13.93,4.6,1.12,5.37,1,9.16,1.42,18.3,1.88,27.48q.41,10.58.3,21.15c-.18.87.11,4.61-.28,6.85,2.12-.13,4.26-.28,6.38-.49a6.55,6.55,0,0,1,.37-.55c.76-1.13,1.41-2.2,2.15-3.33C132.47,204.22,134.67,200.83,136.53,197.26Z"/><path class="cls-5" d="M165.52,197.59c-.65.47-1.26,1.27-1.87,1.6-7.94,6.24-17.31,9.45-27.08,11.14q-3.16.55-6.35.91a2.78,2.78,0,0,1,.4-.56c2.15-3.15,4.34-6.29,6.37-9.52a24,24,0,0,0,3.38-7.71,9.17,9.17,0,0,0-.11-3.93,55.63,55.63,0,0,0-3.43-7.49c-.5-.93-1-1.86-1.57-2.77a44.52,44.52,0,0,0,4.67-4.94c2.57-3.31,3.54-6.93.84-10.5-.65-1-1.34-2-2-3a117.36,117.36,0,0,1,11.4,10.44c.27.28.53.57.78.86a86.77,86.77,0,0,1,10.42,15.28,62.94,62.94,0,0,1,4.1,9.9A1.84,1.84,0,0,0,165.52,197.59Z"/><path class="cls-6" d="M118.27,168.26a32.27,32.27,0,0,1-4.47,2.65A36.25,36.25,0,0,1,99,174.62c-6.15-.09-12.64-1.44-17.46-5.47a8,8,0,0,1-.78-.74c-.45,10.32-.84,20.63-.75,31,0,2.94,0,5.87.07,8.8a4.64,4.64,0,0,1,0,1.28c0,.44,0,.89,0,1.34a1.62,1.62,0,0,1,0,.58c10.38.73,20.81,1.1,31.2,1,2.66-.07,5.37-.16,8.09-.29,0-.59,0-1.2,0-1.76.14-3,.17-5.93.19-8.9.07-8.17-.08-16.35-.6-24.51C118.7,174,118.5,171.12,118.27,168.26Z"/><path class="cls-5" d="M69.53,210.51l-.58-.06c-2-.26-4-.56-6.06-.91a80.06,80.06,0,0,1-20-5.86,45.29,45.29,0,0,1-10.74-7.2h0a15.45,15.45,0,0,1,.21-1.88c1.58-8.77,8.05-17.38,15.56-24.8a142.78,142.78,0,0,1,12.75-11.08c-1.07,1.37-2.12,2.76-3.1,4.19C53,168.58,59,174.8,63.73,178c-.54.77-1.06,1.55-1.55,2.36a27.8,27.8,0,0,0-3.11,6.77s0,0,0,0a18.92,18.92,0,0,0-.8,5.48C59.37,199.62,64.72,205.36,69.53,210.51Z"/><path class="cls-5" d="M79.38,157.49a48.11,48.11,0,0,1,.73-5.86,1,1,0,0,1-.36-.59,56.9,56.9,0,0,0-1.23-7.33c-1.14.9-2.31,1.88-3.35,2.81-5.66,5.29-11.28,10.93-15.6,17.36-3.72,4,.62,8.38,3.68,11.15.39.45,1.18.86,1.67,1.35,1.24-1.64,2.54-3.22,3.8-4.74a99.1,99.1,0,0,1,6.9-7.45c.25-.21.49-.55.84-.54s.24.44.08.65c-2.15,3.13-4.44,6.17-6.73,9.19-14.1,18.44-11.11,20.44,2.08,37.23q3,.27,5.93.49a37.7,37.7,0,0,1,0-5.42c0-.41.07-.83.09-1.24-.13-4.46-.14-8.92-.09-13.38C78,179.93,78.52,168.69,79.38,157.49Z"/><path class="cls-7" d="M164.24,188c-6.79-14.14-17.9-24.38-30.2-33.72a7.48,7.48,0,0,0-2-1.27c-1-1-1.94-2-2.93-2.91a69.72,69.72,0,0,0-8.21-6.84,3.1,3.1,0,0,0-.49-.36,27.47,27.47,0,0,1,1-2.62,14.76,14.76,0,0,1,.65-1.33,58,58,0,0,0,9.11-8,42.49,42.49,0,0,0,7.32-12.31c1.06.16,2.28.12,2.88.23,5,.22,9-3.35,11.15-7.59,3.05-4.8,7.25-21.09-.57-21.63.18-.53.29-1.14.45-1.57.87-3.09,1.68-6.18,2.41-9.3,1.11-5,2.47-10,2.65-15.06.43-11.23-4.38-23-15.87-26.61A1.93,1.93,0,0,0,141,37c-1-3.88-7.67-12.39-8.89-13.34a32.74,32.74,0,0,0-4.81-3.81A68.42,68.42,0,0,0,110.65,12a81.25,81.25,0,0,0-8.94-2.14c-1.78-.23-3.78-1.14-5.51-.4-2,1.37,2,3.8,3.15,5.21-1.8-.1-3.41-.11-4-.14A48.23,48.23,0,0,0,61.32,28.68c-7.77,8-14.5,17.44-18.23,28-.85,3.78-2,7.48-2.74,11.29-.42,2.26-1.51,6.56,2.35,5.31.62,5.53,1.46,11.3,4,16.28a4.81,4.81,0,0,0-5.11,4c-1.27,5.92,1.12,12,3.33,17.43,2,4.28,5.62,8.28,10.42,9.19a5.67,5.67,0,0,0,2.59-.08h-.07a13.24,13.24,0,0,0,2-.6,49.38,49.38,0,0,0,4.38,8.45,41.66,41.66,0,0,0,12.74,11.62,20.49,20.49,0,0,1,.92,2.28l-.31.19a42.1,42.1,0,0,0-3.5,2.73,122.84,122.84,0,0,0-9.52,9.3l-.08.05C52.06,161.2,37.61,175,31.85,188.27a32.05,32.05,0,0,0-1.57,5.45,3.83,3.83,0,0,0,.28,3.21.85.85,0,0,0,.23.2,4.21,4.21,0,0,0,1.13,1.64c17,16.12,50.49,14.84,72.79,15.85,20.5-.07,47.08-.46,62.54-15.74a1.11,1.11,0,0,0,.19-1C168.39,196.21,164.72,189.17,164.24,188ZM46.22,81.06c-.58-2.61-.85-5.27-1.23-7.91-.23-1.84-1.6-2.5-3.08-1.31.46-3,.73-6,1.3-9a83.32,83.32,0,0,1,7-15.92C58.14,33.5,70,20.78,85.88,17.77a46.34,46.34,0,0,1,15.93-.54,1,1,0,0,0,.76.08c1,.15,2,.54,2.93.11,1.27-1.45-.73-2.15-3.29-2.5-1.14-1-2.33-2-3.38-3.15,11.9,2,24.55,6.1,33.07,15.1a43.23,43.23,0,0,1,6.81,10.6c.24.59.58,1.35,1.3,1.41a1.29,1.29,0,0,0,.29,0c.37.19.79.32,1.16.5,12.88,5,15.73,19.21,12.86,31.49-1.25,5.81-2.43,11.65-4.12,17.36a4.87,4.87,0,0,0-.36,1.63c-.34.08-.69.18-1.06.3a12.79,12.79,0,0,0-4,3.05c-.64-2.3-1.28-4.61-1.76-7a38.14,38.14,0,0,1-.29-14.13c-1-3.06-2.89-6-2.61-9.31,0-.48,0-1.16-.44-1.42-.9-.81-2.9.63-4.06.81A25.68,25.68,0,0,1,122.2,63c4-2,8.13-4.28,10.77-8,.63-.94-.22-2.3-1.32-1.72-1.21,1.43-3.08,2-4.79,2.67a26.53,26.53,0,0,1-8.48,1.53,29.3,29.3,0,0,0,5.56-4.28,22.87,22.87,0,0,0,3.17-4c1.18-1.06,2.06-2.26.92-2.79a1,1,0,0,0-.55.15,26.29,26.29,0,0,1-4.2,2.85c-3,1.53-6.53,1.81-9.75,2.69-5,3.9-11.45,5.44-17.77,5.31a55.32,55.32,0,0,0,5.5-5.54,1.14,1.14,0,0,0,.15-.29l.44-.49a15.13,15.13,0,0,0,3-2,8.21,8.21,0,0,0,1.74-2,.35.35,0,0,0,0-.44.35.35,0,0,0-.42-.05c-1.77.84-3.42,1.92-5.23,2.66-3.64,1.45-7.53,2-11.35,2.84a2,2,0,0,0-1.75,1.26C82.51,60.42,74,64.36,65.59,66.74c.92-2.58,2.08-5.09,3-7.68.21-.54.57-1.2.15-1.73-.54-.69-1.44-.24-1.79.4a36.91,36.91,0,0,1-3,3.88,50.36,50.36,0,0,1-6.57,6.21c-.4.44-1.28.86-1.89,1.36a1.24,1.24,0,0,0-.68,1.27A56.91,56.91,0,0,1,54.4,90.1c-.22,1.53-.54,3-.83,4.55a17.24,17.24,0,0,0-4.81-4.52,8.74,8.74,0,0,1-.63-1.45C47.39,86.23,46.76,83.58,46.22,81.06Zm25.32,51.52c-8.15-7.14-11.09-18.22-14.44-28.17-.65-1.51-.73-3.79-2.09-4.8a.81.81,0,0,0-1.06.73c.2,3.71,1.65,7.26,2.85,10.77a4.41,4.41,0,0,0-2-.89l-.07,0c-1.85-.19-3.95-1.67-3.07-3.74,2.19-3.38-.72-7-3.52-8.85a.78.78,0,0,0-1,1.17l.3.29A12.84,12.84,0,0,0,50,107.79c0,1.68.4,3.1,3,3.94a3.69,3.69,0,0,0,1.17.12l.08.05a11.56,11.56,0,0,0,3.4,1.62c.52,1.44,1.05,2.89,1.62,4.32-8.4,1.6-13.11-7.91-14.87-14.83-2.82-8.94.81-16.48,8-6,.41.6.87,1.58,1.73,1.51.78-.23.91-.87.64-1.71.82-.56.57-2.36.87-3.25a102.55,102.55,0,0,0,1.79-12.06A49.83,49.83,0,0,0,57,70.92L57,70.54c.22-.17.43-.34.62-.47A45,45,0,0,0,65,63.72c-.43,1.25-1.12,2.41-1.45,3.69s1.29,1.89,2.35,1.46c3.35-1.05,6.79-1.87,9.94-3.43,5.28-2.52,9.23-6.87,13.09-11.11a67.85,67.85,0,0,0,8.62-1.6c-.64.64-1.29,1.27-2,1.86-1,1-2.71,1.88-2.9,3.46-.08,1.09,1,1.68,2,1.65,4.26.09,8.68-.14,12.65-1.83,2.28-.86,3.93-2.74,6.07-3.83a34,34,0,0,0,8.67-1.93,19.87,19.87,0,0,1-2.37,1.94c-1.37,1.13-2.92,2-4.34,3.06a1.12,1.12,0,0,0,.07,1.63c1.26.71,2.84,0,4.18-.1a36.79,36.79,0,0,0,10.12-3.23,42.58,42.58,0,0,1-7.15,5.25c-.92.66-2.32,1-2.81,2.05-.31,3,6,2.6,8,2.79A24.44,24.44,0,0,0,136.67,64a8.44,8.44,0,0,1,1.51-.48c-.31,3.21,1.22,6.45,2.47,9.34a50.57,50.57,0,0,0,2.63,22.08,1.07,1.07,0,0,0,.12.24c0,.07-.08.14-.11.21-.9,1.56.13,2.55,1.39,1.06,12-13.31,10.95,4.87,6.59,12.58-2.42,5-6.36,8.26-12,7.76.45-1.22.87-2.46,1.26-3.7a.52.52,0,0,0,.32-.07c1.1-.78,2.24-1.5,3.34-2.28a2.49,2.49,0,0,0,.55-.16,5.18,5.18,0,0,0,2.91-4.21.2.2,0,0,1,0-.07c2.15-2.37,3.79-5.26,3.13-8.55l.22-.27a.76.76,0,0,0-.11-.91c-1.33-1-2.58,2.12-3.27,3a12.42,12.42,0,0,0-2.1,5.06,9.8,9.8,0,0,1-.89,4,8.8,8.8,0,0,0-3.45,2.36c.93-3.2,1.71-6.43,2.46-9.59.06-.64.7-2.74-.45-2.59-1.22,1.28-1.48,3.29-2.12,4.9-2.41,7.75-4.51,15.73-9.08,22.55-6.62,9-16.66,15.83-27.81,17.81l-.56.12c-.74.06-1.48.12-2.22.12-.51,0-1.21,0-1.86.08l-.27-.07a46.85,46.85,0,0,1-12-2.44A52.76,52.76,0,0,1,71.54,132.58ZM50.1,106.87a10.74,10.74,0,0,1-2.19-7.32l.2.2C50.86,101.94,50.31,104.57,50.1,106.87Zm97.21-3a4.85,4.85,0,0,1,.57-2.31,17.2,17.2,0,0,1,2.39-3.23c.32,2.56-1.15,4.83-2.67,6.9A10.62,10.62,0,0,1,147.31,103.84Zm-66,47.65c.67-.85.12-3.09.16-4,0-.47-.1-.94-.16-1.41a26.82,26.82,0,0,0,3.11,3c2.84,2.87,6.43,5.19,10.57,5.39,8.79.65,16.42-4.23,22.58-10.09-.3,1.15-.54,2.32-.75,3.48,0,1-.75,3,.26,3.69a4.2,4.2,0,0,0,0,.7,35.67,35.67,0,0,0,.18,4.13c.32,3.16.62,6.26.88,9.37-9,6.76-21.77,8.67-32.17,3.94-1.93-.72-3.34-2.39-5.07-3.45.06-1.24.11-2.47.17-3.71C81.12,158.86,81.46,155.16,81.29,151.49ZM116,144.15c-7.59,7.17-19.38,13.74-29.07,6.47-2.88-2-4.09-5.42-6.13-8.15a4.39,4.39,0,0,0-.44-.65c-.06-.18-.11-.36-.18-.53A52.13,52.13,0,0,0,99,146.62a1.15,1.15,0,0,0,.73-.12A24,24,0,0,0,106,146a36.22,36.22,0,0,0,12.58-4.81l-.27.71C117.57,142.68,116.81,143.44,116,144.15ZM68.94,210.46c-8.78-1.15-17.83-3-26-6.77a45.24,45.24,0,0,1-10.76-7.21h0a15.45,15.45,0,0,1,.21-1.88c2.45-13.62,16.7-26.85,28.31-35.88-1.08,1.37-2.12,2.76-3.1,4.19C53,168.58,59,174.8,63.73,178c-3.08,4.4-5.51,9.25-5.47,14.64,1.12,7,6.46,12.69,11.27,17.84Zm9-5.91c0,.41,0,.83-.09,1.24a37.7,37.7,0,0,0,0,5.42q-3-.22-5.93-.49c-13.19-16.79-16.18-18.79-2.08-37.23,2.29-3,4.58-6.06,6.73-9.19.16-.21.26-.57-.08-.65s-.59.33-.84.54a99.1,99.1,0,0,0-6.9,7.45c-1.26,1.52-2.56,3.1-3.8,4.74-.49-.49-1.28-.9-1.67-1.35-3.06-2.77-7.4-7.14-3.68-11.15,4.32-6.43,9.94-12.07,15.6-17.36,1-.93,2.21-1.91,3.35-2.81A56.9,56.9,0,0,1,79.75,151a1,1,0,0,0,.36.59,48.11,48.11,0,0,0-.73,5.86c-.86,11.2-1.42,22.44-1.56,33.68C77.77,195.63,77.78,200.09,77.91,204.55Zm41.54-3.12c0,3,0,5.93-.19,8.9,0,.56-.06,1.17,0,1.76-2.72.13-5.43.22-8.09.29-10.39.09-20.82-.28-31.2-1a1.62,1.62,0,0,0,0-.58c0-.45,0-.9,0-1.34a4.64,4.64,0,0,0,0-1.28c-.07-2.93-.07-5.86-.07-8.8-.09-10.33.3-20.64.75-31a8,8,0,0,0,.78.74c4.82,4,11.31,5.38,17.46,5.47a36.25,36.25,0,0,0,14.82-3.71,32.27,32.27,0,0,0,4.47-2.65c.23,2.86.43,5.73.58,8.66C119.37,185.08,119.52,193.26,119.45,201.43Zm8.33,10.06c-2.12.21-4.26.36-6.38.49.39-2.24.1-6,.28-6.85q.1-10.57-.3-21.15c-.46-9.18-.86-18.32-1.88-27.48-.19-.77-.3-4.24-1.12-5.37.46-.83.35-2.33.64-3.09.21-1.08.48-2.19.8-3.3,2.66,2.44,5.56,4.62,8.06,7.23a85.16,85.16,0,0,1,9.77,11.4c1.39,2,3.39,4.7,1.84,7.21a30.77,30.77,0,0,1-4.84,6.41c-.14.15-.32.31-.51.48-1.82-2.85-3.79-5.6-5.85-8.26-.17-.52-7.13-7.51-6.5-5.37,1.55,2.08,2.95,4.32,4.55,6.41,4.58,6.26,9.31,12.87,11.74,20.35.44,2.32-.55,4.62-1.55,6.66-1.86,3.57-4.06,7-6.23,10.35-.74,1.13-1.39,2.2-2.15,3.33A6.55,6.55,0,0,0,127.78,211.49Zm35.87-12.3c-9.64,7.59-21.4,10.68-33.44,12.05a4.52,4.52,0,0,1,.41-.56c2.15-3.15,4.34-6.29,6.36-9.52,2.07-3.44,4.36-7.52,3.27-11.65a60.66,60.66,0,0,0-5-10.25,44.46,44.46,0,0,0,4.67-4.94c2.56-3.31,3.54-6.93.84-10.5-.65-1-1.34-2-2-3a110.56,110.56,0,0,1,12.19,11.31,87.55,87.55,0,0,1,10.41,15.27,64,64,0,0,1,4.1,9.91,1.06,1.06,0,0,0,.09.25C164.87,198.06,164.26,198.86,163.65,199.19Z"/><path class="cls-7" d="M78.26,87.11c-1,2.23-.43,6.23,2.09,7.17,1.47.56,2.94-.47,3.7-1.68.55-.94.34-2.08.5-3.12.1-1.24.65-2.74-.15-3.84C82.59,83.5,79.2,84.74,78.26,87.11Z"/><path class="cls-7" d="M84.37,70.46A3.16,3.16,0,0,0,83,66.12c-2.12-.93-4.38.37-6.08,1.6-1.14.64-6.28,5.53-4,6.46a.88.88,0,0,0,1,.11c2.17-.74,4.57-.85,6.75-1.64C82,72.18,83.5,71.69,84.37,70.46Zm-2.31-2.65c3.8,2.69-6.26,4.3-7.85,4.82C75.88,70.47,79.09,67.24,82.06,67.81Z"/><path class="cls-7" d="M114.6,92.6c.75,1.21,2.22,2.24,3.7,1.68,2.51-.94,3.06-4.94,2.09-7.17s-4.34-3.61-6.14-1.47c-.8,1.1-.26,2.6-.15,3.84C114.25,90.52,114.05,91.66,114.6,92.6Z"/><path class="cls-7" d="M118,72.65c2.18.79,4.59.9,6.76,1.64a.86.86,0,0,0,1-.11c2.26-.93-2.88-5.82-4-6.46-1.71-1.23-4-2.53-6.09-1.6a3.17,3.17,0,0,0-1.38,4.34C115.14,71.69,116.67,72.18,118,72.65Zm-1.45-4.84c3-.57,6.19,2.66,7.85,4.82C122.85,72.11,112.78,70.5,116.58,67.81Z"/><path class="cls-7" d="M92.25,106.94c1.62,2.13,4,4.44,6.93,4.37A7.55,7.55,0,0,0,106,106.6a1.28,1.28,0,0,0,.29-.28h0a.8.8,0,0,0-.5-1.23c-1.62.21-3,1-4.74,1.19a23,23,0,0,1-7.12-.34c-.59-.08-1.2-.43-1.79-.2S91.81,106.7,92.25,106.94Zm12.49.13c-1.32,1.8-3.38,3.42-5.74,3.37a6.44,6.44,0,0,1-4.59-2.72A18.56,18.56,0,0,0,104.74,107.07Z"/><path class="cls-7" d="M95.47,122.5a39.48,39.48,0,0,0,15.6-2.75c1.34-.62,3-1.26,4.34-2a.91.91,0,0,0,.33-.37,4.74,4.74,0,0,1,.93.56.62.62,0,0,0,.77-.77c-.1-.28-.35-.42-.51-.65-.92-1.07-2.38-2.71-4-2.22-.88.69-.31,1.36.62,1.95a26.9,26.9,0,0,1-2.61,1.48,29.84,29.84,0,0,1-8.74,2.83,43.84,43.84,0,0,1-9.85,0c-1.19-.9-2.55.27-1.4,1.32A16,16,0,0,0,95.47,122.5Z"/><path class="cls-8" d="M62.18,180.4c-1.65-1.72-4.87-5.13-7.6-8.55-1.6-2-4.17-2.34-6.65-2.06a142.78,142.78,0,0,1,12.75-11.08c-1.07,1.37-2.12,2.76-3.1,4.19C53,168.58,59,174.8,63.73,178,63.19,178.81,62.67,179.59,62.18,180.4Z"/><path class="cls-8" d="M69.53,210.51l-.58-.06c-2-.26-4-.56-6.06-.91A78.48,78.48,0,0,1,58.44,198a15.87,15.87,0,0,1,.62-10.77,18.92,18.92,0,0,0-.8,5.48C59.37,199.62,64.72,205.36,69.53,210.51Z"/><path class="cls-8" d="M140.37,193.45a14.93,14.93,0,0,1-.69,7.41c-.68,1.73-1.87,5.43-3.11,9.47q-3.16.55-6.35.91a2.78,2.78,0,0,1,.4-.56c2.15-3.15,4.34-6.29,6.37-9.52A24,24,0,0,0,140.37,193.45Z"/><path class="cls-8" d="M150.13,171.3a11.1,11.1,0,0,0-5.61,2.48c-1.6,1.61-5,5.29-7.69,8.25-.5-.93-1-1.86-1.57-2.77a44.52,44.52,0,0,0,4.67-4.94c2.57-3.31,3.54-6.93.84-10.5-.65-1-1.34-2-2-3A117.36,117.36,0,0,1,150.13,171.3Z"/><path class="cls-9" d="M152.67,72.07c0,2.34-.06,4.68-.14,7-.69,3-1.44,6.1-2.33,9.11a4.93,4.93,0,0,0-.36,1.63c-.34.08-.7.18-1.06.29a13,13,0,0,0-4,3.06c-.64-2.3-1.28-4.61-1.76-7a37.93,37.93,0,0,1-.29-14.13c-1-3-2.89-6-2.61-9.31,0-.48,0-1.16-.44-1.42-.89-.81-2.9.64-4.06.81A25.68,25.68,0,0,1,122.2,63c4-2,8.13-4.28,10.77-8,.63-.94-.22-2.31-1.32-1.73-1.21,1.45-3.08,2-4.79,2.68a26.51,26.51,0,0,1-8.47,1.52,29.82,29.82,0,0,0,5.55-4.27,21.75,21.75,0,0,0,3.17-4c1.18-1,2.06-2.25.92-2.78a1.06,1.06,0,0,0-.55.15,26.34,26.34,0,0,1-4.2,2.86c-3,1.52-6.54,1.8-9.75,2.68-5,3.89-11.45,5.44-17.77,5.31a55.32,55.32,0,0,0,5.5-5.54.77.77,0,0,0,.15-.3c.15-.15.3-.32.44-.48a15.42,15.42,0,0,0,3-2,8,8,0,0,0,1.74-2,.35.35,0,0,0-.47-.49c-1.77.84-3.42,1.92-5.24,2.66-3.63,1.45-7.52,2-11.33,2.85a2,2,0,0,0-1.76,1.24C82.51,60.42,74,64.36,65.59,66.75c.92-2.6,2.08-5.1,3-7.69.2-.54.57-1.19.16-1.73s-1.45-.24-1.8.4a35.9,35.9,0,0,1-3,3.88,51,51,0,0,1-6.57,6.21c-.4.44-1.28.85-1.89,1.35a1.26,1.26,0,0,0-.68,1.28,56.66,56.66,0,0,1-.44,19.65c-.21,1.53-.53,3-.82,4.55a19.32,19.32,0,0,0-3.79-3.86,63.27,63.27,0,0,1-1.15-11.47c0-6.18,1.53-12.54,5.29-17.44a28.81,28.81,0,0,0-6.39,6.65c-.28-4.1,1.34-8.06,3.11-11.76,6.58-13.71,16.7-27,31.26-31.41,9.73-2.95,20.17-1.59,30.24-.21-1.64-2-3.3-4-4.94-6,5.72,1.85,11.52,3.73,16.58,7s9.37,8.08,10.68,14c-.64,0,0,.28-.59.28A37.2,37.2,0,0,1,147.68,52.5a27.54,27.54,0,0,1,3.88,8A41,41,0,0,1,152.67,72.07Z"/></g></g></svg>