<svg xmlns="http://www.w3.org/2000/svg" viewBox="0 0 201.09 214.62"><defs><style>.cls-1{fill:#c5edd0;}.cls-2{fill:#fff4ee;}.cls-3{fill:#ffe2cc;}.cls-4{fill:#ffb9a1;}.cls-5{fill:#c66a2c;}.cls-6{fill:#ffb864;}.cls-7{fill:#f78834;}.cls-8{fill:#ea63a1;}.cls-9{fill:#c94b93;}.cls-10{fill:#440829;}</style></defs><g id="Layer_2" data-name="Layer 2"><g id="Objects"><path class="cls-1" d="M0,100.55A100.55,100.55,0,1,1,100.55,201.09,100.55,100.55,0,0,1,0,100.55"/><path class="cls-2" d="M111.25,83.7c-2.82,2-4.17,5.25-4.91,8.56-.17,7.69,4.61,15.41,13.24,14.65,9.07-.71,14-8.41,12.65-16.85a16.91,16.91,0,0,0-2.5-3.75A15,15,0,0,0,111.25,83.7Zm5.42,13.88c-2.45,1.85-4.24-2.46-3.65-4.45a1.7,1.7,0,0,1,3.06-.65C117.14,93.8,117.67,96.11,116.67,97.58Z"/><path class="cls-3" d="M65.51,91.4a18.15,18.15,0,0,1,1.41-3.78C73,76.16,93.08,76.16,95.62,90.25c0,.4.18,1.18.28,2a2.6,2.6,0,0,1,.34-.16c2.32-.91,5.93-1.31,8.2.14.1-.81.24-1.58.27-2,2.54-14.09,22.65-14.09,28.7-2.63a15.57,15.57,0,0,1,1.48,4.2c.12,0,.24.07.36.09.91.24,1.86.4,2.76.7a44.61,44.61,0,0,0-4.39-19c-4.23-7.95-10-15.32-18.16-19.3a39.5,39.5,0,0,0-18-3.12c-4,.28-7.81,1.93-11.23,3.6C73.35,61.31,63.82,74.36,62.47,88.72a35.2,35.2,0,0,0-.32,4.1c1-.51,2-1,2.83-1.35A1.58,1.58,0,0,1,65.51,91.4Zm55.37-24.15a8.63,8.63,0,0,1,3.52,5.64c0,.49.09,1.17-.41,1.43a.67.67,0,0,1-.79-.16,1.22,1.22,0,0,1-.81-.16c-1.59-.8-3.16-1.66-4.82-2.32-1.5-.82-4.32-.69-4.44-2.94C113.52,65.1,118.7,65.3,120.88,67.25ZM75.93,72.89a8.68,8.68,0,0,1,3.53-5.64c2.17-2,7.36-2.15,7.74,1.49-.12,2.25-2.93,2.12-4.43,2.94C81.11,72.34,79.54,73.2,78,74a1.25,1.25,0,0,1-.82.16.66.66,0,0,1-.78.16C75.84,74.06,75.91,73.38,75.93,72.89Z"/><path class="cls-4" d="M104.07,109.61a8.8,8.8,0,0,1-6.62.62c1,.87,2,2.06,3.43,1.92A4.69,4.69,0,0,0,104.07,109.61Z"/><path class="cls-5" d="M82.35,67.88a5.62,5.62,0,0,0-5,4.69,25.46,25.46,0,0,1,7.87-3.7C84.92,67.77,83.29,67.79,82.35,67.88Z"/><path class="cls-6" d="M98.56,188.8a.35.35,0,0,1-.18,0l-.8-.1c-1.52-.11-3.07-.27-4.66-.51-2-.2-4-.39-6-.62a128.47,128.47,0,0,1-14.54-4.07c-9.33-3.34-18.77-7.48-26.31-14a67.32,67.32,0,0,0-10.79,17.68,83.3,83.3,0,0,0-2.9,7.82c0,.06,0,.11-.05.17,12,9.22,27.09,12.72,41.77,14.86A228.89,228.89,0,0,0,99,212.17c.06-2.8.1-5.59.14-8.38.07-4,.06-7.95.17-11.92.09-1,0-2,.12-3h-.18Z"/><path class="cls-3" d="M95.64,144.68a25.74,25.74,0,0,0,7.86.2c.71-.19,1.43-.37,2.14-.5,7.14-1.89,13.88-5.49,18.75-11.08,5.47-6.37,7-14.71,9.46-22.43,1.28-4.45,2.68-8.9,3.93-13.39a13.13,13.13,0,0,0,.19-1.93v-.31a4,4,0,0,1-.83-.21c-.72-.26-1.74-.74-2.45-1.07.06,7.73-6.83,14.87-14.73,15.26-8.17,1-15.66-6.27-15.55-14.19h0l-.15,0a3.62,3.62,0,0,1-1.07-.55c-2.08-1.41-5.61-1.45-7.23-.06.55,8.16-7.15,15.91-15.54,14.83-7.85-.38-14.71-7.46-14.72-15.15l-.24.13c-1,.47-1.88,1-2.81,1.47,1.38,5.29,3,10.52,4.49,15.77,2,6.39,3.82,12.91,7.56,18.46C79.51,137.08,87.07,143,95.64,144.68Zm.09-36.14c.69,0,1.35.49,2,.62a7.5,7.5,0,0,0,4-.1c1.25-.2,2.32-1.08,3.54-1.22,1.18.47.36,2.09-.12,2.83a4.53,4.53,0,0,1-5,2.31,7.44,7.44,0,0,1-3.77-2.77,1,1,0,0,1-.26-.63C95.81,109.37,95.27,108.8,95.73,108.54Zm-4.11,14.13c.7-.19,1,.53.69,1,.31.31.58.7.87,1a8.48,8.48,0,0,0,5.12,2.94,10.69,10.69,0,0,0,10.38-5.55,1,1,0,0,1,.11-.2c-.41-.39-.59-.81,0-1.19,1.07-.26,1.75.9,2.27,1.63a.51.51,0,0,1-.71.69,3.09,3.09,0,0,0-.39-.28,6,6,0,0,1-.42.72c-2.39,3.92-7,6.56-11.61,5.59a9.26,9.26,0,0,1-6.27-3.78l-.28-.4a.81.81,0,0,1-1,.29C89.61,124.46,90.91,122.93,91.62,122.67Z"/><path class="cls-7" d="M50.3,169c-.36-.35-1.2-1.09-2-1.92l-.26.24c-.3.31-.57.63-.86.94,7.2,7,16.29,11.3,25.78,14.31C64.34,179.09,56.23,174.36,50.3,169Z"/><path class="cls-5" d="M118,67.88c-.94-.09-2.58-.11-2.87,1a25.35,25.35,0,0,1,7.87,3.7A5.6,5.6,0,0,0,118,67.88Z"/><path class="cls-2" d="M89.08,83.7A15,15,0,0,0,70.6,86.31a16.87,16.87,0,0,0-2.49,3.75c-1.4,8.44,3.57,16.14,12.64,16.85,8.64.76,13.42-7,13.24-14.65C93.25,89,91.91,85.71,89.08,83.7ZM83.66,97.58c-1-1.47-.46-3.78.59-5.1a1.71,1.71,0,0,1,3.07.65C87.9,95.12,86.11,99.43,83.66,97.58Z"/><path class="cls-8" d="M135,180.59a77.39,77.39,0,0,1-12.36,4.91c0,3.85-.27,7.7-.54,11.54a25.16,25.16,0,0,1-1.21,6.06c-.21,2.29-.74,4.61-2.23,4.09a4.06,4.06,0,0,1-.85-2.55,55.39,55.39,0,0,1-.48-13.06c.12-.64.07-3.13.41-4.78a78,78,0,0,1-16.09,2,9.23,9.23,0,0,1,0,1.28q-.06,4.5-.14,9c0,3.86-.12,7.72-.26,11.57,0,.39,0,1-.07,1.55a168,168,0,0,0,18.5-.65,111.06,111.06,0,0,0,14.53-2.23c.23-2.3.59-4.61.66-6.92C135.23,195.15,134.82,187.86,135,180.59Z"/><path class="cls-8" d="M138.81,149.88c-.77-.59-.28-1.39-.27-2.16a12.41,12.41,0,0,0-1.55-5.58c-.08-.16-.17-.3-.27-.46-.85,1.23-1.7,2.46-2.53,3.69-.85.95-1.52,3.24-3.09,2.42a1.17,1.17,0,0,1-.35-1.63c1.72-2.58,3.54-5.12,5.27-7.7,1.25-1.85,2.45-3.71,3.55-5.65a37.78,37.78,0,0,0,2.57-5.62,17.06,17.06,0,0,0,1-6.17c0-1.21,0-2.37,0-3.53.23-.76.64-1.48.93-2.22,4.58-11.4,9.35-23.2,9.28-35.65-.42-7.78-1.19-15.47-4.09-22.68a57.2,57.2,0,0,0-6.2-10.25,44.62,44.62,0,0,0-20.47-15.51,55.48,55.48,0,0,0-19.73-4.31,2.72,2.72,0,0,0-.46-.06l-.74,0-1.36,0c-.33,0-.65,0-1,0a49.8,49.8,0,0,0-13.31,2.34C76.47,32.09,67,36.62,60.32,44.29a48.06,48.06,0,0,0-4.81,7.09C48.12,64.69,47,81.13,50.11,95.87c1.29,5.93,3.55,11.56,5.77,17.17.6,1.66,1.17,3.32,1.76,5,.64,0,.89,1.21.74,2-1.68,9.06,4.56,16.77,10.49,22.84.44.47.91.93,1.31,1.44a1.19,1.19,0,0,1-1.7,1.62c-1.21-1.25-2.51-2.63-3.82-4.12a2.89,2.89,0,0,0-.67,1,14.07,14.07,0,0,0-1.74,5.77,2.81,2.81,0,0,1-.45,1.32c-.44.71-1.39.82-2.1,1-1.21.33-2.4.64-3.54,1.05a14.56,14.56,0,0,0-2.67,1.22c-3.93,2.28-6.14,7.56-4.31,11.83a6.69,6.69,0,0,0,.76.75,61.58,61.58,0,0,0,9,7.1c2.57,1.57,5.28,3.07,8.08,4.44,10,4.94,21.09,8.52,31.84,9.22,11.36.36,22.64-2.46,33-6.93a74.43,74.43,0,0,0,12.95-7.79c2-1.41,3.86-2.89,5.75-4.4.15-.33.41-.64.59-1,1.18-2.2.78-4.85-.18-7.07C148.86,154.14,143.29,152.4,138.81,149.88ZM61.73,122.71c-.39-.57-1.76-3-.71-2.63,1.34,1.15,2.5,2.54,3.8,3.75,2.55,2.4,5.19,5,8,7.49a42.34,42.34,0,0,1-5.48-11.48c-4-12.46-8.09-25.09-9.85-38.09a53.64,53.64,0,0,1,.88-15.22,50.65,50.65,0,0,1,1.43-6.22c.58-1.82,1.26-3.15,1.88-2.43a.49.49,0,0,1,0,.12c.32,1.74-.45,3.55-.63,5.29a73.84,73.84,0,0,0-1.35,16.47c.21,2.48.56,4.92,1,7.34.28-2.26.76-4.5,1.23-6.64C65.58,67,76.41,55.76,89.36,50.78c.38-.17.77-.32,1.15-.46a27.37,27.37,0,0,1,10.1-1.58,47.35,47.35,0,0,1,12,1.91c11.51,3.7,19.63,14,24.39,24.7A51,51,0,0,1,140.08,88,72.67,72.67,0,0,0,141.31,79c.47-6.22-.55-12.38-1.81-18.46l-.06-.28c-.05-.9-.81-3.3.29-3.15a8.55,8.55,0,0,1,1.94,3.94c.24.91.43,1.83.66,2.68a48.79,48.79,0,0,1,1.37,14.84c-.78,12.23-5,23.88-8.39,35.58-1.7,5.77-3.3,11.84-6.43,17,3.82-3.71,7.4-7.68,11-11.53.2-.19.32-.55.65-.49a.35.35,0,0,1,.21.47,12.84,12.84,0,0,1-.69,1.39c-3.88,6.67-9.84,12-15.76,16.8-5.2,4-10.91,7.91-17.41,9a27.67,27.67,0,0,1-9.25.73,17.94,17.94,0,0,1-4.51-1A32.22,32.22,0,0,1,83.31,142a54.46,54.46,0,0,1-9.06-6.63C69.84,131.43,65.18,127.58,61.73,122.71Zm49.45,48.22c-14.85-1.49-28.92-8.69-37.58-21-.29-.29.1-.73.39-.3,3.25,2.89,6.69,5.6,10.13,8.28.23.18.48.35.71.52a35.43,35.43,0,0,0,16.32,2.79,46,46,0,0,0,16.3-4.52c1.75-.84,3.53-1.64,5.32-2.4a.78.78,0,0,1,1,.32.8.8,0,0,1-.29,1.07c-.35.23-.7.48-1,.72a23.08,23.08,0,0,1-18.8,10.23l-2.73-.1a59,59,0,0,0,24.68,1.92,67.25,67.25,0,0,0,12.58-4.4.3.3,0,0,1,.3.52A39,39,0,0,1,111.18,170.93Z"/><path class="cls-9" d="M119.56,205.17c.22-.68.43-1.37.6-2.06s.21-1.55.32-2.33l.09-1.44a.2.2,0,0,1,.12-.18c.6-4.49,1.13-9,1.31-13.48-.85.25-1.7.48-2.55.7a26.3,26.3,0,0,1,0,3.66C119.45,195.08,119.4,200.13,119.56,205.17Z"/><path class="cls-6" d="M154.47,170c-.47-.64-1.19-1.18-1.69-1.83-1,1.31-3.43,2.79-4,3.45A73,73,0,0,1,137,179.52c0,.2.05.4.06.59,0,3.54.16,7.08.19,10.62a98.92,98.92,0,0,1-.8,17,6.73,6.73,0,0,0-.14,1.09,120.63,120.63,0,0,0,26.41-9.78c2-1,4.07-2.08,6-3.24-2.84-6.42-5.28-13.2-9.19-19.06A70.47,70.47,0,0,0,154.47,170Z"/><path class="cls-9" d="M112.31,163.92a24.66,24.66,0,0,0,8-6.16c-8,4.46-17.47,6.75-26.6,5.47l-1.61-.3a51.85,51.85,0,0,0,7.12,3l3.09.11A23.18,23.18,0,0,0,112.31,163.92Z"/><path class="cls-10" d="M83.31,142a32.59,32.59,0,0,0,9.82,4.57,18.24,18.24,0,0,0,4.51,1,28,28,0,0,0,9.25-.73c6.5-1.08,12.21-5,17.4-9,5.92-4.84,11.89-10.14,15.77-16.79a12.12,12.12,0,0,0,.69-1.4.34.34,0,0,0-.22-.46c-.33-.07-.44.3-.64.48-3.61,3.85-7.19,7.82-11,11.52,3.14-5.16,4.73-11.23,6.44-17,3.34-11.7,7.6-23.35,8.38-35.58a48.79,48.79,0,0,0-1.37-14.84c-.61-2.23-.92-4.93-2.6-6.62-1.1-.15-.33,2.24-.29,3.16,1.29,6.16,2.35,12.41,1.87,18.73a72.83,72.83,0,0,1-1.23,9A50.63,50.63,0,0,0,137,75.35c-4.76-10.71-12.88-21-24.39-24.69-7.52-2.12-15.9-3-23.26.12-13,5-23.78,16.22-27.46,29.68-.47,2.14-.95,4.38-1.23,6.64-.44-2.42-.79-4.86-1-7.33A74.43,74.43,0,0,1,61,63.29c.18-1.78,1-3.63.61-5.41-1.41-1.64-3.09,7.31-3.3,8.65a53.64,53.64,0,0,0-.88,15.22c1.76,13,5.86,25.63,9.86,38.09a41.59,41.59,0,0,0,5.47,11.48c-2.76-2.51-5.41-5.09-8-7.5-1.3-1.2-2.45-2.59-3.8-3.73-1.05-.38.32,2,.71,2.63,3.45,4.86,8.1,8.71,12.52,12.67A55,55,0,0,0,83.31,142ZM62.47,88.72c1.35-14.36,10.88-27.41,23.71-33.94,3.42-1.67,7.28-3.32,11.23-3.6a39.5,39.5,0,0,1,18,3.12c8.2,4,13.93,11.35,18.16,19.3a44.61,44.61,0,0,1,4.39,19c-.9-.3-1.85-.46-2.76-.7-.12,0-.24-.06-.36-.09a15.57,15.57,0,0,0-1.48-4.2c-6-11.46-26.16-11.46-28.7,2.63,0,.4-.17,1.17-.27,2-2.27-1.45-5.88-1-8.2-.14a2.6,2.6,0,0,0-.34.16c-.1-.82-.25-1.6-.28-2C93.08,76.16,73,76.16,66.92,87.62a18.15,18.15,0,0,0-1.41,3.78,1.58,1.58,0,0,0-.53.07c-.82.37-1.87.84-2.83,1.35A35.2,35.2,0,0,1,62.47,88.72Zm57.11,18.19c-8.63.76-13.41-7-13.24-14.65.74-3.31,2.09-6.55,4.91-8.56a15,15,0,0,1,18.48,2.61,16.91,16.91,0,0,1,2.5,3.75C133.63,98.5,128.65,106.2,119.58,106.91ZM94,92.26c.18,7.69-4.6,15.41-13.24,14.65-9.07-.71-14-8.41-12.64-16.85a16.87,16.87,0,0,1,2.49-3.75A15,15,0,0,1,89.08,83.7C91.91,85.71,93.25,89,94,92.26Zm-26.9,19.18C65.6,106.19,64,101,62.6,95.67c.93-.5,1.86-1,2.81-1.47l.24-.13c0,7.69,6.87,14.77,14.72,15.15,8.39,1.08,16.09-6.67,15.54-14.83,1.62-1.39,5.15-1.35,7.23.06a3.62,3.62,0,0,0,1.07.55l.15,0h0c-.11,7.92,7.38,15.24,15.55,14.19,7.9-.39,14.79-7.53,14.73-15.26.71.33,1.73.81,2.45,1.07a4,4,0,0,0,.83.21v.31a13.13,13.13,0,0,1-.19,1.93c-1.25,4.49-2.65,8.94-3.93,13.39-2.49,7.72-4,16.06-9.46,22.43-4.87,5.59-11.61,9.19-18.75,11.08-.71.13-1.43.31-2.14.5a25.74,25.74,0,0,1-7.86-.2c-8.57-1.67-16.13-7.6-21-14.78C70.91,124.35,69.14,117.83,67.09,111.44Z"/><path class="cls-10" d="M96.08,109.58a1,1,0,0,0,.26.63,7.44,7.44,0,0,0,3.77,2.77,4.53,4.53,0,0,0,5-2.31c.48-.74,1.3-2.36.12-2.83-1.22.14-2.29,1-3.54,1.22a7.5,7.5,0,0,1-4,.1c-.64-.13-1.3-.66-2-.62C95.27,108.8,95.81,109.37,96.08,109.58Zm8,0a4.69,4.69,0,0,1-3.19,2.54c-1.41.14-2.45-1.05-3.43-1.92A8.8,8.8,0,0,0,104.07,109.61Z"/><path class="cls-10" d="M91.37,124.84l.28.4A9.26,9.26,0,0,0,97.92,129c4.63,1,9.22-1.67,11.61-5.59a6,6,0,0,0,.42-.72,3.09,3.09,0,0,1,.39.28.51.51,0,0,0,.71-.69c-.52-.73-1.2-1.89-2.27-1.63-.58.38-.4.8,0,1.19a1,1,0,0,0-.11.2,10.69,10.69,0,0,1-10.38,5.55,8.48,8.48,0,0,1-5.12-2.94c-.29-.26-.56-.65-.87-1,.29-.51,0-1.23-.69-1s-2,1.79-1.22,2.46A.81.81,0,0,0,91.37,124.84Z"/><path class="cls-10" d="M76.35,74.32a.66.66,0,0,0,.78-.16A1.25,1.25,0,0,0,78,74c1.59-.8,3.16-1.66,4.82-2.32,1.5-.82,4.31-.69,4.43-2.94-.38-3.64-5.57-3.44-7.74-1.49a8.68,8.68,0,0,0-3.53,5.64C75.91,73.38,75.84,74.06,76.35,74.32Zm6-6.44c.94-.09,2.57-.11,2.86,1a25.46,25.46,0,0,0-7.87,3.7A5.62,5.62,0,0,1,82.35,67.88Z"/><path class="cls-10" d="M84.25,92.48c-1,1.32-1.58,3.63-.59,5.1,2.45,1.85,4.24-2.46,3.66-4.45A1.71,1.71,0,0,0,84.25,92.48Z"/><path class="cls-10" d="M117.57,71.68c1.66.66,3.23,1.52,4.82,2.32a1.22,1.22,0,0,0,.81.16.67.67,0,0,0,.79.16c.5-.26.43-.94.41-1.43a8.63,8.63,0,0,0-3.52-5.64c-2.18-2-7.36-2.15-7.75,1.49C113.25,71,116.07,70.86,117.57,71.68Zm.42-3.8a5.6,5.6,0,0,1,5,4.69,25.35,25.35,0,0,0-7.87-3.7C115.41,67.77,117.05,67.79,118,67.88Z"/><path class="cls-10" d="M113,93.13c-.59,2,1.2,6.3,3.65,4.45,1-1.47.47-3.78-.59-5.1A1.7,1.7,0,0,0,113,93.13Z"/><path class="cls-10" d="M138.13,164a67.06,67.06,0,0,1-12.56,4.4,58.76,58.76,0,0,1-24.69-1.93l2.73.11a23.09,23.09,0,0,0,18.8-10.23c.35-.24.7-.49,1.06-.72a.79.79,0,0,0,.28-1.07.78.78,0,0,0-1-.32q-2.68,1.14-5.33,2.41a45.9,45.9,0,0,1-16.29,4.5,35.42,35.42,0,0,1-16.32-2.78c-.24-.17-.48-.34-.71-.52-3.44-2.68-6.89-5.39-10.14-8.28-.29-.44-.68,0-.38.3,8.66,12.35,22.72,19.55,37.58,21a39,39,0,0,0,27.26-6.38A.31.31,0,0,0,138.13,164Zm-46.07-1.09,1.61.3c9.13,1.28,18.6-1,26.6-5.47a24.66,24.66,0,0,1-8,6.16,23.18,23.18,0,0,1-10,2.13l-3.09-.11A51.85,51.85,0,0,1,92.06,162.93Z"/><path class="cls-10" d="M170.75,195.22c-.72-3-2.22-5.77-3.38-8.6a81.57,81.57,0,0,0-5.7-10.83c-.69-.92-5.34-8.17-7.88-9.55a11.53,11.53,0,0,0,.43-2.41c.22-8.35-7.32-13-14.15-15.88.26-2.71-.21-6-2.1-8.09a59.7,59.7,0,0,0,5.53-9.58,22.66,22.66,0,0,0,1.55-11c.63-1.72,1.53-3.39,2.16-5.13,4.15-10.9,8.56-22.19,8.55-34A81.18,81.18,0,0,0,152.29,58c-5-12.08-14-22.94-26.35-28a57.88,57.88,0,0,0-21.36-5.35h-.14c-5.87-.74-12,.3-17.66,1.87-11.54,3.3-23.19,8.9-30.32,18.91C47,58.76,44.68,75.94,46.92,91.87c1.09,7.6,3.78,14.81,6.64,21.89.85,2.33,1.67,4.7,2.5,7-1.56,6.74,2.51,13.62,7.17,19.28a3.4,3.4,0,0,0-.25.31c-2.11,2.12-2.08,5.07-2.47,7.8-3.91,1-8.22,2-11,5.15-2.46,2.85-4.17,7.4-2.92,11.1a2.42,2.42,0,0,0,.43,1.07,23,23,0,0,0-4,4.1,73,73,0,0,0-11,20c-.17.92-1.5,3.46-1.56,5a.7.7,0,0,0-.19.36,2.38,2.38,0,0,0,.95,2,23,23,0,0,0,3.43,2.64C52.88,211.17,75.87,213.11,97,214.45c20.51.9,41.37-1.69,60.23-10.14a99.63,99.63,0,0,0,13.71-7.14A1.12,1.12,0,0,0,170.75,195.22ZM48,167.34l.26-.24c.8.83,1.64,1.57,2,1.92,5.93,5.34,14,10.07,22.66,13.57-9.49-3-18.58-7.32-25.78-14.31C47.47,168,47.74,167.65,48,167.34Zm51.29,24.53c-.11,4-.1,7.95-.17,11.92,0,2.79-.08,5.58-.14,8.38A228.89,228.89,0,0,1,74.1,210c-14.68-2.14-29.79-5.64-41.77-14.86,0-.06,0-.11.05-.17a83.3,83.3,0,0,1,2.9-7.82,67.32,67.32,0,0,1,10.79-17.68c7.54,6.55,17,10.69,26.31,14a128.47,128.47,0,0,0,14.54,4.07c2,.23,4,.42,6,.62,1.59.24,3.14.4,4.66.51l.8.1a.35.35,0,0,0,.18,0l.71,0h.18C99.33,189.84,99.42,190.9,99.33,191.87Zm-.49-5.38c-13.78-.89-28.2-6.52-39.93-13.66a61.57,61.57,0,0,1-9-7.09,7.78,7.78,0,0,1-.76-.76c-1.83-4.27.38-9.54,4.31-11.83a24.51,24.51,0,0,1,6.22-2.27c.69-.21,1.65-.33,2.09-1a3.06,3.06,0,0,0,.46-1.34A13.63,13.63,0,0,1,64,142.77a2.93,2.93,0,0,1,.67-1c1.3,1.49,2.61,2.87,3.82,4.12a1.19,1.19,0,0,0,1.69-1.62,17.6,17.6,0,0,0-1.3-1.44c-5.93-6.07-12.16-13.78-10.49-22.84.16-.77-.11-1.93-.74-2-.59-1.65-1.16-3.32-1.76-5a110.68,110.68,0,0,1-5.77-17.17c-3.67-17.49-1.42-37.39,10.21-51.58C67,36.62,76.47,32.09,86,29.17a49.94,49.94,0,0,1,13.32-2.34c.32,0,.65,0,1,0l1.36,0,.74,0a2.85,2.85,0,0,1,.47.06,55.31,55.31,0,0,1,19.73,4.31c12.09,4.28,21.25,14.31,26.66,25.76,2.89,7.22,3.67,14.9,4.09,22.68.07,12.45-4.7,24.25-9.28,35.65-.29.74-.7,1.46-.93,2.22,0,1.17,0,2.32,0,3.53.14,4.25-1.59,8.08-3.6,11.79-2.65,4.64-5.86,8.92-8.82,13.35a1.2,1.2,0,0,0,.34,1.64c1.59.82,2.25-1.48,3.1-2.43.83-1.24,1.69-2.46,2.54-3.69a12.54,12.54,0,0,1,1.81,6c0,.77-.5,1.57.27,2.17,4.48,2.51,10.05,4.24,12.14,9.45,1,2.22,1.37,4.87.18,7.07-.18.32-.44.63-.6,1-5.8,4.67-11.9,9.09-18.69,12.21C121.48,184,110.19,186.84,98.84,186.49Zm20.61-.11c.85-.22,1.7-.45,2.55-.7-.18,4.51-.71,9-1.31,13.48a.2.2,0,0,0-.12.18l-.09,1.44c-.11.78-.21,1.55-.32,2.33s-.38,1.38-.6,2.06c-.16-5-.11-10.09-.07-15.13A26.3,26.3,0,0,0,119.45,186.38Zm15.4,16c-.07,2.31-.43,4.62-.66,6.92a111.06,111.06,0,0,1-14.53,2.23,168,168,0,0,1-18.5.65c0-.57,0-1.16.07-1.55.14-3.85.21-7.71.26-11.57q.08-4.5.14-9a9.23,9.23,0,0,0,0-1.28,78,78,0,0,0,16.09-2c-.34,1.65-.29,4.14-.41,4.78a55.39,55.39,0,0,0,.48,13.06,4.06,4.06,0,0,0,.85,2.55c1.49.52,2-1.8,2.23-4.09a25.16,25.16,0,0,0,1.21-6.06c.27-3.84.52-7.69.54-11.54A77.39,77.39,0,0,0,135,180.59C134.82,187.86,135.23,195.15,134.85,202.42Zm27.88-3.35a120.63,120.63,0,0,1-26.41,9.78,6.73,6.73,0,0,1,.14-1.09,98.92,98.92,0,0,0,.8-17c0-3.54-.18-7.08-.19-10.62,0-.19,0-.39-.06-.59a73,73,0,0,0,11.76-7.86c.58-.66,3-2.14,4-3.45.5.65,1.22,1.19,1.69,1.83a70.47,70.47,0,0,1,5.07,6.73c3.91,5.86,6.35,12.64,9.19,19.06C166.8,197,164.74,198,162.73,199.07Z"/><path class="cls-9" d="M61,63.29c.18-1.74.95-3.55.63-5.29l.09-.09c.24,1.68-.35,3.36-.39,5.06s.79,3.7,2.46,4,3.11-1.49,4.14-3A32,32,0,0,1,79.83,53.83a45,45,0,0,1,10.68-3.51c-.38.14-.77.29-1.15.46-13,5-23.78,16.22-27.46,29.68-.47,2.14-.95,4.38-1.23,6.64-.44-2.42-.79-4.86-1-7.34A73.84,73.84,0,0,1,61,63.29Z"/><path class="cls-9" d="M112.62,50.65a47.35,47.35,0,0,0-12-1.91,23.68,23.68,0,0,1,8.14.61c10.76,3,21.17,7.53,27.21,16.91.46.71,1.06,1.52,1.9,1.43,1-.1,1.35-1.44,1.4-2.48l.24-4.63c1.26,6.08,2.28,12.24,1.81,18.46A72.67,72.67,0,0,1,140.08,88,51,51,0,0,0,137,75.35C132.25,64.64,124.13,54.35,112.62,50.65Z"/><path class="cls-9" d="M142.68,164.79a3.39,3.39,0,0,0,.47-5.44c-1.22-1.62-2.53-3.31-4.4-4.07s-4.14-.48-6-1.37a1.82,1.82,0,0,1-.92-.83,2.08,2.08,0,0,1,0-1.41c1-3.47,3.19-6.44,5.1-9.53-.08-.16-.17-.3-.27-.46-.85,1.23-1.7,2.46-2.53,3.69-.85.95-1.52,3.24-3.09,2.42a1.17,1.17,0,0,1-.35-1.63c1.72-2.58,3.54-5.12,5.27-7.7a54.59,54.59,0,0,1-12.29,7.7c-1.5.68-3.4,1.26-4.68.23,8.14-5.86,16.38-11.82,23.09-19.2a17.06,17.06,0,0,0,1-6.17c0-1.21,0-2.37,0-3.53.23-.76.64-1.48.93-2.22,4.58-11.4,9.35-23.2,9.28-35.65-.42-7.78-1.19-15.47-4.09-22.68a57.2,57.2,0,0,0-6.2-10.25c2.65,5.52,4.38,11.35,3.8,17.38a1.87,1.87,0,0,1-.69,1.53c-.83.5-1.79-.38-2.33-1.17-.76-1.1-1.5-2.21-2.2-3.34.24.91.43,1.83.66,2.68a48.79,48.79,0,0,1,1.37,14.84c-.78,12.23-5,23.88-8.39,35.58-1.7,5.77-3.3,11.84-6.43,17,3.82-3.71,7.4-7.68,11-11.53.2-.19.32-.55.65-.49a.35.35,0,0,1,.21.47,12.84,12.84,0,0,1-.69,1.39c-3.88,6.67-9.84,12-15.76,16.8-5.2,4-10.91,7.91-17.41,9a27.67,27.67,0,0,1-9.25.73,17.94,17.94,0,0,1-4.51-1A32.22,32.22,0,0,1,83.31,142a54.46,54.46,0,0,1-9.06-6.63c-4.41-3.95-9.07-7.8-12.52-12.67-.39-.57-1.76-3-.71-2.63,1.34,1.15,2.5,2.54,3.8,3.75,2.55,2.4,5.19,5,8,7.49a42.34,42.34,0,0,1-5.48-11.48c-4-12.46-8.09-25.09-9.85-38.09a53.64,53.64,0,0,1,.88-15.22,50.65,50.65,0,0,1,1.43-6.22c-2.07,2.91-3.54,6.27-5.29,9.41-.12.2-.24.42-.47.48a.75.75,0,0,1-.75-.36,4.72,4.72,0,0,1-.71-3,50.68,50.68,0,0,1,3-15.49C48.12,64.69,47,81.13,50.11,95.87c1.29,5.93,3.55,11.56,5.77,17.17.6,1.66,1.17,3.32,1.76,5,.64,0,.89,1.21.74,2-1.68,9.06,4.56,16.77,10.49,22.84.44.47.91.93,1.31,1.44a1.19,1.19,0,0,1-1.7,1.62c-1.21-1.25-2.51-2.63-3.82-4.12a2.89,2.89,0,0,0-.67,1,14.07,14.07,0,0,0-1.74,5.77,2.81,2.81,0,0,1-.45,1.32c-.44.71-1.39.82-2.1,1-1.21.33-2.4.64-3.54,1.05a6.59,6.59,0,0,0,5.36-.94,7.22,7.22,0,0,1,2.4-1.5c2-.47,3.54,1.6,4.66,3.31a45.88,45.88,0,0,0,15.88,14.31,102.35,102.35,0,0,0,19.89,8.24A78.34,78.34,0,0,1,67,177.27c10,4.94,21.09,8.52,31.84,9.22,11.36.36,22.64-2.46,33-6.93a74.43,74.43,0,0,0,12.95-7.79,68.83,68.83,0,0,1-9.29.63Q139.08,168.59,142.68,164.79Zm-31.5,6.14c-14.85-1.49-28.92-8.69-37.58-21-.29-.29.1-.73.39-.3,3.25,2.89,6.69,5.6,10.13,8.28.23.18.48.35.71.52a35.43,35.43,0,0,0,16.32,2.79,46,46,0,0,0,16.3-4.52c1.75-.84,3.53-1.64,5.32-2.4a.78.78,0,0,1,1,.32.8.8,0,0,1-.29,1.07c-.35.23-.7.48-1,.72a23.08,23.08,0,0,1-18.8,10.23l-2.73-.1a59,59,0,0,0,24.68,1.92,67.25,67.25,0,0,0,12.58-4.4.3.3,0,0,1,.3.52A39,39,0,0,1,111.18,170.93Z"/></g></g></svg>