<svg xmlns="http://www.w3.org/2000/svg" viewBox="0 0 296.58 266.27"><defs><style>.cls-1{fill:#c5edd0;}.cls-2{fill:#f78c74;}.cls-3{fill:#564d4e;}.cls-4{fill:#ffe2cc;}.cls-5{fill:#ffc3a1;}.cls-6{fill:#f97d8f;}.cls-7{fill:#c988e5;}.cls-8{fill:#775f5f;}.cls-9{fill:#dd507b;}.cls-10{fill:#440829;}.cls-11{fill:#ffb9a1;}.cls-12{fill:#c66a2c;}.cls-13{fill:#ff8dc1;}.cls-14{fill:#a54921;}.cls-15{fill:#ea5eb8;}.cls-16{fill:#c93147;}.cls-17{fill:#fff;}.cls-18{fill:#9eadac;}.cls-19{fill:#e56161;}</style></defs><g id="Layer_2" data-name="Layer 2"><g id="Objects"><path class="cls-1" d="M24.88,129.31A129.31,129.31,0,1,1,154.19,258.63,129.3,129.3,0,0,1,24.88,129.31"/><path class="cls-2" d="M67.31,162.88a5.12,5.12,0,0,0,3.62-2.58,10,10,0,0,1-6.91.94A3.87,3.87,0,0,0,67.31,162.88Z"/><path class="cls-3" d="M44.9,128.88a9.62,9.62,0,0,0-3.41,2.57,47.45,47.45,0,0,1,8.21-2.15c1-.27,2.08-.22,2.9-.92C50.91,126.79,46.79,128.07,44.9,128.88Z"/><path class="cls-4" d="M60.93,138.55c-1.41-2.83-5.94-1.86-8.47-1.88-4.63.36-9.38.82-13.94,1.61-2.68.67-7.18,1.06-6.6,4.82,1.7,8,4.13,15.59,13.95,14.5h-.14c4.48-.46,9.28-2,12.37-5.43C61.11,148.48,61.9,143.12,60.93,138.55Zm-9.33,9.59c-1-.18-1.38-1.27-1.48-2.15-.27-1.77.19-3.9,2.12-4.31C55.85,141.19,54.46,148.33,51.6,148.14Z"/><path class="cls-3" d="M91.34,131.45a9.7,9.7,0,0,0-3.41-2.57c-1.9-.82-6-2.09-7.7-.5.81.7,1.86.65,2.9.92A47.45,47.45,0,0,1,91.34,131.45Z"/><path class="cls-4" d="M100.9,143.1c.59-3.76-3.92-4.15-6.59-4.82-4.56-.79-9.31-1.25-13.94-1.61-2.53,0-7.07-.95-8.48,1.88-1,4.57-.18,9.93,2.83,13.62,3.1,3.38,7.9,5,12.37,5.43H87C96.78,158.69,99.21,151.14,100.9,143.1ZM82.7,146c-.1.88-.5,2-1.48,2.15-2.85.19-4.24-6.95-.64-6.46C82.51,142.09,83,144.22,82.7,146Z"/><path class="cls-5" d="M66.38,119.67a75.32,75.32,0,0,1-33.11,6.15,13.64,13.64,0,0,0-2.06-.13c-.31,1.12-1.15,2.6-1.22,3.12a31,31,0,0,0-1.87,11.1c.08.87.18,1.73.28,2.59a2.8,2.8,0,0,0,.4-.27,3.65,3.65,0,0,1,1.05-.46,8.14,8.14,0,0,1,.16-1.28c1.53-5.36,18.22-5.33,23.32-6,3.32-.16,8.18-.39,9.62,3.26l.43-.17A9.75,9.75,0,0,1,70,137.4c1.6-3.3,6.27-3.08,9.48-2.92,5.1.68,21.79.65,23.32,6a8.78,8.78,0,0,1,.16,1.13h0a8.35,8.35,0,0,1,2.32.48c.21-1.13.41-2.26.6-3.4a7.49,7.49,0,0,1,.35-1.63C100,133.34,96,126.61,94.21,119.62a29.84,29.84,0,0,1-1.2-8.74c-4.79,6.63-18.26,13.81-25.5,13.76a2.5,2.5,0,0,1-2-3.08A5.31,5.31,0,0,1,66.38,119.67ZM47,131.33a37,37,0,0,0-4.36,1.2c-.94.24-1.83.91-2.81.89-1.05-.29-.73-1.5-.22-2.15,1.61-3.65,13.43-8.27,14.86-3C54.49,131.36,49.06,130.56,47,131.33Zm46.19-.06c.51.65.84,1.86-.21,2.15-1,0-1.87-.65-2.82-.89a36,36,0,0,0-4.36-1.2c-2-.77-7.48,0-7.47-3.07C79.77,123,91.6,127.62,93.2,131.27Z"/><path class="cls-6" d="M66.23,178.31a9.79,9.79,0,0,0-1.59,1.35,10.18,10.18,0,0,0,5,.81,9.67,9.67,0,0,0,6.62-3.38l.46-.54A13.66,13.66,0,0,0,66.23,178.31Z"/><path class="cls-7" d="M68.45,235C54,231.94,41.63,221.35,35.06,208.26c-.29-.71-.7-1.5-.94-2.3A65.21,65.21,0,0,0,10.56,231.5a64.11,64.11,0,0,0-3.39,7.74c-.3.57-.62,2.1-1.13,3,.6.45,1.1,1.1,1.69,1.55a35.69,35.69,0,0,0,3.65,2.84c9.82,6.46,21.45,9.1,32.88,10.95a147.33,147.33,0,0,0,59.17-2.81c6.16-1.61,12.24-3.64,17.55-7,2.08-1.35,4-3,5.93-4.5a1.1,1.1,0,0,1-.42-.57,68.19,68.19,0,0,0-27.21-37l-.49-.33c-.13,1-1.14,2.3-1.48,3.08a64.29,64.29,0,0,1-10,13.07C84.32,224.55,72.35,235.58,68.45,235Z"/><path class="cls-8" d="M121.46,166.4c-.41,1.27,1.12,1.77,1.76,2.69,2.61,2.78,2.1,7.25-.3,10-.14.35-.93.76-1.7,1.17a12.82,12.82,0,0,0-.21-7.89c-.11-.4-.63-.84-.93-.36a5.29,5.29,0,0,0-.21,1.82c.06,5.7-1.61,10.28-6.93,13a35.77,35.77,0,0,1-2.18-4.94,1.08,1.08,0,0,0-2,.4c-.17.68-.24,1.18-.48,1.92-1.79,5-5.9,8.77-10.24,11.61-1.83,1.17-3.79,2.31-5.69,3.41l-.07,0a42.69,42.69,0,0,0-4-1.64c-1.14-.41-2.3-.76-3.49-1.06-.09-1.78,0-3.57,0-5.35,1.14-.43,2.25-.89,3.35-1.41a18.86,18.86,0,0,0,10.65-11.33,99.44,99.44,0,0,0,4-13.24c.4,4.34,1.07,8.69-.28,13a66.81,66.81,0,0,1-2.48,6.67c-.11.22-.2.5.06.64a.33.33,0,0,0,.42-.11,23.94,23.94,0,0,0,2.56-5.17c2.48-6.07,1.84-12.65,1.62-19a50.15,50.15,0,0,1,.57-7.47c.79-4,1.59-7.93,2.36-11.9.22-1.33.43-2.67.57-4,0-.08,0-.16,0-.25a1,1,0,0,0,.1-1.58,34.87,34.87,0,0,1-6.21-5.22c-5.09-6-7.13-14.19-7.24-21.92,0-1.26-.8-1.43-1.27-.7,0,0,0,0-.07,0a5.44,5.44,0,0,0-1.31,1.27,43.19,43.19,0,0,1-25,13.29c-.22-.54.13-1.09.35-1.58a19.1,19.1,0,0,1,1.85-3,31.43,31.43,0,0,0,5.53-3.79c1.3-1.2,2.86-2.47,3.22-4.31-.22-1.45-2.48,1.39-3.1,1.77-9.34,8-22.09,10.76-34.06,11.88a96.64,96.64,0,0,1-11.29-.11.94.94,0,0,0-.91.8.88.88,0,0,0,.63,1,19.51,19.51,0,0,0-1.34,3,30.17,30.17,0,0,0-1.58,15.71c.79,4.3,1.48,8.65,2.22,13,.11,2.57.59,5.2.48,7.78-.1,7.22-.52,15,3.45,21.37a.4.4,0,0,0,.71-.36,35.65,35.65,0,0,1-1.36-3.47c-1-4.3-.92-8.71-.84-13.14a88,88,0,0,0,3.65,11.84c2.07,4.8,7.34,8,13.29,10.1a17.92,17.92,0,0,1,.24,2.83c0,.93,0,1.85-.06,2.79a6.46,6.46,0,0,0-2.06.67c-2.16.85-4.29,1.81-6.38,2.85-2.1-1.22-4.33-2.33-6.32-3.76-5.7-3.58-9.2-8.07-9.89-14.94-.08-.6-.71-3.28-1.4-1.67a13.66,13.66,0,0,0,.35,6.93c-.31.09-.61.22-.92.33a3.19,3.19,0,0,1-1.35.29c-5.06-1.49-6.67-7.1-7-11.84,0-.62.06-1.69-.8-1.88a1.18,1.18,0,0,0-1.32.62,19.78,19.78,0,0,1-2.41,4,22.51,22.51,0,0,1,3.77-12.6c.46-.87,1.6-1.57,1.6-2.6-.21-.6-1-.29-1.39-.07a10.22,10.22,0,0,0-2.18,2c-3.24-.23-7.35-1.41-8.47-4.75a13.75,13.75,0,0,0,10.72-5c8.24-10.3,5.2-24.68,6-36.93.65-8.79,5.82-16.77,12.59-22.2a45.93,45.93,0,0,1,15.19-6.92c14.66-4,35-2.82,47.89,5.69a25.19,25.19,0,0,1,3.88,3.2,2.07,2.07,0,0,0,.56.5,1.18,1.18,0,0,0,1.12.67c7.38-.61,11.59,7.38,12.74,13.69,1.29,7.49,1.63,15.15,2.58,22.69,1,10.91,3,23.39,15.86,25.47-1.65,2.76-5.15,4-8.21,4.41A1.41,1.41,0,0,0,121.46,166.4Z"/><path class="cls-2" d="M65.3,194.58A72.69,72.69,0,0,1,51,192.11a4.79,4.79,0,0,0,.58.9c5,6.26,14.17,6.88,21.4,5.11,3.75-1.07,6.76-3.5,9.65-5.94a1.21,1.21,0,0,0,0-.19A46.14,46.14,0,0,1,69,194.44C67.93,194.76,66.1,194.43,65.3,194.58Z"/><path class="cls-5" d="M35.75,177.53c1.56,6.36,7.07,9.48,12.79,11.44a64.64,64.64,0,0,0,18.61,3.51,53,53,0,0,0,18.44-3.92c8.11-3.12,10.56-8,12.91-15.94,2.73-8.66,4.19-17.64,6-26.51.12-.58.23-1.16.35-1.74-.52,0-1.12-.22-1.85-.28h-.2a43.33,43.33,0,0,1-2.06,6.7c-1.59,4.94-5.17,8.73-10.6,8.88a22.77,22.77,0,0,1-15.81-4.88c-4.09-3.66-5.56-9.79-4.87-15.19-2.24-.42-4.56-.47-6.14.3.6,5.33-.89,11.29-4.9,14.89a22.77,22.77,0,0,1-15.81,4.88c-5.43-.15-9-3.94-10.6-8.88A42.15,42.15,0,0,1,30,144.09l-1.29.56c.8,5.54,2,11,3,16.53A108,108,0,0,0,35.75,177.53Zm25.88-18.39a.68.68,0,0,1,.83-.48,6,6,0,0,0,3.41,1.44,11.29,11.29,0,0,0,5.51-1.35c.46-.31,1.24-.55,1.44.15.16.5-.44.85-.62,1.22-1.1,2.38-3.48,4.41-6.25,3.7-1.68-.35-2.75-1.78-3.65-3.12C62.05,160.2,61.44,159.77,61.63,159.14Zm1,11.75c1.75-.59,3.56.25,5.34,0,2.6-.14,4.69-1.9,7.17-2.48,6.23-1,5.76,4,3.46,8A11.76,11.76,0,0,1,66.67,182,8.44,8.44,0,0,1,60,177.57C58.52,175.06,59.64,171.49,62.63,170.89Z"/><path class="cls-5" d="M91.61,201.19h0c-1.21-.59-2.45-1.14-3.71-1.63-.92-.46-2-.7-3-1.09.13,1.3.28,3-.75,3-1.51-.66-1.64-4.66-1.6-7.59-4.8,4.87-10.94,7.5-18,6.6a26.24,26.24,0,0,1-14.21-7c.27,3.54,0,8.43-1.71,8.13a1,1,0,0,1-.44-.77,18.33,18.33,0,0,1-.06-2c-1,.38-1.92.79-2.87,1.19a74.15,74.15,0,0,0-9.45,4.79C41.48,218,53.1,228.85,67,232.37a.68.68,0,0,1,0-.14,13.39,13.39,0,0,1,1.42-5.57.26.26,0,1,1,.48.2c-.14,1.37-.39,2.73-.55,4.11a4.33,4.33,0,0,1-.34,1.64l1.17.24c10.54-5.28,22.45-17.36,27.44-28a1.19,1.19,0,0,1,.44-.59c-1.66-1-3.36-2-5.1-2.88A.85.85,0,0,1,91.61,201.19Z"/><path class="cls-9" d="M63.41,179a3.84,3.84,0,0,1,.67-.76c2.55-2.27,6.14-3,9.47-2.92,1.25.11,2.52.18,3.76.4a7.92,7.92,0,0,0,1.21-4.16c-.26-1.82-2.85-1.34-4.1-.94-2.26,1-4.5,2.28-7,2.1-1.58-.14-3.31-.53-4.83-.06-1.79.65-1.84,2.93-1,4.35A6.06,6.06,0,0,0,63.41,179Z"/><path class="cls-10" d="M39.62,131.27c-.51.65-.83,1.86.22,2.15,1,0,1.87-.65,2.81-.89a37,37,0,0,1,4.36-1.2c2.05-.77,7.48,0,7.47-3.07C53.05,123,41.23,127.62,39.62,131.27Zm10.08-2a47.45,47.45,0,0,0-8.21,2.15,9.62,9.62,0,0,1,3.41-2.57c1.89-.81,6-2.09,7.7-.5C51.78,129.08,50.73,129,49.7,129.3Z"/><path class="cls-10" d="M52.24,141.68c-1.93.41-2.39,2.54-2.12,4.31.1.88.51,2,1.48,2.15C54.46,148.33,55.85,141.19,52.24,141.68Z"/><path class="cls-10" d="M85.81,131.33a36,36,0,0,1,4.36,1.2c1,.24,1.84.91,2.82.89,1.05-.29.72-1.5.21-2.15-1.6-3.65-13.43-8.27-14.86-3C78.33,131.36,83.77,130.56,85.81,131.33Zm2.12-2.45a9.7,9.7,0,0,1,3.41,2.57,47.45,47.45,0,0,0-8.21-2.15c-1-.27-2.09-.22-2.9-.92C81.92,126.79,86,128.06,87.93,128.88Z"/><path class="cls-10" d="M80.58,141.68c-3.6-.49-2.21,6.65.64,6.46,1-.18,1.38-1.27,1.48-2.15C83,144.22,82.51,142.09,80.58,141.68Z"/><path class="cls-10" d="M66,163.82c2.77.71,5.15-1.32,6.25-3.7.18-.37.78-.72.62-1.22-.2-.7-1-.46-1.44-.15a11.29,11.29,0,0,1-5.51,1.35,6,6,0,0,1-3.41-1.44.68.68,0,0,0-.83.48c-.19.63.42,1.06.67,1.56C63.2,162,64.27,163.47,66,163.82Zm5-3.52a5.12,5.12,0,0,1-3.62,2.58A3.87,3.87,0,0,1,64,161.24,10,10,0,0,0,70.93,160.3Z"/><path class="cls-10" d="M66.67,182a11.76,11.76,0,0,0,11.93-5.56c2.3-4,2.77-9-3.46-8-2.48.58-4.57,2.34-7.17,2.48-1.78.21-3.59-.63-5.34,0-3,.6-4.11,4.17-2.65,6.68A8.44,8.44,0,0,0,66.67,182Zm9.57-4.92a9.67,9.67,0,0,1-6.62,3.38,10.18,10.18,0,0,1-5-.81,9.79,9.79,0,0,1,1.59-1.35,13.66,13.66,0,0,1,10.47-1.76Zm-13.7-4.48c1.52-.47,3.25-.08,4.83.06,2.55.18,4.79-1.12,7-2.1,1.25-.4,3.84-.88,4.1.94a7.92,7.92,0,0,1-1.21,4.16c-1.24-.22-2.51-.29-3.76-.4-3.33-.06-6.92.65-9.47,2.92a3.84,3.84,0,0,0-.67.76,6.06,6.06,0,0,1-1.84-2C60.7,175.54,60.75,173.26,62.54,172.61Z"/><path class="cls-10" d="M128.78,158.39a13.89,13.89,0,0,1-5.71-3.75c-4.93-5.95-4.88-14.16-5.87-21.46-.4-3.72-.81-7.44-1.15-11.17-.73-8.17-1.7-17.71-9-22.83-1.49-1-4.86-2.54-7-1.93a6.71,6.71,0,0,0-1.17-1.32A29.56,29.56,0,0,0,91,90.53c-18.65-8.21-43.65-7.74-60.79,3.87A36.53,36.53,0,0,0,17.8,111.83c-1.71,5.1-1.43,10.57-1.14,15.87.2,10.33,0,27.45-12.49,30.39-1.52.36-3.94-.18-4.17,2,.48,3.93,4.93,6.32,8.53,6.85l.7.08c-2,3.59-2.51,8.21-2.56,12.18a1.59,1.59,0,0,0,2,1.44c1.29-.34,2.06-1.54,2.76-2.59.54,5,3.19,10.19,8.32,11.62a4.37,4.37,0,0,0,2.49-.33c.36-.14.75-.25,1.11-.42,2.68,5.63,8.7,10,14.31,12.54a68.71,68.71,0,0,0-27.8,27.11A72.19,72.19,0,0,0,5,239.12c-.31,1.08-1.06,2.36-.52,3.48h0c.09,1.75,5.69,5.85,6.78,6.49,13.62,8.31,30,10.73,45.61,12a147.24,147.24,0,0,0,46.34-4.06c8.39-2,16.71-5.07,23.15-11a11.14,11.14,0,0,0,2-2,.78.78,0,0,0-.15-.86c.81-.77-.14-2.34-.38-3.31-.51-1.5-1.06-3-1.67-4.45A68.69,68.69,0,0,0,107,209a71.81,71.81,0,0,0-12.35-8.57c.83-.45,1.66-.93,2.49-1.43,5.42-3.35,10.85-7.62,13.08-13.8,2.09,5.76,3.4,4.12,7.34,1a12.29,12.29,0,0,0,3-4.23c2,0,3.81-1.65,4.76-3.32a8.72,8.72,0,0,0-1.07-11.45,14.22,14.22,0,0,0,7.06-2.82c1.25-1,2.89-3.09,1.52-4.6C131.75,158.85,130.08,159,128.78,158.39Zm-30,47,.49.33a68.19,68.19,0,0,1,27.21,37,1.1,1.1,0,0,0,.42.57c-2,1.5-3.85,3.15-5.93,4.5-5.31,3.39-11.39,5.42-17.55,7a147.33,147.33,0,0,1-59.17,2.81c-11.43-1.85-23.06-4.49-32.88-10.95a35.69,35.69,0,0,1-3.65-2.84c-.59-.45-1.09-1.1-1.69-1.55.51-.9.83-2.43,1.13-3a64.11,64.11,0,0,1,3.39-7.74A65.21,65.21,0,0,1,34.12,206c.24.8.65,1.59.94,2.3C41.63,221.35,54,231.94,68.45,235c3.9.59,15.87-10.44,18.84-13.48a64.29,64.29,0,0,0,10-13.07C97.65,207.66,98.66,206.38,98.79,205.36Zm-1.72-1.12a1.19,1.19,0,0,0-.44.59c-5,10.66-16.9,22.74-27.44,28L68,232.61a4.33,4.33,0,0,0,.34-1.64c.16-1.38.41-2.74.55-4.11a.26.26,0,1,0-.48-.2A13.39,13.39,0,0,0,67,232.23a.68.68,0,0,0,0,.14C53.1,228.85,41.48,218,35.82,204.92a74.15,74.15,0,0,1,9.45-4.79c.95-.4,1.91-.81,2.87-1.19a18.33,18.33,0,0,0,.06,2,1,1,0,0,0,.44.77c1.7.3,2-4.59,1.71-8.13a26.24,26.24,0,0,0,14.21,7c7.07.9,13.21-1.73,18-6.6,0,2.93.09,6.93,1.6,7.59,1,0,.88-1.73.75-3,1,.39,2,.63,3,1.09,1.26.49,2.5,1,3.71,1.63h0a.85.85,0,0,0,.36.17C93.71,202.23,95.41,203.2,97.07,204.24Zm-29.56-79.6c7.24,0,20.71-7.13,25.5-13.76a29.84,29.84,0,0,0,1.2,8.74c1.8,7,5.76,13.72,12.08,17.44a7.49,7.49,0,0,0-.35,1.63c-.19,1.14-.39,2.27-.6,3.4a8.35,8.35,0,0,0-2.32-.48h0a8.78,8.78,0,0,0-.16-1.13c-1.53-5.36-18.22-5.33-23.32-6-3.21-.16-7.88-.38-9.48,2.92a9.75,9.75,0,0,0-6.63.17l-.43.17c-1.44-3.65-6.3-3.42-9.62-3.26-5.1.68-21.79.65-23.32,6a8.14,8.14,0,0,0-.16,1.28,3.65,3.65,0,0,0-1.05.46,2.8,2.8,0,0,1-.4.27c-.1-.86-.2-1.72-.28-2.59A31,31,0,0,1,30,128.81c.07-.52.91-2,1.22-3.12a13.64,13.64,0,0,1,2.06.13,75.32,75.32,0,0,0,33.11-6.15,5.31,5.31,0,0,0-.85,1.89A2.5,2.5,0,0,0,67.51,124.64Zm7.21,27.53c-3-3.69-3.8-9-2.83-13.62,1.41-2.83,6-1.86,8.48-1.88,4.63.36,9.38.82,13.94,1.61,2.67.67,7.18,1.06,6.59,4.82-1.69,8-4.12,15.59-14,14.5h.14C82.62,157.14,77.82,155.55,74.72,152.17ZM45.87,157.6c-9.82,1.09-12.25-6.46-13.95-14.5-.58-3.76,3.92-4.15,6.6-4.82,4.56-.79,9.31-1.25,13.94-1.61,2.53,0,7.06-.95,8.47,1.88,1,4.57.18,9.93-2.83,13.62-3.09,3.38-7.89,5-12.37,5.43ZM30,144.09a42.15,42.15,0,0,0,2.06,6.69c1.59,4.94,5.17,8.73,10.6,8.88a22.77,22.77,0,0,0,15.81-4.88c4-3.6,5.5-9.56,4.9-14.89,1.58-.77,3.9-.72,6.14-.3-.69,5.4.78,11.53,4.87,15.19a22.77,22.77,0,0,0,15.81,4.88c5.43-.15,9-3.94,10.6-8.88a43.33,43.33,0,0,0,2.06-6.7h.2c.73.06,1.33.31,1.85.28-.12.58-.23,1.16-.35,1.74-1.85,8.87-3.31,17.85-6,26.51-2.35,7.93-4.8,12.82-12.91,15.94a53,53,0,0,1-18.44,3.92A64.64,64.64,0,0,1,48.54,189c-5.72-2-11.23-5.08-12.79-11.44a108,108,0,0,1-4.08-16.35c-1-5.51-2.17-11-3-16.53ZM82.61,192a1.21,1.21,0,0,1,0,.19c-2.89,2.44-5.9,4.87-9.65,5.94-7.23,1.77-16.44,1.15-21.4-5.11a4.79,4.79,0,0,1-.58-.9,72.69,72.69,0,0,0,14.33,2.47c.8-.15,2.63.18,3.72-.14A46.14,46.14,0,0,0,82.61,192Zm40.33-26.31a1.38,1.38,0,0,0-1.47.71c-.43,1.28,1.11,1.78,1.75,2.71,2.6,2.77,2.1,7.24-.3,10-.14.34-.93.75-1.69,1.16a12.89,12.89,0,0,0-.22-7.89c-.12-.4-.63-.84-.93-.36a5.06,5.06,0,0,0-.21,1.82c.06,5.7-1.61,10.28-6.94,13a37.75,37.75,0,0,1-2.18-4.94,1.07,1.07,0,0,0-1.94.41,18.56,18.56,0,0,1-.49,1.91c-1.77,5-5.89,8.77-10.23,11.61-1.83,1.17-3.79,2.3-5.69,3.42l-.08,0a41.34,41.34,0,0,0-7.52-2.7c-.09-1.77,0-3.57,0-5.35,1.13-.44,2.26-.9,3.35-1.41a18.86,18.86,0,0,0,10.65-11.33,100.94,100.94,0,0,0,4-13.24c.4,4.34,1.07,8.69-.27,13a68.65,68.65,0,0,1-2.49,6.68c-.11.22-.2.5.06.64a.33.33,0,0,0,.42-.11,23.13,23.13,0,0,0,2.56-5.18c2.48-6.06,1.84-12.64,1.62-19a49.94,49.94,0,0,1,.57-7.47c.79-4,1.59-7.94,2.36-11.91.23-1.33.44-2.67.57-4a2,2,0,0,0,0-.25,1,1,0,0,0,.11-1.58,34.87,34.87,0,0,1-6.21-5.22c-5.09-6-7.13-14.19-7.24-21.92,0-1.26-.8-1.43-1.27-.7h-.08a6.3,6.3,0,0,0-1.31,1.27,43,43,0,0,1-25,13.3c-.22-.54.13-1.09.35-1.58a18.64,18.64,0,0,1,1.85-3,31.43,31.43,0,0,0,5.53-3.79c1.31-1.21,2.86-2.48,3.22-4.31-.22-1.46-2.49,1.39-3.1,1.76-9.34,8-22.09,10.77-34.06,11.89a96.66,96.66,0,0,1-11.29-.11,1,1,0,0,0-.91.8.9.9,0,0,0,.63,1,19,19,0,0,0-1.34,3,30.38,30.38,0,0,0-1.59,15.71c.8,4.3,1.49,8.65,2.23,13,.11,2.59.59,5.21.48,7.79-.1,7.22-.52,15,3.45,21.37a.41.41,0,0,0,.71-.37,34.5,34.5,0,0,1-1.36-3.46c-1-4.29-.92-8.71-.84-13.14a88,88,0,0,0,3.65,11.84c2.06,4.8,7.34,8,13.29,10.1a17.82,17.82,0,0,1,.24,2.83c0,.93,0,1.86-.06,2.78a6.83,6.83,0,0,0-2.06.68c-2.17.85-4.3,1.81-6.38,2.86-2.09-1.23-4.33-2.34-6.33-3.77-5.68-3.58-9.18-8.07-9.87-14.94-.09-.6-.72-3.28-1.41-1.67a13.54,13.54,0,0,0,.35,6.93,6.79,6.79,0,0,1-2.28.62c-5-1.49-6.65-7.11-7-11.84,0-.62.07-1.69-.79-1.88a1.18,1.18,0,0,0-1.32.62,20.21,20.21,0,0,1-2.4,4,22.56,22.56,0,0,1,3.76-12.61c.47-.87,1.6-1.56,1.6-2.6-.2-.59-1-.27-1.39-.06a10.8,10.8,0,0,0-2.19,2c-3.23-.23-7.35-1.41-8.46-4.75a13.73,13.73,0,0,0,10.72-5c8.24-10.3,5.2-24.67,6-36.92.64-8.79,5.82-16.77,12.59-22.2a46.24,46.24,0,0,1,15.19-6.93c14.66-4,35-2.81,47.89,5.7a25.78,25.78,0,0,1,3.88,3.2,2.07,2.07,0,0,0,.56.5,1.16,1.16,0,0,0,1.12.67c7.38-.62,11.59,7.38,12.74,13.69,1.29,7.49,1.62,15.15,2.58,22.69,1,10.91,3,23.39,15.87,25.47C129.5,164,126,165.27,122.94,165.68Z"/><path class="cls-3" d="M114.27,160.26a22.66,22.66,0,0,1-.9,19.71,2.78,2.78,0,0,1-1.37-1.85l-2.85-7.81c.72,6.41-3,12.51-7.43,17.19a51.91,51.91,0,0,1-13.43,10.12c-1.14-.41-2.3-.76-3.49-1.06-.09-1.78,0-3.57,0-5.35,1.14-.43,2.25-.89,3.35-1.41a18.86,18.86,0,0,0,10.65-11.33,99.44,99.44,0,0,0,4-13.24c.4,4.34,1.07,8.69-.28,13a66.81,66.81,0,0,1-2.48,6.67c-.11.22-.2.5.06.64a.33.33,0,0,0,.42-.11,23.94,23.94,0,0,0,2.56-5.17c2.48-6.07,1.84-12.65,1.62-19a50.15,50.15,0,0,1,.57-7.47c.79-4,1.59-7.93,2.36-11.9.22-1.33.43-2.67.57-4,0-.08,0-.16,0-.25a1,1,0,0,0,.1-1.58,34.87,34.87,0,0,1-6.21-5.22c-5.09-6-7.13-14.19-7.24-21.92,0-1.26-.8-1.43-1.27-.7,0,0,0,0-.07,0a5.44,5.44,0,0,0-1.31,1.27,43.19,43.19,0,0,1-25,13.29c-.22-.54.13-1.09.35-1.58a19.1,19.1,0,0,1,1.85-3,31.43,31.43,0,0,0,5.53-3.79c1.3-1.2,2.86-2.47,3.22-4.31-.22-1.45-2.48,1.39-3.1,1.77-9.34,8-22.09,10.76-34.06,11.88a96.64,96.64,0,0,1-11.29-.11.94.94,0,0,0-.91.8.88.88,0,0,0,.63,1,19.51,19.51,0,0,0-1.34,3,30.17,30.17,0,0,0-1.58,15.71c.79,4.3,1.48,8.65,2.22,13,.11,2.57.59,5.2.48,7.78-.1,7.22-.52,15,3.45,21.37a.4.4,0,0,0,.71-.36,35.65,35.65,0,0,1-1.36-3.47c-1-4.3-.92-8.71-.84-13.14a88,88,0,0,0,3.65,11.84c2.07,4.8,7.34,8,13.29,10.1a17.92,17.92,0,0,1,.24,2.83c0,.93,0,1.85-.06,2.79a6.46,6.46,0,0,0-2.06.67c-2.16.85-4.29,1.81-6.38,2.85-2.1-1.22-4.33-2.33-6.32-3.76-5.7-3.58-9.2-8.07-9.89-14.94-.08-.6-.71-3.28-1.4-1.67a13.66,13.66,0,0,0,.35,6.93c-.31.09-.61.22-.92.33a15.48,15.48,0,0,1-4.51-10.81c-.16-5,1.44-9.81,3-14.52.45-1.38.91-2.74,1.36-4.11a13.11,13.11,0,0,1-8.21,2.42,42.08,42.08,0,0,0,7.08-16.44,124.9,124.9,0,0,0,2.11-17.9c.52-7.27,6.25-13,11.92-17.59a47.66,47.66,0,0,0-10,7.4c.92-5.58,4.38-10.52,8.81-14s9.73-5.76,15.13-7.41c8.78-2.69,18.23-3.95,27.15-1.78A5.77,5.77,0,0,1,78.53,94a4,4,0,0,1,.65,3.49,8.64,8.64,0,0,1-1.76,3.21,22.8,22.8,0,0,1-5.15,4.75c5.07-1.47,9.54-5.06,14.75-5.93a2.33,2.33,0,0,1,1.67.16c1,.62.71,2.08.24,3.12-1.6,3.52-4.26,6.43-6.9,9.27a101.85,101.85,0,0,1,13.27-9.83c4.8,1.86,9.12,5.48,11,10.27.56,1.42.91,2.9,1.38,4.35.51,1.61,1.17,3.17,1.64,4.8,1.09,3.84,1.07,7.9,1.35,11.88a76.68,76.68,0,0,0,3.43,17.75c1.25,3.9,3.15,8.07,6.89,9.75A8.13,8.13,0,0,1,114.27,160.26Z"/><path class="cls-11" d="M243.65,165.3a5.6,5.6,0,0,0,4.39-2.54,14.07,14.07,0,0,1-8.31.58A5,5,0,0,0,243.65,165.3Z"/><path class="cls-6" d="M239.75,180.91a12.08,12.08,0,0,0-2.12,1.08c1.26,2.26,3,4,5.37,4.19,2.31-.05,3.68-1.8,4.72-3.72-1-.65-2.13-1.25-3.21-1.83A7,7,0,0,0,239.75,180.91Z"/><path class="cls-12" d="M226.77,131.05c-2.33-.39-5.52,3.22-6.9,4.84,2.32-1.06,5-1.79,7-3.25C227.55,132.14,227.65,131.33,226.77,131.05Z"/><path class="cls-12" d="M294.72,189.12c-1.07-1-1.63-2.51-2.63-3.62a6.58,6.58,0,0,0-.34-4.15c-.48-.43-1,.13-1.17.6-.83,5.94-3,12-7.51,16.1-.44.41-.9.81-1.37,1.22l0,0c.85-2.39,1.71-5.29.56-7.7-.57-.36-.72.88-.85,1.27-.76,5.35-3.32,10.56-8,13.56-.5.36-1.23.85-1.82,1.23l0,0a41.79,41.79,0,0,0-4.46-2.64c-.76-.42-1.51-.84-2.24-1.29-1.51-1.77-2.92-3.87-5.06-4.92a4.12,4.12,0,0,0-2.11-.34,25.46,25.46,0,0,1,.77-5.68c13.05-6.34,17.33-19.47,20.85-35.5.19-1.52,3.58-16.08,1.08-15.09a3.79,3.79,0,0,0-.76,2,42.15,42.15,0,0,1-3.3-5.56c-2.08-4.51-2.72-9.49-3-14.41-.1-.52-.16-2.43-1.06-1.71a8.1,8.1,0,0,0-.77,4.55l-.42,0c-5.5.28-10.91.34-16.34-.95-5.22-1.36-10.07-3.9-14.87-6.34-.38-.19-1-.51-1.34-.15-.57,1.81,4.28,3.57,5.58,4.47,1.34.72,2.71,1.39,4.11,2a19.3,19.3,0,0,1-7.36.68,23,23,0,0,1-19.45-14c-.7-1.07-1-2.56-2-3.32-.88-.12-.77.9-.47,1.94.68,7.24.23,13.58-4.37,19.24a36.88,36.88,0,0,0,.35-12.31c.11-.33-.4-.47-.42-.13s-.17.42-.2.65c-.75,3.26-.7,6.6-1.39,9.89a31.68,31.68,0,0,1-4.52,11.73,66.69,66.69,0,0,1-4.25,6c-.57.72-1.64,2.08-.2,2.53a.85.85,0,0,0,.5,0c.18,1.06.51,2.22.56,2.73.52,2.52,1.07,5.05,1.72,7.55,2.21,7.55,4.38,15.28,8.18,22.22A28.35,28.35,0,0,0,227.52,193a1.21,1.21,0,0,0,0,.18,14,14,0,0,1,.94,4.68c-3.56.27-6,3.6-7.87,6.36a28.56,28.56,0,0,0-4,1.66c-.82.42-1.61.87-2.39,1.36a1.29,1.29,0,0,0-.58-.44,26.61,26.61,0,0,1-6.79-6.52c-.9-1-1.53-3-2.8-3.63a1.08,1.08,0,0,0-1.28,1.21,6.5,6.5,0,0,1-.77,3.61.46.46,0,0,1-.44-.07,14.54,14.54,0,0,1-2.29-2.54,18.14,18.14,0,0,1-3.69-9.31,53.93,53.93,0,0,1-.12-6.73c.07-.73,0-3.3-1-1.6a24.48,24.48,0,0,0-.49,11,6.3,6.3,0,0,1-.82-.73c-2.72-2.89-2.05-7.23-1-10.72,2.37-6.14,5.32-12.2,4.61-19-1-15.31-2.88-31.28,3-45.93,2.48-6.06,6-12.33,12-15.59,1.25-.74,2.65-1,3.92-1.74a.81.81,0,0,0,.37-.43,19.56,19.56,0,0,1,1.62-1.73,37.65,37.65,0,0,1,20.87-9.06c15.31-1.46,30.89,5.81,40.64,17.57,8.58,10.35,10.68,24.51,10.7,37.6.34,8.72-1.86,17.7.39,26.32C292.05,175.49,295.64,181.93,294.72,189.12Z"/><path class="cls-4" d="M234.36,218.93c2.21,2.42,5.77,7.51,9.2,7.61,6-1.53,10.82-13.39,13.82-19.35a2.83,2.83,0,0,1-.08-.4,29,29,0,0,1-1.43-8.24c0-.49.06-1.71.18-3-4.2,4.43-9.65,7.53-16,6.19a19.53,19.53,0,0,1-9.75-5.28c.05.36.09.67.13.87.45,3.41-.58,6.65-1.74,9.8C229.29,211.47,231.6,215.54,234.36,218.93Z"/><path class="cls-11" d="M246.23,196.27a2.72,2.72,0,0,1-.57,0c-.42,0-.85.05-1.27.06a2.11,2.11,0,0,1-1.25.18,36.71,36.71,0,0,1-12.62-2.23c1.65,1.46,3.08,3.17,4.84,4.5a11.89,11.89,0,0,0,14.28.09h0a42,42,0,0,0,6-4.87A43.06,43.06,0,0,1,246.23,196.27Z"/><path class="cls-12" d="M262.34,134.14a53.35,53.35,0,0,1,4.81,2.34c-1.35-2.07-3-4.37-5.34-5.3-1.69-.62-4.6-.36-2.3,1.76A22,22,0,0,0,262.34,134.14Z"/><path class="cls-4" d="M277.77,154.85c.53-2.73,1-5.45,1.47-8.2a31,31,0,0,1-7.36-16.13c-.06-.54-.13-1.11-.2-1.69l-.59,0a49.05,49.05,0,0,1-9.22.38,36.64,36.64,0,0,1-10.31-1.91c-.73.28-1.73.35-2.32.59a22.07,22.07,0,0,1-8.11.92c-8.38-.65-16.19-5.27-20.16-12.59.34,5.84-1.39,11.83-5.57,16-.47.33-1.06,1.16-1.68,1.61a30.77,30.77,0,0,1-4.65,9.26c-1,1.46-2.08,2.87-3.18,4.26a3,3,0,0,1,.1.32c1.23,4.52,2.27,9.33,3.57,13.78,2.16,6.57,4,13.43,7.52,19.39,5.25,8.83,15.38,13.27,25.37,13.42h1.13a34,34,0,0,0,4.42-.5c5.3-1.15,10.58-2.81,14.77-6.24C272.55,179.61,275,166.49,277.77,154.85Zm-19.93-25.34c4-1.67,8.56,2.55,10.11,6h0a7.47,7.47,0,0,1,.77,1.85c0,.41-.32.93-.75.89a1.76,1.76,0,0,1-.64-.15c-2.71-1.33-5.59-2.3-8.37-3.46C257.15,133.73,255.84,130.85,257.84,129.51ZM238.33,160.7c1.48.39,2.92,1.53,4.52,1.43a14.63,14.63,0,0,0,4.21-.66c.76-.12,2.13-.9,2.48.16a.78.78,0,0,1-.21.63,13,13,0,0,1-2.18,2.82,6.65,6.65,0,0,1-5.38.83,6.24,6.24,0,0,1-3.22-2.48c-.23-.31-.6-.66-.48-1.08C237.51,161.9,237.46,160.77,238.33,160.7Zm-21.09-23.86a13.07,13.07,0,0,1,2.07-3.28c2.11-2.49,5.68-5.9,8.95-3.29,3.34,3.23-3,5.27-5.33,6.14-1.72.55-3.31,1.32-5,1.76a.53.53,0,0,1-.84-.13C216.88,137.67,217.09,137.2,217.24,136.84Zm13.23,15.82a.87.87,0,0,1-1,.43c-3.79-2.31-6.78-4-10.81-.9-1.26.71-2-.84-.95-1.67,2.18-2.25,5.56-2.12,8.27-1C227.06,150.08,231.26,151.11,230.47,152.66Zm21.7,23.83c-1.45,4.73-3.55,12.26-9.78,11.63-4.81-.67-6.82-5.75-8.28-9.77a29,29,0,0,1-1.15-4.17c-.1-.42-.18-.83-.26-1.23a.81.81,0,0,1,.66-.93.84.84,0,0,1,.4,0,2.22,2.22,0,0,1,.86.07,25.69,25.69,0,0,0,14.48-1.31C252.3,170,252.87,174.26,252.17,176.49Zm3-23.35c-.84-1.27,1.1-1.9,1.91-2.47,1.86-1.06,3.83-2.29,6-2.27,1.47-.32,7.55,1.91,5.72,3.84-.53.46-1.27.14-1.76-.23a6.71,6.71,0,0,0-2.73-1.37c-2.41-.52-4.54.65-6.52,1.84C257,152.86,256.05,154.08,255.19,153.14Z"/><path class="cls-13" d="M294.49,249.7c0,.25,0,.57,0,.88h-.06c-3.84,1.33-7.72,2.59-11.66,3.66-2.33.62-4.67,1.18-7,1.63-.69.13-1.39.27-2.09.39-20.36,3.72-41.7,4.61-62,.37l-1.45-.31c.15-2.94-1.94-11.11-2.13-11.83s-.48-1.53-.71-2.3v0c-1.37-4.45-2.84-9-5.86-12.58a.82.82,0,0,1-.12-.2c-.23-.33-.56,0-.32.34s.18.48.28.72c1.17,3,2.75,5.89,3.64,9,1.8,5.39,2.5,11,3.88,16.53-2.23-.51-4.45-1.09-6.64-1.75-1.28-.36-2.54-.76-3.81-1.18a36.73,36.73,0,0,1-8-3.71c0-.14.08-.29.12-.43a148.72,148.72,0,0,1,5.94-16.53,73.13,73.13,0,0,1,15-20.82,27.89,27.89,0,0,1,10.35-6c1.21-1,1.81-2.63,3-3.65a14.1,14.1,0,0,1,3.69-2.49c0,.5,0,1-.05,1.5a8.34,8.34,0,0,1-.25,1.38c-1.17-.79-1.82,1.77-1.72,2.74,0,6.52,3.59,12.35,7.81,17.08,2.38,2.54,4.84,5.78,8.41,6.52,6,.17,10.59-9.1,13.14-13.7,1.81-3.87,4.87-7.86,3.74-12.35a.6.6,0,0,0-1.16.17v0a18.22,18.22,0,0,1-.61-2.45l0-.26a5,5,0,0,1,1.82.74c1.59,1.15,2.41,3.07,3.9,4.31A50.41,50.41,0,0,1,273.81,212a72.11,72.11,0,0,1,11.91,15,14.28,14.28,0,0,0-1.13,2.2h0c-.88,2.06-1.66,4.2-2.49,6.29a93.46,93.46,0,0,0-4.42,14.61c-.15.73-.3,1.46-.46,2.2a.24.24,0,0,0,.18.27.24.24,0,0,0,.27-.18c.3-1.43.62-2.86.91-4.3a71,71,0,0,1,3.27-10.54,46.88,46.88,0,0,1,3.84-7.62h0l.06-.1a13.6,13.6,0,0,1,.87-1.32,75.58,75.58,0,0,1,6.06,13.64,39.79,39.79,0,0,1,1.82,7.32Z"/><path class="cls-9" d="M250,172.61c-1.47.34-2.85,1-4.33,1.32a19.88,19.88,0,0,1-10.87-.36,40.13,40.13,0,0,0,2.25,7.15,5.24,5.24,0,0,1,1.79-1.32c2.49-1.13,5.42-.32,7.84.64a5,5,0,0,1,1.71,1.18c.19-.42.38-.82.56-1.2a14.8,14.8,0,0,0,1.72-6C250.54,173.5,250.47,172.8,250,172.61Z"/><path class="cls-10" d="M286.17,223.82c-3.66-5.58-7.81-11-13.11-15.09a18.54,18.54,0,0,0,7.95-7.8.49.49,0,0,0,.29-.06,18.83,18.83,0,0,0,7.18-6.34,29.7,29.7,0,0,0,3.21-7.26l.38.55c.79,1,1.38,2.34,2.58,2.84,2.44.27,1.57-4.64,1.77-6.36,0-3.28-1.1-6.44-2.15-9.52a42.68,42.68,0,0,1-2.62-20.5c1-16.52.71-34.63-9.14-48.7-11-14.88-30.88-23.8-49.27-19.59a39.82,39.82,0,0,0-14.94,7.15c-1.21,1-3,2.27-3.5,3.86a6.69,6.69,0,0,0-1.26.25c-7.08,2.24-11.58,8.88-14.59,15.32-5.85,12.59-5.84,26.9-4.85,40.48.33,4.95,1,9.81.36,14.78-.92,5.75-4.59,10.68-5.16,16.51-.54,3.82.89,9,5.2,9.7,1.78,4.8,8.2,14.23,9.59,5.58,2,3.39,5.09,6.84,8.73,8.56a41.07,41.07,0,0,0-8.49,8.27,70.18,70.18,0,0,0-13.16,23.79q-1.08,3.36-2.11,6.73c-.14,1-1.38,2.85-.1,3.48,1.44,1.89,6.35,3.71,8.07,4.36a124.25,124.25,0,0,0,32.83,6.38c19.86,1,40-.76,59.11-6.52a53.67,53.67,0,0,0,6.23-2.24.94.94,0,0,0,.39-.82c.41-.14.68-.66.81-1.31,1-2.43-2.51-10.71-3-12.39A67.27,67.27,0,0,0,286.17,223.82Zm-79.29-23.56c-.9-1-1.53-2.94-2.8-3.62a1.08,1.08,0,0,0-1.28,1.21,6.67,6.67,0,0,1-.77,3.61.49.49,0,0,1-.44-.07,14.25,14.25,0,0,1-2.29-2.55,18.17,18.17,0,0,1-3.7-9.3,58.07,58.07,0,0,1-.11-6.73c.07-.73,0-3.3-1-1.6a24.34,24.34,0,0,0-.49,11,6.3,6.3,0,0,1-.82-.73c-2.72-2.89-2.05-7.23-1-10.73,2.37-6.13,5.32-12.19,4.6-19-1-15.31-2.87-31.28,3-45.93,2.49-6.06,6-12.34,12-15.59,1.25-.74,2.65-1,3.93-1.74a1,1,0,0,0,.37-.43,18.26,18.26,0,0,1,1.61-1.73,37.65,37.65,0,0,1,20.87-9.06c15.31-1.46,30.89,5.81,40.64,17.57,8.57,10.35,10.68,24.51,10.7,37.6.34,8.72-1.86,17.7.39,26.32,1.77,6.75,5.35,13.2,4.44,20.4-1.08-1-1.63-2.52-2.64-3.62a6.54,6.54,0,0,0-.33-4.16c-.48-.43-1,.13-1.17.6-.83,5.94-3,12-7.51,16.1l-1.37,1.22,0,0c.85-2.38,1.71-5.29.56-7.7-.58-.35-.72.89-.85,1.28-.76,5.35-3.32,10.56-8,13.56-.51.36-1.24.84-1.83,1.23l0,0c-2.11-1.52-4.51-2.55-6.7-3.93-1.52-1.77-2.91-3.87-5.06-4.92a4.12,4.12,0,0,0-2.11-.34,25.54,25.54,0,0,1,.77-5.68c13.05-6.34,17.33-19.47,20.86-35.5.18-1.52,3.57-16.08,1.07-15.1a3.8,3.8,0,0,0-.76,2,41,41,0,0,1-3.29-5.56c-2.1-4.52-2.74-9.49-3-14.41-.1-.52-.16-2.43-1.06-1.71a8.09,8.09,0,0,0-.77,4.55l-.42,0c-5.5.28-10.91.34-16.34-.95-5.22-1.36-10.07-3.9-14.87-6.34-.38-.19-1-.51-1.34-.15-.57,1.8,4.28,3.57,5.58,4.47q2,1.09,4.11,2a19.5,19.5,0,0,1-7.36.68,23,23,0,0,1-19.46-14c-.68-1.07-1-2.56-2-3.31-.87-.13-.76.9-.46,1.93.68,7.24.23,13.57-4.37,19.24a37.15,37.15,0,0,0,.36-12.31c.1-.33-.4-.47-.43-.13s-.17.43-.2.65c-.76,3.26-.7,6.61-1.39,9.9a31.55,31.55,0,0,1-4.53,11.72,64.63,64.63,0,0,1-4.24,6c-.57.72-1.64,2.08-.21,2.53a1,1,0,0,0,.51,0c.18,1.07.51,2.21.56,2.73.52,2.53,1.06,5.05,1.72,7.55,2.21,7.56,4.38,15.28,8.18,22.22A28.3,28.3,0,0,0,227.52,193a1.33,1.33,0,0,0,0,.19,13.67,13.67,0,0,1,.93,4.67c-3.55.27-6,3.6-7.85,6.36a28.12,28.12,0,0,0-6.41,3,1.19,1.19,0,0,0-.58-.45A26.61,26.61,0,0,1,206.88,200.26Zm23.6-3c0-.2-.08-.51-.13-.87a19.53,19.53,0,0,0,9.75,5.28c6.3,1.34,11.75-1.76,16-6.19-.12,1.32-.15,2.54-.18,3a29,29,0,0,0,1.43,8.24,2.83,2.83,0,0,0,.08.4c-3,6-7.81,17.82-13.82,19.35-3.43-.1-7-5.19-9.2-7.61-2.76-3.39-5.07-7.46-5.62-11.83C229.9,204,230.93,200.71,230.48,197.3Zm19.16,1.56a11.89,11.89,0,0,1-14.28-.09c-1.76-1.33-3.19-3-4.84-4.5a36.71,36.71,0,0,0,12.62,2.23,2.11,2.11,0,0,0,1.25-.18c.42,0,.85,0,1.27-.06a2.72,2.72,0,0,0,.57,0,43.06,43.06,0,0,0,9.39-2.28,42,42,0,0,1-6,4.87ZM248,193.81a34,34,0,0,1-4.42.5h-1.13c-10-.15-20.12-4.59-25.37-13.42-3.52-6-5.36-12.82-7.52-19.39-1.3-4.45-2.34-9.26-3.57-13.78a3,3,0,0,0-.1-.32c1.1-1.39,2.18-2.8,3.18-4.26a30.77,30.77,0,0,0,4.65-9.26c.62-.45,1.21-1.28,1.68-1.61,4.18-4.18,5.91-10.17,5.57-16,4,7.32,11.78,11.94,20.16,12.59a22.07,22.07,0,0,0,8.11-.92c.59-.24,1.59-.31,2.32-.59a36.64,36.64,0,0,0,10.31,1.91,49.05,49.05,0,0,0,9.22-.38l.59,0c.07.58.14,1.15.2,1.69a31,31,0,0,0,7.36,16.13c-.43,2.75-.94,5.47-1.47,8.2-2.77,11.64-5.22,24.76-15,32.72C258.58,191,253.3,192.66,248,193.81Zm46.49,56.77a.16.16,0,0,0-.07,0,132.44,132.44,0,0,1-18.7,5.29c-21.48,4.14-44.12,5.19-65.59.45.15-2.94-1.94-11.12-2.13-11.83-1.63-5.13-3-10.74-6.59-14.91a1.28,1.28,0,0,1-.11-.2c-.23-.32-.56,0-.32.34,1.19,3.27,3,6.36,3.91,9.75,1.81,5.39,2.5,11.05,3.89,16.54-3.52-.82-7-1.79-10.45-2.94a37.13,37.13,0,0,1-8-3.71c0-.15.07-.29.11-.43a148.72,148.72,0,0,1,5.94-16.53,73.51,73.51,0,0,1,15-20.82,27.93,27.93,0,0,1,10.34-6c1.22-1,1.82-2.63,3.05-3.66a14.31,14.31,0,0,1,3.69-2.48c0,.5,0,1-.05,1.5a8,8,0,0,1-.25,1.37c-1.17-.78-1.82,1.78-1.72,2.75,0,6.52,3.59,12.35,7.8,17.08,2.38,2.54,4.85,5.78,8.42,6.53,6,.17,10.59-9.11,13.15-13.71,1.8-3.87,4.86-7.85,3.74-12.35a.62.62,0,0,0-.71-.38.61.61,0,0,0-.46.56v0a16.77,16.77,0,0,1-.61-2.45,2.46,2.46,0,0,1,0-.26,5,5,0,0,1,1.81.74c1.59,1.16,2.41,3.07,3.89,4.31a51,51,0,0,1,10.3,6.82,72.05,72.05,0,0,1,11.9,15,16.85,16.85,0,0,0-1.12,2.2c-.89,2.07-1.67,4.21-2.5,6.32a91.66,91.66,0,0,0-4.42,14.6c-.15.73-.3,1.46-.46,2.2a.23.23,0,0,0,.18.27.22.22,0,0,0,.26-.17c.31-1.44.63-2.87.92-4.31a71,71,0,0,1,3.27-10.54,47.4,47.4,0,0,1,3.91-7.72,11.07,11.07,0,0,1,.86-1.33,75.58,75.58,0,0,1,6.06,13.64,40.61,40.61,0,0,1,1.82,7.32,1.93,1.93,0,0,1,0,.25C294.49,250,294.47,250.27,294.49,250.58Z"/><path class="cls-10" d="M226,149.55c-2.71-1.15-6.09-1.28-8.27,1-1.06.83-.31,2.38.95,1.67,4-3.06,7-1.41,10.81.9a.87.87,0,0,0,1-.43C231.26,151.11,227.06,150.08,226,149.55Z"/><path class="cls-10" d="M264.37,150.64A6.71,6.71,0,0,1,267.1,152c.49.37,1.23.69,1.76.23,1.83-1.93-4.25-4.16-5.72-3.84-2.21,0-4.18,1.21-6,2.27-.81.57-2.75,1.2-1.91,2.47.86.94,1.85-.28,2.66-.66C259.83,151.29,262,150.12,264.37,150.64Z"/><path class="cls-10" d="M217.92,138.17c1.7-.44,3.29-1.21,5-1.76,2.35-.87,8.67-2.91,5.33-6.14-3.27-2.61-6.84.8-8.95,3.29a13.07,13.07,0,0,0-2.07,3.28c-.15.36-.36.83-.16,1.2A.53.53,0,0,0,217.92,138.17Zm8.85-7.12c.88.28.78,1.09.14,1.59-2.08,1.46-4.72,2.19-7,3.25C221.25,134.27,224.44,130.66,226.77,131.05Z"/><path class="cls-10" d="M259,134.6c2.78,1.16,5.66,2.13,8.37,3.46a1.76,1.76,0,0,0,.64.15c.43,0,.78-.48.75-.89a7.47,7.47,0,0,0-.77-1.85h0c-1.55-3.42-6.13-7.64-10.11-6C255.84,130.85,257.15,133.73,259,134.6Zm2.85-3.42c2.36.93,4,3.23,5.34,5.3a53.35,53.35,0,0,0-4.81-2.34,22,22,0,0,1-2.83-1.2C257.21,130.82,260.12,130.56,261.81,131.18Z"/><path class="cls-10" d="M238.55,163.43a6.24,6.24,0,0,0,3.22,2.48,6.65,6.65,0,0,0,5.38-.83,13,13,0,0,0,2.18-2.82.78.78,0,0,0,.21-.63c-.35-1.06-1.72-.28-2.48-.16a14.63,14.63,0,0,1-4.21.66c-1.6.1-3-1-4.52-1.43-.87.07-.82,1.2-.26,1.65C238,162.77,238.32,163.12,238.55,163.43Zm9.49-.67a5.6,5.6,0,0,1-4.39,2.54h0a5,5,0,0,1-3.92-2A14.07,14.07,0,0,0,248,162.76Z"/><path class="cls-10" d="M243.68,165.31h0Z"/><path class="cls-10" d="M249.1,170.82a25.69,25.69,0,0,1-14.48,1.31,2.22,2.22,0,0,0-.86-.07.84.84,0,0,0-.4,0,.81.81,0,0,0-.66.93c.08.4.16.81.26,1.23a29,29,0,0,0,1.15,4.17c1.46,4,3.47,9.1,8.28,9.77,6.23.63,8.33-6.9,9.78-11.63C252.87,174.26,252.3,170,249.1,170.82ZM243,186.18c-2.4-.18-4.11-1.93-5.37-4.19a12.08,12.08,0,0,1,2.12-1.08,7,7,0,0,1,4.76-.28c1.08.58,2.17,1.18,3.21,1.83C246.68,184.38,245.31,186.13,243,186.18Zm5.9-6.16c-.18.38-.37.78-.56,1.2a5,5,0,0,0-1.71-1.18c-2.42-1-5.35-1.77-7.84-.64a5.24,5.24,0,0,0-1.79,1.32,40.13,40.13,0,0,1-2.25-7.15,19.88,19.88,0,0,0,10.87.36c1.48-.34,2.86-1,4.33-1.32.52.19.59.89.67,1.38A14.8,14.8,0,0,1,248.9,180Z"/><path class="cls-14" d="M283.8,189.84a54.28,54.28,0,0,0-3.19-8.43c-.09,9.25-4.89,18.54-12.87,23.22l-.6.35c-.76-.42-1.51-.84-2.24-1.29-1.51-1.77-2.92-3.87-5.06-4.92a4.12,4.12,0,0,0-2.11-.34,25.46,25.46,0,0,1,.77-5.68c13.05-6.34,17.33-19.47,20.85-35.5.19-1.52,3.58-16.08,1.08-15.09a3.79,3.79,0,0,0-.76,2,42.15,42.15,0,0,1-3.3-5.56c-2.08-4.51-2.72-9.49-3-14.41-.1-.52-.16-2.43-1.06-1.71a8.1,8.1,0,0,0-.77,4.55l-.42,0c-5.5.28-10.91.34-16.34-.95-5.22-1.36-10.07-3.9-14.87-6.34-.38-.19-1-.51-1.34-.15-.57,1.81,4.28,3.57,5.58,4.47,1.34.72,2.71,1.39,4.11,2a19.3,19.3,0,0,1-7.36.68,23,23,0,0,1-19.45-14c-.7-1.07-1-2.56-2-3.32-.88-.12-.77.9-.47,1.94.68,7.24.23,13.58-4.37,19.24a36.88,36.88,0,0,0,.35-12.31c.11-.33-.4-.47-.42-.13s-.17.42-.2.65c-.75,3.26-.7,6.6-1.39,9.89a31.68,31.68,0,0,1-4.52,11.73,66.69,66.69,0,0,1-4.25,6c-.57.72-1.64,2.08-.2,2.53a.85.85,0,0,0,.5,0c.18,1.06.51,2.22.56,2.73.52,2.52,1.07,5.05,1.72,7.55,2.21,7.55,4.38,15.28,8.18,22.22A28.35,28.35,0,0,0,227.52,193a1.21,1.21,0,0,0,0,.18,14,14,0,0,1,.94,4.68c-3.56.27-6,3.6-7.87,6.36a28.56,28.56,0,0,0-4,1.66,49.29,49.29,0,0,1-11.39-21.08c-1.46,3.22-3.15,6.28-4.6,9.5a21.82,21.82,0,0,1-2.5-12.53,86.37,86.37,0,0,1,1.85-8.82,43.53,43.53,0,0,0-.38-19.37c-2-7.88-1-16.47.59-24.44a55.22,55.22,0,0,1,9.53-22.21,3.54,3.54,0,0,1,1.63-1.44c.7-.22,1.65.17,1.71.91a44.91,44.91,0,0,1-.36,10.23,21.61,21.61,0,0,0,1.93-11.45c0-.13,0-.29.18-.3s.22.19.1.23c6.88.55,13.32,2.27,18.74,6.55a37.22,37.22,0,0,0-14.86-8.83c-.56-.17-1.26-.52-1.17-1.1.05-.37.41-.6.73-.78a21.86,21.86,0,0,1,13.09-2.43,30.53,30.53,0,0,0-9.72-.52,17.36,17.36,0,0,1,6.94-3.75,46.32,46.32,0,0,1,17.06-2.17,38,38,0,0,1,9.63,1.77c7.89,2.6,14.41,8.13,20.72,13.53,6.1,5.22,7.38,14,8.35,22s.55,16,.12,24.06c-.3,5.62,1.82,10.59,2.79,16.13A30.67,30.67,0,0,1,283.8,189.84Z"/><path class="cls-15" d="M204.9,239.47c1.8,5.39,2.5,11,3.88,16.53-2.23-.51-4.45-1.09-6.64-1.75,0-.79.06-1.59.07-2.38,0-1.7-.59-21.54-1.22-21.48a.65.65,0,0,1,.27.05C202.43,233.45,204,236.33,204.9,239.47Z"/><path class="cls-15" d="M285.68,229.92a140,140,0,0,0-2.91,24.32c-2.33.62-4.67,1.18-7,1.63-.69.13-1.39.27-2.09.39a73.94,73.94,0,0,1,3.58-14.15c1.62-4.75,3.66-9.67,7.37-12.92-.88,2.06-1.66,4.2-2.49,6.29a93.46,93.46,0,0,0-4.42,14.61c-.15.73-.3,1.46-.46,2.2a.24.24,0,0,0,.18.27.24.24,0,0,0,.27-.18c.3-1.43.62-2.86.91-4.3a71,71,0,0,1,3.27-10.54A46.88,46.88,0,0,1,285.68,229.92Z"/><path class="cls-16" d="M196.57,215c-3.31,1.37-7,1.18-10.56,1.72l-1,.17a136.91,136.91,0,0,1,14.9,1c-1-.93-2-1.84-3.07-2.68A1.35,1.35,0,0,1,196.57,215Z"/><path class="cls-11" d="M154.22,157.17c2.5-.21,4.35-2.53,6.05-4.14a13,13,0,0,1-11.07,1.09A6.35,6.35,0,0,0,154.22,157.17Z"/><path class="cls-17" d="M150.26,174.08c-.7,0-1.4.08-2.1,0a9.32,9.32,0,0,1-6-2.67,6,6,0,0,1-3.18-.33,4.63,4.63,0,0,0,1.14,2.43c2.93,3.42,7.73,4.38,12,4.66a28.13,28.13,0,0,0,19.61-6.54,9.78,9.78,0,0,0,1.56-4.39l-.09.05a11.88,11.88,0,0,1-3.55.94,55.25,55.25,0,0,1-5.72,2.26.27.27,0,0,1-.19-.51c1.5-.76,3.1-1.4,4.54-2.25.49-.24.85-.73,1.39-.85a7.62,7.62,0,0,0,2.15-.53,4.5,4.5,0,0,0,1.46-1.22,4.21,4.21,0,0,0-4.31-4,11.33,11.33,0,0,0-4.19,1.12c-7.86,4.77-12.79,2.21-21.06,2.48a5.51,5.51,0,0,0-4.69,4.29l.17,0c1,.35,2.34.07,3.22.8.36.56.24.86.92,1.32,2.17,1.44,5,1,7.4,1.42a.7.7,0,0,1,.66.64C151.48,174,150.75,174.14,150.26,174.08Z"/><path class="cls-4" d="M202.6,141.22a52.36,52.36,0,0,0-3.63,4.24l-.13.17c-.49,3-1.52,6.66-1.63,7.82-.47,2.12-.94,4.28-1.44,6.45a4.2,4.2,0,0,0,.73-.47,10.44,10.44,0,0,0,3.78-5.71c.65-2.87-.18-5.77,2.26-8,.77-.92,4.69-5.24,5.33-2.76a2.28,2.28,0,0,1-.83,1.32l-.39.39c.11,4.65-1.23,9.64-5,12.6-.41.35-.85.75-1.31,1.13a8.48,8.48,0,0,1-2.46,2.37c-.69.35-1.74,1.3-2.5.95-.17.71-.34,1.41-.52,2.11a5.6,5.6,0,0,0,3-.34c7.42-2.94,12.06-14.09,11.48-21.63C208.75,137,204.9,138.71,202.6,141.22Z"/><path class="cls-14" d="M123.93,126.63a18.58,18.58,0,0,1,13.41-1.53C134.92,119.18,126.67,122.76,123.93,126.63Z"/><path class="cls-4" d="M110,160.14a9.75,9.75,0,0,1-3.48-2.75c-4.49-2.06-6.27-8-6.23-12.65a.44.44,0,0,1,.14-.32c-.31-.25-.64-.5-1-.72s-.57-.61-.23-.87c1.69-.18,3.5,1.35,4.7,2.45,3.9,3.15.43,5.51,2.68,9a22.94,22.94,0,0,0,3.83,4.33c-.56-2.3-1.11-4.73-1.67-7.32,0-.63-.49-2.31-.86-4a29.82,29.82,0,0,0-1.83-2.64c-1.91-2.32-6.77-8.6-9.28-4-1.85,5,3.56,18.52,8.2,21a9.46,9.46,0,0,0,6.52,1.14c-.26-.94-.51-1.91-.76-2.9A.68.68,0,0,1,110,160.14Z"/><path class="cls-11" d="M105.68,156.2a6.81,6.81,0,0,1-.89-3.85,10.36,10.36,0,0,0-3.59-7.21C101,149.11,102.22,154,105.68,156.2Z"/><path class="cls-14" d="M182.82,126.63c-2.75-3.87-11-7.45-13.42-1.53A18.6,18.6,0,0,1,182.82,126.63Z"/><path class="cls-12" d="M215.39,113.3a16,16,0,0,1-2.41,8.3l0-.6a11.63,11.63,0,0,0-.72-4.49c-.15-.41-.38-.94-.87-1s-.62.44-.68.77c0,5.19-.35,10.46-2.59,15.26a44.1,44.1,0,0,1-2.19,4.54.82.82,0,0,0-.09.35c-2.4.5-4.86,2.64-6.61,4.94-.14.17-.26.35-.39.52a.64.64,0,0,0-.21-.22,74.94,74.94,0,0,0,.18-9.11c-.1-1.29.52-3.14-.83-4-3.9-2.91-6.88-7-7.49-11.88a21.91,21.91,0,0,0,8.14,2.24,7.25,7.25,0,0,0,1.61-.08.93.93,0,0,0,0-1.85c-4.89-.72-10.06-2-13.12-6.25a23.42,23.42,0,0,1-4.2-9.6c-.83-3-1.55-6.7-4.45-8.49a3.71,3.71,0,0,0-2.77-.37,2.24,2.24,0,0,0-.53.21c-3.44-6.07-10.85-7.82-16.47-3.51-3.74,2.72-5.84,7-8.17,10.84-3.85,7-10.06,12.62-17.89,14.56a30.39,30.39,0,0,0,4.5-6.2c.27-.73,1.21-1.75,1.15-2.58A13.27,13.27,0,0,0,141,98.1c.09-.32-.42-.43-.47-.12-1.85,2.38-3,5.25-5,7.6a38.8,38.8,0,0,1-11.46,10c-2.54,1.46-5.15,2.78-7.78,4.07a4.27,4.27,0,0,1-.49.28,20.05,20.05,0,0,0,1-4.5c0-.57.36-5.66-.88-3.72-1.07,2.88-1.42,6-2.71,8.82-1.52,3.72-4,7.18-6.09,10.62a105.94,105.94,0,0,0,1,11.43.59.59,0,0,0-.39.26,20.17,20.17,0,0,0-4.33-4.46,10.15,10.15,0,0,0-2.92-1.58.64.64,0,0,0,0-.38,37.23,37.23,0,0,1-2.25-5.62c-1.54-4.93-1.45-10-.82-15.12,0-.35.33-3.1-.43-2.24a13.56,13.56,0,0,0-2.19,6.78c-.27-.8-.52-1.6-.76-2.4a35.34,35.34,0,0,1,8.24-27.64C116.73,71.73,137,58.37,161.38,63c7.05,1.52,14.33,4.58,19.08,10.2A14.35,14.35,0,0,1,182,75.8c.12.21.23.43.34.63-.3.46-.31,1.22.36,1.29,1.7-.32,3.19-1.46,4.9-1.86a15.3,15.3,0,0,1,8.22-.14C210.3,79.62,215.9,99.9,215.39,113.3Z"/><path class="cls-11" d="M202.13,151.26a21.45,21.45,0,0,1-1.15,5.88c2.88-2.73,4.55-7.75,4.71-11.5A14.4,14.4,0,0,0,202.13,151.26Z"/><path class="cls-16" d="M119.58,217.14c-1.2-.18-2.4-.35-3.61-.5a19,19,0,0,1-7.06-1.9,1.48,1.48,0,0,1-.35.36,53.33,53.33,0,0,0-5.51,5.32,74.18,74.18,0,0,1,14.68-3.1Z"/><path class="cls-18" d="M140,223a9.1,9.1,0,0,1,1.37-2.26c-.51-.65-1.06-1.27-1.61-1.88a8.31,8.31,0,0,0-.69,1.08,39.11,39.11,0,0,0-4.91,13.47c-.57,3.71-2.42,13.38.07,16.12,1.71,1,.85-2.39,1-3.14a45.75,45.75,0,0,1,.46-8.91A57.48,57.48,0,0,1,140,223Z"/><path class="cls-14" d="M158.6,92.05a21.92,21.92,0,0,0-1.66,2c4.45-2.63,10.32-4,15.12-2C168.2,88,162.87,87.79,158.6,92.05Z"/><path class="cls-19" d="M218.12,249.14q-4.76,2.52-9.66,4.74a111.74,111.74,0,0,1-40,9.63,172,172,0,0,1-54.9-4.73c-8.83-2.25-17.77-5.12-25.21-10.55a2.74,2.74,0,0,0,.36-1c.51-1.88,1.08-3.74,1.74-5.57a66.19,66.19,0,0,1,11.41-19.95,51.77,51.77,0,0,1,6.22-2,66.25,66.25,0,0,1,14.71-2c1.69.31,3.35.67,5,1.12a40.45,40.45,0,0,1,8.38,3.06c-.74,1.55-1.33,3-1.53,3.5-1.64,4.15-6.48,25.49,0,26.12,4.21-.08,2.13-5.32,2.38-8a52.87,52.87,0,0,1,1.93-13,51.78,51.78,0,0,1,2.29-6.73c.06-.36.56-1.19.87-2,.08.14.18.25.27.39a.49.49,0,0,0,.63.16c.73-.55-.42-1.74-.58-2.41a11.21,11.21,0,0,0-3.35-3.83,1.09,1.09,0,0,0-.93-.32c-1.07.46-.09,1.42.5,1.95a10.27,10.27,0,0,0-1.47,2.09c-2.7-2.11-10.42-3.62-12.77-4.25-7.32-1.83-17.33-.23-19.35-9.72-.93-4.5,2.94-7.08,5.91-9.67a1.64,1.64,0,0,0,.45-1c.09-1.68.08-3.37.27-5a22,22,0,0,1,5.63-12.28,27.52,27.52,0,0,0,5.17,6.37,28.31,28.31,0,0,0,8.24,5.13,5,5,0,0,1,.26.52c-.35.73-.63,1.5-1,2.21-.14.28-.26.57-.4.85a1,1,0,0,0-.77.08c-1.16.63-1.53,2.07-1.84,3.26-2.44,11.57,12.64,11.14,19.33,15.71a12,12,0,0,1,1.64,1.62,43.31,43.31,0,0,1,4,6.53,1.28,1.28,0,0,0,.34.95c.89.44,1.18-1,1.54-1.6a16.87,16.87,0,0,1,1.86-3.26A15.41,15.41,0,0,1,158,214h0c5.09-4.25,12.38-5,18-8.42a15.32,15.32,0,0,0,5.2-5.81c.3-1.22,2.5-4.92.78-5.5a1,1,0,0,0-1.24.52c-.1.34-.22.68-.32,1a14.35,14.35,0,0,0-2.39-6.87,25.07,25.07,0,0,0,7.46-4.92c.54-.63,1-1.27,1.52-1.93a36.46,36.46,0,0,0,2.5-3.91c5.45,3.71,7.47,9.41,6.27,16-.37,1.29.78,2.18,1.51,3.08,2.28,2.74,5.2,6,4.07,9.9-1.43,5.09-7.23,6.69-11.94,6.83a49.24,49.24,0,0,0-10,1.84c-1.38.44-8.3,2.51-10.29,4.53-.31-.56-.64-1.12-1-1.66a4.58,4.58,0,0,0-.61-.8,4.65,4.65,0,0,0,1.07-1.67.5.5,0,0,0-.33-.48c-2.12-.11-3.37,2.39-4.36,3.94-.33.83-.74,1.52-1,2.43a.56.56,0,0,0,.31.61.58.58,0,0,0,.68-.13c.11-.16.2-.31.31-.48l.11.16c3.64,5.28,4.82,11.83,4.83,18.16,0,1.74,0,3.75-.15,5.55s-.47,3.89,1.27,4.9a2.57,2.57,0,0,0,3.09-.67c3.89-4.55,1.27-14.27,0-19.6A43.14,43.14,0,0,0,170,222l.5-.24c.92-.48,1.84-.94,2.79-1.35a58,58,0,0,1,7.55-2.62c6.65-.6,13.36.32,20,1,8.19,8.22,13.1,19.2,17.15,30A1.45,1.45,0,0,0,218.12,249.14Z"/><path class="cls-18" d="M172.77,247.82c2.26-8.18-2.09-21.17-6.23-28.35a2,2,0,0,1-.22-.29,6.23,6.23,0,0,0-.76,1c-.2.24-.37.49-.54.74.87.49,1.59,2.15,2,2.81a39.29,39.29,0,0,1,3.73,16.22c.11,2.86,0,5.73-.11,8.59C171.05,250.17,172.49,248.76,172.77,247.82Z"/><path class="cls-4" d="M151.11,191.25c.75.2,1.9,0,2.77.19a6.12,6.12,0,0,1,1.7-.09,62.09,62.09,0,0,0,9.78-1.39c6.58-1.21,13.59-2.81,18.48-7.71,6.9-8.33,8.83-19.41,11.12-29.66.41-1.06.9-5.23,1.69-8.13-.51-2.32.51-8.74.54-9.94s.77-3.39-.47-4.12c-4.76-3.43-8.39-8.51-8.6-14.54a2.52,2.52,0,0,1,0-.77c-9.24-7.2-6.07-21.66-13.11-20.9-.47.24-1.2,0-1.73-.78a22,22,0,0,0-17.84,2.74c-1.78,2.77-3.26,5.75-5.22,8.4a27.58,27.58,0,0,1-16.88,11.65c-.67.17-1.46.48-2.11.08a.8.8,0,0,1-.36-.78s0-.06,0-.09h0a46.46,46.46,0,0,0,2.49-4.12c-.58.57-1.15,1.1-1.68,1.59a52.62,52.62,0,0,1-12.7,7.86c-1.41.65-2.82,1.32-4.28,1.84a59.82,59.82,0,0,1-6,9.61c-.19,2.42.73,4.86.86,7.29a50.14,50.14,0,0,1,.27,5.87c1.13,4.76,2,9.59,3.32,14.31C118.72,183.54,127.5,188.9,151.11,191.25Zm-21-45.33c-4.87-1.39-2-8.57,2.36-8.06,1.57.07,2.25,1.72,2.38,3.08C135.31,143.6,133,146.54,130.14,145.92Zm46.46,0c-2.81.62-5.17-2.32-4.74-5,.13-1.36.81-3,2.38-3.08C178.61,137.35,181.47,144.53,176.6,145.92Zm-9-21.37c.62-3,4-4.6,6.88-4.52,3.9.23,7.52,2.85,9.62,6.06.3.72,1.36,2.24.17,2.62-3.14-1.35-6.26-2.63-9.86-2.54-1.94-.19-4,.61-6,.62C167.55,126.45,167.52,125.35,167.62,124.55Zm-21.18,25c.48-.92,1.4-.52,1.52.4.24,3.33,4.11,4.11,6.85,3.67s4.76-1.79,7.1-2.83a.7.7,0,0,1,.48,1.14c-.59.74-1,1.61-1.58,2.36-1.53,2.38-4.16,4.26-7.11,3.86a8.91,8.91,0,0,1-6.57-5.2A3.11,3.11,0,0,1,146.44,149.5Zm-1.26,13.2c1.9,0,3.68.76,5.51,1.16a18.34,18.34,0,0,0,8.32-1.05c3.21-1,5.79-3.28,9.15-3.74,8-.89,9.47,9.73,4.36,14.14-5.25,5-12.79,7.06-19.9,7-7.16.34-19.47-4.42-15.05-13.42A7.67,7.67,0,0,1,145.18,162.7Zm-22.55-36.61c2.09-3.21,5.72-5.83,9.61-6.06,2.89-.08,6.27,1.47,6.89,4.52.1.8.06,1.9-.8,2.24-2,0-4.08-.81-6-.62-3.6-.09-6.71,1.19-9.86,2.54C121.27,128.33,122.32,126.81,122.63,126.09Z"/><path class="cls-4" d="M133.18,204.17c5.51,3.15,13.3,2.89,17.19,8.58a14.89,14.89,0,0,1,2.32,4.27,14.35,14.35,0,0,1,5.46-6c4.46-3.38,10.3-4.1,15.15-6.64a1,1,0,0,1-.37-.56c-.6-2.54-1.43-7.41-.86-11.1-5.66,5.58-12.72,11.15-21,10.95a22.45,22.45,0,0,1-13.62-5.93c-1-1-2.1-2-3.16-3a54.06,54.06,0,0,1-.7,7C133.36,202.31,133.37,203.35,133.18,204.17Z"/><path class="cls-16" d="M174.45,201.14c0,.66.39,1.59.4,2.34.26-.17.52-.34.78-.53a13.93,13.93,0,0,0,3.59-4.41,11.88,11.88,0,0,0,.27-1.32,13.08,13.08,0,0,0-2.3-7.94c-.66.28-1.33.53-2,.76a1.8,1.8,0,0,1-.16.38C173.76,193.83,173.94,197.61,174.45,201.14Z"/><path class="cls-16" d="M130.75,192.49,130,194c-.78,2.33-1.4,5-.23,7.32a9.91,9.91,0,0,0,1.58,1.59c0-.5.09-1,.14-1.55.28-3.27.93-6.79.06-10l-.12-.28C131.2,191.55,131,192,130.75,192.49Z"/><path class="cls-11" d="M141.72,199.94c9.26,5.3,20.18-.22,27.26-6.7.85-.69,1.6-1.4,2.34-2.11-3.26.76-6.54,1.42-9.83,2-2.28.27-4.75.93-7,.57a1.21,1.21,0,0,1-.67.19c-8.32-.63-14.9-1.7-20.19-3.45q.1.27.18.54c.88,1.4,1.6,2.9,2.6,4.21A21.18,21.18,0,0,0,141.72,199.94Z"/><path class="cls-10" d="M111.39,165.22h0Z"/><path class="cls-10" d="M111.46,165.2h0Z"/><path class="cls-10" d="M138.33,126.79c.86-.34.9-1.44.8-2.24-.62-3-4-4.6-6.89-4.52-3.89.23-7.52,2.85-9.61,6.06-.31.72-1.36,2.24-.18,2.62,3.15-1.35,6.26-2.63,9.86-2.54C134.25,126,136.35,126.78,138.33,126.79Zm-14.4-.16c2.74-3.87,11-7.45,13.41-1.53A18.58,18.58,0,0,0,123.93,126.63Z"/><path class="cls-10" d="M132.5,137.86c-4.37-.51-7.23,6.67-2.36,8.06,2.81.62,5.17-2.32,4.74-5C134.75,139.58,134.07,137.93,132.5,137.86Z"/><path class="cls-10" d="M168.42,126.79c2,0,4.07-.81,6-.62,3.6-.09,6.72,1.19,9.86,2.54,1.19-.38.13-1.9-.17-2.62-2.1-3.21-5.72-5.83-9.62-6.06-2.88-.08-6.26,1.47-6.88,4.52C167.52,125.35,167.55,126.45,168.42,126.79Zm14.4-.16a18.6,18.6,0,0,0-13.42-1.53C171.83,119.18,180.07,122.76,182.82,126.63Z"/><path class="cls-10" d="M174.24,137.86c-1.57.07-2.25,1.72-2.38,3.08-.43,2.66,1.93,5.6,4.74,5C181.47,144.53,178.61,137.35,174.24,137.86Z"/><path class="cls-10" d="M153.7,158.1c3,.4,5.58-1.48,7.11-3.86.57-.75,1-1.62,1.58-2.36a.7.7,0,0,0-.48-1.14c-2.34,1-4.37,2.46-7.1,2.83s-6.61-.34-6.85-3.67c-.12-.92-1-1.32-1.52-.4a3.11,3.11,0,0,0,.69,3.4A8.91,8.91,0,0,0,153.7,158.1Zm6.57-5.07c-1.7,1.61-3.55,3.93-6.05,4.14a6.35,6.35,0,0,1-5-3A13,13,0,0,0,160.27,153Z"/><path class="cls-10" d="M137.57,166.8c-4.42,9,7.89,13.76,15.05,13.42,7.11.05,14.65-2,19.9-7,5.11-4.41,3.62-15-4.36-14.14-3.36.46-5.94,2.75-9.15,3.74a18.34,18.34,0,0,1-8.32,1.05c-1.83-.4-3.61-1.14-5.51-1.16A7.67,7.67,0,0,0,137.57,166.8Zm13.19,5.88c-2.41-.41-5.23,0-7.4-1.42-.68-.46-.56-.76-.92-1.32-.88-.73-2.18-.45-3.22-.8l-.17,0a5.51,5.51,0,0,1,4.69-4.29c8.27-.27,13.2,2.29,21.06-2.48A11.33,11.33,0,0,1,169,161.2a4.21,4.21,0,0,1,4.31,4,4.5,4.5,0,0,1-1.46,1.22,7.62,7.62,0,0,1-2.15.53c-.54.12-.9.61-1.39.85-1.44.85-3,1.49-4.54,2.25a.27.27,0,0,0,.19.51,55.25,55.25,0,0,0,5.72-2.26,11.88,11.88,0,0,0,3.55-.94l.09-.05a9.78,9.78,0,0,1-1.56,4.39,28.13,28.13,0,0,1-19.61,6.54c-4.3-.28-9.1-1.24-12-4.66A4.63,4.63,0,0,1,139,171.1a6,6,0,0,0,3.18.33,9.32,9.32,0,0,0,6,2.67c.7.06,1.4,0,2.1,0,.49.06,1.22-.09,1.16-.76A.7.7,0,0,0,150.76,172.68Z"/><path class="cls-10" d="M220,248.59c-.27-2.52-1.73-4.8-2.53-7.19a92.25,92.25,0,0,0-5.09-11,60.08,60.08,0,0,0-6.79-9.8c-2.1-2.32-4.17-5-6.87-6.67,3.41-2,5.82-5.89,5.16-9.9-.85-3.92-3.61-7.29-6.39-10.05.92-6.3.35-12.13-5.08-16.27-.45-.32-1.15-1-1.89-1.48a59.68,59.68,0,0,0,3.78-10.34c6.49,1.16,11.65-4.77,14.13-10.11s5.22-12.61,1.74-18a4.63,4.63,0,0,0-2-1.3c.76-1.32,1.44-2.7,2.09-4.08a29,29,0,0,0,2.59-8.68,19.86,19.86,0,0,0,2.77-3.78c3.72-7.19,2-15.94.16-23.47-3.22-11.08-11.06-23.7-24-23.58A16.07,16.07,0,0,0,184,75a6.54,6.54,0,0,0-.64-1.6c-3.35-5.59-9.63-8.73-15.53-11-18-6.15-38.43-1-52.65,11.26-10.59,9.2-22,20.23-23.54,34.9a27.84,27.84,0,0,0,.29,7.84,18.81,18.81,0,0,0,2.84,7.53,32.09,32.09,0,0,0,4.1,12.66,3,3,0,0,0-.42,0C89,138.94,96.72,155,100,160.09a11.86,11.86,0,0,0,9.62,5.35,4.8,4.8,0,0,0,1.88-.24h0a6.26,6.26,0,0,0,.61-.21,61.61,61.61,0,0,0,4.19,10.91c-1.73,1-3.69,5-4.28,6.07-2,3.85-1.67,8.22-2.27,12.37-2.35,1.77-4.88,3.68-6.17,6.4-1.94,4.36-.19,9.58,3.34,12.59-9.27,8-15.78,18.92-19.53,30.5-.32,1-.63,2-.86,3a3.39,3.39,0,0,0-.1.74.81.81,0,0,0-.36.51c0,1.37,1.53,2.14,2.48,2.94,14.44,9.89,42.39,14.6,59.88,15,24.43,1,49.79-2.36,71-15.23a1,1,0,0,0,.22-1.49A.89.89,0,0,0,220,248.59Zm-20.06-30.67a136.91,136.91,0,0,0-14.9-1l1-.17c3.52-.54,7.25-.35,10.56-1.72a1.35,1.35,0,0,0,.28.25C197.93,216.08,198.94,217,199.92,217.92Zm9.37-76.08c.58,7.54-4.06,18.69-11.48,21.63a5.6,5.6,0,0,1-3,.34c.18-.7.35-1.4.52-2.11.76.35,1.81-.6,2.5-.95a8.48,8.48,0,0,0,2.46-2.37c.46-.38.9-.78,1.31-1.13,3.8-3,5.14-7.95,5-12.6l.39-.39a2.28,2.28,0,0,0,.83-1.32c-.64-2.48-4.56,1.84-5.33,2.76-2.44,2.25-1.61,5.15-2.26,8a10.44,10.44,0,0,1-3.78,5.71,4.2,4.2,0,0,1-.73.47c.5-2.17,1-4.33,1.44-6.45.11-1.16,1.14-4.85,1.63-7.82l.13-.17a52.36,52.36,0,0,1,3.63-4.24C204.9,138.71,208.75,137,209.29,141.84ZM201,157.14a21.45,21.45,0,0,0,1.15-5.88,14.4,14.4,0,0,1,3.56-5.62C205.53,149.39,203.86,154.41,201,157.14ZM98.14,130.81c-1.54-4.92-1.45-10-.82-15.12,0-.35.33-3.1-.44-2.24a13.75,13.75,0,0,0-2.18,6.78c-.27-.8-.53-1.6-.76-2.41a35.4,35.4,0,0,1,8.24-27.64C116.74,71.73,137,58.37,161.39,63c7,1.52,14.32,4.59,19.07,10.2A14.39,14.39,0,0,1,182,75.8c.11.2.22.43.34.64-.31.44-.31,1.21.35,1.28,1.7-.32,3.19-1.46,4.91-1.85a15.22,15.22,0,0,1,8.2-.15c14.52,3.9,20.13,24.18,19.61,37.58a16,16,0,0,1-2.41,8.3c0-.2,0-.4,0-.6a12.05,12.05,0,0,0-.72-4.49c-.15-.41-.38-.94-.87-1s-.62.44-.68.77c0,5.2-.35,10.46-2.6,15.26a41.9,41.9,0,0,1-2.18,4.53,1,1,0,0,0-.09.36c-2.58.54-5.23,3-7,5.46a.56.56,0,0,0-.21-.22,74.94,74.94,0,0,0,.18-9.11c-.1-1.29.52-3.14-.83-4-3.89-2.92-6.87-7-7.49-11.9a21.72,21.72,0,0,0,8.13,2.25,7.31,7.31,0,0,0,1.62-.07.94.94,0,0,0,0-1.87c-4.89-.71-10.06-2-13.13-6.24a23.67,23.67,0,0,1-4.19-9.6c-.83-3-1.56-6.7-4.45-8.48a3.67,3.67,0,0,0-2.77-.38,2.48,2.48,0,0,0-.54.21c-3.43-6.08-10.84-7.82-16.45-3.51-3.75,2.72-5.84,7-8.18,10.85-3.84,6.94-10.06,12.61-17.89,14.55a30.18,30.18,0,0,0,4.5-6.21c.27-.72,1.21-1.75,1.15-2.57A13.32,13.32,0,0,0,141,98.1c.09-.32-.42-.43-.47-.12-1.85,2.38-3,5.26-5,7.6a39,39,0,0,1-11.47,10c-2.54,1.46-5.16,2.78-7.78,4.08a3.63,3.63,0,0,1-.49.26,20.41,20.41,0,0,0,1-4.49c0-.58.36-5.66-.88-3.72-1.07,2.88-1.42,6-2.7,8.82-1.52,3.72-4,7.18-6.1,10.62a106.17,106.17,0,0,0,1,11.43.59.59,0,0,0-.39.26c-1.93-2.7-4.79-5.26-7.24-6a.71.71,0,0,0-.07-.39A38.82,38.82,0,0,1,98.14,130.81ZM172.06,92c-4.8-2-10.67-.63-15.12,2a21.92,21.92,0,0,1,1.66-2C162.87,87.79,168.2,88,172.06,92ZM105,161.69c-4.64-2.51-10-16.06-8.2-21,2.51-4.64,7.37,1.64,9.28,4a29.82,29.82,0,0,1,1.83,2.64c.37,1.73.84,3.41.86,4,.56,2.59,1.11,5,1.67,7.32a22.94,22.94,0,0,1-3.83-4.33c-2.25-3.5,1.22-5.86-2.68-9-1.2-1.1-3-2.63-4.7-2.45-.34.26,0,.68.23.87s.66.47,1,.72a.44.44,0,0,0-.14.32c0,4.65,1.74,10.59,6.23,12.65a9.75,9.75,0,0,0,3.48,2.75.68.68,0,0,0,.76-.21c.25,1,.5,2,.76,2.9A9.46,9.46,0,0,1,105,161.69Zm.73-5.49c-3.46-2.17-4.71-7.09-4.48-11.06a10.36,10.36,0,0,1,3.59,7.21A6.81,6.81,0,0,0,105.68,156.2Zm7.49,3.46c-1.32-4.72-2.19-9.55-3.32-14.31a50.14,50.14,0,0,0-.27-5.87c-.13-2.43-1-4.87-.86-7.29a59.82,59.82,0,0,0,6-9.61c1.46-.52,2.87-1.19,4.28-1.84a52.62,52.62,0,0,0,12.7-7.86c.53-.49,1.1-1,1.68-1.59a46.46,46.46,0,0,1-2.49,4.12h0s0,.06,0,.09a.8.8,0,0,0,.36.78c.65.4,1.44.09,2.11-.08a27.58,27.58,0,0,0,16.88-11.65c2-2.65,3.44-5.63,5.22-8.4a22,22,0,0,1,17.84-2.74c.53.8,1.26,1,1.73.78,7-.76,3.87,13.7,13.11,20.9a2.52,2.52,0,0,0,0,.77c.21,6,3.84,11.11,8.6,14.54,1.24.73.48,2.88.47,4.12s-1.05,7.62-.54,9.94c-.79,2.9-1.28,7.07-1.69,8.13-2.29,10.25-4.22,21.33-11.12,29.66-4.89,4.9-11.9,6.5-18.48,7.71a62.09,62.09,0,0,1-9.78,1.39,6.12,6.12,0,0,0-1.7.09c-.87-.17-2,0-2.77-.19C127.5,188.9,118.72,183.54,113.17,159.66Zm64,29.62a13.08,13.08,0,0,1,2.3,7.94,11.88,11.88,0,0,1-.27,1.32,13.93,13.93,0,0,1-3.59,4.41c-.26.19-.52.36-.78.53,0-.75-.42-1.68-.4-2.34-.51-3.53-.69-7.31.57-10.72a1.8,1.8,0,0,0,.16-.38C175.86,189.81,176.53,189.56,177.19,189.28Zm-42.92,5.46c1.06,1,2.19,2,3.16,3a22.45,22.45,0,0,0,13.62,5.93c8.3.2,15.36-5.37,21-10.95-.57,3.69.26,8.56.86,11.1a1,1,0,0,0,.37.56c-4.85,2.54-10.69,3.26-15.15,6.64a14.35,14.35,0,0,0-5.46,6,14.89,14.89,0,0,0-2.32-4.27c-3.89-5.69-11.68-5.43-17.19-8.58.19-.82.18-1.86.39-2.43A54.06,54.06,0,0,0,134.27,194.74Zm-.67-4.29c5.29,1.75,11.87,2.82,20.19,3.45a1.21,1.21,0,0,0,.67-.19c2.28.36,4.75-.3,7-.57,3.29-.59,6.57-1.25,9.83-2-.74.71-1.49,1.42-2.34,2.11-7.08,6.48-18,12-27.26,6.7a21.18,21.18,0,0,1-5.34-4.74c-1-1.31-1.72-2.81-2.6-4.21Q133.7,190.72,133.6,190.45Zm-2.1,10.88c-.05.55-.09,1-.14,1.55a9.91,9.91,0,0,1-1.58-1.59c-1.17-2.34-.55-5,.23-7.32l.74-1.48c.2-.48.45-.94.69-1.41l.12.28C132.43,194.54,131.78,198.06,131.5,201.33ZM108.56,215.1a1.48,1.48,0,0,0,.35-.36,19,19,0,0,0,7.06,1.9c1.21.15,2.41.32,3.61.5l-1.85.18a74.18,74.18,0,0,0-14.68,3.1A53.33,53.33,0,0,1,108.56,215.1Zm99.91,38.77a111.81,111.81,0,0,1-40,9.64,172.06,172.06,0,0,1-54.91-4.73c-8.82-2.25-17.75-5.12-25.2-10.55a2.74,2.74,0,0,0,.36-1c.51-1.88,1.07-3.74,1.75-5.57a66,66,0,0,1,11.4-19.95,54.52,54.52,0,0,1,6.23-2,67.35,67.35,0,0,1,14.7-2c1.69.32,3.36.68,5,1.12h0a40,40,0,0,1,8.38,3.06c-.73,1.55-1.33,3-1.53,3.5-1.64,4.15-6.47,25.49,0,26.12,4.21-.09,2.12-5.33,2.38-8a57.05,57.05,0,0,1,4.21-19.73c.08-.36.57-1.19.88-1.95.08.13.18.25.26.38a.49.49,0,0,0,.63.16c.74-.54-.4-1.74-.57-2.41a11.11,11.11,0,0,0-3.35-3.83,1.1,1.1,0,0,0-.93-.32c-1.08.46-.08,1.42.51,1.95a9.54,9.54,0,0,0-1.47,2.09c-2.71-2.11-10.43-3.62-12.78-4.25-7.33-1.83-17.33-.23-19.35-9.72-.93-4.5,2.94-7.09,5.91-9.67a1.64,1.64,0,0,0,.45-1c.09-1.69.08-3.37.27-5a22.1,22.1,0,0,1,5.63-12.29,26.81,26.81,0,0,0,13.41,11.5c.09.18.19.35.26.53-.35.73-.63,1.5-1,2.21-.14.28-.26.57-.4.85a1.06,1.06,0,0,0-.78.08c-1.15.63-1.52,2.07-1.82,3.26-2.44,11.57,12.63,11.14,19.32,15.71,2.63,2.1,4,5.29,5.68,8.15a1.34,1.34,0,0,0,.34.95c.89.45,1.18-1,1.53-1.6a17.29,17.29,0,0,1,1.88-3.26c5-6.35,13.72-6.71,20.2-10.69a15.32,15.32,0,0,0,5.2-5.81c.3-1.21,2.5-4.92.78-5.5a1,1,0,0,0-1.24.52c-.1.34-.21.68-.32,1a14.38,14.38,0,0,0-2.39-6.86,24.89,24.89,0,0,0,7.45-4.92,34,34,0,0,0,4-5.85c5.45,3.72,7.46,9.42,6.26,16-.36,1.29.79,2.18,1.52,3.08,2.28,2.74,5.2,6,4.07,9.9-1.44,5.09-7.23,6.68-11.94,6.83a49.57,49.57,0,0,0-10,1.83c-1.39.45-8.31,2.52-10.3,4.54-.31-.56-.63-1.11-1-1.66a5.76,5.76,0,0,0-.6-.8,4.72,4.72,0,0,0,1.06-1.66.5.5,0,0,0-.33-.49c-2.11-.11-3.37,2.39-4.36,3.94-.33.83-.74,1.52-1,2.43a.56.56,0,0,0,.3.61.58.58,0,0,0,.68-.13l.31-.47.12.15c3.63,5.28,4.81,11.83,4.82,18.16,0,1.74,0,3.74-.15,5.55s-.46,3.9,1.27,4.9a2.57,2.57,0,0,0,3.08-.67c3.9-4.54,1.28-14.27,0-19.61A44.1,44.1,0,0,0,170,222a3.31,3.31,0,0,0,.5-.24c.92-.47,1.84-.93,2.79-1.34a55.17,55.17,0,0,1,7.55-2.62c6.65-.6,13.36.32,20,1C209.05,227.05,214,238,218,248.87a.81.81,0,0,0,.11.27C215,250.82,211.73,252.39,208.47,253.87Zm-73.22-7.44c-.17.75.69,4.09-1,3.14-2.49-2.74-.64-12.41-.07-16.12A39.11,39.11,0,0,1,139.07,220a8.31,8.31,0,0,1,.69-1.08c.55.61,1.1,1.23,1.61,1.88A9.1,9.1,0,0,0,140,223a57.48,57.48,0,0,0-4.29,14.48A45.75,45.75,0,0,0,135.25,246.43Zm35.55-6.49a39.29,39.29,0,0,0-3.73-16.22c-.46-.66-1.18-2.32-2-2.81.17-.25.34-.5.54-.74a6.23,6.23,0,0,1,.76-1,2,2,0,0,0,.22.29c4.14,7.18,8.49,20.17,6.23,28.35-.28.94-1.72,2.35-2.08.71C170.83,245.67,170.91,242.8,170.8,239.94Z"/><polygon class="cls-10" points="111.46 165.2 111.47 165.2 111.47 165.2 111.47 165.2 111.46 165.2"/><path class="cls-14" d="M209.35,111.52l-5.16-4.91c2.23,5.06,1.67,10.85.9,16.32a54.93,54.93,0,0,1-2.85,12.39,48.92,48.92,0,0,1-3,6c-.14.17-.26.35-.39.52a.64.64,0,0,0-.21-.22,74.94,74.94,0,0,0,.18-9.11c-.1-1.29.52-3.14-.83-4-3.9-2.91-6.88-7-7.49-11.88a21.91,21.91,0,0,0,8.14,2.24,7.25,7.25,0,0,0,1.61-.08.93.93,0,0,0,0-1.85c-4.89-.72-10.06-2-13.12-6.25a23.42,23.42,0,0,1-4.2-9.6c-.83-3-1.55-6.7-4.45-8.49a3.71,3.71,0,0,0-2.77-.37,2.24,2.24,0,0,0-.53.21c-3.44-6.07-10.85-7.82-16.47-3.51-3.74,2.72-5.84,7-8.17,10.84-3.85,7-10.06,12.62-17.89,14.56a30.39,30.39,0,0,0,4.5-6.2c.27-.73,1.21-1.75,1.15-2.58A13.27,13.27,0,0,0,141,98.1c.09-.32-.42-.43-.47-.12-1.85,2.38-3,5.25-5,7.6a38.8,38.8,0,0,1-11.46,10c-2.54,1.46-5.15,2.78-7.78,4.07a4.27,4.27,0,0,1-.49.28,20.05,20.05,0,0,0,1-4.5c0-.57.36-5.66-.88-3.72-1.07,2.88-1.42,6-2.71,8.82-1.52,3.72-4,7.18-6.09,10.62a105.94,105.94,0,0,0,1,11.43.59.59,0,0,0-.39.26,20.17,20.17,0,0,0-4.33-4.46,58.61,58.61,0,0,1-.67-15.64,38.47,38.47,0,0,1,6.81-18.69l-7.89,7.19a32.87,32.87,0,0,1,5-12.24c6.55-10.48,15.52-19.65,26.55-25.17s24.25-7.17,35.94-3.23a20.78,20.78,0,0,1,5.39,2.59c2.74,2,4.67,4.82,6.38,7.71,4.47-2,9.27-.38,13.5,2.07A30.92,30.92,0,0,1,209.35,111.52Z"/><path class="cls-16" d="M148,213.65a140.57,140.57,0,0,1-18.26-4.92,17.36,17.36,0,0,1-6.86-3.65,12.78,12.78,0,0,1-3.29-7,19.77,19.77,0,0,1,3-13.77,28.31,28.31,0,0,0,8.24,5.13,5,5,0,0,1,.26.52c-.35.73-.63,1.5-1,2.21-.14.28-.26.57-.4.85a1,1,0,0,0-.77.08c-1.16.63-1.53,2.07-1.84,3.26-2.44,11.57,12.64,11.14,19.33,15.71A12,12,0,0,1,148,213.65Z"/><path class="cls-16" d="M190.9,194c-.57,5.26-4.43,9.71-9,12.37s-9.84,3.82-15,4.94c-3.06.67-5.95,2-8.89,2.7,5.09-4.25,12.38-5,18-8.42a15.32,15.32,0,0,0,5.2-5.81c.3-1.22,2.5-4.92.78-5.5a1,1,0,0,0-1.24.52c-.1.34-.22.68-.32,1a14.35,14.35,0,0,0-2.39-6.87,25.07,25.07,0,0,0,7.46-4.92c.54-.63,1-1.27,1.52-1.93C189.62,185.59,191.37,189.72,190.9,194Z"/></g></g></svg>