<svg width="101" height="106" viewBox="0 0 101 106" fill="none" xmlns="http://www.w3.org/2000/svg">
<g clip-path="url(#clip0_346_2057)">
<path d="M50.0718 100.283C77.7257 100.283 100.144 77.8336 100.144 50.1413C100.144 22.449 77.7257 0 50.0718 0C22.4179 0 0 22.449 0 50.1413C0 77.8336 22.4179 100.283 50.0718 100.283Z" fill="#C5EDD0"/>
<path d="M86.5975 59.8731L86.5551 59.9778C86.5354 60.0259 86.5128 60.0739 86.493 60.1192C86.4891 60.1322 86.4834 60.1446 86.476 60.156C86.4421 60.2267 86.4111 60.2946 86.3772 60.3597C86.3433 60.4247 86.2726 60.5719 86.2161 60.6765L86.0692 60.9368C84.8147 63.0292 82.8811 64.627 80.5914 65.4632C80.501 65.5 80.4078 65.5311 80.3089 65.5594C79.9713 65.6717 79.628 65.7662 79.2805 65.8423C75.17 66.7645 70.8053 65.4264 67.2965 63.0868C64.7003 61.3527 62.4798 59.1262 60.3892 56.8404C58.6518 54.9308 56.9398 52.8798 56.6036 50.2262C56.42 48.7551 56.6827 47.185 57.5641 45.9827C58.1602 45.1764 59.0021 44.588 59.7027 43.8694C60.4033 43.1508 60.9853 42.1946 60.8553 41.196C64.1958 38.8583 67.9982 37.2655 72.0059 36.5253C72.7442 36.3782 73.4882 36.2547 74.2378 36.1547L74.7887 36.084C76.0741 35.9312 77.3793 35.8407 78.6901 35.8011C79.532 35.7803 80.3795 35.7803 81.2327 35.8011C81.2073 36.2254 81.1988 36.6498 81.2016 37.0741C81.1197 37.4221 81.0349 37.7729 80.953 38.118C80.9699 38.6838 81.0095 39.2496 81.0716 39.8154C81.3296 42.1663 81.968 44.4595 82.9616 46.6051C83.3035 47.3463 83.6905 48.079 84.0917 48.806C84.2075 49.021 84.3262 49.2332 84.442 49.4454C85.8291 51.9915 87.2106 54.5602 87.1173 57.3666C87.0886 58.2408 86.9049 59.1029 86.5749 59.9127C86.5831 59.8999 86.5907 59.8867 86.5975 59.8731Z" fill="#38102B"/>
<path d="M70.1216 101.957C66.8325 102.994 63.4856 103.836 60.0982 104.481C49.9787 106.41 39.427 106.642 29.4121 104.376L30.2455 77.7298L27.4995 47.0577C27.8809 46.7324 28.2256 46.4919 28.4826 46.2939C28.6889 46.1496 28.8386 46.0534 28.9064 46.011L35.3363 41.708L53.4168 40.121L61.3695 48.7806L62.6577 71.8652L70.1216 101.957Z" fill="#FFB864"/>
<path d="M40.7855 37.4136L35.3359 41.708L45.317 52.6421L48.611 46.9558L54.5889 49.9913L53.4306 40.1181L49.888 38.2821L44.5909 40.3161L40.7855 37.4136Z" fill="white"/>
<path d="M41.3368 41.2582L48.6113 46.9558L50.4392 41.2978C50.4392 41.2978 50.281 40.5962 50.2217 40.3246C50.0776 39.6768 49.973 39.2128 49.9561 39.1082C49.8064 38.2595 49.8798 34.4827 49.8798 34.4827L40.1982 31.9706C40.1982 31.9706 40.3819 33.8462 40.6079 35.9114C40.8706 38.3953 41.3368 41.2582 41.3368 41.2582Z" fill="#F3A080"/>
<path d="M40.6079 35.9029C43.4132 37.2721 49.5945 40.2567 50.1708 40.3161H50.2217C50.0776 39.6683 49.973 39.2044 49.9561 39.0997C49.8064 38.251 49.8798 34.4743 49.8798 34.4743L40.1982 31.9621C40.1982 31.9621 40.3819 33.8377 40.6079 35.9029Z" fill="#EA7C6F"/>
<path d="M39.0259 32.4939C39.0259 32.4939 39.3649 33.1022 40.5232 33.8094C40.7873 33.9728 41.0598 34.122 41.3397 34.2564C42.5262 34.8222 53.109 37.2976 54.5865 36.828C56.064 36.3584 56.5641 30.8871 56.5641 30.3213C56.4539 26.8699 55.6628 14.5863 55.6628 14.5863C49.9195 3.91816 37.9128 13.7999 36.5963 15.1804C35.2799 16.561 39.0259 32.4939 39.0259 32.4939Z" fill="#F3A080"/>
<path d="M40.5259 33.8094C40.79 33.9728 41.0625 34.122 41.3423 34.2564C42.5289 34.8222 53.1116 37.2976 54.5892 36.828C56.0667 36.3584 56.5667 30.8871 56.5667 30.3213C56.0271 32.7769 55.5214 36.1349 54.431 36.2226C52.7783 36.364 41.8311 34.2281 40.5259 33.8094Z" fill="#F8BF92"/>
<path d="M52.1963 28.1259C52.0296 27.8091 51.8658 27.4923 51.7019 27.1754C50.848 27.1347 50.0303 26.8181 49.3712 26.2729C49.2963 26.54 49.2573 26.8159 49.2554 27.0934C49.2537 27.3713 49.3543 27.6402 49.5379 27.8487C49.7289 28.0241 49.9645 28.1435 50.2187 28.1938C50.8709 28.3602 51.557 28.3367 52.1963 28.1259Z" fill="#EA7C6F"/>
<path d="M49.4023 27.8148C49.498 27.8917 49.599 27.9617 49.7046 28.0241C49.9966 28.1983 50.3155 28.3225 50.6482 28.3919C51.223 28.5173 51.8211 28.482 52.3772 28.2901L52.4704 28.2618C52.4845 28.2618 52.5071 28.2618 52.5128 28.2618L52.4902 28.225L52.4026 28.0722C52.3404 27.9704 52.2783 27.8657 52.2161 27.7582C52.1907 27.7183 52.1681 27.6767 52.1483 27.6337L52.0975 27.5404L51.9986 27.348C51.8771 27.0849 51.7556 26.8105 51.6539 26.5191C51.298 25.522 51.1387 24.4651 51.185 23.4072C51.1981 23.08 51.2321 22.754 51.2867 22.4312C51.3291 22.202 51.3517 22.0747 51.3517 22.0747L51.2104 22.4114C51.0879 22.7249 50.9934 23.0487 50.9279 23.3789C50.713 24.4872 50.7979 25.6329 51.1737 26.6973C51.2813 27.0009 51.4116 27.296 51.5635 27.58L51.7811 27.9393C51.7811 27.9619 51.8545 28.0156 51.8404 28.0241C51.6778 28.089 51.5064 28.1291 51.3319 28.143C51.1146 28.1712 50.8952 28.1788 50.6765 28.1656C50.3541 28.1439 50.0359 28.0802 49.7301 27.976C49.6179 27.9285 49.5085 27.8747 49.4023 27.8148Z" fill="#DD5B67"/>
<path d="M55.4421 19.9982C55.4421 19.9982 53.586 17.1381 52.2921 18.0604C50.9982 18.9826 51.5209 19.1467 51.5209 19.1467L55.4421 19.9982Z" fill="#444444"/>
<path d="M40.7124 21.6051C40.7124 21.6051 43.8624 17.1834 45.6026 18.1509C46.6168 18.7167 46.0801 19.3617 46.0801 19.3617L40.7124 21.6051Z" fill="#444444"/>
<path d="M54.5468 27.4725C54.7756 27.86 55.6768 27.7554 56.5639 27.2235C57.451 26.6916 57.9765 25.9618 57.7533 25.5742C57.5301 25.1866 56.6232 25.2913 55.7362 25.8231C54.8491 26.355 54.318 27.0821 54.5468 27.4725Z" fill="#EA7C6F"/>
<path d="M40.4241 27.1698C40.3704 27.8233 41.5542 28.4485 43.0401 28.5673C44.5261 28.6861 45.7918 28.2476 45.8426 27.5941C45.8935 26.9406 44.7126 26.3126 43.2238 26.1966C41.735 26.0806 40.475 26.5134 40.4241 27.1698Z" fill="#EA7C6F"/>
<path d="M47.5576 23.4779C47.131 22.6462 45.9982 22.2473 44.9896 22.4453C44.4985 22.5555 44.0358 22.7672 43.631 23.0668C43.2263 23.3664 42.8885 23.7473 42.6392 24.1852C44.0037 23.2572 45.9869 23.0253 47.5576 23.4779Z" fill="#2A2B2B"/>
<path d="M52.7671 23.2912C52.788 22.9983 52.9198 22.7244 53.1356 22.5257C53.3515 22.3269 53.635 22.2182 53.9282 22.2218C54.4932 22.2501 55.0582 22.6745 55.4424 23.2374C54.578 22.7084 53.3914 22.9857 52.7671 23.2912Z" fill="#2A2B2B"/>
<path d="M51.3659 29.7187C50.4117 30.4737 49.2128 30.8494 47.9991 30.7737C46.7854 30.698 45.6423 30.1762 44.7891 29.3085C45.0972 29.9157 45.5534 30.4352 46.1154 30.819C46.6774 31.2027 47.327 31.4382 48.004 31.5038C49.3459 31.6 50.5918 30.822 51.3659 29.7187Z" fill="#DD5B67"/>
<path d="M50.12 31.9055C49.811 32.3441 49.3457 32.6472 48.8201 32.7525C48.2945 32.8578 47.7486 32.7571 47.2949 32.4713C48.2702 32.5391 49.2458 32.3437 50.12 31.9055Z" fill="#EA7C6F"/>
<path d="M40.5455 32.6382C39.6924 32.706 38.8344 32.5982 38.0245 32.3214C37.2146 32.0445 36.4698 31.6045 35.8361 31.0285C35.6407 30.8554 35.4602 30.6661 35.2965 30.4627C34.5309 29.515 33.7201 25.9024 35.0592 24.7906C35.9971 24.0126 36.9097 24.7368 37.373 25.2432C37.4865 25.3651 37.5904 25.4956 37.6837 25.6336L40.5455 32.6382Z" fill="#F8BF92"/>
<path d="M40.5456 32.6382C39.6924 32.706 38.8345 32.5982 38.0245 32.3213C37.2146 32.0445 36.4698 31.6045 35.8361 31.0285C35.7486 30.938 35.6723 30.8503 35.6045 30.7654C34.8389 29.8177 34.0281 26.2051 35.37 25.1074C36.1299 24.4765 36.8729 24.8245 37.373 25.2602C37.4865 25.3821 37.5904 25.5126 37.6837 25.6506L40.5456 32.6382Z" fill="#F3A080"/>
<path d="M35.1019 27.7695C35.0921 28.0757 35.1706 28.3781 35.3279 28.6408C35.9494 29.7922 37.3337 30.508 38.6558 31.1671C38.2119 30.6518 37.9489 30.0048 37.9072 29.3255C37.905 29.0938 37.8899 28.8624 37.862 28.6324C37.7094 27.7129 35.2375 25.9703 35.1019 27.7695Z" fill="#EA7C6F"/>
<path d="M39.3026 31.4105L39.2291 31.385C39.1839 31.368 39.1105 31.3454 39.0229 31.3058C38.7804 31.1999 38.5548 31.0588 38.3533 30.8871C38.0729 30.6461 37.8523 30.3429 37.7092 30.0016C37.5398 29.5847 37.511 29.1238 37.6273 28.689C37.6423 28.6293 37.6612 28.5707 37.6838 28.5136L37.7007 28.4711L37.6753 28.44L37.6216 28.3778C37.5877 28.3382 37.5538 28.2957 37.5171 28.2561C37.3781 28.1013 37.231 27.954 37.0764 27.8148C36.9267 27.6818 36.7741 27.5602 36.6244 27.4499C36.4886 27.3448 36.3451 27.2502 36.195 27.167C36.07 27.0994 35.9301 27.0644 35.7882 27.0651C35.6755 27.0724 35.567 27.1106 35.4746 27.1754C35.4188 27.2126 35.377 27.2673 35.3559 27.331C35.3534 27.3527 35.3534 27.3745 35.3559 27.3961C35.3521 27.3746 35.3521 27.3526 35.3559 27.331C35.3637 27.2596 35.3967 27.1934 35.4492 27.1443C35.5432 27.0486 35.6646 26.9843 35.7966 26.9604C35.9737 26.9334 36.1548 26.9529 36.3221 27.017C36.4996 27.0824 36.6707 27.1638 36.8334 27.2603C37.0151 27.364 37.1906 27.4783 37.3589 27.6026C37.5381 27.7371 37.7071 27.8846 37.8646 28.0439L37.9833 28.1713L38.0398 28.2363L38.1189 28.3297L38.1725 28.3947C38.1725 28.4202 38.1528 28.4485 38.1443 28.474L38.1047 28.5871C38.0836 28.6363 38.0675 28.6875 38.0567 28.7399C37.9504 29.123 37.9504 29.5279 38.0567 29.9111C38.1541 30.2303 38.3145 30.5266 38.5285 30.7824C38.6867 30.9682 38.8692 31.1319 39.0709 31.269C39.1444 31.3199 39.2093 31.3539 39.2489 31.3793L39.3026 31.4105Z" fill="#B54B57"/>
<path d="M33.655 21.6079C33.6918 24.4058 35.7032 24.4737 35.7032 24.4737C36.1351 24.4732 36.5504 24.6405 36.8615 24.9405C37.9011 25.8316 38.5283 27.7016 38.5283 27.7016C39.3504 25.3988 38.5509 21.4467 38.5509 21.4467C39.1513 20.846 39.5332 20.0611 39.6356 19.2175C39.738 18.3739 39.5551 17.5202 39.1159 16.793C39.8035 17.1235 40.5575 17.292 41.3201 17.2855C42.0827 17.279 42.8338 17.0977 43.5156 16.7555C44.1974 16.4133 44.7919 15.9193 45.2535 15.3113C45.7151 14.7034 46.0316 13.9976 46.1786 13.2482C46.6391 14.0064 47.1109 14.7787 47.7889 15.3474C48.467 15.916 49.4134 16.2442 50.2581 15.9811C51.1028 15.718 51.7186 14.7137 51.3881 13.8932C52.2479 15.6965 53.7028 17.1474 55.5071 18.001C56.719 18.5668 58.2841 18.8016 59.3012 17.9302C59.5477 17.7082 59.7476 17.4393 59.8892 17.1391C60.0308 16.839 60.1113 16.5136 60.1261 16.1819C60.1637 15.6267 60.0668 15.0706 59.8436 14.5609C59.3548 13.4293 58.3943 12.6032 57.4253 11.8677C58.1768 12.0572 59.0102 11.4235 59.1656 10.6597C59.2202 10.2714 59.1749 9.87557 59.034 9.5097C58.8931 9.14383 58.6613 8.82006 58.3604 8.56906C57.7524 8.07334 57.0361 7.72828 56.2698 7.56194C54.7754 7.16022 53.0803 7.0612 51.7497 7.87878C51.9503 6.80376 50.9502 5.71459 49.8654 5.58446C48.7805 5.45433 47.7211 5.95223 46.803 6.54349C44.9864 7.72885 43.3564 9.3725 41.2291 9.81382C39.8504 10.0967 38.3842 9.8308 37.0338 10.2269C36.2487 10.4772 35.5403 10.9239 34.9758 11.5249C34.4112 12.1259 34.0091 12.8612 33.8076 13.6613C33.6203 14.4623 33.6102 15.2947 33.7781 16.1001C33.9459 16.9055 34.2877 17.6643 34.7794 18.3235C34.7794 18.3235 33.6211 18.8072 33.655 21.6079Z" fill="#2A2B2B"/>
<path d="M33.655 21.6079C33.6579 21.8821 33.6834 22.1556 33.7313 22.4255C34.1042 24.4058 35.7089 24.4737 35.7089 24.4737C36.1408 24.4732 36.556 24.6405 36.8671 24.9405C37.5 23.4044 36.8671 21.4184 35.4207 20.5895C36.8502 20.796 38.0819 19.2938 38.1102 17.8454C38.1384 16.3969 37.3276 15.0729 36.4603 13.9102C37.7175 14.3289 38.9888 14.7589 40.3109 14.8806C41.6331 15.0022 43.0287 14.8014 44.1191 14.0488C45.2096 13.2963 45.93 11.9243 45.6758 10.6229C46.5628 11.1293 47.0092 12.1308 47.6533 12.9201C48.2974 13.7094 49.4868 14.3063 50.3033 13.6896C51.1197 13.0728 50.8683 11.7517 50.5095 10.7559C52.326 14.1903 56.2388 16.3488 60.0922 16.1819C60.1298 15.6267 60.0329 15.0706 59.8097 14.5609C59.6692 14.2414 59.4919 13.9395 59.2814 13.6613C58.7397 12.9765 58.1033 12.3726 57.3914 11.8677C58.1429 12.0572 58.9763 11.4235 59.1317 10.6597C59.1863 10.2714 59.141 9.87557 59.0001 9.5097C58.8592 9.14383 58.6274 8.82006 58.3265 8.56906C57.7185 8.07334 57.0022 7.72828 56.2359 7.56194C54.7415 7.16022 53.0464 7.0612 51.7158 7.87878C51.9164 6.80376 50.9163 5.71459 49.8315 5.58446C48.7466 5.45433 47.6872 5.95223 46.7691 6.54349C44.9525 7.72885 43.3225 9.3725 41.1952 9.81382C39.8165 10.0967 38.3503 9.8308 36.9999 10.2269C36.2211 10.482 35.5196 10.931 34.9613 11.5317C34.403 12.1323 34.006 12.8651 33.8076 13.6613C33.6203 14.4623 33.6102 15.2947 33.7781 16.1001C33.9459 16.9055 34.2877 17.6643 34.7794 18.3235C34.7794 18.3235 33.6211 18.8072 33.655 21.6079Z" fill="#444444"/>
<path d="M33.655 21.608C33.6579 21.8821 33.6834 22.1556 33.7313 22.4255C34.2963 22.004 34.2652 21.1779 34.4037 20.499C34.5325 19.8946 34.8173 19.3347 35.2298 18.875C35.6422 18.4153 36.1678 18.072 36.7541 17.8793C36.2654 16.9373 35.771 15.9641 35.6665 14.906C35.562 13.848 35.949 12.6655 36.8671 12.1364C38.1328 11.4066 39.6922 12.1364 41.1613 12.1534C43.0739 12.1704 44.752 10.9171 46.1532 9.60731C46.6923 9.04177 47.3075 8.55426 47.981 8.15887C48.676 7.80807 49.549 7.69208 50.2411 8.08248C50.9332 8.47288 51.2525 9.45738 50.7807 10.0798C51.2866 9.6005 51.8886 9.23457 52.5467 9.00629C53.2048 8.77802 53.9038 8.69262 54.5974 8.75578C55.5099 8.84914 56.5439 9.40646 56.5749 10.3287C56.5975 11.2991 55.5268 11.8762 54.62 12.227C56.2777 12.3109 57.8889 12.8047 59.3096 13.6641C58.7679 12.9793 58.1316 12.3754 57.4196 11.8705C58.1711 12.0601 59.0045 11.4264 59.1599 10.6625C59.2145 10.2742 59.1693 9.8784 59.0284 9.51254C58.8875 9.14667 58.6556 8.8229 58.3548 8.5719C57.7467 8.07618 57.0305 7.73112 56.2642 7.56477C54.7697 7.16305 53.0747 7.06404 51.7441 7.88162C51.9446 6.8066 50.9446 5.71743 49.8597 5.5873C48.7749 5.45716 47.7155 5.95507 46.7973 6.54633C44.9808 7.73168 43.3507 9.37534 41.2234 9.81666C39.8448 10.0996 38.3786 9.83364 37.0282 10.2297C36.2444 10.4806 35.5374 10.9273 34.9739 11.5277C34.4104 12.1281 34.009 12.8624 33.8076 13.6613C33.6203 14.4623 33.6102 15.2947 33.7781 16.1001C33.9459 16.9055 34.2877 17.6644 34.7794 18.3235C34.7794 18.3235 33.6211 18.8072 33.655 21.608Z" fill="#595959"/>
<path d="M77.1473 76.6151L74.39 84.1148L74.7742 86.4572L55.4421 90.8705L53.4307 77.4554L57.8067 73.4721L77.1473 76.6151Z" fill="#444444"/>
<path d="M65.1096 47.7536L61.3833 48.7805L56.0156 75.1073C56.0156 75.1073 73.3306 80.5984 78.8169 77.9363C78.8169 77.9363 77.1218 59.9551 77.2942 58.6736C77.4665 57.392 77.1218 51.386 77.2942 50.9645C77.4665 50.543 70.1439 48.26 70.1439 48.26C70.1439 48.26 67.2623 51.8726 65.1096 47.7536Z" fill="#8DB8DB"/>
<path d="M70.466 46.9926L69.6637 50.1045C68.1551 51.8359 64.4966 50.6703 64.5305 50.345C64.5305 50.2318 64.6605 49.6887 64.813 49.0465C65.0644 47.9318 65.4035 46.5004 65.4035 46.5004L70.466 46.9926Z" fill="#F3A080"/>
<path d="M70.4661 46.9926L69.9689 48.9559C68.8756 49.219 66.446 49.765 65.7313 49.6462C65.5494 49.6135 65.3759 49.5445 65.2211 49.4434C65.0663 49.3424 64.9334 49.2112 64.8301 49.0578C65.0815 47.9431 65.4205 46.5117 65.4205 46.5117L70.4661 46.9926Z" fill="#EA7C6F"/>
<path d="M75.7743 32.4176C73.0622 29.8488 69.1269 28.9351 65.6407 30.2675C63.4936 31.088 61.6347 33.4643 60.9511 36.7233C59.4453 43.9005 61.1262 46.8031 66.6888 48.2402C73.1696 49.9122 78.5542 41.8948 79.4017 38.6216C79.8566 36.8082 77.766 34.3074 75.7743 32.4176Z" fill="#F3A080"/>
<path d="M61.8296 37.6569C61.971 37.5201 62.1471 37.4246 62.3388 37.3807C62.5305 37.3369 62.7305 37.3463 62.9172 37.4079C63.6292 37.5947 63.7478 38.4603 63.7478 38.4603C63.7478 38.4603 62.8862 37.5211 61.8296 37.6569Z" fill="#1D1E1E"/>
<path d="M70.4745 40.0983C70.4193 39.8098 70.2864 39.542 70.0902 39.3236C69.8941 39.1052 69.6421 38.9446 69.3614 38.8592C68.3387 38.4745 67.4517 39.425 67.4517 39.425C67.4517 39.425 69.2936 39.0403 70.4745 40.0983Z" fill="#1D1E1E"/>
<path d="M76.5797 41.4478C76.5797 41.4478 78.9414 39.6768 80.015 41.9457C81.0885 44.2145 75.8056 48.5061 74.1416 45.4282L76.5797 41.4478Z" fill="#F3A080"/>
<path d="M78.8088 42.7491C78.7762 42.9786 78.6781 43.1937 78.5263 43.3687C77.9245 44.1466 76.8115 44.5003 75.7549 44.8426C76.145 44.5132 76.4168 44.0652 76.529 43.5667C76.5685 43.397 76.5911 43.2216 76.6448 43.0575C76.8821 42.404 78.9218 41.4082 78.8088 42.7491Z" fill="#EA7C6F"/>
<path d="M75.2549 44.9557H75.3142L75.4781 44.9218C75.6699 44.8709 75.8535 44.7928 76.0233 44.6898C76.2602 44.5441 76.4603 44.3456 76.6081 44.1099C76.7836 43.8217 76.8591 43.4836 76.8228 43.148C76.8204 43.1022 76.8138 43.0568 76.803 43.0122V42.9783L76.8256 42.9585L76.8737 42.916L76.9641 42.8396C77.0857 42.7381 77.213 42.6437 77.3454 42.5567C77.4726 42.4747 77.5997 42.404 77.724 42.3389C77.8375 42.2787 77.9556 42.2276 78.0771 42.1861C78.1777 42.1504 78.2858 42.1416 78.3907 42.1607C78.473 42.1789 78.5484 42.2201 78.6083 42.2795C78.6461 42.3134 78.671 42.3594 78.6789 42.4096C78.6807 42.4256 78.6807 42.4418 78.6789 42.4577C78.6863 42.4426 78.691 42.4264 78.693 42.4096C78.6951 42.356 78.6792 42.3032 78.6478 42.2597C78.5875 42.1793 78.505 42.1183 78.4105 42.0843C78.2829 42.0425 78.1466 42.0347 78.015 42.0617C77.8723 42.0899 77.7324 42.1306 77.5969 42.1833C77.4499 42.2385 77.3065 42.3027 77.1675 42.3757C77.0184 42.4544 76.8749 42.5432 76.7381 42.6416L76.6364 42.7208L76.5855 42.7633L76.5149 42.8227L76.4697 42.8651C76.4685 42.8858 76.4685 42.9066 76.4697 42.9273L76.4866 43.015C76.4965 43.0539 76.5021 43.0938 76.5036 43.1339C76.5345 43.4304 76.4837 43.7298 76.3567 43.9995C76.2461 44.2259 76.0903 44.4271 75.899 44.5908C75.76 44.7055 75.606 44.8007 75.4413 44.8737C75.382 44.9048 75.3283 44.9218 75.2973 44.9359L75.2549 44.9557Z" fill="#B54B57"/>
<path d="M62.4175 35.7699C62.4175 35.7699 63.669 34.0923 64.3668 34.7543C65.0646 35.4163 64.751 35.4899 64.751 35.4899L62.4175 35.7699Z" fill="#4A0F2F"/>
<path d="M71.2205 38.2227C71.2205 38.2227 69.6215 35.0768 68.4745 35.7671C67.805 36.1688 68.0875 36.6158 68.0875 36.6158L71.2205 38.2227Z" fill="#4A0F2F"/>
<path d="M62.6491 40.8338C62.4541 41.1422 61.7253 41.0234 61.0275 40.5736C60.3297 40.1238 59.9172 39.5099 60.115 39.2015C60.3127 38.8931 61.0388 39.0148 61.7394 39.4646C62.44 39.9144 62.8468 40.5283 62.6491 40.8338Z" fill="#EA7C6F"/>
<path d="M72.3591 43.2866C72.297 43.7308 71.4297 43.9769 70.4155 43.8383C69.4013 43.6997 68.6329 43.2329 68.6922 42.7887C68.7515 42.3446 69.6216 42.0984 70.633 42.2371C71.6444 42.3757 72.4185 42.8453 72.3591 43.2866Z" fill="#EA7C6F"/>
<path d="M67.6663 42.0673C67.0197 42.4759 66.2696 42.6899 65.5051 42.684C65.1036 42.685 64.7061 42.604 64.3369 42.4459C63.9678 42.2878 63.6347 42.056 63.358 41.7646C63.3552 41.9371 63.3991 42.1071 63.4852 42.2566C63.5713 42.4061 63.6962 42.5293 63.8468 42.6133C64.4833 43.0242 65.2479 43.1882 65.9967 43.0744C66.6624 42.9677 67.2609 42.6067 67.6663 42.0673Z" fill="#DD5B67"/>
<path d="M66.316 43.4252C66.0419 43.569 65.737 43.6441 65.4275 43.6441C65.1181 43.6441 64.8132 43.569 64.5391 43.4252C64.6028 43.5898 64.7184 43.7291 64.8682 43.822C65.0181 43.9149 65.1941 43.9564 65.3696 43.9401C65.7372 43.8897 66.0737 43.7066 66.316 43.4252Z" fill="#EA7C6F"/>
<path d="M65.0304 40.2256C65.4465 40.2768 65.8683 40.1999 66.2395 40.005C66.0876 40.2725 65.8774 40.5022 65.6245 40.6771C65.3717 40.852 65.0826 40.9674 64.779 41.0149C64.6829 41.0149 63.9964 39.6853 64.1236 39.64C64.2507 39.5948 64.8016 40.1775 65.0304 40.2256Z" fill="#EA7C6F"/>
<path d="M64.9404 39.2355C64.9132 39.1721 64.8727 39.1153 64.8218 39.0689C64.7708 39.0225 64.7105 38.9876 64.645 38.9664C64.5794 38.9452 64.5101 38.9384 64.4417 38.9462C64.3733 38.9541 64.3073 38.9765 64.2483 39.012C64.133 39.0915 64.0431 39.2027 63.9895 39.3322C63.9358 39.4617 63.9207 39.6039 63.946 39.7418C63.9765 40.0131 64.0833 40.2701 64.2539 40.483C64.4138 40.6749 64.5896 40.8528 64.7794 41.0149C64.5504 40.6566 64.4216 40.2433 64.4065 39.8182C64.3961 39.7692 64.3966 39.7185 64.4078 39.6696C64.419 39.6207 64.4408 39.5749 64.4715 39.5353C64.5901 39.4165 64.7963 39.507 64.9037 39.6372C65.011 39.7673 65.1043 39.8409 65.2258 40.0163C65.4771 39.081 65.6016 38.1161 65.5958 37.1476C65.3359 37.8238 65.2342 38.5537 64.9404 39.2355Z" fill="#DD5B67"/>
<path d="M55.126 88.76L49.5804 88.9948C44.1873 94.9555 37.9212 101.629 37.9212 101.629L33.0112 97.8666C33.0112 97.8666 38.8055 88.5648 44.0686 82.1713C46.066 80.5927 53.6061 78.635 53.6061 78.635L54.8152 86.6807L55.126 88.76Z" fill="#F3A080"/>
<path d="M55.1258 88.76L54.8151 86.6807L48.275 87.9906L36.8306 100.792L37.9267 101.641C37.9267 101.641 44.1899 94.9669 49.583 89.0062L55.1258 88.76Z" fill="#EA7C6F"/>
<path d="M24.7676 93.2072C24.8852 93.0803 25.0337 92.9859 25.1986 92.9334C25.3634 92.8808 25.539 92.8719 25.7083 92.9074C26.8779 93.1903 31.0054 94.4379 32.4038 94.4152C33.4886 94.3954 34.9774 93.6853 35.5877 93.3685L41.3056 98.2485C40.4581 100.062 38.3901 103.219 37.9523 103.878L24.7676 93.2072Z" fill="#444444"/>
<path d="M23.6797 94.5284L36.8672 105.202L37.9435 103.878L24.7589 93.2044L23.6797 94.5284Z" fill="white"/>
<path d="M33.2032 95.6855C33.2046 95.7081 33.2046 95.7307 33.2032 95.7533C33.1749 95.9203 33.0704 96.1324 32.8614 96.0787C32.7567 96.0421 32.6659 95.9739 32.6015 95.8835C32.3675 95.5867 32.1824 95.2543 32.0534 94.899C31.8733 94.5252 31.7824 94.1145 31.7878 93.6995C31.8302 93.2695 32.2963 93.2157 32.5563 93.5354C33.0405 94.1418 33.2723 94.9121 33.2032 95.6855Z" fill="white"/>
<path d="M31.6351 95.5921V95.66C31.604 95.8297 31.4995 96.0419 31.2904 95.9853C31.1852 95.9497 31.0941 95.8813 31.0305 95.7901C30.7927 95.4934 30.6047 95.16 30.474 94.8028C30.2948 94.4297 30.2048 94.02 30.2113 93.6061C30.2508 93.1761 30.7169 93.1223 30.9769 93.4392C31.4656 94.0448 31.7015 94.8162 31.6351 95.5921Z" fill="white"/>
<path d="M30.0363 95.0857C30.0363 95.1083 30.0363 95.131 30.0363 95.1536C30.0052 95.3233 29.9035 95.5355 29.6944 95.4818C29.5892 95.4433 29.4977 95.3744 29.4317 95.2837C29.1977 94.988 29.0127 94.6566 28.8836 94.3021C28.7047 93.9279 28.6148 93.5174 28.6209 93.1026C28.6605 92.6726 29.1266 92.6188 29.3893 92.9385C29.8721 93.5446 30.1037 94.3134 30.0363 95.0857Z" fill="white"/>
<path d="M80.1394 42.4436C78.7749 40.3869 75.8453 41.2808 75.8453 41.2808C73.9965 40.4666 72.5366 38.964 71.7743 37.0911C71.1496 35.5747 70.8604 33.9407 70.9268 32.3016C65.0337 30.1883 61.0842 35.9793 61.0842 35.9793C60.6062 35.3403 60.2605 34.6123 60.0672 33.8377C59.9937 33.5916 59.9259 33.32 59.8666 33.0258C59.4598 31.0002 62.4657 27.5602 63.994 26.6068C64.9009 26.041 66.8615 26.669 68.3051 27.2773C69.9493 26.7737 72.5597 26.1457 74.0344 26.6096C76.2945 27.331 81.7045 30.8956 81.874 32.7769C81.9588 33.6906 81.4728 35.9906 80.9559 38.1208C80.5942 39.5721 80.1394 42.4436 80.1394 42.4436Z" fill="#38102B"/>
<path d="M86.5552 59.9777C86.5354 60.0258 86.5128 60.0739 86.4931 60.1192C86.3533 60.4533 86.191 60.7775 86.0072 61.0895C84.7638 63.1335 82.8492 64.6807 80.5915 65.466C80.5011 65.5028 80.4078 65.5339 80.309 65.5622C82.1679 63.195 83.0902 60.2248 82.8996 57.2194C82.7075 54.5008 81.6198 51.9122 81.1593 49.2218C80.8231 47.2415 80.8344 45.2273 80.4276 43.2555C80.3198 42.7369 80.1763 42.2265 79.9982 41.7278C79.9982 41.7278 78.6704 39.0035 77.4161 38.1717C77.3709 38.6923 77.3313 39.21 77.2918 39.7277C76.1884 38.8982 75.2527 37.8662 74.5345 36.6865C74.4271 36.5168 74.3254 36.3414 74.2294 36.1632C73.4244 34.7243 72.9352 33.13 72.7942 31.4868C70.1528 30.9408 67.404 30.5532 64.7908 31.1219C62.9554 31.4954 61.2903 32.4542 60.0446 33.8547C59.9712 33.6057 59.9034 33.337 59.844 33.0428C59.7 32.3327 59.9796 31.4472 60.4656 30.5589C61.3639 28.9124 62.9799 27.2433 63.9715 26.6209C64.8783 26.0551 66.8389 26.686 68.2826 27.2942C69.9268 26.7907 72.5371 26.1626 74.0118 26.6294C76.2719 27.348 81.682 30.9125 81.8515 32.7938C81.9221 33.5548 81.5944 35.2946 81.1819 37.0911C81.1 37.439 81.0152 37.7898 80.9333 38.135C80.9503 38.7008 80.9898 39.2666 81.052 39.8324C81.31 42.1833 81.9483 44.4764 82.9419 46.622C83.2838 47.3632 83.6708 48.0959 84.072 48.823C84.1878 49.038 84.3065 49.2501 84.4223 49.4623C85.8094 52.0084 87.1909 54.5772 87.0976 57.3835C87.0689 58.2577 86.8853 59.1198 86.5552 59.9296C86.56 59.9453 86.56 59.962 86.5552 59.9777Z" fill="#4A0F2F"/>
<path d="M78.6899 35.8152C78.1418 34.9665 77.5796 34.1178 77.0146 33.2691C76.9101 34.1178 76.8027 34.9467 76.6954 35.7813C74.9801 33.4728 73.7535 30.838 73.0906 28.0383L66.5448 28.9634C64.4656 29.2463 62.2874 29.5942 60.4766 30.5561C61.3749 28.9096 62.9909 27.2405 63.9825 26.6181C64.8893 26.0523 66.85 26.6832 68.2936 27.2914C69.9378 26.7879 72.5482 26.1598 74.0229 26.6266C76.2829 27.3452 81.693 30.9097 81.8625 32.791C81.9331 33.552 81.6054 35.2918 81.1929 37.0883C81.111 37.4362 81.0262 37.787 80.9443 38.1322C80.9613 38.698 81.0008 39.2638 81.063 39.8296C80.3426 38.4632 79.5374 37.1279 78.6899 35.8152Z" fill="#5F1234"/>
<path d="M86.5636 59.9495C86.5353 60.0174 86.5043 60.0853 86.476 60.156C86.4478 60.2267 86.411 60.2946 86.3771 60.3597C86.3432 60.4248 86.2726 60.5719 86.2161 60.6765L86.0692 60.9368C85.6793 58.155 85.2867 55.3721 84.8912 52.5884C84.7414 51.5473 84.5945 50.5063 84.4307 49.4765C85.8178 52.0226 87.1992 54.5913 87.106 57.3977C87.078 58.2738 86.8943 59.1379 86.5636 59.9495Z" fill="#5F1234"/>
<path d="M47.2864 74.963L30.2455 77.7297L24.6801 78.635C24.6801 78.635 23.6829 55.887 24.149 52.2517C24.4315 50.014 26.1972 48.1525 27.4995 47.0548C27.8809 46.7323 28.2256 46.489 28.4855 46.2938C28.6889 46.1496 28.8386 46.0534 28.9064 46.0109L28.9516 45.9855C28.9516 45.9855 39.0852 52.3253 40.5345 54.1415C41.9838 55.9577 47.2864 74.963 47.2864 74.963Z" fill="#FFB864"/>
<path d="M30.2456 77.7298C30.2456 77.7298 36.0399 89.091 37.944 90.1321C39.8481 91.1732 60.3667 91.5919 61.4119 91.5919C62.4572 91.5919 73.0965 90.0557 73.4638 89.4956C73.831 88.9354 74.7746 86.6807 74.7746 86.6807L74.3904 84.1148L71.1811 85.7924L46.4107 81.8092L44.5434 75.41L30.2456 77.7298Z" fill="#F3A080"/>
<path d="M74.424 75.5656C74.215 76.3068 76.8847 79.1188 76.0739 78.2588C75.2631 77.3988 71.0311 75.6165 70.5537 76.3407C70.0762 77.0649 74.554 81.9308 74.554 81.9308C74.554 81.9308 70.226 78.9576 69.5847 80.5333C69.3756 81.0482 69.8078 81.8941 70.4746 82.7965C69.2287 82.6409 68.1919 82.7456 68.367 83.5801C68.7795 85.5463 74.2432 86.76 74.2432 86.76C80.7042 87.4983 79.2097 77.2743 79.2097 77.2743C79.2097 77.2743 74.6331 74.8329 74.424 75.5656Z" fill="#F3A080"/>
<path d="M34.6552 49.468C34.6552 49.468 40.4861 53.6917 41.0822 55.2023C41.6783 56.713 44.9441 74.0831 44.9441 74.0831L24.6826 78.635L47.5065 75.4354C47.5065 75.4354 42.9864 56.4047 42.6417 55.2023C42.297 54 34.6552 49.468 34.6552 49.468Z" fill="#CB8129"/>
<path d="M56.945 47.5386C56.945 47.2416 56.9027 46.8908 56.8688 46.5089C56.8405 46.2712 56.8151 46.0166 56.784 45.7592C56.6927 44.8439 56.4769 43.9454 56.1427 43.0886C56.031 42.8093 55.8713 42.5517 55.6709 42.3276C54.3996 41.0262 52.4475 39.0488 51.8486 39.4986C51.2497 39.9484 54.8177 43.6883 54.8177 43.6883L54.2019 44.9784L52.5662 43.5639L49.484 42.8821C49.484 42.8821 49.1167 43.3715 48.6986 43.9939C48.6554 44.0486 48.6176 44.1073 48.5856 44.1693C48.5844 44.1739 48.5844 44.1788 48.5856 44.1834C48.5856 44.2004 48.5658 44.223 48.5545 44.24C48.5065 44.3079 48.4557 44.3871 48.4105 44.4578C48.214 44.7611 48.0339 45.0746 47.8709 45.3971C47.8539 45.431 47.8341 45.4706 47.8144 45.5017C47.734 45.6701 47.666 45.844 47.611 46.0223C47.5589 46.1563 47.5442 46.302 47.5686 46.4438L49.7976 47.4764C49.7976 47.4764 50.6197 50.775 50.9728 51.1541C51.1141 51.304 51.9842 51.5332 52.973 51.7567C53.3233 51.833 53.6849 51.9009 54.0324 51.9745H54.0606C54.1821 51.9943 54.3064 52.0226 54.4307 52.0481L57.705 49.3803C57.6909 49.2983 56.945 47.6263 56.945 47.5386Z" fill="#F3A080"/>
<path d="M48.6958 43.991L48.5376 44.2315L48.5997 44.2513C48.9501 44.3616 49.419 44.52 49.9219 44.6983C50.3589 44.851 50.7822 45.0403 51.1875 45.2641L51.3994 45.3914L51.5576 45.5045L51.6932 45.6007C51.6932 45.6007 51.665 45.547 51.6085 45.4508C51.5774 45.4027 51.5435 45.3404 51.4983 45.2754C51.4531 45.2103 51.3909 45.1396 51.326 45.0632C50.9745 44.6831 50.5378 44.3922 50.0518 44.2145C49.6171 44.0582 49.1576 43.9824 48.6958 43.991Z" fill="#B54B57"/>
<path d="M47.8598 45.3886C47.8401 45.4253 47.8231 45.4621 47.8062 45.4961L48.1847 45.6149C48.535 45.7252 49.0068 45.8808 49.5097 46.0619C49.946 46.2139 50.3685 46.4032 50.7725 46.6277L50.9872 46.755L51.1426 46.8681L51.2838 46.9643C51.2838 46.9643 51.2528 46.9077 51.1934 46.8116L51.0861 46.6362C51.0352 46.5739 50.9787 46.5032 50.9109 46.4268C50.5619 46.0452 50.1256 45.754 49.6396 45.5781C49.1786 45.4144 48.6903 45.3414 48.2017 45.3631C48.0661 45.3631 47.9531 45.3772 47.8598 45.3886Z" fill="#B54B57"/>
<path d="M53.0381 52.6506L58.1232 48.0988L68.3388 56.5858C68.3388 56.5858 74.5539 50.1385 75.7574 50.1809C76.9609 50.2233 79.043 51.4511 79.2323 53.7256C79.4583 56.4443 78.0231 60.0994 77.3564 60.9368C76.6897 61.7742 69.6157 67.5736 67.1183 67.5567C66.0137 67.5482 53.0381 52.6506 53.0381 52.6506Z" fill="#8DB8DB"/>
<path d="M59.8154 60.2691C59.8154 60.2691 65.2763 66.0516 66.8555 66.6485C68.4348 67.2454 77.3649 60.9368 77.3649 60.9368C77.3649 60.9368 67.3782 65.9469 66.8216 65.5622C66.2651 65.1774 59.8154 60.2691 59.8154 60.2691Z" fill="#6A89A1"/>
<path d="M61.5078 51.0381L68.3474 56.5858C68.3474 56.5858 72.7036 51.5417 74.1416 51.1286C74.1416 51.1286 69.4237 53.1089 68.3474 55.2024L61.5078 51.0381Z" fill="#506474"/>
</g>
<defs>
<clipPath id="clip0_346_2057">
<rect width="100.144" height="106" fill="white"/>
</clipPath>
</defs>
</svg>
