<?xml version="1.0" encoding="UTF-8" standalone="no"?>
<!-- Generator: Adobe Illustrator 27.5.0, SVG Export Plug-In . SVG Version: 6.00 Build 0)  -->

<svg
   version="1.1"
   x="0px"
   y="0px"
   viewBox="0 0 451.03699 418.74976"
   xml:space="preserve"
   id="svg1542"
   sodipodi:docname="error-illustration.svg"
   width="451.03699"
   height="418.74976"
   inkscape:version="1.2.2 (732a01da63, 2022-12-09)"
   xmlns:inkscape="http://www.inkscape.org/namespaces/inkscape"
   xmlns:sodipodi="http://sodipodi.sourceforge.net/DTD/sodipodi-0.dtd"
   xmlns="http://www.w3.org/2000/svg"
   xmlns:svg="http://www.w3.org/2000/svg"><defs
   id="defs1546" /><sodipodi:namedview
   id="namedview1544"
   pagecolor="#ffffff"
   bordercolor="#000000"
   borderopacity="0.25"
   inkscape:showpageshadow="2"
   inkscape:pageopacity="0.0"
   inkscape:pagecheckerboard="0"
   inkscape:deskcolor="#d1d1d1"
   showgrid="false"
   inkscape:zoom="1.1681404"
   inkscape:cx="295.34121"
   inkscape:cy="257.24647"
   inkscape:window-width="1920"
   inkscape:window-height="1013"
   inkscape:window-x="-9"
   inkscape:window-y="-9"
   inkscape:window-maximized="1"
   inkscape:current-layer="svg1542" />
<g
   id="Background_Complete"
   transform="translate(-24.482,-58.877231)">
	<g
   id="g821">
		<g
   id="g777">
			<path
   style="fill:#ebebeb"
   d="m 125.76,289.32 c 0,0 -10.952,3.074 -1.35,26.668 9.602,23.594 16.636,35.47 16.636,35.47 0,0 1.597,5.423 -2.891,5.861 -4.488,0.438 -14.083,-1.946 -16.514,3.293 -2.521,5.432 1.1,11.07 8.961,16.416 7.861,5.346 24.654,17.691 26.169,18.813 1.486,1.102 2.851,3.678 -0.158,4.467 -3.009,0.788 -25.087,1.201 -24.264,11.665 0.823,10.464 25.17,21.759 27.808,23.045 2.638,1.286 3.191,2.498 2.841,3.976 -0.35,1.478 -7.784,0.917 -14.058,1.292 -6.274,0.375 -13.484,1.909 -12.503,7.906 0.981,5.997 14.811,19.604 50.652,26.237 l 16.809,1.986 10.39,-13.456 c 20.481,-30.151 20.528,-49.553 16.952,-54.467 -3.576,-4.914 -9.735,-0.865 -14.413,3.333 -4.678,4.199 -9.505,9.879 -10.803,9.089 -1.298,-0.79 -1.77,-2.036 -0.83,-4.816 0.94,-2.78 10.025,-28.035 3.162,-35.977 -6.863,-7.942 -22.678,7.468 -25.354,9.054 -2.676,1.586 -3.549,-1.196 -3.287,-3.028 0.267,-1.865 3.294,-22.487 5.019,-31.836 1.725,-9.349 0.261,-15.887 -5.374,-17.914 -5.434,-1.954 -10.485,6.546 -13.952,9.429 -3.466,2.884 -6.2,-2.065 -6.2,-2.065 0,0 -3.5,-13.352 -13.529,-36.768 -10.029,-23.416 -20.135,-17.597 -20.135,-17.597"
   id="path775" />
		</g>
		<g
   id="g783">
			<g
   id="g781">
				<path
   style="fill:#e0e0e0"
   d="m 201.838,473.511 c -7.302,-17.224 -17.187,-41.106 -28.018,-67.523 -10.828,-26.408 -20.65,-50.31 -27.855,-67.573 -3.603,-8.61 -6.522,-15.586 -8.551,-20.437 -0.999,-2.395 -1.778,-4.264 -2.318,-5.56 -0.252,-0.62 -0.447,-1.102 -0.59,-1.452 -0.13,-0.328 -0.183,-0.502 -0.183,-0.502 0,0 0.089,0.158 0.237,0.479 0.155,0.345 0.368,0.819 0.643,1.429 0.564,1.286 1.377,3.141 2.419,5.517 2.095,4.794 5.074,11.753 8.722,20.366 7.302,17.224 17.186,41.103 28.013,67.511 10.831,26.417 20.655,50.321 27.86,67.585"
   id="path779" />
			</g>
		</g>
		<g
   id="g789">
			<g
   id="g787">
				<path
   style="fill:#e0e0e0"
   d="m 134.93,364.487 c 0.017,-0.036 0.426,0.114 1.152,0.418 0.728,0.301 1.765,0.768 3.042,1.358 2.55,1.186 6.03,2.917 9.833,4.899 3.731,1.965 7.104,3.742 9.713,5.117 1.156,0.603 2.14,1.116 2.949,1.537 0.697,0.361 1.076,0.578 1.059,0.614 -0.016,0.037 -0.426,-0.111 -1.155,-0.41 -0.727,-0.303 -1.766,-0.771 -3.036,-1.375 -2.54,-1.211 -5.995,-2.987 -9.797,-4.969 -3.743,-1.937 -7.127,-3.689 -9.746,-5.045 -1.16,-0.597 -2.147,-1.105 -2.958,-1.523 -0.695,-0.365 -1.073,-0.585 -1.056,-0.621 z"
   id="path785" />
			</g>
		</g>
		<g
   id="g795">
			<g
   id="g793">
				<path
   style="fill:#e0e0e0"
   d="m 163.923,377.451 c -0.145,-0.067 3.102,-7.4 7.251,-16.375 4.151,-8.979 7.633,-16.2 7.778,-16.133 0.145,0.067 -3.101,7.398 -7.252,16.377 -4.149,8.975 -7.632,16.198 -7.777,16.131 z"
   id="path791" />
			</g>
		</g>
		<g
   id="g801">
			<g
   id="g799">
				<path
   style="fill:#e0e0e0"
   d="m 178.724,418.762 c -0.029,-0.027 0.245,-0.378 0.766,-0.99 0.607,-0.701 1.35,-1.558 2.224,-2.567 1.876,-2.168 4.457,-5.171 7.185,-8.585 2.737,-3.41 5.11,-6.58 6.811,-8.888 0.794,-1.074 1.469,-1.985 2.021,-2.73 0.482,-0.642 0.764,-0.986 0.797,-0.964 0.033,0.023 -0.186,0.41 -0.611,1.092 -0.426,0.682 -1.06,1.655 -1.872,2.84 -1.619,2.373 -3.946,5.592 -6.692,9.013 -2.737,3.426 -5.376,6.395 -7.333,8.497 -0.983,1.047 -1.789,1.885 -2.364,2.446 -0.572,0.565 -0.902,0.864 -0.932,0.836 z"
   id="path797" />
			</g>
		</g>
		<g
   id="g807">
			<g
   id="g805">
				<path
   style="fill:#e0e0e0"
   d="m 149.919,412.807 c 0.008,-0.039 0.417,10e-4 1.152,0.108 0.734,0.107 1.794,0.28 3.1,0.506 2.613,0.452 6.214,1.115 10.186,1.883 3.973,0.768 7.562,1.496 10.155,2.051 1.296,0.278 2.344,0.512 3.065,0.687 0.721,0.175 1.116,0.29 1.109,0.329 -0.008,0.039 -0.417,-10e-4 -1.152,-0.108 -0.734,-0.107 -1.793,-0.28 -3.1,-0.506 -2.613,-0.452 -6.215,-1.116 -10.187,-1.884 -3.971,-0.768 -7.561,-1.495 -10.153,-2.05 -1.296,-0.277 -2.344,-0.512 -3.065,-0.686 -0.722,-0.175 -1.117,-0.29 -1.11,-0.33 z"
   id="path803" />
			</g>
		</g>
		<g
   id="g813">
			<g
   id="g811">
				<path
   style="fill:#e0e0e0"
   d="m 158.353,450.938 c 0.007,-0.039 0.531,0.018 1.472,0.155 1.052,0.168 2.384,0.381 3.975,0.636 3.351,0.562 7.974,1.377 13.073,2.313 5.101,0.936 9.712,1.815 13.045,2.48 1.577,0.327 2.898,0.601 3.941,0.817 0.928,0.206 1.438,0.338 1.431,0.378 -0.007,0.039 -0.531,-0.018 -1.471,-0.155 -1.052,-0.168 -2.384,-0.381 -3.974,-0.636 -3.351,-0.562 -7.975,-1.377 -13.075,-2.314 -5.099,-0.936 -9.71,-1.815 -13.043,-2.48 -1.577,-0.327 -2.898,-0.601 -3.941,-0.817 -0.93,-0.206 -1.44,-0.338 -1.433,-0.377 z"
   id="path809" />
			</g>
		</g>
		<g
   id="g819">
			<g
   id="g817">
				<path
   style="fill:#e0e0e0"
   d="m 194.451,457.305 c -0.03,-0.026 0.306,-0.479 0.94,-1.276 0.708,-0.878 1.616,-2.005 2.704,-3.355 2.282,-2.833 5.421,-6.756 8.767,-11.183 3.353,-4.423 6.285,-8.504 8.389,-11.471 1.005,-1.413 1.844,-2.592 2.497,-3.512 0.594,-0.827 0.939,-1.273 0.972,-1.251 0.033,0.022 -0.248,0.511 -0.785,1.377 -0.537,0.866 -1.335,2.105 -2.347,3.619 -2.02,3.031 -4.905,7.158 -8.265,11.589 -3.352,4.435 -6.548,8.325 -8.913,11.095 -1.186,1.382 -2.158,2.49 -2.848,3.24 -0.686,0.751 -1.081,1.155 -1.111,1.128 z"
   id="path815" />
			</g>
		</g>
	</g>
	<g
   id="g893">
		<g
   id="g831">
			<g
   id="g829">
				<g
   id="g827">
					<g
   id="g825">
						<path
   style="fill:#f5f5f5"
   d="m 335.968,473.413 c -23.869,-15.316 -30.324,-45.234 -30.47,-72.349 -0.025,-4.526 -0.709,-9.272 1.285,-13.323 1.995,-4.049 6.905,-6.958 11.027,-5.212 3.419,1.448 5.035,5.295 7.04,8.451 2.667,4.199 6.53,7.608 10.999,9.709 2.937,1.38 6.534,2.154 9.314,0.475 3.814,-2.305 4.062,-7.709 3.857,-12.204 -0.383,-8.377 -0.763,-16.755 -1.146,-25.13 -0.205,-4.494 -0.399,-9.084 0.832,-13.406 1.23,-4.322 4.164,-8.407 8.393,-9.773 4.231,-1.366 9.616,0.892 10.692,5.257 0.448,1.816 0.15,3.732 0.348,5.593 0.198,1.862 1.149,3.892 2.942,4.342 1.815,0.457 3.564,-0.889 4.856,-2.257 4.462,-4.722 7.381,-10.693 10.095,-16.624 2.714,-5.931 5.336,-11.997 9.352,-17.113 4.016,-5.117 9.685,-9.269 16.109,-9.887 6.425,-0.617 13.441,3.087 15.316,9.343 1.881,6.274 -1.564,12.85 -5.386,18.138 -5.67,7.847 -12.467,14.856 -20.111,20.738 -1.377,1.062 -2.871,2.209 -3.347,3.895 -0.859,3.036 2.098,5.901 5.096,6.77 3.395,0.984 7.018,0.493 10.539,0.768 3.522,0.275 7.38,1.672 8.836,4.933 2.022,4.523 -1.631,9.49 -5.289,12.793 -7.323,6.615 -15.773,11.945 -24.864,15.687 -3.26,1.34 -6.698,2.539 -9.274,4.967 -2.576,2.43 -4.026,6.533 -2.291,9.635 1.737,3.107 5.912,3.958 9.351,3.178 3.438,-0.778 6.465,-2.781 9.717,-4.156 6.086,-2.575 14.082,-2.463 18.249,2.721 2.739,3.408 3.16,8.286 2.009,12.521 -1.15,4.236 -3.677,7.944 -6.379,11.379 -9.445,12.007 -21.754,21.858 -35.891,27.391 -14.131,5.532 -27.358,7.399 -41.806,2.75"
   id="path823" />
					</g>
				</g>
			</g>
		</g>
		<g
   id="g843">
			<g
   id="g841">
				<g
   id="g839">
					<g
   id="g837">
						<g
   id="g835">
							<path
   style="fill:#e0e0e0"
   d="m 342.29,456.163 c 3.448,-13.823 8.484,-28.661 14.285,-44 1.464,-3.829 2.911,-7.613 4.337,-11.341 1.432,-3.719 2.852,-7.407 4.464,-10.929 3.194,-7.059 6.802,-13.602 10.421,-19.705 3.618,-6.108 7.273,-11.771 10.73,-17.042 3.47,-5.266 6.796,-10.113 10.016,-14.401 6.415,-8.604 12.4,-14.918 16.685,-19.085 2.139,-2.092 3.851,-3.659 5.026,-4.706 0.566,-0.497 1.009,-0.888 1.344,-1.182 0.306,-0.262 0.467,-0.391 0.476,-0.381 0.01,0.011 -0.132,0.161 -0.419,0.444 -0.32,0.309 -0.747,0.72 -1.288,1.243 -1.137,1.087 -2.812,2.691 -4.914,4.814 -4.209,4.233 -10.106,10.586 -16.442,19.209 -3.182,4.298 -6.472,9.153 -9.911,14.428 -3.429,5.284 -7.058,10.952 -10.65,17.055 -3.591,6.099 -7.171,12.626 -10.336,19.65 -1.598,3.504 -3.001,7.162 -4.434,10.891 -1.424,3.727 -2.868,7.509 -4.331,11.336 -5.795,15.327 -10.841,30.121 -14.32,43.892"
   id="path833" />
						</g>
					</g>
				</g>
			</g>
		</g>
		<g
   id="g855">
			<g
   id="g853">
				<g
   id="g851">
					<g
   id="g849">
						<g
   id="g847">
							<path
   style="fill:#e0e0e0"
   d="m 365.611,389.852 c -0.055,0.011 -0.235,-0.666 -0.515,-1.9 -0.285,-1.233 -0.638,-3.03 -1.042,-5.257 -0.812,-4.451 -1.723,-10.637 -2.702,-17.459 -0.979,-6.827 -1.975,-12.981 -2.852,-17.408 -0.433,-2.214 -0.8,-4.004 -1.071,-5.237 -0.263,-1.236 -0.383,-1.926 -0.328,-1.942 0.055,-0.015 0.28,0.648 0.639,1.862 0.367,1.211 0.824,2.986 1.329,5.193 1.028,4.411 2.121,10.577 3.1,17.41 0.949,6.736 1.806,12.829 2.461,17.485 0.309,2.102 0.572,3.872 0.782,5.294 0.181,1.249 0.256,1.948 0.199,1.959 z"
   id="path845" />
						</g>
					</g>
				</g>
			</g>
		</g>
		<g
   id="g867">
			<g
   id="g865">
				<g
   id="g863">
					<g
   id="g861">
						<g
   id="g859">
							<path
   style="fill:#e0e0e0"
   d="m 422.986,376.776 c 0.004,0.057 -0.815,0.185 -2.295,0.367 -1.478,0.19 -3.618,0.454 -6.251,0.865 -5.271,0.779 -12.516,2.111 -20.444,3.931 -7.927,1.834 -15.03,3.799 -20.127,5.369 -2.555,0.767 -4.606,1.443 -6.026,1.902 -1.419,0.465 -2.213,0.696 -2.234,0.642 -0.02,-0.055 0.738,-0.389 2.126,-0.95 1.39,-0.553 3.418,-1.317 5.957,-2.16 5.065,-1.719 12.169,-3.78 20.12,-5.621 7.951,-1.823 15.24,-3.069 20.548,-3.7 2.652,-0.337 4.808,-0.513 6.3,-0.602 1.495,-0.082 2.321,-0.102 2.326,-0.043 z"
   id="path857" />
						</g>
					</g>
				</g>
			</g>
		</g>
		<g
   id="g879">
			<g
   id="g877">
				<g
   id="g875">
					<g
   id="g873">
						<g
   id="g871">
							<path
   style="fill:#e0e0e0"
   d="m 342.959,455.071 c -0.026,0.013 -0.171,-0.224 -0.424,-0.689 -0.289,-0.555 -0.643,-1.232 -1.071,-2.052 -0.922,-1.786 -2.188,-4.406 -3.711,-7.662 -3.049,-6.512 -6.978,-15.639 -11.177,-25.77 -4.202,-10.135 -8.04,-19.286 -10.949,-25.852 -1.424,-3.191 -2.597,-5.816 -3.468,-7.768 -0.373,-0.847 -0.68,-1.545 -0.932,-2.119 -0.204,-0.488 -0.3,-0.75 -0.274,-0.765 0.026,-0.011 0.171,0.226 0.425,0.691 0.289,0.555 0.642,1.231 1.07,2.051 0.922,1.786 2.188,4.406 3.711,7.662 3.049,6.512 6.978,15.639 11.178,25.774 4.2,10.132 8.039,19.282 10.947,25.849 1.426,3.19 2.597,5.816 3.468,7.766 0.373,0.847 0.68,1.547 0.932,2.12 0.206,0.489 0.301,0.752 0.275,0.764 z"
   id="path869" />
						</g>
					</g>
				</g>
			</g>
		</g>
		<g
   id="g891">
			<g
   id="g889">
				<g
   id="g887">
					<g
   id="g885">
						<g
   id="g883">
							<path
   style="fill:#e0e0e0"
   d="m 418.793,427.296 c 0.008,0.028 -0.25,0.145 -0.75,0.344 -0.593,0.225 -1.32,0.501 -2.201,0.835 -2.034,0.749 -4.78,1.76 -8.12,2.989 -6.856,2.526 -16.285,6.122 -26.699,10.11 -10.417,3.991 -19.888,7.504 -26.799,9.887 -3.455,1.193 -6.26,2.13 -8.211,2.738 -0.903,0.275 -1.646,0.501 -2.251,0.687 -0.518,0.148 -0.795,0.212 -0.803,0.184 -0.008,-0.027 0.25,-0.145 0.75,-0.346 0.591,-0.223 1.319,-0.499 2.201,-0.834 2.034,-0.749 4.779,-1.759 8.119,-2.989 6.856,-2.524 16.287,-6.122 26.703,-10.112 10.414,-3.989 19.884,-7.502 26.794,-9.886 3.455,-1.194 6.26,-2.13 8.212,-2.738 0.902,-0.275 1.645,-0.503 2.251,-0.687 0.519,-0.146 0.794,-0.21 0.804,-0.182 z"
   id="path881" />
						</g>
					</g>
				</g>
			</g>
		</g>
	</g>
	<g
   id="g899">
		<path
   style="fill:#e0e0e0"
   d="m 393.141,98.276 -17.325,51.474 c -1.416,4.209 0.527,8.813 4.531,10.735 v 0 c 4.224,2.026 9.294,0.387 11.532,-3.729 l 26.175,-48.153 c 1.982,-3.646 0.321,-8.204 -3.543,-9.72 l -12.309,-4.83 c -3.672,-1.441 -7.802,0.484 -9.061,4.223 z"
   id="path895" />
		<path
   style="fill:#e0e0e0"
   d="m 382.116,194.142 c -4.754,5.548 -13.105,6.192 -18.653,1.438 -5.549,-4.754 -6.193,-13.105 -1.439,-18.653 4.753,-5.548 13.105,-6.192 18.653,-1.439 5.549,4.754 6.193,13.105 1.439,18.654 z"
   id="path897" />
	</g>
	<g
   id="g905">
		<path
   style="fill:#e0e0e0"
   d="m 421.542,189.436 6.268,18.591 c 0.513,1.52 2.078,2.42 3.649,2.097 v 0 c 1.658,-0.34 2.758,-1.92 2.502,-3.593 l -2.997,-19.57 c -0.227,-1.482 -1.701,-2.43 -3.143,-2.021 l -4.596,1.301 c -1.371,0.388 -2.138,1.845 -1.683,3.195 z"
   id="path901" />
		<path
   style="fill:#e0e0e0"
   d="m 439.325,219.418 c -0.155,2.635 -2.415,4.645 -5.05,4.491 -2.635,-0.154 -4.646,-2.416 -4.491,-5.05 0.154,-2.635 2.416,-4.645 5.05,-4.491 2.635,0.154 4.645,2.415 4.491,5.05 z"
   id="path903" />
	</g>
</g>
<g
   id="Background_Simple"
   style="display:none"
   transform="translate(-24.482,-58.877231)">
	<path
   style="display:inline;fill:#ebebeb"
   d="M 447.943,102.284 C 435.576,71.849 412.492,44.709 381.822,32.935 351.152,21.161 312.917,27.338 291.224,52.01 c -34.978,39.782 -17.991,109.003 -55.706,146.2 -21.234,20.943 -53.444,24.932 -83.155,27.533 -29.711,2.602 -61.832,5.94 -83.792,26.121 -19.631,18.04 -22.781,35.936 -22.954,62.597 -0.334,51.494 24.393,82.729 60.517,99.874 33.308,16.777 82.515,25.087 103.359,25.087 107.02,4.013 118.306,-25.087 162.932,-56.77 27.283,-19.369 56.317,-55.076 69.75,-85.72 13.433,-30.644 18.499,-64.378 19.655,-97.817 1.135,-32.834 -1.521,-66.396 -13.887,-96.831 z"
   id="path908" />
</g>
<g
   id="Floor"
   transform="translate(-24.482,-58.877231)">
	<g
   id="g913">
		<path
   style="fill:#263238"
   d="m 475.519,477.297 c 0,0.144 -100.976,0.26 -225.508,0.26 -124.575,0 -225.529,-0.117 -225.529,-0.26 0,-0.143 100.955,-0.26 225.529,-0.26 124.531,-10e-4 225.508,0.116 225.508,0.26 z"
   id="path911" />
	</g>
</g>
<g
   id="Character"
   transform="translate(-24.482,-58.877231)">
	<g
   id="g1372">
		<g
   id="g922">
			<path
   style="fill:#263238"
   d="m 303.75,164.191 c -1.317,4.797 -2.646,9.705 -2.318,14.669 0.329,4.964 2.63,10.083 6.99,12.479 5.004,2.75 12.64,2.253 14.73,7.566 1.43,3.633 -0.893,8.156 1.137,11.491 2.878,4.726 10.671,2.044 15.249,5.152 3.544,2.406 3.987,7.422 3.593,11.688 -0.393,4.266 -1.2,8.88 0.942,12.59 2.474,4.287 8.16,5.963 10.51,10.32 2.89,5.358 -0.552,11.891 -4.405,16.603 -3.854,4.712 -8.506,9.737 -8.175,15.815 l -71.788,2.201 -4.487,-114.251 z"
   id="path916" />
			<g
   id="g920">
				<path
   style="fill:#455a64"
   d="m 310.184,214.393 c -0.055,0.012 -0.134,-0.549 -0.525,-1.468 -0.396,-0.912 -1.19,-2.149 -2.542,-3.317 -1.347,-1.169 -3.199,-2.264 -5.39,-3.169 -2.182,-0.936 -4.704,-1.771 -7.094,-3.246 -1.188,-0.736 -2.263,-1.629 -3.101,-2.665 -0.843,-1.033 -1.452,-2.185 -1.852,-3.334 -0.788,-2.313 -0.882,-4.529 -0.81,-6.339 0.079,-1.819 0.315,-3.271 0.5,-4.266 0.091,-0.498 0.179,-0.882 0.243,-1.14 0.064,-0.259 0.106,-0.393 0.123,-0.39 0.041,0.008 -0.041,0.561 -0.166,1.562 -0.123,1 -0.301,2.45 -0.332,4.245 -0.026,1.785 0.111,3.95 0.893,6.167 0.397,1.102 0.988,2.195 1.796,3.173 0.803,0.982 1.83,1.832 2.982,2.547 2.315,1.431 4.816,2.28 7.007,3.246 2.212,0.943 4.092,2.096 5.446,3.335 1.361,1.238 2.137,2.556 2.484,3.516 0.166,0.484 0.27,0.868 0.301,1.136 0.042,0.264 0.055,0.404 0.037,0.407 z"
   id="path918" />
			</g>
		</g>
		<g
   id="g1104">
			<path
   style="fill:#263238"
   d="m 199.978,432.566 -8.33,44.715 h 163.958 c 0,0 -5.619,-26.458 -28.962,-55.759 z"
   id="path924" />
			<path
   style="fill:#e8505b"
   d="m 197.617,389.755 -5.883,-85.534 9.738,-87.551 53.238,-7.426 38.947,4.307 26.575,89.86 7.162,80.077 c 0,0 3.798,12.635 8.204,27.394 2.449,8.202 -0.885,17.072 -8.197,21.521 -6.328,3.849 -15.789,6.844 -29.471,5.417 -31.546,-3.29 -67.322,-9.047 -84.593,-6.168 -17.271,2.879 -19.738,-1.234 -19.738,-1.234 0,0 -5.451,-5.346 -3.754,-11.514 1.697,-6.17 7.772,-29.149 7.772,-29.149 z"
   id="path926" />
			<g
   id="g930">
				<path
   style="fill:#ffffff"
   d="m 325.645,382.979 c 0.01,0.015 -0.144,0.144 -0.447,0.376 -0.352,0.262 -0.795,0.591 -1.339,0.995 -1.222,0.902 -2.894,2.135 -4.935,3.64 -4.156,3.088 -9.818,7.459 -16.018,12.357 -6.201,4.901 -11.81,9.348 -15.921,12.502 -2.054,1.578 -3.727,2.843 -4.897,3.697 -0.55,0.397 -0.998,0.72 -1.353,0.976 -0.313,0.219 -0.482,0.326 -0.493,0.312 -0.011,-0.014 0.137,-0.15 0.43,-0.396 0.34,-0.277 0.768,-0.626 1.294,-1.053 1.187,-0.948 2.811,-2.244 4.794,-3.826 4.1,-3.269 9.67,-7.711 15.826,-12.621 6.203,-4.9 11.907,-9.23 16.123,-12.245 2.106,-1.51 3.827,-2.709 5.036,-3.509 0.567,-0.372 1.029,-0.674 1.396,-0.915 0.32,-0.205 0.494,-0.305 0.504,-0.29 z"
   id="path928" />
			</g>
			<g
   id="g934">
				<path
   style="fill:#263238"
   d="m 282.673,240.415 c -0.115,0.086 -1.345,-1.359 -2.746,-3.227 -1.402,-1.869 -2.444,-3.453 -2.329,-3.54 0.115,-0.086 1.344,1.358 2.746,3.227 1.401,1.869 2.444,3.454 2.329,3.54 z"
   id="path932" />
			</g>
			<g
   id="g938">
				<path
   style="fill:#263238"
   d="m 289.081,227.233 c -0.134,0.09 -1.263,-1.722 -3.335,-3.245 -2.053,-1.549 -4.113,-2.112 -4.065,-2.266 0.006,-0.128 2.22,0.227 4.376,1.848 2.17,1.601 3.145,3.621 3.024,3.663 z"
   id="path936" />
			</g>
			<g
   id="g942">
				<path
   style="fill:#263238"
   d="m 238.693,238.724 c 0.125,0.103 -1.277,1.647 -2.06,4.022 -0.817,2.365 -0.638,4.442 -0.8,4.448 -0.122,0.043 -0.55,-2.119 0.307,-4.615 0.83,-2.503 2.482,-3.963 2.553,-3.855 z"
   id="path940" />
			</g>
			<g
   id="g946">
				<path
   style="fill:#263238"
   d="m 218.404,221.227 c -0.002,0.153 -2.307,0.201 -5.106,0.612 -2.801,0.399 -5.025,1.007 -5.07,0.86 -0.046,-0.126 2.144,-0.969 4.996,-1.376 2.849,-0.418 5.188,-0.23 5.18,-0.096 z"
   id="path944" />
			</g>
			<g
   style="opacity:0.3"
   id="g950">
				<path
   d="m 198.134,382.205 c 13.741,-5.652 22.98,-18.9 28.533,-32.681 5.553,-13.781 8.175,-28.571 13.212,-42.549 1.471,-4.083 4.048,-8.758 8.386,-8.887 3.553,-0.105 6.301,2.984 8.339,5.896 9.636,13.769 15.733,29.633 23.143,44.717 7.41,15.083 16.629,29.955 30.539,39.386 2.569,1.742 5.405,3.321 8.504,3.497 3.099,0.176 6.488,-1.43 7.481,-4.37 0.406,-1.202 0.388,-2.501 0.364,-3.77 -0.138,-7.543 -0.275,-15.087 -0.413,-22.631 -0.149,-8.15 -0.34,-16.518 -3.42,-24.065 -4.497,-11.022 -14.421,-18.691 -23.54,-26.343 -11.992,-10.062 -23.338,-21.05 -32.42,-33.8 -3.229,-4.532 -6.242,-9.362 -10.623,-12.793 -4.381,-3.431 -10.594,-5.204 -15.585,-2.742 -5.556,2.741 -7.669,9.436 -9.268,15.422 -9.094,34.043 -19.318,67.784 -30.649,101.148"
   id="path948" />
			</g>
			<path
   style="fill:#e8505b"
   d="m 196.767,377.398 c 10.051,-0.861 17.762,-11.97 20.512,-21.676 l 22.08,-77.896 -33.715,-22.599 -13.444,44.795 9.271,-83.352 c 0,0 -30.948,7.835 -38.2,45.341 -6.15,31.807 -8.267,61.411 -6.82,72.987 0,0 0.223,45.836 40.316,42.4 z"
   id="path952" />
			<path
   style="fill:#e8505b"
   d="m 254.297,284.367 c 0,0 15.33,38.804 30.468,61.306 14.475,21.515 38.935,43.194 54.641,40.628 15.705,-2.566 23.905,-42.603 23.905,-57.556 0,-14.953 -19.211,-76.475 -19.211,-76.475 0,0 -3.846,-34.576 -37.292,-38.719 l -23.542,-1.149 35.748,88.456 -15.034,-17.938 c 0,0 1.929,-4.824 -0.482,-10.13 -2.412,-5.306 -18.33,-18.812 -18.33,-18.812 z"
   id="path954" />
			<g
   id="g958">
				<path
   style="fill:#263238"
   d="m 193.033,288.923 c -0.035,0.007 -0.165,-0.433 -0.37,-1.234 -0.197,-0.802 -0.508,-1.956 -0.922,-3.371 -0.823,-2.831 -2.162,-6.686 -4.095,-10.746 -1.943,-4.057 -4.099,-7.523 -5.784,-9.942 -0.84,-1.211 -1.543,-2.178 -2.042,-2.836 -0.494,-0.662 -0.755,-1.04 -0.727,-1.063 0.028,-0.023 0.341,0.311 0.885,0.936 0.549,0.62 1.299,1.558 2.183,2.748 1.77,2.377 3.996,5.842 5.954,9.932 1.949,4.093 3.244,8.001 3.98,10.872 0.37,1.436 0.628,2.608 0.765,3.426 0.146,0.817 0.208,1.271 0.173,1.278 z"
   id="path956" />
			</g>
			<g
   id="g962">
				<path
   style="fill:#263238"
   d="m 302.473,336.533 c -0.017,0.006 -0.096,-0.168 -0.231,-0.507 -0.151,-0.395 -0.338,-0.888 -0.568,-1.491 -0.249,-0.647 -0.535,-1.445 -0.81,-2.391 -0.282,-0.943 -0.644,-2.007 -0.923,-3.215 -0.311,-1.201 -0.64,-2.519 -0.9,-3.954 -0.314,-1.426 -0.52,-2.971 -0.763,-4.594 -0.402,-3.255 -0.65,-6.861 -0.597,-10.649 0.085,-3.789 0.464,-7.384 0.984,-10.623 0.301,-1.613 0.563,-3.15 0.929,-4.563 0.312,-1.426 0.689,-2.731 1.043,-3.919 0.323,-1.198 0.723,-2.247 1.039,-3.179 0.309,-0.935 0.624,-1.722 0.896,-2.36 0.251,-0.594 0.457,-1.079 0.621,-1.469 0.147,-0.333 0.232,-0.505 0.249,-0.498 0.017,0.007 -0.036,0.192 -0.152,0.538 -0.14,0.398 -0.315,0.895 -0.529,1.501 -0.242,0.647 -0.528,1.441 -0.81,2.381 -0.289,0.937 -0.663,1.99 -0.961,3.188 -0.33,1.189 -0.684,2.492 -0.976,3.913 -0.346,1.409 -0.59,2.94 -0.876,4.544 -0.491,3.222 -0.853,6.793 -0.937,10.555 -0.052,3.762 0.18,7.342 0.553,10.58 0.228,1.613 0.416,3.152 0.711,4.572 0.24,1.431 0.547,2.746 0.833,3.946 0.254,1.208 0.59,2.274 0.844,3.221 0.247,0.95 0.504,1.754 0.723,2.409 0.192,0.614 0.348,1.117 0.474,1.52 0.104,0.351 0.15,0.538 0.134,0.544 z"
   id="path960" />
			</g>
			<g
   id="g966">
				<path
   style="fill:#263238"
   d="m 343.72,345.672 c -0.018,-0.003 -0.019,-0.167 -0.004,-0.476 0.025,-0.369 0.054,-0.814 0.09,-1.349 0.055,-0.584 0.107,-1.298 0.096,-2.131 -10e-4,-0.832 0.058,-1.778 -0.033,-2.822 -0.029,-0.524 -0.06,-1.071 -0.091,-1.638 -0.036,-0.569 -0.136,-1.156 -0.205,-1.766 -0.114,-1.225 -0.398,-2.508 -0.658,-3.864 -0.624,-2.689 -1.531,-5.597 -2.825,-8.512 -1.33,-2.899 -2.91,-5.504 -4.514,-7.752 -0.845,-1.092 -1.619,-2.155 -2.462,-3.051 -0.412,-0.455 -0.786,-0.919 -1.189,-1.322 -0.405,-0.399 -0.794,-0.784 -1.168,-1.153 -0.722,-0.759 -1.471,-1.341 -2.094,-1.892 -0.617,-0.56 -1.187,-0.993 -1.661,-1.338 -0.424,-0.327 -0.777,-0.599 -1.07,-0.825 -0.242,-0.194 -0.364,-0.303 -0.354,-0.318 0.01,-0.015 0.152,0.065 0.413,0.231 0.31,0.205 0.682,0.451 1.131,0.748 0.495,0.322 1.086,0.734 1.726,1.277 0.645,0.534 1.417,1.101 2.162,1.85 0.385,0.365 0.786,0.745 1.203,1.14 0.415,0.4 0.799,0.861 1.223,1.315 0.866,0.894 1.662,1.957 2.526,3.054 1.644,2.257 3.256,4.887 4.602,7.822 1.309,2.95 2.214,5.898 2.819,8.624 0.25,1.374 0.521,2.675 0.618,3.915 0.06,0.618 0.151,1.212 0.177,1.787 0.02,0.574 0.04,1.126 0.059,1.656 0.068,1.054 -0.017,2.009 -0.044,2.845 -0.017,0.838 -0.098,1.555 -0.185,2.139 -0.074,0.533 -0.136,0.976 -0.188,1.343 -0.048,0.307 -0.082,0.466 -0.1,0.463 z"
   id="path964" />
			</g>
			<g
   id="g970">
				<path
   style="fill:#263238"
   d="m 344.677,318.367 c -0.062,0.047 -0.859,-0.925 -2.176,-2.464 -1.327,-1.524 -3.161,-3.651 -5.519,-5.621 -2.339,-1.985 -4.848,-3.298 -6.814,-3.659 -1.961,-0.4 -3.221,-0.102 -3.233,-0.223 -0.007,-0.035 0.3,-0.102 0.869,-0.194 0.284,-0.064 0.635,-0.076 1.045,-0.063 0.212,0.002 0.431,0.005 0.658,0.008 0.235,0.035 0.478,0.072 0.728,0.109 2.062,0.279 4.701,1.597 7.081,3.621 2.404,2.008 4.209,4.195 5.47,5.787 0.627,0.802 1.113,1.467 1.434,1.937 0.322,0.471 0.486,0.741 0.457,0.762 z"
   id="path968" />
			</g>
			<g
   id="g974">
				<path
   style="fill:#263238"
   d="m 351.701,311.25 c -0.08,0.182 -3.688,-1.998 -8.672,-3.018 -4.993,-1.034 -9.148,-0.249 -9.156,-0.44 -0.01,-0.057 1.003,-0.317 2.686,-0.464 1.678,-0.147 4.038,-0.119 6.574,0.393 2.534,0.517 4.718,1.392 6.226,2.138 1.51,0.751 2.372,1.338 2.342,1.391 z"
   id="path972" />
			</g>
			<g
   id="g978">
				<path
   style="fill:#263238"
   d="m 329.882,225.299 c 0.007,0.017 -0.163,0.116 -0.492,0.29 -0.382,0.195 -0.86,0.438 -1.447,0.737 -0.321,0.159 -0.671,0.333 -1.049,0.52 -0.374,0.206 -0.759,0.471 -1.184,0.732 -0.839,0.541 -1.839,1.09 -2.802,1.902 -0.498,0.385 -1.018,0.787 -1.559,1.205 -0.518,0.447 -1.024,0.951 -1.566,1.451 -1.123,0.963 -2.101,2.211 -3.224,3.429 -2.071,2.595 -4.069,5.665 -5.784,9.096 -3.396,6.899 -5.079,13.72 -6.034,18.653 -0.268,1.232 -0.414,2.363 -0.584,3.35 -0.173,0.987 -0.287,1.842 -0.373,2.542 -0.092,0.652 -0.167,1.184 -0.227,1.609 -0.058,0.368 -0.096,0.56 -0.114,0.558 -0.018,-0.002 -0.014,-0.197 0.01,-0.569 0.034,-0.428 0.077,-0.965 0.13,-1.622 0.056,-0.705 0.14,-1.566 0.286,-2.56 0.143,-0.994 0.264,-2.133 0.509,-3.375 0.867,-4.97 2.501,-11.853 5.93,-18.818 1.732,-3.463 3.765,-6.562 5.881,-9.17 1.147,-1.226 2.149,-2.476 3.298,-3.438 0.555,-0.499 1.074,-1.001 1.605,-1.445 0.554,-0.414 1.087,-0.811 1.597,-1.192 0.988,-0.801 2.012,-1.335 2.872,-1.857 0.436,-0.251 0.831,-0.505 1.215,-0.7 0.388,-0.174 0.747,-0.335 1.077,-0.483 0.605,-0.264 1.1,-0.479 1.494,-0.651 0.345,-0.144 0.528,-0.211 0.535,-0.194 z"
   id="path976" />
			</g>
			<g
   id="g982">
				<path
   style="fill:#263238"
   d="m 183.572,314.716 c -0.006,-0.002 0.021,-0.098 0.081,-0.285 0.068,-0.204 0.158,-0.476 0.276,-0.828 0.258,-0.747 0.628,-1.822 1.107,-3.209 0.991,-2.82 2.428,-6.911 4.244,-12.079 3.681,-10.373 8.894,-25.065 15.054,-42.424 l 0.095,-0.268 0.246,0.143 c 5.451,3.153 10.745,7.149 16.564,10.783 5.882,3.562 11.988,7.261 18.256,11.057 l 0.168,0.102 -0.055,0.191 c -0.355,1.237 -0.737,2.57 -1.121,3.909 -9,31.247 -17.065,59.248 -22.433,77.886 l -0.003,0.011 -0.003,0.007 c -3.424,7.609 -7.591,13.063 -11.388,15.653 -1.884,1.303 -3.619,1.852 -4.798,1.989 -0.593,0.062 -1.044,0.084 -1.347,0.054 -0.303,-0.013 -0.456,-0.031 -0.456,-0.031 0,0 0.155,-0.014 0.456,-0.017 0.302,0.014 0.749,-0.023 1.333,-0.1 1.162,-0.166 2.86,-0.735 4.706,-2.046 3.717,-2.6 7.823,-8.06 11.179,-15.632 l -0.006,0.018 c 5.327,-18.65 13.329,-46.669 22.26,-77.936 0.384,-1.339 0.766,-2.672 1.121,-3.909 l 0.113,0.293 c -6.266,-3.801 -12.37,-7.503 -18.249,-11.07 -5.841,-3.659 -11.123,-7.658 -16.534,-10.804 l 0.341,-0.125 c -6.233,17.333 -11.507,32.003 -15.232,42.361 -1.87,5.149 -3.349,9.225 -4.37,12.035 -0.509,1.377 -0.903,2.443 -1.177,3.184 -0.132,0.347 -0.235,0.615 -0.311,0.816 -0.071,0.182 -0.111,0.274 -0.117,0.271 z"
   id="path980" />
			</g>
			<g
   id="g986">
				<path
   style="fill:#263238"
   d="m 184.374,314.045 c 0.036,0.088 -1.328,0.635 -3.371,1.81 -2.043,1.168 -4.724,3.053 -7.232,5.626 -2.5,2.583 -4.305,5.318 -5.413,7.394 -1.115,2.077 -1.622,3.456 -1.711,3.422 -0.034,-0.012 0.069,-0.365 0.284,-0.995 0.206,-0.633 0.578,-1.525 1.1,-2.596 1.037,-2.144 2.825,-4.962 5.367,-7.588 2.55,-2.616 5.314,-4.486 7.427,-5.585 1.056,-0.553 1.936,-0.951 2.563,-1.175 0.623,-0.234 0.973,-0.347 0.986,-0.313 z"
   id="path984" />
			</g>
			<g
   id="g990">
				<path
   style="fill:#263238"
   d="m 184.752,311.093 c -0.007,0.082 -1.031,0.025 -2.678,0.057 -1.646,0.029 -3.918,0.193 -6.38,0.674 -2.461,0.488 -4.626,1.199 -6.16,1.796 -1.536,0.595 -2.461,1.036 -2.499,0.963 -0.029,-0.054 0.839,-0.613 2.357,-1.303 1.515,-0.691 3.699,-1.471 6.201,-1.967 2.502,-0.49 4.819,-0.597 6.483,-0.532 1.667,0.063 2.683,0.251 2.676,0.312 z"
   id="path988" />
			</g>
			<g
   id="g994">
				<path
   style="fill:#263238"
   d="m 328.936,384.838 c 0,0 -0.204,-0.067 -0.594,-0.221 -0.406,-0.164 -0.98,-0.397 -1.727,-0.699 -0.747,-0.334 -1.721,-0.642 -2.779,-1.208 -1.07,-0.547 -2.301,-1.175 -3.685,-1.882 -5.436,-3.021 -12.845,-8.333 -20.54,-16.397 -7.752,-8.004 -15.677,-18.741 -23.151,-31.412 -7.45,-12.69 -14.493,-27.315 -20.49,-43.202 -0.667,-1.794 -1.317,-3.579 -1.92,-5.369 l -0.052,-0.154 0.118,-0.114 c 12.285,-11.929 23.902,-23.209 34.307,-33.313 l 0.173,-0.168 0.16,0.175 c 5.14,5.591 9.664,11.149 13.081,16.794 0.841,1.417 1.602,2.847 2.206,4.312 0.588,1.463 1.072,2.975 1.061,4.524 0.001,0.776 -0.258,1.538 -0.467,2.207 -0.215,0.69 -0.369,1.384 -0.482,2.072 -0.085,0.688 -0.12,1.38 0.017,2.023 0.115,0.63 0.51,1.246 1.049,1.393 l 0.064,0.018 0.031,0.032 c 6.567,6.82 11.797,12.251 15.4,15.992 1.777,1.861 3.152,3.3 4.096,4.289 0.453,0.482 0.8,0.851 1.048,1.115 0.234,0.252 0.344,0.389 0.344,0.389 0,0 -0.134,-0.115 -0.379,-0.356 -0.256,-0.256 -0.615,-0.615 -1.082,-1.082 -0.959,-0.974 -2.355,-2.393 -4.16,-4.226 -3.628,-3.716 -8.897,-9.11 -15.511,-15.884 l 0.095,0.049 c -0.795,-0.216 -1.19,-0.962 -1.336,-1.651 -0.154,-0.709 -0.117,-1.434 -0.032,-2.15 0.113,-0.712 0.269,-1.425 0.485,-2.128 0.221,-0.718 0.443,-1.377 0.443,-2.108 0.006,-1.456 -0.465,-2.933 -1.049,-4.366 -0.598,-1.437 -1.356,-2.849 -2.194,-4.252 -3.406,-5.587 -7.94,-11.129 -13.066,-16.683 l 0.333,0.007 c -10.395,10.115 -21.999,21.408 -34.271,33.35 l 0.066,-0.268 c 0.598,1.775 1.248,3.561 1.913,5.349 5.985,15.857 13.004,30.466 20.415,43.142 7.436,12.658 15.31,23.389 23.004,31.4 7.637,8.071 14.984,13.408 20.373,16.475 1.372,0.721 2.592,1.362 3.653,1.919 1.048,0.579 2.013,0.901 2.753,1.25 0.738,0.323 1.304,0.571 1.706,0.746 0.381,0.171 0.573,0.271 0.573,0.271 z"
   id="path992" />
			</g>
			<g
   id="g998">
				<path
   style="fill:#263238"
   d="m 272.25,339.668 c -0.002,0.031 -0.488,0.032 -1.362,-0.051 -0.874,-0.081 -2.135,-0.28 -3.656,-0.686 -3.03,-0.791 -7.132,-2.613 -10.682,-5.905 -3.552,-3.293 -5.678,-7.247 -6.695,-10.208 -0.519,-1.486 -0.813,-2.728 -0.959,-3.594 -0.149,-0.866 -0.184,-1.35 -0.154,-1.355 0.103,-0.022 0.346,1.916 1.458,4.821 1.091,2.89 3.226,6.73 6.704,9.954 3.476,3.223 7.466,5.063 10.429,5.933 2.979,0.891 4.931,0.987 4.917,1.091 z"
   id="path996" />
			</g>
			<g
   id="g1002">
				<path
   style="fill:#263238"
   d="m 303.435,406.436 c 0.005,0.007 -0.067,0.062 -0.212,0.163 -0.172,0.114 -0.386,0.257 -0.652,0.434 -0.613,0.393 -1.461,0.937 -2.535,1.626 -0.556,0.352 -1.171,0.741 -1.84,1.165 -0.685,0.406 -1.456,0.799 -2.27,1.248 -1.644,0.867 -3.468,1.953 -5.623,2.872 -1.065,0.487 -2.18,0.998 -3.342,1.529 -1.166,0.523 -2.427,0.951 -3.707,1.457 -2.547,1.055 -5.376,1.873 -8.33,2.799 -5.966,1.652 -12.659,3.013 -19.779,3.688 -7.13,0.597 -13.959,0.444 -20.125,-0.124 -3.072,-0.388 -6.002,-0.692 -8.696,-1.279 -1.349,-0.272 -2.666,-0.469 -3.907,-0.777 -1.237,-0.317 -2.425,-0.622 -3.56,-0.912 -2.284,-0.523 -4.272,-1.268 -6.043,-1.83 -0.881,-0.297 -1.709,-0.548 -2.455,-0.826 -0.734,-0.299 -1.408,-0.573 -2.017,-0.821 -1.179,-0.488 -2.11,-0.872 -2.783,-1.151 -0.292,-0.127 -0.529,-0.229 -0.718,-0.311 -0.161,-0.073 -0.241,-0.114 -0.238,-0.122 0.004,-0.008 0.091,0.017 0.258,0.073 0.195,0.07 0.437,0.156 0.738,0.263 0.681,0.256 1.622,0.61 2.815,1.058 0.613,0.235 1.29,0.494 2.029,0.776 0.749,0.263 1.58,0.5 2.462,0.783 1.775,0.534 3.763,1.253 6.045,1.75 1.133,0.279 2.319,0.572 3.554,0.877 1.238,0.297 2.551,0.483 3.897,0.745 2.686,0.567 5.605,0.852 8.664,1.226 6.14,0.539 12.936,0.678 20.031,0.083 7.086,-0.673 13.748,-2.013 19.694,-3.632 2.945,-0.91 5.766,-1.708 8.309,-2.742 1.278,-0.496 2.538,-0.912 3.703,-1.423 1.161,-0.519 2.277,-1.017 3.342,-1.493 2.158,-0.894 3.987,-1.954 5.639,-2.794 0.818,-0.435 1.594,-0.815 2.285,-1.207 0.677,-0.409 1.297,-0.784 1.859,-1.123 1.095,-0.653 1.958,-1.168 2.583,-1.541 0.277,-0.159 0.5,-0.287 0.68,-0.39 0.158,-0.084 0.24,-0.125 0.245,-0.117 z"
   id="path1000" />
			</g>
			<g
   id="g1006">
				<path
   style="fill:#263238"
   d="m 289.71,380.77 c 0.016,0.009 -0.061,0.176 -0.223,0.487 -0.195,0.361 -0.435,0.807 -0.729,1.35 -0.314,0.589 -0.716,1.298 -1.243,2.085 -0.519,0.792 -1.071,1.722 -1.799,2.667 -0.354,0.482 -0.724,0.986 -1.109,1.509 -0.389,0.522 -0.84,1.029 -1.282,1.574 -0.87,1.103 -1.912,2.182 -2.987,3.338 -2.218,2.245 -4.817,4.559 -7.763,6.707 -2.968,2.119 -5.984,3.857 -8.814,5.255 -1.436,0.656 -2.789,1.306 -4.11,1.783 -1.298,0.537 -2.541,0.94 -3.68,1.297 -1.127,0.393 -2.184,0.624 -3.098,0.867 -0.913,0.252 -1.713,0.41 -2.371,0.523 -0.608,0.107 -1.107,0.195 -1.511,0.266 -0.346,0.055 -0.529,0.076 -0.532,0.058 -0.003,-0.018 0.174,-0.073 0.513,-0.161 0.397,-0.096 0.889,-0.216 1.487,-0.361 0.648,-0.142 1.438,-0.329 2.34,-0.606 0.903,-0.268 1.947,-0.522 3.059,-0.935 1.124,-0.377 2.352,-0.798 3.633,-1.348 1.305,-0.491 2.64,-1.151 4.059,-1.813 2.796,-1.41 5.778,-3.145 8.72,-5.246 2.921,-2.13 5.506,-4.413 7.725,-6.621 1.075,-1.138 2.122,-2.197 3,-3.28 0.446,-0.535 0.901,-1.032 1.296,-1.544 0.391,-0.513 0.767,-1.006 1.128,-1.479 0.743,-0.925 1.313,-1.836 1.852,-2.608 0.547,-0.768 0.973,-1.459 1.313,-2.03 0.327,-0.522 0.595,-0.951 0.811,-1.298 0.191,-0.294 0.299,-0.445 0.315,-0.436 z"
   id="path1004" />
			</g>
			<g
   id="g1010">
				<path
   style="fill:#263238"
   d="m 266.625,287.13 c -0.091,0.092 -1.758,-1.631 -3.006,-4.276 -1.266,-2.637 -1.552,-5.017 -1.423,-5.03 0.155,-0.034 0.661,2.242 1.894,4.806 1.212,2.573 2.659,4.401 2.535,4.5 z"
   id="path1008" />
			</g>
			<g
   id="g1014">
				<path
   style="fill:#263238"
   d="m 276.129,276.985 c -0.132,0.058 -1.218,-2.113 -2.426,-4.849 -1.208,-2.737 -2.081,-5.002 -1.949,-5.06 0.132,-0.058 1.217,2.113 2.426,4.85 1.207,2.736 2.08,5.001 1.949,5.059 z"
   id="path1012" />
			</g>
			<g
   id="g1018">
				<path
   style="fill:#263238"
   d="m 286.43,267.323 c -0.145,0.05 -0.939,-2.026 -2.228,-4.427 -1.277,-2.409 -2.558,-4.224 -2.436,-4.317 0.103,-0.086 1.594,1.618 2.896,4.072 1.312,2.447 1.896,4.634 1.768,4.672 z"
   id="path1016" />
			</g>
			<g
   id="g1022">
				<path
   style="fill:#263238"
   d="m 223.653,282.74 c -0.138,-0.04 0.54,-2.795 1.514,-6.154 0.525,-1.811 1.029,-3.428 1.399,-4.509 l -0.005,0.023 c 0.193,-0.993 0.341,-1.579 0.407,-1.57 0.066,0.01 0.037,0.614 -0.065,1.62 v 0.004 l -0.005,0.019 c -0.266,1.111 -0.705,2.746 -1.23,4.557 -0.975,3.359 -1.877,6.05 -2.015,6.01 z"
   id="path1020" />
			</g>
			<g
   id="g1026">
				<path
   style="fill:#263238"
   d="m 213.089,261.077 c 0.136,0.046 -0.385,1.963 -1.164,4.281 -0.78,2.319 -1.522,4.161 -1.658,4.116 -0.136,-0.046 0.385,-1.962 1.165,-4.281 0.778,-2.319 1.521,-4.162 1.657,-4.116 z"
   id="path1024" />
			</g>
			<g
   style="opacity:0.2"
   id="g1030">
				<path
   d="m 183.979,314.468 c -0.06,-1.691 -1.345,-3.143 -2.86,-3.897 -1.515,-0.754 -3.239,-0.941 -4.922,-1.117 2.47,-0.954 5.007,-1.949 6.935,-3.764 2.192,-2.063 3.362,-4.958 4.469,-7.757 2.538,-6.419 5.096,-13.571 2.684,-20.039 -0.374,-1.003 -0.557,-2.58 0.504,-2.724 0.711,-0.097 1.202,0.671 1.5,1.323 1.016,2.226 2.033,4.452 3.049,6.678"
   id="path1028" />
			</g>
			<g
   style="opacity:0.2"
   id="g1034">
				<path
   d="m 249.963,322.336 c -0.424,4.078 0.213,8.261 1.831,12.028 1.498,3.488 3.995,6.742 7.51,8.175 3.515,1.433 8.11,0.552 10.15,-2.65 -4.24,-1.535 -8.554,-3.11 -12.134,-5.851 -3.581,-2.741 -6.378,-6.882 -6.377,-11.391"
   id="path1032" />
			</g>
			<g
   id="g1038">
				<path
   style="fill:#ffffff"
   d="m 314.499,215.655 c 0.006,0.007 -0.099,0.115 -0.311,0.32 -0.23,0.219 -0.545,0.518 -0.948,0.902 -0.86,0.802 -2.096,1.954 -3.678,3.43 -3.229,2.98 -7.868,7.261 -13.593,12.544 -11.528,10.57 -27.423,25.143 -44.98,41.24 -1.572,1.437 -3.13,2.862 -4.588,4.195 l -0.171,0.156 -0.174,-0.151 c -16.935,-14.669 -32.062,-27.773 -42.978,-37.228 -5.42,-4.726 -9.793,-8.539 -12.832,-11.189 -1.488,-1.311 -2.648,-2.334 -3.456,-3.047 -0.377,-0.339 -0.672,-0.605 -0.889,-0.8 -0.198,-0.182 -0.297,-0.279 -0.291,-0.285 0.006,-0.007 0.115,0.077 0.325,0.247 0.225,0.186 0.53,0.439 0.921,0.763 0.823,0.696 2.004,1.695 3.518,2.976 3.064,2.621 7.473,6.393 12.937,11.067 10.943,9.424 26.108,22.484 43.085,37.104 l -0.345,0.005 c 1.458,-1.333 3.016,-2.759 4.587,-4.196 17.597,-16.053 33.529,-30.587 45.083,-41.127 5.772,-5.232 10.45,-9.472 13.705,-12.422 1.611,-1.445 2.869,-2.573 3.744,-3.358 0.418,-0.367 0.744,-0.654 0.983,-0.864 0.222,-0.193 0.34,-0.289 0.346,-0.282 z"
   id="path1036" />
			</g>
			<g
   id="g1042">
				<path
   style="fill:#ffffff"
   d="m 347.746,267.96 c 0.001,0.036 -0.617,0.099 -1.731,0.183 -0.558,0.035 -1.239,0.086 -2.025,0.196 -0.786,0.102 -1.687,0.174 -2.667,0.364 -0.985,0.16 -2.061,0.34 -3.201,0.617 -1.151,0.227 -2.352,0.583 -3.623,0.93 -2.52,0.768 -5.243,1.768 -7.993,3.064 -2.739,1.323 -5.23,2.811 -7.413,4.286 -1.069,0.769 -2.102,1.479 -3.002,2.231 -0.932,0.712 -1.75,1.436 -2.493,2.101 -0.764,0.643 -1.387,1.297 -1.961,1.844 -0.579,0.543 -1.048,1.039 -1.426,1.451 -0.766,0.813 -1.204,1.253 -1.231,1.23 -0.028,-0.023 0.358,-0.508 1.081,-1.366 0.356,-0.434 0.805,-0.954 1.368,-1.519 0.557,-0.57 1.166,-1.247 1.92,-1.912 0.733,-0.687 1.543,-1.432 2.471,-2.165 0.896,-0.773 1.928,-1.502 2.999,-2.289 2.187,-1.511 4.696,-3.026 7.462,-4.362 2.777,-1.309 5.533,-2.306 8.083,-3.055 1.286,-0.338 2.502,-0.681 3.666,-0.891 1.153,-0.26 2.242,-0.421 3.238,-0.559 0.991,-0.168 1.9,-0.215 2.694,-0.29 0.793,-0.082 1.48,-0.104 2.042,-0.108 1.123,-0.023 1.742,-0.017 1.742,0.019 z"
   id="path1040" />
			</g>
			<g
   id="g1046">
				<path
   style="fill:#ffffff"
   d="m 351.701,375.194 c -0.016,-0.008 0.06,-0.227 0.221,-0.636 0.185,-0.456 0.425,-1.045 0.723,-1.777 0.314,-0.771 0.743,-1.695 1.086,-2.828 0.189,-0.562 0.391,-1.16 0.603,-1.793 0.107,-0.317 0.218,-0.643 0.331,-0.978 0.102,-0.338 0.179,-0.693 0.273,-1.052 0.35,-1.443 0.82,-3.004 1.049,-4.737 0.125,-0.863 0.335,-1.745 0.406,-2.671 0.076,-0.926 0.154,-1.879 0.234,-2.855 0.171,-3.914 -0.123,-8.243 -1.113,-12.661 -0.953,-4.431 -2.579,-8.464 -4.262,-12.003 -1.658,-3.564 -3.561,-6.563 -5.155,-9.071 -1.666,-2.463 -3.053,-4.435 -4.082,-5.746 -0.472,-0.634 -0.852,-1.144 -1.146,-1.539 -0.258,-0.356 -0.386,-0.548 -0.372,-0.559 0.014,-0.011 0.17,0.159 0.454,0.493 0.314,0.38 0.72,0.871 1.224,1.481 1.079,1.274 2.516,3.218 4.228,5.665 1.641,2.492 3.587,5.487 5.281,9.067 1.719,3.554 3.374,7.619 4.338,12.098 1.002,4.464 1.284,8.847 1.084,12.802 -0.088,0.986 -0.175,1.948 -0.259,2.883 -0.081,0.935 -0.3,1.824 -0.436,2.693 -0.25,1.746 -0.744,3.315 -1.12,4.762 -0.1,0.36 -0.184,0.716 -0.292,1.055 -0.12,0.334 -0.237,0.66 -0.351,0.978 -0.227,0.631 -0.443,1.228 -0.645,1.79 -0.372,1.129 -0.829,2.046 -1.173,2.807 -0.335,0.717 -0.605,1.295 -0.814,1.742 -0.191,0.394 -0.299,0.597 -0.315,0.59 z"
   id="path1044" />
			</g>
			<g
   id="g1050">
				<path
   style="fill:#ffffff"
   d="m 304.975,367.766 c 0.011,-0.088 1.016,0.482 2.92,0.27 1.861,-0.187 4.592,-1.402 6.503,-4.251 1.95,-2.797 3.131,-6.774 4.454,-11.087 1.267,-4.346 2.331,-9.223 2.992,-14.406 1.36,-10.383 0.714,-19.917 -0.309,-26.681 -0.538,-3.384 -1.112,-6.101 -1.551,-7.968 -0.216,-0.894 -0.388,-1.609 -0.518,-2.148 -0.113,-0.493 -0.164,-0.754 -0.147,-0.759 0.017,-0.005 0.102,0.247 0.248,0.731 0.154,0.534 0.358,1.241 0.614,2.127 0.501,1.856 1.131,4.569 1.719,7.96 1.121,6.775 1.829,16.363 0.462,26.805 -0.665,5.212 -1.75,10.114 -3.048,14.475 -1.356,4.324 -2.569,8.307 -4.613,11.164 -1.009,1.416 -2.212,2.5 -3.427,3.168 -1.207,0.684 -2.389,0.991 -3.357,1.072 -0.972,0.087 -1.73,-0.049 -2.217,-0.193 -0.492,-0.141 -0.725,-0.279 -0.725,-0.279 z"
   id="path1048" />
			</g>
			<g
   id="g1054">
				<path
   style="fill:#ffffff"
   d="m 297.369,300.446 c 0.029,0.021 -0.249,0.424 -0.779,1.138 -0.259,0.363 -0.591,0.794 -1.027,1.252 -0.429,0.463 -0.888,1.023 -1.489,1.547 -0.577,0.55 -1.219,1.143 -1.972,1.703 -0.718,0.606 -1.567,1.141 -2.444,1.727 -1.8,1.099 -3.887,2.137 -6.192,2.932 -2.316,0.764 -4.606,1.203 -6.704,1.419 -1.053,0.065 -2.053,0.153 -2.991,0.106 -0.939,0.011 -1.808,-0.072 -2.601,-0.16 -0.796,-0.052 -1.5,-0.221 -2.122,-0.329 -0.625,-0.1 -1.15,-0.242 -1.576,-0.374 -0.854,-0.247 -1.319,-0.4 -1.309,-0.434 0.029,-0.114 1.907,0.497 5.043,0.77 0.784,0.063 1.642,0.125 2.567,0.095 0.925,0.028 1.908,-0.076 2.942,-0.152 2.061,-0.239 4.308,-0.684 6.585,-1.435 2.266,-0.781 4.322,-1.788 6.107,-2.847 0.869,-0.566 1.714,-1.079 2.433,-1.661 0.754,-0.536 1.399,-1.105 1.985,-1.63 2.328,-2.116 3.452,-3.741 3.544,-3.667 z"
   id="path1052" />
			</g>
			<g
   id="g1058">
				<path
   style="fill:#ffffff"
   d="m 310.025,289.464 c 0.036,0.002 0.033,0.379 -0.002,1.062 -0.025,0.683 -0.142,1.668 -0.356,2.872 -0.207,1.207 -0.569,2.623 -1.077,4.161 -0.531,1.53 -1.223,3.178 -2.108,4.827 -0.901,1.641 -1.907,3.119 -2.901,4.398 -1.014,1.264 -2.005,2.339 -2.904,3.169 -0.893,0.836 -1.656,1.469 -2.215,1.862 -0.553,0.401 -0.868,0.609 -0.889,0.58 -0.059,-0.076 1.145,-0.986 2.847,-2.705 0.856,-0.854 1.805,-1.939 2.783,-3.2 0.959,-1.276 1.936,-2.737 2.823,-4.352 0.871,-1.623 1.564,-3.237 2.113,-4.736 0.525,-1.507 0.919,-2.893 1.169,-4.076 0.513,-2.365 0.621,-3.87 0.717,-3.862 z"
   id="path1056" />
			</g>
			<g
   id="g1062">
				<path
   style="fill:#ffffff"
   d="m 289.305,350.826 c 0.006,0.006 -0.043,0.067 -0.145,0.179 -0.125,0.132 -0.276,0.293 -0.462,0.489 -0.444,0.453 -1.049,1.069 -1.812,1.847 -1.623,1.622 -3.918,3.916 -6.747,6.742 -5.769,5.695 -13.707,13.531 -22.534,22.246 l -0.14,0.139 -0.172,-0.099 c -0.463,-0.266 -0.962,-0.553 -1.464,-0.841 -11.076,-6.397 -21.101,-12.186 -28.404,-16.403 -3.592,-2.103 -6.512,-3.813 -8.578,-5.023 -0.978,-0.585 -1.752,-1.049 -2.319,-1.388 -0.24,-0.15 -0.436,-0.272 -0.596,-0.372 -0.133,-0.086 -0.199,-0.135 -0.194,-0.142 0.004,-0.008 0.079,0.025 0.221,0.096 0.168,0.088 0.372,0.196 0.622,0.328 0.579,0.319 1.369,0.754 2.368,1.304 2.085,1.175 5.034,2.836 8.66,4.879 7.322,4.183 17.374,9.926 28.48,16.271 0.501,0.288 1.001,0.575 1.464,0.841 l -0.312,0.04 c 8.871,-8.67 16.848,-16.466 22.645,-22.133 2.877,-2.778 5.211,-5.032 6.862,-6.626 0.792,-0.749 1.419,-1.343 1.879,-1.779 0.199,-0.182 0.363,-0.331 0.497,-0.453 0.113,-0.101 0.174,-0.149 0.181,-0.142 z"
   id="path1060" />
			</g>
			<g
   id="g1066">
				<path
   style="fill:#ffffff"
   d="m 254.606,328.538 c 0.018,-0.001 0.031,0.115 0.039,0.341 -0.004,0.224 -0.042,0.563 -0.21,0.963 -0.308,0.806 -1.249,1.811 -2.749,2.256 -1.517,0.504 -3.467,-0.006 -5.173,-1.038 -1.725,-1.051 -3.393,-2.44 -5.235,-3.794 -3.646,-2.757 -6.929,-5.276 -9.29,-7.12 -1.11,-0.881 -2.041,-1.62 -2.779,-2.205 -0.649,-0.53 -0.998,-0.837 -0.976,-0.865 0.022,-0.029 0.412,0.223 1.099,0.703 0.764,0.551 1.729,1.245 2.879,2.073 2.418,1.769 5.736,4.241 9.382,6.998 1.837,1.352 3.52,2.766 5.167,3.798 1.643,1.018 3.425,1.513 4.828,1.095 1.407,-0.37 2.322,-1.26 2.663,-1.986 0.367,-0.731 0.292,-1.226 0.355,-1.219 z"
   id="path1064" />
			</g>
			<g
   id="g1070">
				<path
   style="fill:#ffffff"
   d="m 269.115,315.393 c 0.029,0.076 -1.037,0.536 -2.715,1.363 -1.678,0.826 -3.952,2.054 -6.328,3.628 -2.374,1.579 -4.389,3.198 -5.801,4.423 -1.414,1.224 -2.252,2.028 -2.31,1.972 -0.046,-0.043 0.701,-0.94 2.063,-2.245 1.359,-1.305 3.361,-2.988 5.761,-4.584 2.402,-1.591 4.73,-2.782 6.46,-3.528 1.731,-0.748 2.848,-1.087 2.87,-1.029 z"
   id="path1068" />
			</g>
			<g
   style="opacity:0.3"
   id="g1074">
				<path
   d="m 303.166,283.776 c -5.216,13.542 -6.152,27.383 -4.425,41.792 0.358,2.984 1.864,7.176 3.026,9.948 1.161,2.772 3.14,5.314 5.874,6.564 2.491,1.139 5.815,0.931 7.533,-1.203 1.223,-1.52 1.382,-3.634 1.213,-5.577 -0.435,-5.006 -2.651,-9.653 -4.553,-14.304 -4.84,-11.841 -7.819,-24.441 -8.795,-37.196"
   id="path1072" />
			</g>
			<g
   style="opacity:0.3"
   id="g1078">
				<path
   d="m 337.958,310.796 c 5.188,4.133 8.846,10.143 10.136,16.649 0.345,1.743 0.548,3.576 1.486,5.084 0.939,1.509 2.916,2.568 4.52,1.803 1.961,-0.935 2.032,-3.692 1.557,-5.812 -2.148,-9.591 -9.814,-17.737 -19.257,-20.465"
   id="path1076" />
			</g>
			<g
   id="g1082">
				<path
   style="fill:#ffffff"
   d="m 255.653,423.387 c -0.071,0.125 -12.593,-6.89 -27.965,-15.666 -15.377,-8.779 -27.781,-15.995 -27.71,-16.12 0.071,-0.125 12.591,6.888 27.968,15.667 15.372,8.777 27.779,15.995 27.707,16.119 z"
   id="path1080" />
			</g>
			<g
   id="g1086">
				<path
   style="fill:#ffffff"
   d="m 275.305,419.388 c 0.02,0.03 -0.327,0.309 -0.972,0.789 -0.738,0.533 -1.662,1.2 -2.76,1.992 -2.343,1.664 -5.601,3.932 -9.217,6.411 -0.96,0.655 -1.894,1.294 -2.792,1.907 l -0.13,0.089 -0.136,-0.075 c -3.129,-1.729 -5.854,-3.259 -7.789,-4.37 -0.894,-0.524 -1.647,-0.965 -2.262,-1.326 -0.524,-0.319 -0.803,-0.506 -0.788,-0.533 0.015,-0.027 0.323,0.107 0.874,0.377 0.634,0.324 1.411,0.721 2.335,1.193 1.978,1.033 4.734,2.506 7.875,4.212 l -0.266,0.013 c 0.895,-0.616 1.828,-1.258 2.785,-1.917 3.616,-2.479 6.906,-4.7 9.303,-6.286 1.135,-0.738 2.09,-1.359 2.854,-1.856 0.68,-0.426 1.066,-0.65 1.086,-0.62 z"
   id="path1084" />
			</g>
			<g
   style="opacity:0.3"
   id="g1090">
				<path
   d="m 297.703,410.395 c -3.512,-4.001 -9.537,-4.953 -14.734,-3.798 -5.197,1.155 -9.804,4.06 -14.371,6.795 -4.567,2.736 -9.373,5.405 -14.663,6.002 -6.191,0.698 -12.286,-1.511 -18.397,-2.726 -6.111,-1.215 -13.169,-1.184 -17.711,3.081 0,0 19.453,6.622 42.814,2.966 17.142,-2.682 37.062,-12.32 37.062,-12.32 z"
   id="path1088" />
			</g>
			<g
   id="g1094">
				<path
   style="fill:#ffffff"
   d="m 224.792,323.406 c -0.005,0.036 -0.598,-0.028 -1.669,-0.173 -0.536,-0.068 -1.19,-0.165 -1.942,-0.319 -0.753,-0.149 -1.617,-0.292 -2.553,-0.535 -1.886,-0.426 -4.1,-1.07 -6.515,-1.915 -2.404,-0.873 -5.003,-1.962 -7.634,-3.303 -2.623,-1.361 -5.02,-2.842 -7.129,-4.29 -2.091,-1.474 -3.903,-2.9 -5.347,-4.187 -0.742,-0.62 -1.361,-1.24 -1.92,-1.765 -0.563,-0.522 -1.022,-0.997 -1.389,-1.395 -0.741,-0.786 -1.137,-1.232 -1.111,-1.257 0.026,-0.025 0.472,0.373 1.254,1.113 0.387,0.374 0.865,0.826 1.444,1.325 0.575,0.503 1.208,1.1 1.961,1.699 1.466,1.243 3.289,2.63 5.379,4.071 2.108,1.416 4.493,2.872 7.095,4.223 2.611,1.33 5.182,2.424 7.559,3.315 2.388,0.862 4.576,1.539 6.44,2.008 0.925,0.264 1.779,0.432 2.522,0.607 0.743,0.181 1.389,0.306 1.918,0.404 1.059,0.207 1.642,0.339 1.637,0.374 z"
   id="path1092" />
			</g>
			<g
   id="g1098">
				<path
   style="fill:#ffffff"
   d="m 165.997,363.409 c -0.017,0.004 -0.07,-0.165 -0.155,-0.492 -0.093,-0.387 -0.208,-0.861 -0.347,-1.437 -0.073,-0.32 -0.153,-0.668 -0.239,-1.043 -0.074,-0.384 -0.125,-0.806 -0.195,-1.257 -0.121,-0.905 -0.318,-1.93 -0.364,-3.081 -0.039,-0.576 -0.08,-1.177 -0.122,-1.802 -0.037,-0.627 -0.007,-1.281 -0.012,-1.958 -0.035,-1.355 0.107,-2.796 0.219,-4.315 0.338,-3.025 0.97,-6.326 2.033,-9.679 1.104,-3.342 2.526,-6.388 4.024,-9.037 0.799,-1.297 1.528,-2.548 2.35,-3.626 0.401,-0.545 0.759,-1.093 1.157,-1.579 0.4,-0.482 0.786,-0.945 1.155,-1.389 0.711,-0.906 1.471,-1.622 2.1,-2.284 0.321,-0.325 0.609,-0.637 0.894,-0.904 0.289,-0.254 0.557,-0.489 0.805,-0.705 0.45,-0.385 0.821,-0.703 1.123,-0.961 0.26,-0.215 0.402,-0.321 0.414,-0.308 0.012,0.014 -0.108,0.147 -0.345,0.387 -0.284,0.277 -0.632,0.618 -1.054,1.031 -0.236,0.226 -0.493,0.47 -0.769,0.734 -0.273,0.276 -0.549,0.597 -0.858,0.929 -0.604,0.677 -1.34,1.404 -2.027,2.318 -0.358,0.447 -0.731,0.913 -1.119,1.398 -0.386,0.488 -0.732,1.038 -1.122,1.583 -0.8,1.078 -1.508,2.326 -2.287,3.615 -1.46,2.636 -2.853,5.654 -3.945,8.96 -1.051,3.317 -1.69,6.579 -2.051,9.57 -0.124,1.502 -0.281,2.927 -0.264,4.27 -0.004,0.67 -0.044,1.318 -0.018,1.94 0.031,0.62 0.06,1.217 0.088,1.788 0.021,1.143 0.191,2.163 0.285,3.066 0.056,0.45 0.092,0.872 0.151,1.256 0.069,0.376 0.134,0.724 0.193,1.046 0.1,0.582 0.183,1.062 0.25,1.453 0.05,0.331 0.069,0.508 0.052,0.513 z"
   id="path1096" />
			</g>
			<g
   id="g1102">
				<path
   style="fill:#ffffff"
   d="m 188.714,298.653 c -0.023,0.028 -0.423,-0.246 -1.127,-0.765 -0.784,-0.582 -1.781,-1.323 -2.973,-2.208 -2.603,-1.911 -6.044,-4.437 -9.847,-7.229 -3.86,-2.807 -7.353,-5.351 -9.858,-7.226 -1.253,-0.937 -2.26,-1.704 -2.947,-2.246 -0.688,-0.542 -1.057,-0.855 -1.036,-0.884 0.021,-0.029 0.432,0.229 1.156,0.72 0.802,0.557 1.823,1.265 3.044,2.112 2.559,1.798 6.086,4.295 9.948,7.103 3.86,2.808 7.312,5.413 9.764,7.358 1.228,0.971 2.209,1.772 2.875,2.341 0.666,0.569 1.024,0.896 1.001,0.924 z"
   id="path1100" />
			</g>
		</g>
		<g
   id="g1332">
			<g
   id="g1326">
				<g
   id="g1108">
					<path
   style="fill:#263238"
   d="m 295.862,97.082 c 0.373,10.268 14.061,16.491 13.886,26.764 -0.075,4.409 -2.81,8.367 -3.347,12.744 -0.721,5.883 2.567,11.438 3.781,17.239 2.502,11.953 -4.449,24.562 -14.761,31.105 -10.311,6.544 -23.255,7.793 -35.354,6.137"
   id="path1106" />
				</g>
				<g
   id="g1290">
					<g
   id="g1112">
						<path
   style="fill:#263238"
   d="m 213.202,94.565 c 0.407,5.512 -3.234,10.436 -6.901,14.571 -3.668,4.135 -7.749,8.445 -8.541,13.915 -1.405,9.694 8.086,18.695 6.128,28.293 -1.049,5.144 -5.261,9.276 -6.011,14.472 -0.726,5.025 1.967,9.944 5.306,13.77 3.338,3.826 7.205,3.266 10.158,7.397 3.111,4.352 8.118,8.816 12.811,11.385 10.637,5.825 23.403,-2.603 28.534,-4.115"
   id="path1110" />
					</g>
					<g
   id="g1116">
						<path
   style="fill:#263238"
   d="m 297.922,102.994 c 0.143,-4.999 -4.48,-8.861 -9.134,-10.692 -4.654,-1.831 -9.826,-2.521 -13.975,-5.314 -3.673,-2.473 -6.142,-6.329 -9.252,-9.481 -7.628,-7.733 -19.538,-10.938 -30.017,-8.08 -10.479,2.859 -19.111,11.669 -21.755,22.204 -1.787,7.119 -0.567,15.537 5.045,20.268 6.513,5.491 16.17,4.271 24.515,2.563 8.346,-1.708 17.792,-3.393 24.759,1.508 4.202,2.956 6.611,7.763 9.18,12.213 2.569,4.449 5.793,8.992 10.65,10.665 4.857,1.673 11.454,-1.216 11.643,-6.35"
   id="path1114" />
					</g>
					<g
   id="g1284">
						<g
   id="g1282">
							<g
   id="g1280">
								<g
   id="g1278">
									<g
   id="g1244">
										<g
   id="g1242">
											<g
   id="g1240">
												<g
   id="g1132">
													<g
   id="g1130">
														<g
   id="g1128">
															<g
   id="g1126">
																<g
   id="g1124">
																	<g
   id="g1122">
																		<g
   id="g1120">
																			<path
   style="fill:#ffbe9d"
   d="m 231.471,219.439 c -0.068,-11.471 -0.136,-22.648 -0.14,-22.589 0,0 -18.222,-3.067 -21.946,-26.859 -1.852,-11.832 -1.215,-31.223 -0.181,-47.073 0.931,-14.266 10.423,-31.751 24.636,-30.216 l 44.369,11.319 c 4.318,0.466 7.561,4.159 7.466,8.501 v 0 l -4.062,107.714 c -0.516,13.666 -11.885,24.4 -25.559,24.129 v 0 c -13.598,-0.269 -24.502,-11.327 -24.583,-24.926 z"
   id="path1118" />
																		</g>
																	</g>
																</g>
															</g>
														</g>
													</g>
												</g>
												<g
   id="g1168">
													<g
   id="g1148">
														<g
   id="g1146">
															<g
   id="g1144">
																<g
   id="g1142">
																	<g
   id="g1140">
																		<g
   id="g1138">
																			<g
   id="g1136">
																				<path
   style="fill:#263238"
   d="m 216.756,136.51 c -0.061,1.611 1.253,2.99 2.934,3.084 1.678,0.094 3.09,-1.132 3.15,-2.743 0.06,-1.61 -1.253,-2.992 -2.931,-3.086 -1.681,-0.094 -3.093,1.134 -3.153,2.745 z"
   id="path1134" />
																			</g>
																		</g>
																	</g>
																</g>
															</g>
														</g>
													</g>
													<g
   id="g1166">
														<g
   id="g1164">
															<g
   id="g1162">
																<g
   id="g1160">
																	<g
   id="g1158">
																		<g
   id="g1156">
																			<g
   id="g1154">
																				<g
   id="g1152">
																					<path
   style="fill:#263238"
   d="m 213.388,133.015 c 0.377,0.399 2.692,-1.307 5.974,-1.29 3.279,-0.031 5.684,1.663 6.041,1.262 0.175,-0.177 -0.209,-0.896 -1.256,-1.662 -1.031,-0.762 -2.79,-1.506 -4.835,-1.502 -2.044,0.007 -3.766,0.756 -4.756,1.524 -1.01,0.771 -1.354,1.49 -1.168,1.668 z"
   id="path1150" />
																				</g>
																			</g>
																		</g>
																	</g>
																</g>
															</g>
														</g>
													</g>
												</g>
												<g
   id="g1204">
													<g
   id="g1184">
														<g
   id="g1182">
															<g
   id="g1180">
																<g
   id="g1178">
																	<g
   id="g1176">
																		<g
   id="g1174">
																			<g
   id="g1172">
																				<path
   style="fill:#263238"
   d="m 248.623,137.333 c -0.061,1.611 1.253,2.99 2.934,3.084 1.677,0.093 3.09,-1.132 3.15,-2.743 0.06,-1.61 -1.254,-2.992 -2.932,-3.085 -1.68,-0.095 -3.091,1.134 -3.152,2.744 z"
   id="path1170" />
																			</g>
																		</g>
																	</g>
																</g>
															</g>
														</g>
													</g>
													<g
   id="g1202">
														<g
   id="g1200">
															<g
   id="g1198">
																<g
   id="g1196">
																	<g
   id="g1194">
																		<g
   id="g1192">
																			<g
   id="g1190">
																				<g
   id="g1188">
																					<path
   style="fill:#263238"
   d="m 245.65,133.699 c 0.378,0.399 2.695,-1.306 5.975,-1.29 3.278,-0.031 5.684,1.662 6.041,1.261 0.175,-0.178 -0.205,-0.896 -1.256,-1.662 -1.031,-0.763 -2.79,-1.506 -4.834,-1.503 -2.045,0.007 -3.766,0.756 -4.756,1.524 -1.009,0.773 -1.355,1.492 -1.17,1.67 z"
   id="path1186" />
																				</g>
																			</g>
																		</g>
																	</g>
																</g>
															</g>
														</g>
													</g>
												</g>
												<g
   id="g1222">
													<g
   id="g1220">
														<g
   id="g1218">
															<g
   id="g1216">
																<g
   id="g1214">
																	<g
   id="g1212">
																		<g
   id="g1210">
																			<g
   id="g1208">
																				<path
   style="fill:#263238"
   d="m 233.684,158.014 c 0.016,-0.187 -2.024,-0.544 -5.329,-0.974 -0.838,-0.088 -1.631,-0.257 -1.771,-0.829 -0.196,-0.606 0.157,-1.509 0.565,-2.483 0.792,-2.026 1.622,-4.15 2.493,-6.376 3.462,-9.079 5.97,-16.545 5.603,-16.681 -0.367,-0.136 -3.471,7.112 -6.933,16.191 -0.833,2.239 -1.631,4.373 -2.389,6.415 -0.319,0.952 -0.867,2.031 -0.442,3.289 0.224,0.627 0.839,1.082 1.376,1.228 0.537,0.165 1.008,0.175 1.423,0.201 3.327,0.186 5.391,0.206 5.404,0.019 z"
   id="path1206" />
																			</g>
																		</g>
																	</g>
																</g>
															</g>
														</g>
													</g>
												</g>
												<g
   id="g1238">
													<g
   id="g1236">
														<g
   id="g1234">
															<g
   id="g1232">
																<g
   id="g1230">
																	<g
   id="g1228">
																		<g
   id="g1226">
																			<path
   style="fill:#eb996e"
   d="m 231.331,196.85 c 0,0 15.998,1.067 31.871,-8.426 -0.268,0.057 -8.771,16.534 -31.562,14.042 z"
   id="path1224" />
																		</g>
																	</g>
																</g>
															</g>
														</g>
													</g>
												</g>
											</g>
										</g>
									</g>
									<g
   id="g1260">
										<g
   id="g1258">
											<g
   id="g1256">
												<g
   id="g1254">
													<g
   id="g1252">
														<g
   id="g1250">
															<g
   id="g1248">
																<path
   style="fill:#263238"
   d="m 244.991,117.446 c 0.079,0.945 3.352,1.396 6.947,2.852 3.624,1.384 6.326,3.285 7.029,2.647 0.32,-0.31 0.017,-1.262 -0.968,-2.424 -0.975,-1.159 -2.677,-2.47 -4.841,-3.324 -2.165,-0.849 -4.304,-1.05 -5.807,-0.866 -1.513,0.179 -2.383,0.669 -2.36,1.115 z"
   id="path1246" />
															</g>
														</g>
													</g>
												</g>
											</g>
										</g>
									</g>
									<g
   id="g1276">
										<g
   id="g1274">
											<g
   id="g1272">
												<g
   id="g1270">
													<g
   id="g1268">
														<g
   id="g1266">
															<g
   id="g1264">
																<path
   style="fill:#263238"
   d="m 214.052,123.693 c 0.715,0.614 2.775,-0.599 5.431,-1.182 2.635,-0.676 5.019,-0.52 5.382,-1.39 0.151,-0.418 -0.354,-1.076 -1.482,-1.565 -1.113,-0.489 -2.852,-0.719 -4.672,-0.287 -1.713,0.23 -2.903,0.71 -4.04,2.36 -0.787,0.944 -0.942,1.759 -0.619,2.064 z"
   id="path1262" />
															</g>
														</g>
													</g>
												</g>
											</g>
										</g>
									</g>
								</g>
							</g>
						</g>
					</g>
					<g
   id="g1288">
						<path
   style="fill:#263238"
   d="m 288.275,183.587 c -6.541,1.318 -7.124,-2.01 -12.011,-6.553 -4.887,-4.543 -7.411,-11.501 -6.573,-18.12 0.739,-5.841 3.889,-11.784 1.864,-17.313 -2.678,-7.309 -12.924,-9.558 -15.643,-16.853 -1.58,-4.239 -0.162,-9.199 -1.953,-13.353 -1.684,-3.907 -5.795,-6.157 -9.795,-7.603 -4.001,-1.447 -8.291,-2.445 -11.65,-5.056 -3.359,-2.611 -5.454,-7.539 -3.287,-11.2 17.743,2.126 35.23,6.375 51.971,12.627 3.881,1.45 7.959,3.192 10.254,6.642 2.428,3.651 2.312,8.367 2.108,12.747 -0.997,21.355 -1.993,42.711 -2.99,64.066"
   id="path1286" />
					</g>
				</g>
				<g
   id="g1294">
					<path
   style="fill:#263238"
   d="m 303.235,135.068 c 0.751,-7.838 7.138,-14.795 14.884,-16.212 7.746,-1.417 16.182,2.828 19.66,9.893 3.306,6.717 2.162,14.891 -0.924,21.713 -3.667,8.105 -11.179,15.511 -20.066,15.108 -8.362,-0.379 -15.093,-7.723 -17.503,-15.738 -2.41,-8.016 -1.437,-16.608 -0.442,-24.919"
   id="path1292" />
				</g>
				<g
   id="g1300">
					<g
   id="g1298">
						<path
   style="fill:#455a64"
   d="m 307.893,167.642 c 0.027,0.029 0.575,-0.376 1.246,-1.38 0.68,-0.99 1.443,-2.616 1.774,-4.759 0.349,-2.134 0.284,-4.73 -0.215,-7.514 -0.484,-2.8 -1.428,-5.731 -2.115,-8.845 -0.7,-3.102 -1.028,-6.137 -0.518,-8.8 0.487,-2.648 1.733,-4.898 2.281,-6.989 0.6,-2.087 0.524,-3.927 0.143,-5.087 -0.376,-1.173 -0.89,-1.657 -0.926,-1.622 -0.08,0.047 0.301,0.599 0.531,1.723 0.238,1.115 0.201,2.818 -0.455,4.771 -0.602,1.973 -1.925,4.165 -2.519,7.022 -0.598,2.842 -0.27,6.046 0.444,9.208 0.703,3.176 1.672,6.097 2.188,8.794 0.537,2.7 0.672,5.189 0.43,7.238 -0.445,4.173 -2.494,6.133 -2.289,6.24 z"
   id="path1296" />
					</g>
				</g>
				<g
   id="g1306">
					<g
   id="g1304">
						<path
   style="fill:#455a64"
   d="m 308.238,139.081 c -0.084,0.06 1.046,1.715 3.647,3.57 2.557,1.848 6.762,3.742 11.689,3.832 4.928,0.083 9.198,-1.663 11.818,-3.42 2.664,-1.762 3.851,-3.376 3.769,-3.44 -0.126,-0.134 -1.487,1.27 -4.156,2.809 -2.634,1.541 -6.736,3.084 -11.413,3.005 -4.675,-0.085 -8.721,-1.77 -11.299,-3.403 -2.613,-1.632 -3.924,-3.083 -4.055,-2.953 z"
   id="path1302" />
					</g>
				</g>
				<g
   id="g1312">
					<g
   id="g1310">
						<path
   style="fill:#455a64"
   d="m 309.417,142.808 c -0.101,0.048 0.483,1.584 2.015,3.735 1.519,2.147 4.108,4.82 7.574,6.913 3.475,2.081 7.05,3.116 9.659,3.451 2.618,0.345 4.248,0.141 4.243,0.029 0.003,-0.176 -1.607,-0.237 -4.117,-0.757 -2.507,-0.511 -5.899,-1.615 -9.246,-3.618 -3.337,-2.017 -5.903,-4.496 -7.529,-6.47 -1.636,-1.974 -2.444,-3.368 -2.599,-3.283 z"
   id="path1308" />
					</g>
				</g>
				<g
   id="g1318">
					<g
   id="g1316">
						<path
   style="fill:#455a64"
   d="m 303.43,175.605 c 0.014,0.011 0.102,-0.089 0.26,-0.296 0.147,-0.214 0.412,-0.505 0.656,-0.951 0.537,-0.862 1.183,-2.25 1.567,-4.159 0.381,-1.898 0.416,-4.358 -0.382,-7.023 -0.743,-2.659 -2.596,-5.515 -5.535,-7.444 -2.822,-1.99 -6.496,-3.376 -8.83,-6.541 -1.165,-1.546 -1.658,-3.552 -1.291,-5.585 0.319,-2.041 1.251,-4.042 2.069,-6.171 1.819,-4.262 1.836,-9.585 -0.306,-14.2 -1.08,-2.294 -2.681,-4.433 -4.826,-5.995 -2.13,-1.611 -4.731,-2.441 -7.295,-3.024 -2.576,-0.588 -5.145,-0.928 -7.53,-1.648 -2.378,-0.711 -4.653,-1.777 -6.306,-3.449 -1.695,-1.651 -2.413,-3.938 -2.735,-6.24 -0.325,-2.301 -0.497,-4.688 -1.12,-6.915 -1.163,-4.461 -3.43,-8.413 -6.419,-11.252 -2.988,-2.857 -6.648,-4.497 -10.104,-5.013 -3.468,-0.54 -6.737,0.102 -9.194,1.392 -2.485,1.265 -4.209,3.018 -5.318,4.604 -1.105,1.607 -1.621,3.051 -1.861,4.036 -0.247,0.988 -0.231,1.53 -0.231,1.53 0.154,0.064 0.186,-2.231 2.422,-5.328 1.126,-1.504 2.837,-3.154 5.248,-4.319 2.383,-1.188 5.502,-1.746 8.818,-1.185 3.301,0.539 6.792,2.152 9.618,4.907 2.835,2.744 4.99,6.556 6.088,10.869 0.589,2.154 0.739,4.426 1.065,6.821 0.309,2.355 1.101,4.965 2.992,6.81 1.833,1.859 4.264,2.981 6.737,3.727 2.499,0.755 5.076,1.094 7.598,1.672 2.509,0.57 4.953,1.362 6.911,2.843 1.988,1.441 3.491,3.434 4.513,5.589 2.023,4.361 2.051,9.331 0.334,13.426 -0.785,2.094 -1.741,4.15 -2.077,6.375 -0.397,2.213 0.2,4.568 1.499,6.233 2.595,3.412 6.377,4.74 9.115,6.642 2.848,1.821 4.612,4.457 5.393,7.009 0.819,2.542 0.849,4.924 0.539,6.777 -0.651,3.763 -2.239,5.409 -2.082,5.476 z"
   id="path1314" />
					</g>
				</g>
				<g
   id="g1324">
					<g
   id="g1322">
						<path
   style="fill:#455a64"
   d="m 301.839,109.202 c 0,0 0.223,-0.345 0.293,-1.097 0.079,-0.739 -0.031,-1.919 -0.789,-3.159 -0.738,-1.225 -2.051,-2.535 -3.977,-3.289 -1.948,-0.749 -4.352,-0.724 -6.831,-0.226 -2.494,0.472 -5.076,1.468 -7.906,2.015 -2.779,0.535 -6.094,0.612 -8.603,-1.353 -2.528,-1.922 -3.796,-5.251 -5.094,-8.56 -1.268,-3.38 -3.068,-6.785 -5.495,-9.795 -4.848,-6.036 -11.418,-10.176 -17.999,-11.641 -3.291,-0.714 -6.612,-0.649 -9.503,0.249 -2.884,0.893 -5.308,2.523 -6.959,4.498 -1.679,1.962 -2.497,4.279 -2.633,6.302 -0.168,2.036 0.23,3.789 0.786,5.098 0.55,1.32 1.263,2.197 1.791,2.717 0.528,0.525 0.863,0.733 0.877,0.715 0.123,-0.093 -1.301,-0.993 -2.29,-3.582 -0.476,-1.278 -0.796,-2.964 -0.582,-4.891 0.187,-1.922 0.997,-4.057 2.614,-5.878 1.588,-1.829 3.904,-3.338 6.647,-4.149 2.739,-0.813 5.893,-0.848 9.047,-0.138 6.309,1.453 12.694,5.5 17.388,11.353 2.361,2.936 4.09,6.181 5.36,9.52 1.316,3.281 2.617,6.798 5.466,8.952 1.386,1.073 3.08,1.615 4.695,1.763 1.627,0.159 3.19,-0.043 4.655,-0.328 2.935,-0.611 5.477,-1.642 7.89,-2.142 2.387,-0.53 4.676,-0.588 6.476,0.05 1.81,0.649 3.095,1.841 3.837,2.958 0.763,1.132 0.932,2.222 0.923,2.932 -10e-4,0.719 -0.148,1.091 -0.084,1.106 z"
   id="path1320" />
					</g>
				</g>
			</g>
			<g
   id="g1330">
				<path
   style="fill:#455a64"
   d="m 309.32,170.776 c 0.028,0.014 -0.135,0.426 -0.503,1.139 -0.366,0.713 -0.965,1.712 -1.828,2.861 -1.704,2.296 -4.648,5.146 -8.648,7.031 -4.001,1.887 -8.073,2.345 -10.929,2.2 -1.436,-0.065 -2.588,-0.239 -3.371,-0.41 -0.784,-0.169 -1.206,-0.306 -1.198,-0.336 0.018,-0.101 1.743,0.342 4.579,0.378 2.816,0.049 6.788,-0.459 10.697,-2.303 3.908,-1.843 6.827,-4.583 8.58,-6.787 1.775,-2.211 2.532,-3.824 2.621,-3.773 z"
   id="path1328" />
			</g>
		</g>
		<g
   id="g1350">
			<g
   id="g1340">
				<path
   style="fill:#ffbe9d"
   d="m 234.463,180.491 10.63,15.448 2.046,8.929 c 0,0 0.363,-2.835 0.93,-5.527 0.567,-2.693 0,-10.771 0,-10.771 l -7.795,-11.622 c 0,0 -4.535,-6.378 -0.709,-10.204 l 7.574,7.512 c 0,0 -6.44,-8.953 -2.046,-12.271 l 6.242,5.284 c 0,0 -1.77,-2.118 0.64,-3.819 l 16.078,15.483 1.984,25.936 -0.85,27.353 15.981,21.025 -23.136,22.775 c 0,0 -21.702,-35.375 -22.978,-40.761 -1.276,-5.386 -0.055,-35.07 -0.055,-35.07 0,0 -6.602,-9.54 -6.519,-13.748 0.082,-4.208 1.983,-5.952 1.983,-5.952 z"
   id="path1334" />
				<g
   id="g1338">
					<path
   style="fill:#eb996e"
   d="m 252.761,259.789 c -0.009,0.006 -0.072,-0.07 -0.185,-0.225 -0.118,-0.17 -0.28,-0.402 -0.491,-0.704 -0.426,-0.646 -1.044,-1.581 -1.848,-2.798 -1.594,-2.472 -3.92,-6.117 -6.697,-10.904 -1.368,-2.405 -2.908,-5.061 -4.217,-8.181 -0.712,-1.573 -0.858,-3.4 -0.982,-5.194 -0.11,-1.814 -0.171,-3.693 -0.195,-5.635 -0.101,-7.77 0.087,-16.557 0.425,-26.194 l 0.076,0.261 c -1.898,-2.817 -3.767,-5.819 -5.291,-9.183 -0.378,-0.842 -0.719,-1.714 -0.983,-2.634 -0.136,-0.457 -0.233,-0.938 -0.301,-1.43 l -0.053,-0.759 0.033,-0.725 c 0.067,-0.968 0.238,-1.944 0.562,-2.889 0.334,-0.952 0.75,-1.847 1.53,-2.671 l 0.378,-0.399 0.331,0.479 c 3.386,4.907 6.963,10.09 10.651,15.434 l 0.054,0.078 0.021,0.093 c 0.644,2.799 1.345,5.843 2.055,8.927 l -0.997,0.049 c 0.217,-1.295 0.437,-2.61 0.66,-3.941 0.11,-0.656 0.22,-1.317 0.331,-1.981 0.091,-0.632 0.136,-1.303 0.155,-1.977 0.077,-2.704 -0.053,-5.502 -0.229,-8.298 l 0.086,0.252 c -1.521,-2.266 -3.085,-4.597 -4.677,-6.969 -0.796,-1.186 -1.598,-2.382 -2.406,-3.585 -0.391,-0.6 -0.83,-1.195 -1.213,-1.858 -0.375,-0.654 -0.722,-1.324 -0.999,-2.032 -0.527,-1.282 -0.866,-2.678 -0.815,-4.117 0.039,-1.432 0.621,-2.91 1.668,-3.921 l 0.373,-0.36 0.361,0.359 c 2.551,2.532 5.076,5.038 7.571,7.514 l -0.783,0.669 c -1.331,-1.951 -2.443,-3.988 -3.162,-6.224 -0.346,-1.115 -0.58,-2.297 -0.485,-3.521 0.083,-1.218 0.693,-2.484 1.713,-3.233 l 0.34,-0.249 0.307,0.277 c 2.161,1.952 4.292,3.876 6.395,5.776 l -0.746,0.656 c -0.474,-0.759 -0.758,-1.572 -0.714,-2.496 0.032,-0.93 0.624,-1.783 1.316,-2.275 l 0.337,-0.24 0.296,0.281 c 5.587,5.32 10.949,10.426 16.055,15.288 l 0.13,0.123 0.013,0.177 c 0.692,9.337 1.335,18.006 1.923,25.941 l 0.002,0.023 -10e-4,0.02 c -0.368,10.531 -0.689,19.697 -0.957,27.35 l -0.059,-0.186 c 4.824,6.514 8.643,11.669 11.267,15.212 1.287,1.766 2.278,3.128 2.959,4.062 0.322,0.457 0.569,0.807 0.745,1.057 0.164,0.24 0.242,0.366 0.231,0.374 -0.011,0.008 -0.111,-0.102 -0.296,-0.326 -0.191,-0.238 -0.459,-0.573 -0.809,-1.009 -0.709,-0.914 -1.741,-2.244 -3.081,-3.97 -2.675,-3.504 -6.569,-8.604 -11.487,-15.047 l -0.062,-0.081 0.003,-0.105 c 0.208,-7.655 0.458,-16.823 0.744,-27.356 l 10e-4,0.043 c -0.626,-7.931 -1.309,-16.598 -2.046,-25.931 l 0.142,0.3 c -5.12,-4.846 -10.498,-9.937 -16.1,-15.24 l 0.632,0.041 c -0.523,0.393 -0.88,0.916 -0.905,1.539 -0.043,0.609 0.2,1.32 0.544,1.862 l 1.966,3.097 -2.713,-2.441 c -2.107,-1.895 -4.241,-3.816 -6.406,-5.764 l 0.646,0.028 c -0.78,0.589 -1.228,1.495 -1.308,2.512 -0.079,1.017 0.121,2.09 0.447,3.126 0.664,2.075 1.761,4.088 3.021,5.926 l -0.783,0.668 c -2.497,-2.475 -5.023,-4.979 -7.576,-7.509 l 0.734,-10e-4 c -0.865,0.844 -1.323,2.007 -1.363,3.231 -0.044,1.225 0.248,2.492 0.74,3.682 0.256,0.655 0.583,1.286 0.933,1.896 0.345,0.6 0.771,1.179 1.171,1.793 0.808,1.205 1.611,2.402 2.407,3.59 1.592,2.375 3.156,4.709 4.678,6.979 l 0.078,0.117 0.008,0.135 c 0.175,2.832 0.304,5.627 0.222,8.406 -0.022,0.695 -0.066,1.389 -0.17,2.099 -0.113,0.674 -0.226,1.344 -0.339,2.01 -0.222,1.312 -0.441,2.608 -0.657,3.884 l -0.429,2.537 -0.568,-2.488 c -0.704,-3.085 -1.399,-6.131 -2.037,-8.931 l 0.075,0.171 c -3.673,-5.353 -7.235,-10.546 -10.608,-15.463 l 0.708,0.08 c -0.549,0.575 -1.004,1.441 -1.284,2.277 -0.296,0.853 -0.459,1.751 -0.525,2.653 -0.188,1.762 0.522,3.473 1.208,5.118 1.465,3.273 3.316,6.282 5.168,9.06 l 0.081,0.122 -0.005,0.139 c -0.385,9.62 -0.628,18.404 -0.588,26.15 0.009,1.937 0.055,3.807 0.147,5.605 0.111,1.801 0.227,3.506 0.893,5.015 1.248,3.062 2.758,5.745 4.089,8.156 2.706,4.811 4.965,8.496 6.488,11.009 0.758,1.247 1.339,2.203 1.741,2.864 0.187,0.317 0.331,0.561 0.436,0.739 0.096,0.165 0.14,0.253 0.13,0.259 z"
   id="path1336" />
				</g>
			</g>
			<g
   id="g1344">
				<path
   style="fill:#eb996e"
   d="m 257.481,200.86 c -0.144,0.008 -0.366,-1.689 -0.608,-4.44 -0.243,-2.75 -0.506,-6.553 -0.733,-10.757 -0.021,-0.396 -0.042,-0.788 -0.061,-1.156 l 0.133,0.32 c -2.641,-2.932 -4.96,-5.584 -6.593,-7.526 -1.633,-1.942 -2.581,-3.174 -2.479,-3.266 0.102,-0.092 1.234,0.973 3.005,2.79 1.771,1.817 4.181,4.387 6.838,7.305 l 0.123,0.136 0.01,0.185 c 0.02,0.368 0.042,0.76 0.064,1.156 0.227,4.204 0.374,8.013 0.428,10.773 0.055,2.761 0.017,4.472 -0.127,4.48 z"
   id="path1342" />
			</g>
			<g
   id="g1348">
				<path
   style="fill:#eb996e"
   d="m 263.583,192.718 c -0.136,0.007 -0.341,-1.532 -0.566,-4.059 -0.225,-2.527 -0.469,-6.042 -0.686,-9.985 l 0.155,0.344 c -0.285,-0.278 -0.589,-0.575 -0.896,-0.874 -3.029,-2.964 -5.73,-5.688 -7.648,-7.697 -1.919,-2.009 -3.055,-3.303 -2.954,-3.406 0.101,-0.103 1.419,1.005 3.469,2.88 2.05,1.874 4.833,4.515 7.862,7.479 0.306,0.3 0.609,0.597 0.893,0.876 l 0.145,0.143 0.01,0.201 c 0.195,3.944 0.316,7.465 0.356,10.002 0.04,2.537 -0.003,4.089 -0.14,4.096 z"
   id="path1346" />
			</g>
		</g>
		<g
   id="g1370">
			<path
   style="fill:#ffbe9d"
   d="m 214.144,217.555 c 0,0 -1.699,-11.576 -3.298,-15.693 -1.599,-4.117 -6.021,-9.326 -6.021,-9.326 0,0 2.411,-2.692 6.289,-0.416 5.043,2.96 4.775,9.694 4.775,9.694 z"
   id="path1352" />
			<g
   id="g1368">
				<path
   style="fill:#ffbe9d"
   d="m 215.411,202.915 c 0,0 -2.741,-19.185 -2.558,-20.464 0.183,-1.279 7.309,-18.089 7.309,-18.089 0,0 4.202,-0.365 3.654,3.654 -0.548,4.02 -2.01,8.405 -2.01,8.405 l 11.328,-13.156 c 0,0 4.202,0.914 2.558,5.116 0,0 3.837,-0.548 2.741,5.847 l -5.067,9.708 0.577,10.092 8.327,-10.938 c 0,0 4.02,2.467 2.01,6.486 -2.01,4.02 -6.212,13.338 -6.212,13.338 l 1.221,14.435 c 0,0 2.134,8.04 0,12.242 -2.134,4.202 -4.144,8.04 -4.144,8.04 l -3.813,35.055 -24.79,-15.559 7.225,-35.209 z"
   id="path1354" />
				<g
   id="g1358">
					<path
   style="fill:#eb996e"
   d="m 231.331,272.685 c -0.017,-0.002 -0.011,-0.209 0.016,-0.614 0.034,-0.421 0.083,-1.018 0.147,-1.797 0.152,-1.597 0.374,-3.926 0.661,-6.932 0.62,-6.049 1.519,-14.815 2.641,-25.749 l 0.007,-0.063 0.031,-0.062 c 0.725,-1.421 1.475,-2.889 2.247,-4.402 0.386,-0.756 0.778,-1.524 1.176,-2.302 0.398,-0.785 0.833,-1.558 1.081,-2.355 0.508,-1.643 0.558,-3.481 0.441,-5.328 -0.129,-1.848 -0.432,-3.754 -0.899,-5.623 l -0.01,-0.039 -0.003,-0.034 c -0.398,-4.576 -0.818,-9.406 -1.255,-14.432 l -0.01,-0.121 0.049,-0.107 c 1.466,-3.164 2.985,-6.441 4.546,-9.81 0.391,-0.842 0.784,-1.69 1.18,-2.544 0.393,-0.882 0.829,-1.654 0.933,-2.496 0.276,-1.691 -0.835,-3.396 -2.298,-4.366 l 0.653,-0.122 c -2.631,3.463 -5.445,7.168 -8.316,10.947 l -0.834,1.098 -0.08,-1.378 c -0.184,-3.186 -0.383,-6.618 -0.584,-10.092 l -0.008,-0.142 0.066,-0.127 c 1.607,-3.081 3.326,-6.377 5.063,-9.709 l -0.051,0.153 c 0.148,-0.995 0.26,-2.049 0.101,-3.045 -0.14,-0.995 -0.65,-1.885 -1.534,-2.119 -0.232,-0.071 -0.531,-0.097 -0.721,-0.079 l -0.866,0.08 0.308,-0.785 c 0.375,-0.957 0.49,-1.994 0.062,-2.799 -0.398,-0.809 -1.344,-1.379 -2.246,-1.619 l 0.504,-0.169 c -3.853,4.47 -7.637,8.861 -11.335,13.15 l -1.641,1.904 0.768,-2.4 c 0.756,-2.363 1.391,-4.769 1.813,-7.156 0.107,-0.595 0.201,-1.211 0.225,-1.741 -0.008,-0.538 -0.11,-1.052 -0.382,-1.448 -0.526,-0.803 -1.734,-1.107 -2.771,-1.057 l 0.415,-0.302 c -1.417,3.378 -2.806,6.692 -4.166,9.934 -0.662,1.627 -1.316,3.236 -1.963,4.826 -0.314,0.796 -0.628,1.592 -0.909,2.377 -0.063,0.189 -0.149,0.405 -0.193,0.572 l -0.072,0.249 0.002,0.253 c 0.013,0.368 0.045,0.804 0.086,1.211 0.706,6.645 1.617,12.965 2.421,18.878 l 0.007,0.05 -0.004,0.046 c -0.622,6.911 -1.194,13.26 -1.711,18.997 l -0.002,0.022 -0.004,0.019 c -2.319,10.963 -4.178,19.75 -5.461,25.814 -0.658,3.008 -1.168,5.337 -1.518,6.934 -0.181,0.776 -0.32,1.37 -0.417,1.79 -0.099,0.401 -0.158,0.605 -0.175,0.601 -0.017,-0.003 0.009,-0.214 0.076,-0.622 0.075,-0.424 0.182,-1.025 0.321,-1.809 0.307,-1.606 0.756,-3.947 1.335,-6.971 1.209,-6.079 2.961,-14.888 5.147,-25.878 l -0.006,0.04 c 0.477,-5.74 1.004,-12.093 1.578,-19.008 l 0.003,0.095 c -0.839,-5.921 -1.778,-12.212 -2.516,-18.909 -0.044,-0.427 -0.079,-0.831 -0.095,-1.305 l 0.006,-0.38 0.094,-0.364 c 0.066,-0.242 0.14,-0.42 0.21,-0.634 0.288,-0.815 0.6,-1.61 0.913,-2.414 0.643,-1.596 1.294,-3.212 1.952,-4.845 1.352,-3.249 2.734,-6.569 4.143,-9.955 l 0.12,-0.287 0.296,-0.014 c 0.694,-0.034 1.327,0.035 1.983,0.252 0.641,0.213 1.288,0.615 1.703,1.23 0.421,0.613 0.553,1.345 0.561,2.022 -0.03,0.693 -0.129,1.29 -0.236,1.906 -0.43,2.459 -1.065,4.878 -1.838,7.307 l -0.873,-0.496 c 3.693,-4.293 7.473,-8.687 11.322,-13.161 l 0.21,-0.244 0.295,0.075 c 0.631,0.16 1.157,0.406 1.68,0.754 0.51,0.347 0.972,0.82 1.269,1.402 0.623,1.188 0.412,2.572 -0.017,3.658 l -0.559,-0.705 c 0.433,-0.041 0.778,0.006 1.158,0.11 0.655,0.186 1.253,0.627 1.617,1.185 0.358,0.554 0.581,1.17 0.654,1.763 0.187,1.195 0.054,2.326 -0.103,3.392 l -0.011,0.075 -0.041,0.078 c -1.74,3.331 -3.461,6.626 -5.07,9.706 l 0.058,-0.268 c 0.196,3.475 0.39,6.907 0.57,10.093 l -0.914,-0.279 c 2.879,-3.773 5.701,-7.472 8.339,-10.929 l 0.282,-0.37 0.371,0.248 c 0.904,0.605 1.607,1.353 2.143,2.272 0.528,0.91 0.752,2.024 0.603,3.069 -0.139,1.061 -0.668,1.968 -1.033,2.794 -0.397,0.85 -0.792,1.694 -1.185,2.533 -1.57,3.354 -3.097,6.617 -4.572,9.768 l 0.039,-0.227 c 0.413,5.027 0.81,9.86 1.186,14.437 l -0.013,-0.073 c 0.476,1.953 0.77,3.875 0.893,5.789 0.106,1.907 0.054,3.817 -0.512,5.616 -0.297,0.917 -0.75,1.694 -1.145,2.463 -0.404,0.776 -0.802,1.541 -1.194,2.296 -0.785,1.508 -1.547,2.972 -2.285,4.388 l 0.038,-0.124 c -1.256,10.919 -2.262,19.673 -2.957,25.714 -0.366,2.998 -0.65,5.32 -0.845,6.912 -0.105,0.774 -0.186,1.368 -0.243,1.786 -0.06,0.401 -0.099,0.605 -0.116,0.603 z"
   id="path1356" />
				</g>
				<g
   id="g1362">
					<path
   style="fill:#eb996e"
   d="m 220.535,196.942 c -0.285,0.038 -1.166,-4.743 -1.966,-10.679 -0.234,-1.731 -0.435,-3.369 -0.592,-4.799 l -0.021,-0.188 0.096,-0.136 c 2.073,-2.914 3.584,-4.834 3.753,-4.72 0.169,0.114 -1.05,2.232 -2.981,5.241 l 0.076,-0.323 c 0.227,1.42 0.467,3.053 0.701,4.785 0.801,5.936 1.219,10.781 0.934,10.819 z"
   id="path1360" />
				</g>
				<g
   id="g1366">
					<path
   style="fill:#eb996e"
   d="m 226.9,192.536 c -0.235,0.026 -0.885,-4.047 -1.57,-9.676 l -0.022,-0.18 0.106,-0.157 c 0.675,-0.999 1.4,-2.072 2.151,-3.183 4.251,-6.216 7.889,-11.121 8.126,-10.959 0.237,0.162 -3.015,5.331 -7.267,11.547 -0.764,1.103 -1.5,2.167 -2.187,3.159 l 0.084,-0.337 c 0.561,5.644 0.814,9.76 0.579,9.786 z"
   id="path1364" />
				</g>
			</g>
		</g>
	</g>
</g>
<g
   id="Plant"
   transform="translate(-24.482,-58.877231)">
	<g
   id="g1497">
		<g
   id="g1443">
			<g
   id="g1415">
				<g
   id="g1377">
					<path
   style="fill:#e8505b"
   d="m 98.757,307.829 c -11.711,-17.912 -11.26,-44.095 2.727,-60.293 4.341,-5.028 10.409,-9.398 17.027,-8.831 6.777,0.58 12.236,6.392 14.298,12.874 2.062,6.481 1.347,13.503 0.136,20.196 -1.696,9.371 -4.536,18.959 -11.036,25.918 -6.501,6.959 -14.795,14.702 -23.152,10.136"
   id="path1375" />
				</g>
				<g
   id="g1381">
					<path
   style="fill:#e8505b"
   d="m 103.976,393.454 c -4.41,-10.29 -1.212,-23.32 7.462,-30.398 2.692,-2.197 6.214,-3.899 9.573,-3.007 3.439,0.913 5.725,4.402 6.2,7.928 0.475,3.526 -0.53,7.079 -1.76,10.417 -1.723,4.674 -4.055,9.357 -8.035,12.354 -3.979,2.997 -9.548,5.816 -13.44,2.706"
   id="path1379" />
				</g>
				<g
   id="g1385">
					<path
   style="fill:#e8505b"
   d="m 75.736,387.305 c 3.22,-15.88 -5.149,-33.403 -19.525,-40.879 -4.462,-2.321 -9.954,-3.695 -14.451,-1.443 -4.604,2.306 -6.817,7.924 -6.451,13.06 0.365,5.137 2.835,9.876 5.562,14.244 3.818,6.116 8.501,12.065 15.023,15.14 6.521,3.076 15.242,5.431 19.842,-0.122"
   id="path1383" />
				</g>
				<g
   id="g1389">
					<path
   style="fill:#e8505b"
   d="m 77.765,344.365 c 5.607,-18.094 -3.9,-40.032 -19.744,-50.413 -4.918,-3.222 -11.145,-5.465 -16.639,-3.372 -5.626,2.143 -8.858,8.418 -9.035,14.435 -0.177,6.017 2.14,11.819 4.799,17.22 3.724,7.562 8.474,15.031 15.699,19.371 7.225,4.341 18.919,8.678 24.92,2.759"
   id="path1387" />
				</g>
				<g
   id="g1395">
					<g
   id="g1393">
						<path
   style="fill:#263238"
   d="m 89.026,432.803 c -0.026,0.002 -0.089,-0.3 -0.183,-0.876 -0.098,-0.659 -0.223,-1.495 -0.376,-2.524 -0.078,-0.558 -0.162,-1.166 -0.254,-1.824 -0.129,-0.668 -0.267,-1.385 -0.415,-2.152 -0.294,-1.544 -0.599,-3.307 -1.105,-5.221 -0.233,-0.963 -0.476,-1.97 -0.729,-3.016 -0.304,-1.038 -0.62,-2.114 -0.947,-3.228 -0.604,-2.246 -1.495,-4.568 -2.331,-7.043 -1.854,-4.886 -4.158,-10.158 -6.985,-15.488 -2.88,-5.304 -6,-10.138 -9.048,-14.385 -1.601,-2.065 -3.044,-4.091 -4.582,-5.836 -0.748,-0.888 -1.471,-1.746 -2.167,-2.573 -0.732,-0.789 -1.436,-1.549 -2.11,-2.275 -1.315,-1.479 -2.616,-2.708 -3.74,-3.806 -0.557,-0.547 -1.079,-1.059 -1.564,-1.535 -0.498,-0.44 -0.958,-0.847 -1.38,-1.22 -0.773,-0.697 -1.4,-1.262 -1.895,-1.708 -0.428,-0.397 -0.645,-0.616 -0.629,-0.637 0.016,-0.021 0.266,0.158 0.727,0.517 0.52,0.418 1.18,0.949 1.993,1.602 0.437,0.359 0.913,0.75 1.429,1.174 0.5,0.464 1.039,0.962 1.613,1.494 1.157,1.074 2.491,2.281 3.839,3.744 0.689,0.72 1.409,1.472 2.158,2.254 0.711,0.822 1.45,1.676 2.213,2.559 1.568,1.738 3.039,3.761 4.665,5.827 3.098,4.249 6.257,9.104 9.155,14.441 2.845,5.363 5.144,10.678 6.972,15.608 0.823,2.497 1.696,4.84 2.277,7.108 0.314,1.124 0.617,2.211 0.909,3.258 0.238,1.056 0.466,2.072 0.685,3.045 0.474,1.931 0.743,3.711 0.998,5.268 0.126,0.773 0.244,1.497 0.354,2.171 0.068,0.664 0.131,1.278 0.188,1.84 0.095,1.039 0.173,1.882 0.234,2.547 0.046,0.581 0.057,0.888 0.031,0.89 z"
   id="path1391" />
					</g>
				</g>
				<g
   id="g1401">
					<g
   id="g1399">
						<path
   style="fill:#263238"
   d="m 88.612,436.054 c -0.013,-0.002 -0.013,-0.124 0,-0.361 0.021,-0.282 0.046,-0.626 0.077,-1.049 0.09,-0.982 0.214,-2.324 0.371,-4.02 0.087,-0.878 0.182,-1.846 0.286,-2.901 0.08,-1.063 0.109,-2.221 0.174,-3.464 0.093,-2.486 0.33,-5.313 0.243,-8.445 -0.008,-1.567 -0.016,-3.206 -0.024,-4.914 -0.017,-1.708 -0.179,-3.481 -0.265,-5.318 -0.123,-3.681 -0.624,-7.584 -1.066,-11.697 -1.124,-8.196 -2.879,-17.14 -5.551,-26.311 -2.76,-9.148 -6.165,-17.605 -9.691,-25.09 -1.872,-3.69 -3.579,-7.236 -5.483,-10.389 -0.929,-1.588 -1.76,-3.162 -2.677,-4.604 -0.924,-1.436 -1.811,-2.815 -2.659,-4.132 -1.634,-2.674 -3.374,-4.914 -4.807,-6.947 -0.732,-1.006 -1.387,-1.962 -2.034,-2.809 -0.662,-0.828 -1.27,-1.587 -1.821,-2.276 -1.056,-1.336 -1.891,-2.394 -2.502,-3.168 -0.256,-0.337 -0.465,-0.612 -0.636,-0.837 -0.14,-0.191 -0.207,-0.294 -0.197,-0.302 0.01,-0.009 0.097,0.076 0.257,0.251 0.187,0.212 0.415,0.471 0.695,0.788 0.639,0.753 1.513,1.781 2.617,3.081 0.568,0.678 1.195,1.425 1.878,2.239 0.665,0.835 1.339,1.781 2.089,2.777 1.47,2.015 3.246,4.24 4.915,6.903 0.864,1.314 1.768,2.689 2.71,4.12 0.933,1.439 1.781,3.011 2.725,4.599 1.935,3.152 3.672,6.701 5.568,10.399 3.577,7.5 7.018,15.989 9.79,25.18 2.684,9.213 4.427,18.204 5.516,26.44 0.426,4.133 0.904,8.055 1.001,11.752 0.073,1.846 0.22,3.626 0.222,5.341 -0.009,1.713 -0.017,3.359 -0.026,4.931 0.053,3.143 -0.223,5.977 -0.357,8.467 -0.086,1.244 -0.135,2.404 -0.238,3.468 -0.129,1.055 -0.247,2.023 -0.354,2.901 -0.217,1.691 -0.389,3.03 -0.514,4.009 -0.062,0.419 -0.112,0.76 -0.153,1.04 -0.04,0.232 -0.066,0.35 -0.079,0.348 z"
   id="path1397" />
					</g>
				</g>
				<g
   id="g1407">
					<g
   id="g1405">
						<path
   style="fill:#263238"
   d="m 119.1,260.336 c 0.011,0.007 -0.04,0.12 -0.15,0.334 -0.135,0.252 -0.301,0.561 -0.505,0.94 -0.488,0.872 -1.157,2.065 -2.002,3.573 -0.43,0.778 -0.945,1.621 -1.443,2.582 -0.483,0.972 -1.006,2.024 -1.567,3.151 -0.565,1.132 -1.168,2.339 -1.806,3.617 -0.61,1.294 -1.19,2.693 -1.837,4.144 -0.627,1.459 -1.332,2.968 -1.98,4.576 -0.624,1.619 -1.273,3.302 -1.944,5.044 -0.335,0.872 -0.676,1.758 -1.023,2.659 -0.309,0.915 -0.624,1.843 -0.942,2.786 -0.636,1.886 -1.29,3.827 -1.96,5.816 -2.482,8.027 -4.834,16.966 -6.82,26.458 -1.923,9.509 -3.273,18.656 -4.269,27.002 -0.854,8.36 -1.485,15.909 -1.658,22.265 -0.161,3.176 -0.194,6.051 -0.204,8.577 -0.041,2.526 -0.05,4.701 0.009,6.479 0.024,1.729 0.044,3.097 0.058,4.096 -0.002,0.431 -0.003,0.781 -0.004,1.067 -0.005,0.241 -0.015,0.364 -0.028,0.365 -0.013,10e-4 -0.03,-0.122 -0.05,-0.361 -0.019,-0.285 -0.043,-0.634 -0.072,-1.064 -0.049,-0.999 -0.116,-2.366 -0.201,-4.095 -0.105,-1.779 -0.14,-3.957 -0.14,-6.487 -0.03,-2.53 -0.036,-5.411 0.091,-8.594 0.103,-6.371 0.68,-13.941 1.497,-22.325 0.96,-8.37 2.292,-17.544 4.22,-27.079 1.992,-9.518 4.371,-18.479 6.899,-26.518 0.683,-1.992 1.349,-3.935 1.997,-5.824 0.326,-0.943 0.647,-1.873 0.963,-2.788 0.354,-0.901 0.702,-1.788 1.045,-2.66 0.688,-1.742 1.352,-3.425 1.991,-5.044 0.665,-1.607 1.387,-3.114 2.032,-4.571 0.664,-1.448 1.263,-2.843 1.892,-4.133 0.659,-1.272 1.281,-2.474 1.865,-3.601 0.582,-1.12 1.125,-2.164 1.627,-3.13 0.518,-0.952 1.054,-1.787 1.505,-2.555 0.899,-1.48 1.61,-2.651 2.13,-3.506 0.23,-0.364 0.417,-0.66 0.57,-0.901 0.13,-0.202 0.203,-0.302 0.214,-0.295 z"
   id="path1403" />
					</g>
				</g>
				<g
   id="g1413">
					<g
   id="g1411">
						<path
   style="fill:#263238"
   d="m 115.12,370.248 c 0.044,0.03 -0.402,0.808 -1.245,2.186 -0.856,1.369 -2.032,3.391 -3.41,5.924 -1.39,2.528 -2.903,5.614 -4.436,9.103 -1.496,3.505 -2.992,7.422 -4.305,11.621 -1.285,4.208 -2.26,8.287 -3.001,12.026 -0.702,3.746 -1.194,7.148 -1.472,10.02 -0.291,2.869 -0.461,5.202 -0.526,6.815 -0.082,1.613 -0.152,2.507 -0.205,2.507 -0.053,0 -0.084,-0.895 -0.094,-2.515 -0.026,-1.62 0.061,-3.967 0.284,-6.857 0.21,-2.892 0.649,-6.323 1.318,-10.101 0.708,-3.771 1.669,-7.885 2.963,-12.122 1.322,-4.228 2.849,-8.166 4.391,-11.678 1.579,-3.496 3.152,-6.576 4.61,-9.083 1.446,-2.512 2.697,-4.499 3.633,-5.822 0.922,-1.333 1.452,-2.054 1.495,-2.024 z"
   id="path1409" />
					</g>
				</g>
			</g>
			<g
   id="g1419">
				<polygon
   style="fill:#455a64"
   points="66.025,424.74 117.468,424.74 111.243,477.281 72.433,477.281 "
   id="polygon1417" />
			</g>
			<g
   id="g1423">
				<polygon
   style="fill:#263238"
   points="67.903,471.61 72.272,477.281 111.243,477.281 115.737,471.792 "
   id="polygon1421" />
			</g>
			<g
   id="g1429">
				<g
   id="g1427">
					<path
   style="fill:#fafafa"
   d="m 115.463,440.193 c 0,0.212 -10.675,0.383 -23.841,0.383 -13.17,0 -23.844,-0.172 -23.844,-0.383 0,-0.212 10.673,-0.383 23.844,-0.383 13.166,0 23.841,0.172 23.841,0.383 z"
   id="path1425" />
				</g>
			</g>
			<g
   id="g1435">
				<g
   id="g1433">
					<path
   style="fill:#fafafa"
   d="m 115.463,443.691 c 0,0.212 -10.675,0.383 -23.841,0.383 -13.17,0 -23.844,-0.172 -23.844,-0.383 0,-0.212 10.673,-0.383 23.844,-0.383 13.166,0 23.841,0.171 23.841,0.383 z"
   id="path1431" />
				</g>
			</g>
			<g
   id="g1441">
				<g
   id="g1439">
					<path
   style="fill:#fafafa"
   d="m 114.821,447.078 c 0,0.212 -10.302,0.383 -23.006,0.383 -12.709,0 -23.009,-0.172 -23.009,-0.383 0,-0.212 10.299,-0.384 23.009,-0.384 12.705,0 23.006,0.172 23.006,0.384 z"
   id="path1437" />
				</g>
			</g>
		</g>
		<g
   id="g1447">
			<path
   style="fill:#263238"
   d="m 73.885,311.503 c 0.018,0.002 0.015,0.175 -0.006,0.501 -0.032,0.386 -0.071,0.857 -0.118,1.427 -0.133,1.316 -0.312,3.085 -0.529,5.235 -0.47,4.418 -1.154,10.516 -1.942,17.248 -0.03,0.258 -0.06,0.514 -0.088,0.752 l -0.027,0.227 -0.228,0.004 c -6.609,0.102 -12.556,0.166 -16.852,0.187 -2.087,-10e-4 -3.803,-10e-4 -5.081,-0.002 -0.55,-0.01 -1.005,-0.019 -1.379,-0.026 -0.315,-0.012 -0.481,-0.026 -0.481,-0.044 0,-0.018 0.165,-0.037 0.479,-0.059 0.374,-0.019 0.828,-0.042 1.377,-0.07 1.277,-0.041 2.992,-0.095 5.078,-0.162 4.294,-0.115 10.241,-0.238 16.85,-0.344 l -0.254,0.23 c 0.028,-0.238 0.058,-0.495 0.088,-0.753 0.788,-6.732 1.53,-12.824 2.093,-17.23 0.285,-2.142 0.519,-3.905 0.694,-5.216 0.086,-0.565 0.157,-1.032 0.215,-1.415 0.056,-0.323 0.093,-0.492 0.111,-0.49 z"
   id="path1445" />
		</g>
		<g
   id="g1451">
			<path
   style="fill:#263238"
   d="m 62.188,295.792 c 0.018,0 0.031,0.178 0.04,0.515 0.003,0.397 0.008,0.884 0.013,1.475 -0.012,1.359 -0.029,3.192 -0.05,5.422 -0.065,4.578 -0.19,10.9 -0.361,17.883 -0.007,0.283 -0.014,0.564 -0.02,0.825 l -0.007,0.274 -0.274,-0.021 c -6.77,-0.527 -12.887,-0.532 -17.296,-0.391 -2.205,0.068 -3.986,0.158 -5.215,0.224 -0.566,0.027 -1.034,0.049 -1.416,0.067 -0.324,0.011 -0.495,0.008 -0.496,-0.01 -0.001,-0.018 0.166,-0.049 0.488,-0.093 0.321,-0.042 0.796,-0.104 1.41,-0.163 1.226,-0.127 3.007,-0.272 5.215,-0.388 4.416,-0.236 10.556,-0.29 17.351,0.234 l -0.28,0.253 c 0.006,-0.261 0.013,-0.542 0.02,-0.825 0.171,-6.982 0.354,-13.303 0.513,-17.879 0.088,-2.228 0.161,-4.06 0.215,-5.418 0.034,-0.59 0.062,-1.076 0.085,-1.472 0.025,-0.337 0.047,-0.513 0.065,-0.512 z"
   id="path1449" />
		</g>
		<g
   id="g1455">
			<path
   style="fill:#263238"
   d="m 48.498,290.438 c 0.036,-0.005 0.143,0.533 0.32,1.509 0.196,1.064 0.453,2.456 0.763,4.135 0.667,3.491 1.708,8.305 3.179,13.573 l 0.155,0.554 -0.522,-0.252 c -0.195,-0.094 -0.406,-0.195 -0.617,-0.297 -5.053,-2.444 -10.07,-3.574 -13.711,-4.011 -1.825,-0.225 -3.314,-0.308 -4.343,-0.345 -1.029,-0.035 -1.601,-0.048 -1.602,-0.088 0,-0.018 0.142,-0.038 0.413,-0.058 0.272,-0.017 0.673,-0.052 1.191,-0.057 1.035,-0.025 2.536,0.002 4.382,0.182 3.681,0.346 8.779,1.432 13.896,3.907 0.214,0.103 0.427,0.206 0.625,0.301 l -0.367,0.302 c -1.472,-5.288 -2.458,-10.133 -3.034,-13.649 -0.29,-1.758 -0.488,-3.183 -0.603,-4.17 -0.118,-0.984 -0.159,-1.531 -0.125,-1.536 z"
   id="path1453" />
		</g>
		<g
   id="g1459">
			<path
   style="fill:#263238"
   d="m 121.141,386.225 c -0.01,0.079 -1.492,-0.073 -3.891,-0.168 -2.397,-0.091 -5.718,-0.087 -9.356,0.305 -0.739,0.077 -1.461,0.17 -2.152,0.264 l -0.246,0.034 -0.043,-0.242 c -0.555,-3.11 -1.022,-5.852 -1.333,-7.82 -0.312,-1.968 -0.468,-3.161 -0.405,-3.172 0.064,-0.012 0.337,1.16 0.738,3.112 0.401,1.951 0.93,4.682 1.506,7.789 l -0.289,-0.208 c 0.696,-0.1 1.425,-0.196 2.171,-0.273 3.671,-0.396 7.025,-0.34 9.431,-0.155 1.204,0.093 2.174,0.216 2.842,0.315 0.666,0.105 1.032,0.184 1.027,0.219 z"
   id="path1457" />
		</g>
		<g
   id="g1463">
			<path
   style="fill:#263238"
   d="m 126.001,376.57 c -0.02,0.082 -1.44,-0.252 -3.769,-0.54 -2.325,-0.285 -5.574,-0.467 -9.128,-0.091 -0.554,0.056 -1.097,0.129 -1.612,0.2 l -0.268,0.037 -0.027,-0.266 c -0.324,-3.198 -0.587,-6.032 -0.752,-8.068 -0.165,-2.036 -0.233,-3.275 -0.167,-3.282 0.066,-0.007 0.254,1.219 0.511,3.246 0.257,2.027 0.582,4.854 0.922,8.051 l -0.295,-0.229 c 0.522,-0.075 1.073,-0.149 1.634,-0.207 3.605,-0.381 6.901,-0.138 9.234,0.245 1.169,0.19 2.102,0.406 2.742,0.575 0.637,0.176 0.983,0.296 0.975,0.329 z"
   id="path1461" />
		</g>
		<g
   id="g1467">
			<path
   style="fill:#263238"
   d="m 129.486,285.107 c 0.007,0.017 -0.169,0.108 -0.51,0.266 -0.396,0.176 -0.893,0.397 -1.503,0.668 -1.38,0.588 -3.264,1.39 -5.563,2.369 -4.776,1.979 -11.262,4.665 -18.429,7.633 -0.341,0.139 -0.68,0.278 -0.995,0.408 l -0.234,0.096 -0.102,-0.23 c -3.042,-6.871 -5.777,-13.046 -7.786,-17.584 -0.948,-2.199 -1.723,-3.998 -2.291,-5.318 -0.242,-0.588 -0.44,-1.068 -0.598,-1.453 -0.131,-0.334 -0.193,-0.513 -0.177,-0.52 0.016,-0.007 0.109,0.158 0.27,0.478 0.181,0.374 0.408,0.841 0.685,1.414 0.605,1.303 1.431,3.079 2.44,5.251 2.047,4.521 4.832,10.673 7.931,17.519 l -0.336,-0.134 c 0.315,-0.129 0.654,-0.268 0.995,-0.408 7.189,-2.914 13.695,-5.55 18.487,-7.492 2.325,-0.916 4.231,-1.666 5.626,-2.216 0.624,-0.234 1.134,-0.426 1.54,-0.578 0.354,-0.128 0.543,-0.186 0.55,-0.169 z"
   id="path1465" />
		</g>
		<g
   id="g1471">
			<path
   style="fill:#263238"
   d="m 133.992,262.885 c 0.009,0.015 -0.147,0.129 -0.452,0.333 -0.356,0.23 -0.802,0.518 -1.35,0.872 -1.244,0.776 -2.944,1.835 -5.022,3.13 -4.327,2.638 -10.215,6.229 -16.756,10.217 l -0.268,0.163 -0.111,-0.297 c -0.096,-0.255 -0.199,-0.531 -0.303,-0.808 -2.731,-7.37 -5.203,-14.038 -7.022,-18.946 -0.857,-2.383 -1.559,-4.335 -2.072,-5.762 -0.219,-0.64 -0.397,-1.161 -0.539,-1.576 -0.118,-0.362 -0.171,-0.555 -0.154,-0.562 0.017,-0.006 0.104,0.175 0.253,0.526 0.166,0.405 0.374,0.916 0.63,1.542 0.552,1.413 1.306,3.346 2.227,5.705 1.856,4.895 4.378,11.544 7.165,18.894 0.104,0.277 0.207,0.553 0.303,0.808 l -0.379,-0.133 c 6.573,-3.936 12.489,-7.479 16.838,-10.082 2.113,-1.237 3.842,-2.25 5.107,-2.99 0.568,-0.32 1.03,-0.581 1.399,-0.789 0.324,-0.175 0.497,-0.26 0.506,-0.245 z"
   id="path1469" />
		</g>
		<g
   id="g1475">
			<path
   style="fill:#263238"
   d="m 132.516,251.028 c 0.015,0.031 -0.381,0.253 -1.104,0.652 -0.723,0.4 -1.768,0.988 -3.037,1.775 -2.538,1.566 -5.952,3.993 -9.323,7.296 l -0.645,0.632 0.216,-0.88 c 0.226,-0.92 0.433,-1.89 0.593,-2.888 0.859,-5.348 0.188,-10.301 -0.727,-13.709 -0.458,-1.713 -0.964,-3.059 -1.318,-3.988 -0.377,-0.919 -0.584,-1.431 -0.55,-1.448 0.03,-0.015 0.299,0.467 0.736,1.368 0.413,0.91 0.978,2.248 1.486,3.968 1.017,3.419 1.76,8.451 0.887,13.889 -0.162,1.014 -0.375,2.001 -0.608,2.935 l -0.429,-0.248 c 3.42,-3.323 6.906,-5.722 9.507,-7.219 1.301,-0.753 2.377,-1.298 3.128,-1.648 0.752,-0.348 1.175,-0.514 1.188,-0.487 z"
   id="path1473" />
		</g>
		<g
   id="g1479">
			<path
   style="fill:#263238"
   d="m 73.816,366.373 c 0.035,0.009 -0.057,0.48 -0.236,1.329 -0.179,0.85 -0.437,2.081 -0.718,3.615 -0.567,3.065 -1.177,7.357 -1.382,12.184 l -0.01,0.234 -0.234,0.014 c -0.366,0.022 -0.758,0.046 -1.153,0.07 -5.101,0.308 -9.72,0.557 -13.065,0.712 -1.598,0.063 -2.929,0.115 -3.963,0.156 -0.936,0.025 -1.455,0.022 -1.457,-0.014 -0.002,-0.036 0.513,-0.101 1.445,-0.189 1.031,-0.084 2.359,-0.192 3.953,-0.322 3.339,-0.249 7.955,-0.556 13.056,-0.864 0.395,-0.024 0.787,-0.047 1.153,-0.069 l -0.244,0.248 c 0.215,-4.859 0.889,-9.171 1.551,-12.231 0.328,-1.531 0.64,-2.755 0.878,-3.592 0.238,-0.836 0.394,-1.29 0.426,-1.281 z"
   id="path1477" />
		</g>
		<g
   id="g1483">
			<path
   style="fill:#263238"
   d="m 63.707,351.88 c 0.034,0.005 0.002,0.48 -0.085,1.341 -0.109,0.954 -0.248,2.179 -0.416,3.656 -0.374,3.095 -0.927,7.392 -1.576,12.211 l -0.028,0.21 -0.213,0.014 c -0.527,0.034 -1.089,0.071 -1.656,0.108 -5.227,0.355 -9.941,0.894 -13.345,1.338 -1.629,0.219 -2.985,0.4 -4.032,0.541 -0.952,0.129 -1.482,0.187 -1.488,0.151 -0.006,-0.035 0.512,-0.16 1.455,-0.35 0.944,-0.188 2.313,-0.437 4.013,-0.705 3.398,-0.538 8.12,-1.137 13.362,-1.493 0.569,-0.036 1.132,-0.073 1.66,-0.106 l -0.242,0.224 c 0.661,-4.817 1.275,-9.106 1.741,-12.189 0.232,-1.468 0.425,-2.686 0.575,-3.634 0.146,-0.855 0.242,-1.322 0.275,-1.317 z"
   id="path1481" />
		</g>
		<g
   id="g1487">
			<path
   style="fill:#263238"
   d="m 51.808,345.639 c 0.075,0.018 -0.237,1.413 -0.605,3.709 -0.37,2.294 -0.756,5.503 -0.827,9.104 l -0.006,0.289 -0.289,-0.037 c -0.274,-0.035 -0.567,-0.072 -0.863,-0.11 -3.775,-0.466 -7.223,-0.577 -9.716,-0.576 -1.158,0.013 -2.144,0.024 -2.956,0.033 -0.699,0.013 -1.087,0.009 -1.09,-0.028 -0.003,-0.035 0.38,-0.099 1.077,-0.174 0.697,-0.073 1.708,-0.152 2.962,-0.199 2.504,-0.096 5.982,-0.042 9.786,0.427 0.298,0.038 0.593,0.076 0.869,0.112 l -0.294,0.252 c 0.081,-3.634 0.531,-6.865 0.995,-9.156 0.23,-1.147 0.455,-2.063 0.63,-2.689 0.176,-0.626 0.295,-0.965 0.327,-0.957 z"
   id="path1485" />
		</g>
		<g
   id="g1491">
			<path
   style="fill:#263238"
   d="m 119.582,360.13 c 0.13,0.07 -0.984,2.365 -2.296,5.22 -1.317,2.853 -2.337,5.191 -2.475,5.138 -0.131,-0.049 0.677,-2.485 2.002,-5.355 1.32,-2.873 2.646,-5.07 2.769,-5.003 z"
   id="path1489" />
		</g>
		<g
   id="g1495">
			<path
   style="fill:#263238"
   d="m 126.048,366.98 c 0.007,0.163 -2.704,0.195 -5.847,1.185 -3.152,0.961 -5.406,2.469 -5.492,2.331 -0.086,-0.091 2.093,-1.836 5.338,-2.828 3.236,-1.017 6.02,-0.812 6.001,-0.688 z"
   id="path1493" />
		</g>
	</g>
</g>
<g
   id="Clock"
   transform="translate(-24.482,-58.877231)">
	<g
   id="g1528">
		<g
   id="g1504">
			<g
   id="g1502">
				<path
   style="fill:#455a64"
   d="m 456.25,477.627 h -67.657 v -50.828 c 0,-18.683 15.146,-33.829 33.829,-33.829 v 0 c 18.683,0 33.829,15.146 33.829,33.829 v 50.828 z"
   id="path1500" />
			</g>
		</g>
		<g
   id="g1510">
			<g
   id="g1508">
				
					<circle
   transform="matrix(0.2288,-0.9735,0.9735,0.2288,-88.8641,740.9163)"
   style="fill:#f5f5f5"
   cx="423.17499"
   cy="426.54199"
   id="ellipse1506"
   r="20.115999" />
			</g>
		</g>
		<g
   id="g1518">
			<g
   id="g1516">
				<g
   id="g1514">
					<path
   style="fill:#263238"
   d="m 430.368,423.83 c 0.12,0.159 -2.8,2.582 -6.938,5.783 l -0.674,0.522 -0.004,-0.859 c -0.006,-1.158 -0.012,-2.385 -0.019,-3.656 0,-3.502 0.05,-6.672 0.13,-8.966 0.08,-2.294 0.191,-3.713 0.313,-3.713 0.122,0 0.232,1.419 0.312,3.713 0.08,2.294 0.13,5.464 0.13,8.966 -0.007,1.271 -0.013,2.498 -0.019,3.656 l -0.678,-0.337 c 4.203,-3.114 7.327,-5.268 7.447,-5.109 z"
   id="path1512" />
				</g>
			</g>
		</g>
		<g
   id="g1526">
			<g
   id="g1524">
				<g
   id="g1522">
					<path
   style="fill:#263238"
   d="m 441.171,466.644 c -0.019,-0.019 -0.038,-0.305 -0.059,-0.833 -0.019,-0.613 -0.042,-1.366 -0.07,-2.287 -0.039,-2.068 -0.092,-4.881 -0.157,-8.364 l 0.286,0.286 c -8.547,0.095 -21.512,0.156 -35.989,0.156 0.197,-0.197 -0.444,0.441 0.44,-0.441 v 0.003 0.006 0.012 0.023 0.047 0.093 0.186 0.372 0.743 1.476 c -0.001,0.979 -0.002,1.95 -0.003,2.909 -0.003,1.919 -0.007,3.794 -0.01,5.612 l -0.429,-0.429 c 10.261,0.022 19.19,0.114 25.612,0.198 3.134,0.05 5.68,0.091 7.569,0.121 0.823,0.022 1.502,0.04 2.06,0.056 0.475,0.019 0.731,0.037 0.75,0.055 0.018,0.018 -0.203,0.036 -0.645,0.054 -0.534,0.015 -1.183,0.033 -1.969,0.056 -1.864,0.03 -4.378,0.071 -7.47,0.121 -6.398,0.084 -15.465,0.176 -25.908,0.198 l -0.428,0.001 -10e-4,-0.43 c -0.003,-1.818 -0.007,-3.693 -0.01,-5.612 -0.001,-0.96 -0.002,-1.93 -0.003,-2.909 l -0.001,-1.476 v -0.743 -0.372 -0.186 -0.093 -0.047 -0.023 -0.012 -0.006 -0.003 c 0.883,-0.885 0.246,-0.245 0.444,-0.443 14.477,0 27.442,0.061 35.989,0.156 l 0.292,0.003 -0.005,0.283 c -0.065,3.554 -0.118,6.425 -0.157,8.535 -0.028,0.895 -0.052,1.627 -0.07,2.223 -0.02,0.497 -0.039,0.744 -0.058,0.725 z"
   id="path1520" />
				</g>
			</g>
		</g>
	</g>
</g>
<g
   id="Speech_Bubble"
   transform="translate(-24.482,-58.877231)">
	<g
   id="g1539">
		<g
   id="g1533">
			<path
   style="fill:#263238"
   d="m 176.282,174.388 c -2.29,-0.563 -13.322,-3.273 -34.663,-8.517 l 0.255,-0.04 c -7.623,4.861 -17.949,8.785 -29.921,8.971 -5.955,-0.022 -12.255,-0.738 -18.542,-2.707 -6.28,-1.957 -12.457,-5.202 -18.069,-9.579 -11.23,-8.686 -19.974,-22.608 -21.861,-38.632 -0.964,-7.959 -0.319,-16.328 2.158,-24.34 2.523,-7.991 6.874,-15.563 12.735,-21.937 2.971,-3.368 6.47,-6.164 10.039,-8.747 1.874,-1.157 3.722,-2.359 5.653,-3.376 l 2.948,-1.419 1.469,-0.706 1.527,-0.559 c 8.077,-3.132 16.672,-4.344 24.922,-3.795 8.26,0.531 16.17,2.842 23.089,6.482 6.931,3.633 12.872,8.565 17.537,14.167 4.677,5.602 8.076,11.866 10.239,18.188 2.161,6.331 3.146,12.699 3.202,18.715 0.072,12.087 -3.706,22.456 -8.304,30.026 l 0.004,-0.313 c 9.639,17.392 14.508,26.179 15.583,28.118 -1.111,-1.917 -6.15,-10.609 -16.123,-27.812 l -0.09,-0.156 0.094,-0.158 c 4.481,-7.531 8.134,-17.788 7.998,-29.701 -0.088,-5.931 -1.089,-12.195 -3.241,-18.414 -2.153,-6.211 -5.518,-12.356 -10.132,-17.847 -4.602,-5.49 -10.451,-10.318 -17.262,-13.867 -6.8,-3.557 -14.562,-5.808 -22.665,-6.317 -8.095,-0.526 -16.52,0.672 -24.434,3.748 l -1.497,0.548 -1.44,0.694 -2.889,1.393 c -1.893,0.998 -3.702,2.179 -5.54,3.312 -3.496,2.535 -6.928,5.274 -9.839,8.577 -5.746,6.249 -10.013,13.667 -12.492,21.498 -2.433,7.85 -3.075,16.057 -2.141,23.866 1.829,15.715 10.371,29.395 21.38,37.966 5.501,4.317 11.56,7.53 17.73,9.479 6.176,1.961 12.373,2.694 18.242,2.747 11.797,-0.123 22.007,-3.922 29.585,-8.666 l 0.121,-0.076 0.134,0.036 c 21.242,5.634 32.224,8.546 34.501,9.15 z"
   id="path1531" />
		</g>
		<path
   style="fill:#e8505b"
   d="m 106.268,91.121 1.833,28.955 c 0.15,2.368 2.041,4.252 4.409,4.393 v 0 c 2.498,0.149 4.674,-1.687 4.949,-4.174 l 3.215,-29.1 c 0.243,-2.204 -1.499,-4.122 -3.716,-4.091 l -7.063,0.099 c -2.107,0.028 -3.761,1.815 -3.627,3.918 z"
   id="path1535" />
		<path
   style="fill:#e8505b"
   d="m 120.185,140.755 c -1.23,3.704 -5.229,5.71 -8.933,4.48 -3.704,-1.23 -5.71,-5.229 -4.48,-8.933 1.23,-3.704 5.229,-5.71 8.934,-4.48 3.703,1.229 5.709,5.229 4.479,8.933 z"
   id="path1537" />
	</g>
</g>
</svg>
