<?xml version="1.0" encoding="utf-8"?>
<!-- Generator: Adobe Illustrator 27.5.0, SVG Export Plug-In . SVG Version: 6.00 Build 0)  -->
<svg version="1.1" xmlns="http://www.w3.org/2000/svg" xmlns:xlink="http://www.w3.org/1999/xlink" x="0px" y="0px"
	 viewBox="0 0 750 500" style="enable-background:new 0 0 750 500;" xml:space="preserve">
<g id="Background_Complete">
	<g>
		<path style="fill:#EBEBEB;" d="M346.91,428.008c-0.768-8.793,3.586-17.85,10.933-22.742c7.347-4.892,17.382-5.416,25.199-1.317
			c1.897-5.079,3.845-10.25,7.21-14.5c3.365-4.251,8.443-7.507,13.86-7.314v45.872H346.91z"/>
	</g>
	<g>
		<g>
			<g>
				<polygon style="fill:#EBEBEB;" points="196.315,250.535 167.09,309.489 175.816,309.821 151.054,356.667 164.06,356.667 
					143.77,398.287 257.185,398.287 232.213,356.667 244.178,356.146 220.247,309.324 229.091,308.803 				"/>
			</g>
			<g>
				<g>
					<path style="fill:#E0E0E0;" d="M201.257,318.924c0.144,0.002-0.105,24.968-0.556,55.757
						c-0.451,30.799-0.933,55.756-1.077,55.754c-0.144-0.002,0.105-24.963,0.556-55.762
						C200.631,343.884,201.113,318.922,201.257,318.924z"/>
				</g>
			</g>
		</g>
		<g>
			<g>
				<path style="fill:#E0E0E0;" d="M215.157,332.666c0.055,0.043-0.663,1.09-1.902,2.724c-1.237,1.636-3.002,3.852-4.983,6.27
					c-1.942,2.35-3.698,4.475-5.099,6.17c-1.311,1.573-2.132,2.54-2.191,2.495c-0.055-0.042,0.663-1.089,1.902-2.724
					c1.237-1.636,3.002-3.852,4.984-6.271c1.942-2.35,3.697-4.474,5.098-6.169C214.277,333.588,215.098,332.621,215.157,332.666z"/>
			</g>
		</g>
		<g>
			<g>
				<path style="fill:#E0E0E0;" d="M200.981,350.326c-0.088,0.113-2.956-1.973-6.404-4.661c-3.449-2.688-6.173-4.958-6.084-5.072
					c0.088-0.113,2.955,1.973,6.404,4.661C198.346,347.941,201.07,350.212,200.981,350.326z"/>
			</g>
		</g>
		<g>
			<g>
				<path style="fill:#E0E0E0;" d="M200.205,379.244c-0.051,0.054-0.851-0.614-2.132-1.702c-1.281-1.089-3.05-2.591-5.036-4.21
					c-1.988-1.619-3.816-3.049-5.141-4.083c-1.325-1.035-2.14-1.684-2.097-1.744c0.04-0.057,0.931,0.486,2.316,1.448
					c1.385,0.961,3.256,2.351,5.251,3.976c1.994,1.626,3.732,3.178,4.953,4.34C199.541,378.43,200.253,379.194,200.205,379.244z"/>
			</g>
		</g>
		<g>
			<g>
				<path style="fill:#E0E0E0;" d="M216.367,361.368c0.028,0.022-0.159,0.305-0.523,0.797c-0.361,0.494-0.914,1.185-1.617,2.022
					c-1.403,1.677-3.449,3.898-5.753,6.299c-2.305,2.402-4.386,4.575-5.853,6.183c-1.472,1.604-2.354,2.624-2.416,2.575
					c-0.028-0.022,0.159-0.304,0.523-0.796c0.361-0.494,0.914-1.185,1.616-2.022c1.402-1.677,3.449-3.898,5.754-6.3
					c2.304-2.401,4.385-4.574,5.852-6.182C215.423,362.34,216.305,361.319,216.367,361.368z"/>
			</g>
		</g>
	</g>
	<g>
		<g>
			<polygon style="fill:#E0E0E0;" points="434.213,317.62 552.71,317.62 574.854,286.181 598.06,318.507 625.333,318.073 
				595.936,278.483 463.812,279.032 			"/>
		</g>
		<g>
			<polygon style="fill:#F5F5F5;" points="493.473,318.073 493.473,428.278 611.803,428.278 611.803,318.073 598.24,318.073 
				574.854,286.181 552.638,317.59 			"/>
		</g>
		<g>
			<rect x="510.192" y="380.497" style="fill:#E0E0E0;" width="27.677" height="47.781"/>
		</g>
		<g>
			<rect x="554.459" y="379.152" style="fill:#E0E0E0;" width="43.601" height="27.008"/>
		</g>
		<g>
			<rect x="566.548" y="379.153" style="fill:#EBEBEB;" width="1" height="27.26"/>
		</g>
		<g>
			<rect x="584.68" y="379.153" style="fill:#EBEBEB;" width="1" height="27.26"/>
		</g>
		<g>
			<rect x="567.048" y="393.105" style="fill:#EBEBEB;" width="18.132" height="1"/>
		</g>
		<g>
			<rect x="554.459" y="325.095" style="fill:#E0E0E0;" width="43.601" height="27.008"/>
		</g>
		<g>
			<rect x="566.548" y="325.095" style="fill:#EBEBEB;" width="1" height="27.261"/>
		</g>
		<g>
			<rect x="584.68" y="325.095" style="fill:#EBEBEB;" width="1" height="27.261"/>
		</g>
		<g>
			<rect x="567.048" y="339.048" style="fill:#EBEBEB;" width="18.132" height="1"/>
		</g>
		<g>
			<rect x="507.484" y="325.339" style="fill:#E0E0E0;" width="27.498" height="26.036"/>
		</g>
		<g>
			<rect x="445.446" y="318.073" style="fill:#E0E0E0;" width="48.027" height="110.205"/>
		</g>
		<g>
			<rect x="520.733" y="325.339" style="fill:#EBEBEB;" width="1" height="26.036"/>
		</g>
		<g>
			<rect x="507.484" y="338.497" style="fill:#EBEBEB;" width="27.498" height="1"/>
		</g>
		<g>
			<circle style="fill:#E0E0E0;" cx="574.786" cy="307.22" r="5.831"/>
		</g>
		<g>
			<polygon style="fill:#F5F5F5;" points="533.196,300.068 540.555,290.992 540.555,269.162 525.146,269.162 525.146,300.237 			"/>
		</g>
		<g>
			<polygon style="fill:#EBEBEB;" points="533.196,300.068 533.196,269.162 540.555,269.162 540.555,290.992 			"/>
		</g>
		<g>
			<rect x="523.431" y="265.949" style="fill:#EBEBEB;" width="18.165" height="3.213"/>
		</g>
		<g>
			<rect x="404.112" y="366.281" style="fill:#F5F5F5;" width="89.361" height="61.997"/>
		</g>
		<g>
			<rect x="404.112" y="366.281" style="fill:#E0E0E0;" width="55.948" height="61.997"/>
		</g>
		<g>
			<rect x="415.141" y="386.268" style="fill:#F5F5F5;" width="36.592" height="41.901"/>
		</g>
		<g>
			<rect x="464.981" y="386.098" style="fill:#EBEBEB;" width="23.572" height="6.003"/>
		</g>
		<g>
			<polygon style="fill:#EBEBEB;" points="434.213,317.62 434.213,320.811 552.638,320.811 552.638,317.59 			"/>
		</g>
		<g>
			<polygon style="fill:#EBEBEB;" points="552.638,320.811 574.786,289.721 574.854,286.181 552.71,317.62 			"/>
		</g>
		<g>
			<rect x="598.24" y="318.073" style="fill:#EBEBEB;" width="26.524" height="2.059"/>
		</g>
		<g>
			<rect x="518.644" y="373.175" style="fill:#E0E0E0;" width="9.786" height="3.721"/>
		</g>
	</g>
</g>
<g id="Background_Simple" style="display:none;">
	<path style="display:inline;fill:#F5F5F5;" d="M324.67,113.284c1.344,5.521,2.39,11.116,3.067,16.758
		c2.413,20.089,8.062,33.229,21.094,50.294c14.488,18.972,37.741,29.676,60.744,32.458c36.197,4.378,54.241-15.245,89.866-7.189
		c34.374,7.772,59.602,46.426,54.067,82.84c-4.851,31.911-30.024,57.372-58.733,69.04c-28.708,11.668-73.707,18.095-104.377,15.037
		c-51.566-5.141-93.636-19.843-136.767-50.001c-43.131-30.158-73.202-84.044-77.997-138.162c-2.31-26.07,2.293-53.363,16.168-75.096
		c13.875-21.733,37.726-37.07,62.672-36.614S316.392,80.81,324.67,113.284L324.67,113.284z"/>
</g>
<g id="Floor">
	<g>
		<g>
			<path style="fill:#263238;" d="M675.17,428.278c0,0.144-134.402,0.26-300.156,0.26c-165.812,0-300.185-0.117-300.185-0.26
				s134.373-0.26,300.185-0.26C540.769,428.017,675.17,428.134,675.17,428.278z"/>
		</g>
	</g>
</g>
<g id="Character">
	<g>
		<g>
			<path style="fill:#E8505B;" d="M442.929,138.215c-22.148-30.464-54.354-44.666-87.956-44.665c0,0-82.294-0.001-106.664,73.669
				c-8.981,27.15-6.992,56.634,3.906,83.074c3.768,9.143,8.776,19.059,15.375,28.59c21.248,30.692,87.384,114.505,87.384,114.505
				h14.375c18.459-25.638,64.933-110.808,78.851-138.114C465.677,220.986,468.364,173.201,442.929,138.215z M368.697,274.492
				c-38.822,0-70.294-31.472-70.294-70.295c0-38.822,31.472-70.294,70.294-70.294c38.822,0,70.294,31.472,70.294,70.294
				C438.992,243.02,407.52,274.492,368.697,274.492z"/>
			<path style="opacity:0.4;" d="M442.929,138.215c-22.148-30.464-54.354-44.666-87.956-44.665c0,0-82.294-0.001-106.664,73.669
				c-8.981,27.15-6.992,56.634,3.906,83.074c3.768,9.143,8.776,19.059,15.375,28.59c21.248,30.692,87.384,114.505,87.384,114.505
				h14.375c18.459-25.638,64.933-110.808,78.851-138.114C465.677,220.986,468.364,173.201,442.929,138.215z M368.697,274.492
				c-38.822,0-70.294-31.472-70.294-70.295c0-38.822,31.472-70.294,70.294-70.294c38.822,0,70.294,31.472,70.294,70.294
				C438.992,243.02,407.52,274.492,368.697,274.492z"/>
			<path style="fill:#E8505B;" d="M457.401,138.792c-22.148-30.464-54.354-44.666-87.956-44.665c0,0-82.294-0.001-106.664,73.669
				c-8.981,27.15-6.992,56.634,3.906,83.074c3.768,9.143,8.776,19.059,15.375,28.59c21.248,30.692,87.384,114.505,87.384,114.505
				s76.408-105.119,93.227-138.114C480.149,221.562,482.836,173.777,457.401,138.792z M368.793,275.069
				c-38.995,0.086-70.44-31.056-70.294-70.296c0.144-38.822,31.472-70.294,70.294-70.294c38.822,0,70.323,31.472,70.294,70.294
				C439.059,243.72,407.52,274.983,368.793,275.069z"/>
		</g>
		<path style="fill:#E8505B;" d="M368.697,133.902c-30.584,0-56.593,19.538-66.26,46.809c9.462-20.868,30.46-35.391,54.864-35.391
			c33.262,0,60.226,26.964,60.226,60.226c0,33.262-26.964,60.226-60.226,60.226c-19.313,0-36.49-9.101-47.511-23.237
			c12.543,19.233,34.233,31.957,58.907,31.957c38.822,0,70.294-31.472,70.294-70.295
			C438.992,165.375,407.52,133.902,368.697,133.902z"/>
		<path style="opacity:0.4;" d="M368.697,133.902c-30.584,0-56.593,19.538-66.26,46.809c9.462-20.868,30.46-35.391,54.864-35.391
			c33.262,0,60.226,26.964,60.226,60.226c0,33.262-26.964,60.226-60.226,60.226c-19.313,0-36.49-9.101-47.511-23.237
			c12.543,19.233,34.233,31.957,58.907,31.957c38.822,0,70.294-31.472,70.294-70.295
			C438.992,165.375,407.52,133.902,368.697,133.902z"/>
	</g>
	<g>
		<path style="fill:#FFBE9D;" d="M508.867,236.428c-2.834-1.93-6.263-2.774-9.669-2.386c-5.762,0.657-14.107,1.504-14.107,1.504
			l0.031,0.274l-40.333,2.483l-12.345-25.058l-18.718,12.332c0,0,2.461,3.944,12.951,23.316
			c4.193,7.743,12.781,12.054,21.494,10.779l47.49-6.949v-0.091c4.904-0.277,10.223-0.735,10.992-1.439
			c1.472-1.346,2.815-6.245,2.815-6.245s8.457,5.034,10.092,5.145c1.635,0.111,1.925-1.249,2.943-2.691
			C523.199,246.418,514.476,240.247,508.867,236.428z"/>
		<g>
			<g>
				<g>
					<path style="fill:#455A64;" d="M434.928,211.61c0,0-7.839-15.09-15.023-29.336c-8.823-17.497-28.277-20.996-28.277-20.996
						l-28.182-3.701c0,0-23.55-10.657-45.497,15.791l-18.043,20.116l3.83,3.443l17.857,16.055l3.53,3.174l8.081-8.319l-3.757,21.077
						l-6.63,29.38c0.007,0.006,0.013,0.012,0.02,0.017l14.329-1.731l9.697-59.255l54.634,4.358l-4.286,37.36
						c0.877-0.135,7.488-1.437,9.636-10.419c0.845-3.533,0.575-6.517,0.047-8.714l3.157,8.088L434.928,211.61z"/>
				</g>
				<g>
					<path style="fill:#263238;" d="M346.863,197.286l-9.697,59.255l-14.329,1.731c12.312,10.613,28.33,17.045,45.86,17.045
						c8.758,0,17.136-1.615,24.87-4.542l3.645-31.771l4.286-37.36L346.863,197.286z"/>
				</g>
			</g>
			<g>
				<path style="fill:#263238;" d="M350.102,154.626l-1.187,48.131l9.116,1.44l1.222-48.773
					C359.254,155.424,356.053,153.919,350.102,154.626z"/>
			</g>
			<g>
				<path style="fill:#263238;" d="M388.662,203.016l7.506-41.338c0.43-0.461,6.595,1.752,8.451,3.857l-6.741,38.35L388.662,203.016
					z"/>
			</g>
			<g>
				<g>
					<path style="fill:#455A64;" d="M358.362,197.117c0.035-0.001,0.086,0.291,0.137,0.825c0.045,0.533,0.107,1.312,0.025,2.282
						c-0.081,0.959-0.34,2.16-1.134,3.232c-0.392,0.53-0.919,1.028-1.592,1.339c-0.67,0.313-1.466,0.415-2.23,0.271
						c-1.536-0.299-2.736-1.312-3.422-2.429c-0.684-1.133-0.915-2.309-1.008-3.269c-0.087-0.968-0.04-1.748,0.006-2.282
						c0.051-0.535,0.109-0.827,0.143-0.824c0.096,0.001-0.017,1.196,0.217,3.064c0.134,0.923,0.398,2.032,1.049,3.057
						c0.641,1.004,1.76,1.913,3.108,2.171c1.363,0.285,2.645-0.421,3.347-1.387c0.742-0.958,1.028-2.062,1.151-2.984
						C358.367,198.316,358.26,197.116,358.362,197.117z"/>
				</g>
			</g>
			<g>
				<path style="fill:#455A64;" d="M352.962,201.37c-1.068-0.425-1.59-1.636-1.165-2.704c0.425-1.068,1.636-1.59,2.705-1.165
					c1.068,0.425,1.59,1.636,1.165,2.704C355.242,201.274,354.031,201.795,352.962,201.37z"/>
			</g>
			<g>
				<path style="fill:#455A64;" d="M395.716,201.632c0,1.15-0.932,2.082-2.082,2.082c-1.15,0-2.082-0.932-2.082-2.082
					c0-1.15,0.932-2.082,2.082-2.082C394.784,199.55,395.716,200.482,395.716,201.632z"/>
			</g>
			<g>
				<g>
					<path style="fill:#455A64;" d="M398.514,200.19c0.049,0.012-0.015,0.955-0.477,2.434c-0.245,0.729-0.645,1.605-1.389,2.363
						c-0.718,0.771-1.924,1.302-3.163,1.164c-1.232-0.125-2.309-0.745-3.002-1.548c-0.692-0.807-1.025-1.723-1.167-2.487
						c-0.145-0.771-0.108-1.408-0.052-1.834c0.064-0.428,0.146-0.654,0.178-0.648c0.096,0.007-0.111,0.96,0.234,2.404
						c0.178,0.711,0.525,1.538,1.167,2.248c0.634,0.698,1.607,1.238,2.693,1.348c1.091,0.114,2.103-0.313,2.777-0.988
						c0.69-0.664,1.102-1.462,1.38-2.148C398.225,201.101,398.425,200.165,398.514,200.19z"/>
				</g>
			</g>
			<g>
				<g>
					<g>
						<path style="fill:#455A64;" d="M352.83,219.954c-0.072-0.008-0.097-0.403-0.081-1.033c0.008-0.315,0.026-0.689,0.055-1.102
							c0.017-0.222,0.034-0.435,0.05-0.649l0.031-0.343l0.017-0.175l0.009-0.089l0.005-0.044l0.002-0.022l0.001-0.011l0.001-0.006
							l0-0.003c-0.258,0.231,0.351-0.316,0.289-0.26l0.001,0c1.921,0.207,3.465,0.491,3.45,0.634
							c-0.015,0.143-1.585,0.091-3.506-0.116l-0.001,0c-0.063,0.056,0.545-0.49,0.288-0.258l0,0.003l0,0.006l-0.001,0.011
							l-0.002,0.023l-0.005,0.045l-0.009,0.09l-0.019,0.178l-0.039,0.348c-0.027,0.216-0.053,0.433-0.081,0.658
							c-0.055,0.419-0.112,0.795-0.167,1.11C353.005,219.578,352.901,219.962,352.83,219.954z"/>
					</g>
				</g>
				<g>
					<g>
						<path style="fill:#455A64;" d="M351.37,233.739c-0.143-0.015-0.095-1.57,0.108-3.473c0.202-1.903,0.482-3.433,0.625-3.418
							c0.143,0.015,0.095,1.57-0.108,3.473C351.793,232.224,351.513,233.754,351.37,233.739z"/>
					</g>
				</g>
				<g>
					<g>
						<path style="fill:#455A64;" d="M353.397,245.668c-0.064,0.129-1.519-0.464-3.25-1.323c0.031,0.057-0.271-0.495-0.143-0.262
							l0-0.001l0-0.003l0.001-0.006l0.001-0.011l0.002-0.023l0.005-0.045l0.01-0.089l0.02-0.177l0.041-0.345
							c0.028-0.214,0.056-0.429,0.085-0.652c0.058-0.415,0.117-0.788,0.174-1.1c0.114-0.625,0.221-1.007,0.292-1
							c0.072,0.008,0.095,0.404,0.074,1.039c-0.01,0.317-0.032,0.694-0.063,1.112c-0.019,0.224-0.037,0.439-0.055,0.655
							l-0.033,0.346l-0.018,0.177l-0.009,0.089l-0.005,0.045l-0.002,0.022l-0.001,0.011l-0.001,0.006l0,0.003l0,0.001
							c0.128,0.234-0.174-0.317-0.143-0.26C352.109,244.738,353.461,245.539,353.397,245.668z"/>
					</g>
				</g>
				<g>
					<g>
						<path style="fill:#455A64;" d="M362.638,250.257c-0.064,0.129-1.15-0.28-2.426-0.914c-1.276-0.634-2.258-1.252-2.195-1.381
							c0.064-0.129,1.15,0.28,2.426,0.914C361.719,249.51,362.702,250.128,362.638,250.257z"/>
					</g>
				</g>
				<g>
					<g>
						<path style="fill:#455A64;" d="M373.637,252.793c0.054,0.133-1.354,0.83-3.146,1.556c-0.427-0.016-0.119-0.005-0.215-0.009
							l-0.001-0.001l-0.003-0.001l-0.005-0.003l-0.01-0.005l-0.02-0.01l-0.04-0.02l-0.08-0.04l-0.159-0.08l-0.31-0.158
							c-0.191-0.101-0.383-0.201-0.582-0.306c-0.369-0.198-0.699-0.383-0.972-0.545c-0.546-0.324-0.868-0.556-0.836-0.621
							c0.032-0.064,0.412,0.051,1,0.291c0.294,0.12,0.64,0.27,1.021,0.445c0.203,0.095,0.399,0.187,0.595,0.279l0.313,0.151
							l0.16,0.078l0.081,0.04l0.04,0.02l0.02,0.01l0.01,0.005l0.005,0.003l0.002,0.001l0.001,0.001
							c-0.095-0.003,0.214,0.009-0.212-0.008C372.086,253.14,373.582,252.66,373.637,252.793z"/>
					</g>
				</g>
				<g>
					<g>
						<path style="fill:#455A64;" d="M381.108,249.764c0.054,0.133-0.738,0.58-1.77,0.999c-1.032,0.418-1.912,0.649-1.966,0.516
							c-0.054-0.133,0.738-0.58,1.77-0.999C380.174,249.861,381.054,249.63,381.108,249.764z"/>
					</g>
				</g>
				<g>
					<g>
						<path style="fill:#455A64;" d="M388.447,243.453c0.143,0.015,0.098,1.585-0.1,3.508c-0.322,0.429-0.09,0.119-0.162,0.215
							l-0.001,0.001l-0.003,0.001l-0.005,0.002l-0.01,0.004l-0.021,0.008l-0.042,0.017l-0.083,0.033l-0.165,0.066l-0.323,0.127
							c-0.202,0.077-0.405,0.153-0.615,0.233c-0.393,0.145-0.75,0.269-1.052,0.366c-0.605,0.194-0.992,0.281-1.019,0.215
							c-0.027-0.067,0.311-0.274,0.881-0.556c0.285-0.141,0.627-0.3,1.01-0.47c0.206-0.089,0.405-0.175,0.603-0.261l0.321-0.134
							l0.164-0.068l0.083-0.034l0.042-0.017l0.021-0.008l0.01-0.004l0.005-0.002l0.003-0.001l0.001,0
							c-0.071,0.095,0.162-0.215-0.16,0.214C388.027,244.985,388.304,243.438,388.447,243.453z"/>
					</g>
				</g>
				<g>
					<g>
						<path style="fill:#455A64;" d="M389.783,230.495c0.143,0.015,0.109,1.477-0.075,3.266c-0.185,1.789-0.45,3.228-0.593,3.213
							c-0.143-0.015-0.109-1.477,0.075-3.266C389.375,231.919,389.64,230.48,389.783,230.495z"/>
					</g>
				</g>
				<g>
					<g>
						<path style="fill:#455A64;" d="M387.331,220.159c0.016-0.143,1.586-0.091,3.508,0.116c0.462,0.571,0.128,0.159,0.231,0.287
							l0,0.001l0,0.003l-0.001,0.006l-0.001,0.011l-0.002,0.023l-0.005,0.045l-0.009,0.089l-0.019,0.177l-0.04,0.345
							c-0.027,0.215-0.054,0.429-0.082,0.652c-0.056,0.415-0.114,0.788-0.17,1.101c-0.112,0.625-0.217,1.008-0.288,1.001
							c-0.072-0.007-0.096-0.404-0.078-1.039c0.009-0.317,0.029-0.694,0.059-1.112c0.018-0.224,0.035-0.44,0.052-0.655l0.032-0.346
							l0.017-0.177l0.009-0.089l0.004-0.045l0.002-0.022l0.001-0.011l0.001-0.006l0-0.003l0-0.001
							c0.103,0.127-0.23-0.286,0.231,0.284C388.861,220.586,387.315,220.302,387.331,220.159z"/>
					</g>
				</g>
				<g>
					<g>
						<path style="fill:#455A64;" d="M375.062,218.836c0.015-0.143,1.401-0.111,3.095,0.072c1.694,0.183,3.055,0.447,3.039,0.59
							c-0.015,0.143-1.401,0.111-3.095-0.072C376.408,219.243,375.047,218.979,375.062,218.836z"/>
					</g>
				</g>
				<g>
					<g>
						<path style="fill:#455A64;" d="M362.793,217.513c0.015-0.143,1.401-0.111,3.095,0.072c1.694,0.183,3.055,0.447,3.039,0.59
							c-0.015,0.143-1.401,0.111-3.095-0.072C364.139,217.92,362.778,217.656,362.793,217.513z"/>
					</g>
				</g>
			</g>
		</g>
		<path style="fill:#FFBE9D;" d="M298.496,200.567c-0.061,1.202-0.092,2.412-0.092,3.629c0,4.844,0.491,9.574,1.424,14.142
			c0.01,0.046,0.02,0.091,0.03,0.136c0.12,0.581,0.265,1.152,0.399,1.727c0.548,2.259,1.193,4.488,1.912,6.683
			c0.093,0.274,0.182,0.55,0.278,0.822c2.585-0.576,10.065-7.053,18.677-15.147l-17.844-16.043
			C300.784,199.008,299.305,200.287,298.496,200.567z"/>
		<g>
			<g>
				<path style="fill:#263238;" d="M411.116,96.71c0.62,6.907,8.498,12.734,15.429,12.518c3.824-0.119,7.69-1.819,11.365-0.755
					c6.159,1.782,8.649,10.376,14.957,11.527c4.718,0.862,9.076-2.963,13.864-3.22c3.519-0.189,6.84,1.57,9.754,3.551
					s5.705,4.273,9.044,5.4c3.339,1.127,6.396-0.875,9.766-1.904c0.836,2.147,1.378,4.781,2.453,7.055
					c1.075,2.274,2.373,6.328,0.465,7.209c0,0-5.308,2.751-8.38,2.602c2.438,2.525,6.301,3.57,9.68,2.621
					c0.852,5.135,1.493,11.061-1.984,14.935c-1.548,1.725-3.733,2.77-5.977,3.349c-11.146,2.877-22.79-4.911-34.103-2.785
					c-4.645,0.873-8.892,3.379-13.578,3.992c-4.611,0.603-9.447-0.762-13.062-3.687c-4.461-3.61-7.53-9.65-13.191-10.595
					c-2.511-0.419-5.055,0.304-7.506,0.992c-2.451,0.689-5.023,1.355-7.513,0.825c-2.49-0.529-4.835-2.651-4.721-5.194"/>
			</g>
			<g>
				<g>
					<g>
						<g>
							<path style="fill:#FFBE9D;" d="M388.96,163.824c1.249-6.967,2.692-14.278,2.692-14.278s9.242,0.091,13.167-11.298
								c3.742-10.861,6.446-36.988,6.446-36.988l0,0c-11.996-7.547-27.925-6.735-38.964,1.986l0,0l-9.213,56.751
								c-1.07,6.588,3.743,12.755,10.807,13.846l0,0C381.028,174.946,387.77,170.462,388.96,163.824z"/>
						</g>
					</g>
					<g>
						<g>
							<g>
								<path style="fill:#263238;" d="M404.391,120.829c-0.112,0.799-0.88,1.362-1.716,1.261c-0.834-0.101-1.422-0.829-1.31-1.628
									c0.112-0.798,0.88-1.363,1.714-1.262C403.915,119.301,404.503,120.03,404.391,120.829z"/>
							</g>
						</g>
						<g>
							<g>
								<g>
									<path style="fill:#263238;" d="M407.124,119.575c-0.221,0.163-1.211-0.88-2.829-1.16c-1.612-0.303-2.945,0.319-3.086,0.09
										c-0.071-0.103,0.181-0.423,0.764-0.708c0.574-0.285,1.506-0.496,2.513-0.315c1.006,0.183,1.788,0.703,2.208,1.168
										C407.125,119.12,407.23,119.504,407.124,119.575z"/>
								</g>
							</g>
						</g>
					</g>
					<g>
						<g>
							<g>
								<path style="fill:#263238;" d="M387.788,118.199c-0.112,0.798-0.88,1.362-1.716,1.261c-0.834-0.101-1.422-0.829-1.31-1.628
									c0.112-0.798,0.88-1.363,1.715-1.262C387.313,116.671,387.9,117.4,387.788,118.199z"/>
							</g>
						</g>
						<g>
							<g>
								<g>
									<path style="fill:#263238;" d="M390.149,117.191c-0.221,0.163-1.212-0.88-2.829-1.16c-1.612-0.303-2.945,0.32-3.086,0.09
										c-0.07-0.103,0.18-0.423,0.765-0.708c0.574-0.285,1.506-0.496,2.512-0.315c1.006,0.183,1.788,0.703,2.208,1.168
										C390.149,116.735,390.256,117.12,390.149,117.191z"/>
								</g>
							</g>
						</g>
					</g>
					<g>
						<g>
							<g>
								<path style="fill:#263238;" d="M393.905,130.216c0.009-0.093,1.044-0.09,2.71-0.011c0.42,0.03,0.826,0.017,0.945-0.253
									c0.15-0.281,0.055-0.757-0.06-1.272c-0.212-1.068-0.434-2.186-0.667-3.359c-0.907-4.775-1.486-8.672-1.294-8.707
									c0.193-0.035,1.084,3.807,1.992,8.582c0.214,1.176,0.419,2.296,0.612,3.369c0.074,0.497,0.249,1.076-0.071,1.658
									c-0.165,0.289-0.508,0.46-0.785,0.484c-0.279,0.034-0.512-0.002-0.718-0.026
									C394.913,130.48,393.895,130.309,393.905,130.216z"/>
							</g>
						</g>
					</g>
					<g>
						<g>
							<path style="fill:#EB996E;" d="M391.652,149.546c0,0-7.971-0.88-14.954-6.949c0,0,2.389,8.719,14.308,9.688L391.652,149.546z
								"/>
						</g>
					</g>
					<g>
						<g>
							<path style="fill:#EB996E;" d="M392.535,133.992c-0.446-0.871-1.391-1.473-2.421-1.542c-0.715-0.048-1.483,0.165-2.01,0.662
								c-0.527,0.496-0.759,1.292-0.468,1.905c0.328,0.69,1.215,0.993,2.025,0.909c0.811-0.084,1.564-0.474,2.284-0.87
								c0.199-0.109,0.403-0.224,0.546-0.397c0.143-0.173,0.21-0.42,0.103-0.603"/>
						</g>
					</g>
					<g>
						<g>
							<g>
								<path style="fill:#263238;" d="M388.949,130.496c0.266,0.031-0.04,1.787,1.243,3.297c1.279,1.514,3.185,1.646,3.155,1.894
									c0.005,0.114-0.477,0.268-1.27,0.15c-0.779-0.11-1.867-0.558-2.652-1.482c-0.782-0.925-0.996-2.014-0.929-2.745
									C388.559,130.865,388.831,130.465,388.949,130.496z"/>
							</g>
						</g>
					</g>
				</g>
				<g>
					<g>
						<path style="fill:#263238;" d="M380.225,94.873c3.13,6.905,13.276,15.308,21.111,18.29c-0.712-1.425-5.116-5.433-5.829-6.857
							c3.16,3.437,7.73,8.098,12.56,9.264c0.571,0.138,1.196,0.254,1.726,0.054c0.721-0.272,0.996-1.013,1.198-1.676
							c0.853-2.799,1.576-7.736,1.655-10.658c0.079-2.922-0.694-5.988-2.797-8.353c-2.671-3.001-7.03-4.438-11.225-5.332
							c-3.518-0.75-7.2-1.226-10.67-0.558c-3.47,0.668-6.707,2.668-7.749,5.609"/>
					</g>
				</g>
				<g>
					<g>
						<path style="fill:#263238;" d="M361.543,120.882c-0.02-3.137,0.051-6.097,0.302-8.035c0.79-6.098,2.691-28.269,23.156-22.564
							l-2.178,5.679c0,0,1.572,14.27-8.932,21.932c0,0,0.045,14.242-7.23,19.381C366.66,137.275,361.586,127.617,361.543,120.882"/>
					</g>
				</g>
				<g>
					<g>
						<path style="fill:#FFBE9D;" d="M374.328,116.927c-1.21-0.463-2.541-0.662-3.814-0.423c-1.273,0.239-2.481,0.942-3.202,2.019
							c-0.723,1.079-0.913,2.46-0.692,3.739c0.222,1.28,0.827,2.468,1.579,3.527c0.541,0.76,1.181,1.48,2.009,1.91
							c0.828,0.43,1.875,0.525,2.681,0.055"/>
					</g>
				</g>
				<g>
					<g>
						<g>
							<path style="fill:#EB996E;" d="M372.298,124.4c0.135,0.072-0.543,0.734-1.634,0.224c-0.526-0.243-0.978-0.822-1.198-1.485
								c-0.219-0.673-0.314-1.385-0.258-2.189c0.059-0.796,0.383-1.596,0.918-2.112c0.517-0.531,1.252-0.769,1.817-0.682
								c1.183,0.181,1.404,1.062,1.267,1.062c-0.111,0.079-0.494-0.423-1.298-0.373c-0.763,0.006-1.668,0.896-1.732,2.19
								c-0.087,1.314,0.201,2.581,0.835,2.996C371.664,124.52,372.237,124.283,372.298,124.4z"/>
						</g>
					</g>
				</g>
			</g>
			<g>
				<g>
					<path style="fill:#263238;" d="M492.805,117.893c0,0-0.12,0.326-0.551,0.815c-0.431,0.479-1.229,1.092-2.436,1.404
						c-1.189,0.318-2.787,0.34-4.433-0.312c-1.656-0.618-3.288-1.805-5.004-3.138c-1.716-1.301-3.639-2.837-6.104-3.374
						c-1.222-0.229-2.539-0.199-3.831,0.166c-1.295,0.347-2.567,0.925-3.847,1.569c-1.282,0.643-2.576,1.363-3.967,1.987
						c-1.385,0.617-2.899,1.148-4.523,1.205c-1.617,0.069-3.283-0.421-4.659-1.359c-1.387-0.933-2.494-2.218-3.499-3.551
						c-2.001-2.665-3.618-5.552-6.065-7.446c-1.204-0.95-2.628-1.533-4.088-1.717c-1.458-0.206-2.924-0.064-4.326,0.192
						c-2.809,0.518-5.428,1.407-8.005,1.731c-2.579,0.307-5.034,0.036-7.134-0.618c-4.248-1.282-7.048-3.731-8.625-5.569
						c-1.571-1.892-2.079-3.169-2.079-3.169c0.008-0.004,0.058,0.064,0.149,0.202c0.104,0.164,0.233,0.367,0.391,0.615
						c0.344,0.538,0.892,1.309,1.692,2.219c1.605,1.777,4.4,4.138,8.576,5.349c2.065,0.619,4.464,0.86,6.974,0.543
						c2.519-0.334,5.118-1.232,7.976-1.775c1.426-0.267,2.941-0.424,4.479-0.213c1.536,0.186,3.065,0.808,4.33,1.803
						c2.566,1.986,4.193,4.914,6.172,7.539c0.99,1.314,2.065,2.554,3.372,3.434c1.297,0.884,2.836,1.338,4.352,1.279
						c1.521-0.05,2.978-0.549,4.338-1.15c1.365-0.606,2.658-1.319,3.954-1.962c1.294-0.643,2.598-1.229,3.946-1.583
						c1.344-0.372,2.746-0.399,4.035-0.145c2.599,0.592,4.534,2.188,6.241,3.506c1.702,1.353,3.286,2.533,4.884,3.158
						c1.583,0.656,3.116,0.664,4.278,0.387c1.176-0.272,1.965-0.836,2.409-1.28C492.622,118.182,492.778,117.875,492.805,117.893z"
						/>
				</g>
			</g>
		</g>
	</g>
</g>
<g id="Plant">
	<g>
		<g>
			<g>
				<polygon style="fill:#455A64;" points="262.475,316.536 244.337,353.126 249.753,353.331 234.384,382.406 242.456,382.406 
					229.864,408.237 300.253,408.237 284.755,382.406 292.181,382.083 277.328,353.023 282.817,352.7 				"/>
			</g>
			<g>
				<g>
					<path style="fill:#263238;" d="M265.542,358.981c0.144,0.002,0.034,15.498-0.246,34.606
						c-0.28,19.115-0.623,34.604-0.767,34.602c-0.144-0.002-0.033-15.494,0.246-34.609
						C265.055,374.471,265.399,358.979,265.542,358.981z"/>
				</g>
			</g>
		</g>
		<g>
			<g>
				<path style="fill:#263238;" d="M274.169,368.387c0.053,0.04-0.336,0.673-1.086,1.607c-0.746,0.937-1.874,2.148-3.16,3.43
					c-1.286,1.282-2.442,2.44-3.251,3.305c-0.812,0.862-1.302,1.412-1.363,1.365c-0.053-0.04,0.336-0.673,1.086-1.607
					c0.746-0.936,1.874-2.149,3.16-3.431c1.286-1.282,2.441-2.439,3.251-3.305C273.618,368.89,274.108,368.34,274.169,368.387z"/>
			</g>
		</g>
		<g>
			<g>
				<path style="fill:#263238;" d="M265.371,378.47c-0.089,0.113-1.895-1.147-4.035-2.815c-2.141-1.668-3.804-3.112-3.715-3.226
					c0.088-0.113,1.895,1.147,4.035,2.815C263.796,376.913,265.46,378.357,265.371,378.47z"/>
			</g>
		</g>
		<g>
			<g>
				<path style="fill:#263238;" d="M264.89,396.418c-0.103,0.108-2.047-1.589-4.511-3.593c-2.461-2.01-4.515-3.571-4.43-3.693
					c0.078-0.115,2.28,1.265,4.759,3.29C263.19,394.44,264.986,396.319,264.89,396.418z"/>
			</g>
		</g>
		<g>
			<g>
				<path style="fill:#263238;" d="M274.92,385.324c0.131,0.098-1.933,2.774-4.827,5.727c-1.35,1.411-2.574,2.689-3.652,3.815
					c-0.926,0.983-1.492,1.599-1.552,1.552c-0.131-0.098,1.932-2.773,4.827-5.727c1.35-1.41,2.573-2.689,3.651-3.815
					C274.294,385.893,274.861,385.276,274.92,385.324z"/>
			</g>
		</g>
	</g>
</g>
</svg>
