<svg xmlns="http://www.w3.org/2000/svg" viewBox="0 0 619.94 859.24"><defs><style>.cls-1{fill:#27b45f;}</style></defs><g id="Layer_2" data-name="Layer 2"><g id="Layer_1-2" data-name="Layer 1"><path class="cls-1" d="M90.59,760.84a48.53,48.53,0,0,1-11.43,16.67,54.14,54.14,0,0,1-17.64,11.06,60.68,60.68,0,0,1-22.5,4H0V688H39a61.91,61.91,0,0,1,22.5,4,53.16,53.16,0,0,1,17.64,11,48.69,48.69,0,0,1,11.43,16.59,52.57,52.57,0,0,1,4,20.63A53,53,0,0,1,90.59,760.84ZM72.72,726.1a34.23,34.23,0,0,0-7.34-11.33,33.28,33.28,0,0,0-11.47-7.51,40,40,0,0,0-15-2.7H18.24V776H38.92a41,41,0,0,0,15-2.63A32.78,32.78,0,0,0,65.38,766a33.47,33.47,0,0,0,7.34-11.27,40.53,40.53,0,0,0,0-28.67Z"/><path class="cls-1" d="M136.19,688V792.61H118V688Z"/><path class="cls-1" d="M249,784.39a64.86,64.86,0,0,1-10.17,5.23,63.61,63.61,0,0,1-11.73,3.51,66,66,0,0,1-13.16,1.28,58.12,58.12,0,0,1-22.27-4.12,50.27,50.27,0,0,1-17.12-11.36,50.8,50.8,0,0,1-11-17.11,57.87,57.87,0,0,1-3.88-21.38,55.65,55.65,0,0,1,4-20.93,52.28,52.28,0,0,1,28.25-29,53.84,53.84,0,0,1,21.75-4.34,74.28,74.28,0,0,1,12.49,1,57.79,57.79,0,0,1,10.39,2.77,52.53,52.53,0,0,1,9,4.41,66.08,66.08,0,0,1,8.3,6l-11.66,13.91a67.17,67.17,0,0,0-6.13-4.64,38.9,38.9,0,0,0-6.58-3.51,39.74,39.74,0,0,0-7.55-2.24,46,46,0,0,0-9-.83A30.94,30.94,0,0,0,199.5,706a33.48,33.48,0,0,0-10.77,8,38.35,38.35,0,0,0-7.17,11.83,39.31,39.31,0,0,0-2.62,14.38,43,43,0,0,0,2.54,15,34.72,34.72,0,0,0,7.25,11.91A33.61,33.61,0,0,0,199.94,775a36,36,0,0,0,14.58,2.85,43.85,43.85,0,0,0,14-2.18,39.62,39.62,0,0,0,11.29-5.78v-19.7H213v-16h44.55v44A77.7,77.7,0,0,1,249,784.39Z"/><path class="cls-1" d="M300.78,688V792.61H282.54V688Z"/><path class="cls-1" d="M419.47,760.84A48.53,48.53,0,0,1,408,777.51a54.08,54.08,0,0,1-17.65,11.06,60.59,60.59,0,0,1-22.49,4h-39V688h39a61.82,61.82,0,0,1,22.49,4,53.1,53.1,0,0,1,17.65,11,48.69,48.69,0,0,1,11.43,16.59,54.87,54.87,0,0,1,0,41.33ZM401.6,726.1a34.23,34.23,0,0,0-7.34-11.33,33.28,33.28,0,0,0-11.47-7.51,40,40,0,0,0-15-2.7H347.12V776H367.8a41.06,41.06,0,0,0,15-2.63A32.78,32.78,0,0,0,394.26,766a33.47,33.47,0,0,0,7.34-11.27,40.53,40.53,0,0,0,0-28.67Z"/><path class="cls-1" d="M523.22,704.56H464v26.91h52.47v16.59H464v28h60v16.59H445.78V688h77.44Z"/><path class="cls-1" d="M562.39,720.7a10.93,10.93,0,0,0,3.82,4.19,30.58,30.58,0,0,0,7.64,3.59q4.88,1.65,12.37,3.44a117.77,117.77,0,0,1,14.61,4.63,36.43,36.43,0,0,1,10.57,6.21,24.47,24.47,0,0,1,6.37,8.52,27.91,27.91,0,0,1,2.17,11.43A30.89,30.89,0,0,1,617.2,776a28.24,28.24,0,0,1-7.64,9.86A33.55,33.55,0,0,1,597.8,792a51.32,51.32,0,0,1-15.08,2.1A65.94,65.94,0,0,1,559.55,790a62.94,62.94,0,0,1-20.48-12.63l11.06-13.15a64.18,64.18,0,0,0,15.4,10.09,42.39,42.39,0,0,0,17.63,3.51c5.69,0,10.19-1.19,13.53-3.59a11.33,11.33,0,0,0,5-9.71,12.66,12.66,0,0,0-1-5.09,10.23,10.23,0,0,0-3.6-4.11,30.65,30.65,0,0,0-7.19-3.51A121.69,121.69,0,0,0,578,748.36,125.4,125.4,0,0,1,563.11,744a38.13,38.13,0,0,1-10.94-6,23.77,23.77,0,0,1-6.75-8.68A29.83,29.83,0,0,1,543.1,717a28.61,28.61,0,0,1,2.67-12.48,29.24,29.24,0,0,1,7.34-9.65,32.5,32.5,0,0,1,11.23-6.2,45.39,45.39,0,0,1,14.34-2.17,60.06,60.06,0,0,1,20.71,3.36,61.63,61.63,0,0,1,17.26,9.8l-9.86,13.9a64.38,64.38,0,0,0-14.21-8,38.56,38.56,0,0,0-14.2-2.77q-8.07,0-12.56,3.67a11.11,11.11,0,0,0-4.48,8.89A12.56,12.56,0,0,0,562.39,720.7Z"/><path class="cls-1" d="M132.29,431.54q.71,3.19,1.52,6.31C133.25,435.77,132.76,433.67,132.29,431.54Z"/><path class="cls-1" d="M133.81,437.85c.55,2.1,1.14,4.16,1.76,6.22C135,442,134.35,440,133.81,437.85Z"/><path class="cls-1" d="M129.61,414.88c-.07-.58-.12-1.17-.18-1.76C129.49,413.71,129.54,414.3,129.61,414.88Z"/><path class="cls-1" d="M129.43,413.12c-.34-3.53-.56-7.08-.66-10.67,0,1,.06,2,.11,2.93C129,408,129.19,410.56,129.43,413.12Z"/><path class="cls-1" d="M128.77,402.45c0-.78,0-1.56-.05-2.35C128.73,400.89,128.75,401.67,128.77,402.45Z"/><path class="cls-1" d="M128.68,398.08A155.41,155.41,0,0,1,162,301.67a155.6,155.6,0,0,0-33.3,96.41c0,.68,0,1.35,0,2C128.71,399.43,128.68,398.76,128.68,398.08Z"/><path class="cls-1" d="M130.63,422.7c-.26-1.63-.48-3.27-.69-4.92C130.15,419.43,130.37,421.07,130.63,422.7Z"/><path class="cls-1" d="M129.94,417.78c-.12-1-.23-1.93-.33-2.9C129.71,415.85,129.82,416.82,129.94,417.78Z"/><path class="cls-1" d="M150.39,477.51a156.05,156.05,0,0,0,10.3,15.25A148.14,148.14,0,0,1,150.39,477.51Z"/><path class="cls-1" d="M164.36,298.75c1.59-1.94,3.22-3.82,4.91-5.67C167.59,294.93,166,296.81,164.36,298.75Z"/><path class="cls-1" d="M376.68,219a24.18,24.18,0,0,0-4.93-6.05h0a22.43,22.43,0,0,0-2.46-1.93c-.43-.3-.88-.59-1.33-.86h0a24.07,24.07,0,0,0-6.23-2.65h0c-3.3-1.32-6.61-2.57-10-3.72-.9-.32-1.8-.61-2.7-.9s-2-.67-3.07-1q-8.21-2.53-16.69-4.42l-.48-.1c-1.63-.36-3.27-.69-4.9-1-2-.39-4-.75-6.07-1.06-.7-.12-1.41-.23-2.11-.33-1.92-.3-3.85-.55-5.78-.79-.83-.11-1.67-.2-2.49-.29l-2.79-.28-2.33-.21c-3-.26-5.92-.44-8.89-.56l-2.85-.1c-1.88,0-3.79-.08-5.69-.08-2.25,0-4.49,0-6.73.11C167.8,196.34,79.45,286.9,79.45,398.08c0,1.28,0,2.55,0,3.83s.06,2.32.1,3.47.08,2.1.14,3.13c.06,1.25.13,2.48.21,3.7.06.92.13,1.85.21,2.76.06.73.12,1.47.19,2.2s.11,1.28.18,1.91q.4,4,1,8c.1.72.19,1.42.31,2.14.3,2,.64,4,1,6q.21,1.2.45,2.37c.18.94.38,1.89.57,2.83.68,3.24,1.44,6.46,2.28,9.64.26,1,.52,2,.81,3s.57,2,.87,3q.36,1.23.75,2.49.73,2.4,1.54,4.81c.84,2.47,1.71,4.94,2.64,7.37l.64,1.71Q95.51,478,98,483.4c.24.54.48,1.06.74,1.59q1.55,3.35,3.23,6.6c.36.74.75,1.46,1.13,2.18.1.21.21.4.31.6.75,1.4,1.51,2.81,2.31,4.21s1.47,2.6,2.23,3.89c.18.29.35.56.51.84.67,1.14,1.36,2.26,2.07,3.39.15.24.3.48.45.7.87,1.39,1.77,2.79,2.68,4.15.75,1.15,1.53,2.29,2.31,3.42.48.69.94,1.36,1.42,2,.63.9,1.27,1.77,1.92,2.65l1,1.34,2.11,2.77c.07.09.13.18.21.27q1.5,1.93,3,3.82c.76.94,1.54,1.87,2.32,2.8.14.15.26.28.38.43.91,1.07,1.83,2.13,2.75,3.18a.53.53,0,0,0,.09.11c.92,1,1.82,2,2.75,3s1.9,2,2.87,3.06l2.95,3c1,1,2,2,3,2.95q2.87,2.73,5.84,5.39c.12.11.24.2.34.3,1.07.93,2.12,1.86,3.2,2.76s2.14,1.81,3.23,2.69l2.68,2.15.78.6c1,.81,2.09,1.61,3.15,2.41a.05.05,0,0,1,0,0c1.13.84,2.27,1.66,3.41,2.49l.54.39c1,.67,1.93,1.36,2.92,2,1.15.8,2.32,1.58,3.5,2.36l3.31,2.12c.2.11.38.23.56.35,2.29,1.42,4.6,2.81,6.95,4.15,1.14.64,2.28,1.29,3.43,1.92.18.09.35.18.51.28,1.17.61,2.34,1.24,3.52,1.84l.69.36c.95.5,1.92,1,2.88,1.44.19.11.39.2.58.29q3.64,1.78,7.37,3.43l.44.19c1.15.5,2.32,1,3.49,1.48l3.43,1.4.56.21c1.28.51,2.57,1,3.88,1.47l.27.1c1.28.48,2.59.93,3.88,1.38,1.07.37,2.17.73,3.25,1.09l1.18.38c1.26.39,2.52.78,3.78,1.15s2.35.69,3.53,1q2.47.69,5,1.32c1.2.3,2.4.58,3.61.87l.45.1c3,.69,6.1,1.32,9.2,1.88a2.14,2.14,0,0,0,.38.07l1.79.32h0a25.44,25.44,0,0,0,3.17.21,24.67,24.67,0,0,0,24.61-23.41c0-.42,0-.85,0-1.27a24.8,24.8,0,0,0-8.25-18.42h0a20.31,20.31,0,0,0-2.44-1.91c-.43-.3-.88-.59-1.32-.86h0a23.42,23.42,0,0,0-6.22-2.63s0,0,0,0c-.23-.06-.45-.12-.68-.16a19,19,0,0,0-2.83-.48c-2.26-.42-4.51-.9-6.74-1.41-1-.23-1.93-.45-2.89-.71-.54-.12-1.08-.27-1.6-.4-1.08-.29-2.15-.57-3.21-.89a152.57,152.57,0,0,1-27.84-11c-.82-.42-1.65-.84-2.46-1.29A151.8,151.8,0,0,1,195,525.83c-.91-.64-1.83-1.29-2.72-2-1.17-.86-2.33-1.73-3.45-2.61-.88-.69-1.77-1.39-2.64-2.11s-1.56-1.28-2.32-1.94c-.27-.21-.52-.43-.78-.65-.84-.72-1.68-1.46-2.49-2.19s-1.82-1.65-2.71-2.49-1.78-1.69-2.65-2.56-1.74-1.72-2.59-2.61-1.7-1.77-2.53-2.68-1.65-1.81-2.46-2.73-1.62-1.86-2.41-2.78L163,495.67c-.77-1-1.51-1.93-2.26-2.91a148.14,148.14,0,0,1-10.3-15.25c-.45-.75-.9-1.51-1.33-2.28s-.87-1.53-1.29-2.31-.84-1.54-1.24-2.32l-1.22-2.35c-.84-1.68-1.66-3.39-2.45-5.09-1.05-2.31-2.06-4.63-3-7-.39-1-.78-2-1.15-3-.32-.83-.63-1.65-.92-2.48-.15-.41-.3-.83-.43-1.24-.29-.78-.54-1.54-.8-2.32-.34-1-.66-2-1-3.07-.62-2.06-1.22-4.12-1.76-6.22s-1.05-4.18-1.52-6.31c-.22-1.06-.45-2.13-.66-3.19s-.36-1.87-.52-2.82-.33-1.88-.48-2.83a156.19,156.19,0,0,1,31.37-121c.78-1,1.56-2,2.36-2.92,1.59-1.94,3.22-3.82,4.91-5.67s3.4-3.65,5.17-5.42a155.49,155.49,0,0,1,103.68-45.59c2.24-.11,4.47-.15,6.73-.15,1,0,2,0,3,0l2,.06c.87,0,1.74,0,2.61.1,1.29,0,2.56.12,3.83.23.59,0,1.19.07,1.77.13l2.28.21c.27,0,.54,0,.81.09,1.2.11,2.38.24,3.56.4h0c1.22.15,2.42.33,3.63.51.22,0,.45.06.67.11,1,.15,2,.31,3,.49,1.5.26,3,.54,4.47.86,1,.19,2,.4,2.95.64.6.12,1.19.26,1.77.41,1.8.43,3.58.88,5.35,1.37.9.26,1.77.5,2.65.77,1.15.34,2.29.69,3.43,1.06s2.2.72,3.3,1.1,2,.7,3,1.06l1.62.61c.73.27,1.47.57,2.2.86.55.22,1.11.45,1.66.69q1.26.6,2.58,1.08a24.47,24.47,0,0,0,8.29,1.42A24.76,24.76,0,0,0,380,232.73c0-.42,0-.85,0-1.27A24.48,24.48,0,0,0,376.68,219Z"/><rect class="cls-1" x="409.51" width="50.78" height="603.49" rx="11.67"/><path class="cls-1" d="M303.5,405.38a25.39,25.39,0,0,0,0,50.78h25.73V578.09a25.39,25.39,0,1,0,50.78,0V405.38Z"/><path class="cls-1" d="M18.69,851.35h-6V822.8H1.83v-5.55H29.5v5.55H18.69Z"/><path class="cls-1" d="M37.59,851.35H31.65V825.63h5.94v5.8a11.27,11.27,0,0,1,3.46-4.68,8.3,8.3,0,0,1,5.65-1.61v6.24h-.34a9.68,9.68,0,0,0-3.56.63,7.5,7.5,0,0,0-2.78,1.9,8.75,8.75,0,0,0-1.8,3.19,14.38,14.38,0,0,0-.63,4.46Z"/><path class="cls-1" d="M66.28,851.35v-3.17a11.19,11.19,0,0,1-3.36,2.64,10.64,10.64,0,0,1-5,1.07,11.6,11.6,0,0,1-3.51-.52,8.47,8.47,0,0,1-2.89-1.51A7.34,7.34,0,0,1,48.79,844v-.1a8.09,8.09,0,0,1,.78-3.66,7.21,7.21,0,0,1,2.17-2.58,9.8,9.8,0,0,1,3.31-1.53,16.26,16.26,0,0,1,4.17-.51,22.48,22.48,0,0,1,4,.29,24,24,0,0,1,3.14.78V836a5.13,5.13,0,0,0-1.63-4.1A7,7,0,0,0,60,830.5a15.86,15.86,0,0,0-3.9.44,24.75,24.75,0,0,0-3.46,1.17L51,827.38a26,26,0,0,1,4.39-1.55,21.6,21.6,0,0,1,5.41-.59q5.74,0,8.52,2.85t2.78,8v15.25Zm.15-10.91a14.84,14.84,0,0,0-2.66-.73,16.83,16.83,0,0,0-3.24-.29,7.52,7.52,0,0,0-4.33,1.07,3.5,3.5,0,0,0-1.56,3.07v.09a3.2,3.2,0,0,0,1.44,2.83,6.11,6.11,0,0,0,3.53,1,9,9,0,0,0,2.7-.39A7,7,0,0,0,64.48,846a4.89,4.89,0,0,0,1.43-1.71,4.65,4.65,0,0,0,.52-2.21Z"/><path class="cls-1" d="M85.08,851.35H79.14V825.63h5.94v4a14.06,14.06,0,0,1,1.39-1.75,9,9,0,0,1,1.75-1.45,8.54,8.54,0,0,1,4.88-1.37,8.58,8.58,0,0,1,6.75,2.67,10.45,10.45,0,0,1,2.38,7.21v16.37H96.29V836.77a6.82,6.82,0,0,0-1.43-4.64,5.05,5.05,0,0,0-4-1.63,5.45,5.45,0,0,0-4.15,1.68,6.51,6.51,0,0,0-1.6,4.69Z"/><path class="cls-1" d="M127,847.31a7.11,7.11,0,0,1-2,2.51,9.12,9.12,0,0,1-3,1.51,13.38,13.38,0,0,1-3.75.51,17.34,17.34,0,0,1-5.63-1,17.87,17.87,0,0,1-5.28-2.87l2.63-4a17.07,17.07,0,0,0,4.26,2.37,12.09,12.09,0,0,0,4.16.8,5,5,0,0,0,3-.75,2.38,2.38,0,0,0,1-2v-.1a1.87,1.87,0,0,0-.46-1.27,4.18,4.18,0,0,0-1.27-.95,11.51,11.51,0,0,0-1.85-.73l-2.17-.66c-.94-.29-1.89-.61-2.85-1a10.28,10.28,0,0,1-2.58-1.39,7,7,0,0,1-1.87-2.1,5.94,5.94,0,0,1-.74-3.09V833a7.44,7.44,0,0,1,.71-3.27,7.26,7.26,0,0,1,2-2.48,8.45,8.45,0,0,1,2.92-1.56,11.62,11.62,0,0,1,3.58-.54,16.35,16.35,0,0,1,4.92.78,17.82,17.82,0,0,1,4.53,2.14l-2.34,4.19a19.93,19.93,0,0,0-3.75-1.77,10.69,10.69,0,0,0-3.5-.66,4.25,4.25,0,0,0-2.66.73,2.25,2.25,0,0,0-1,1.85v.1a1.66,1.66,0,0,0,.49,1.19,4.77,4.77,0,0,0,1.29.93,15.87,15.87,0,0,0,1.85.78c.7.24,1.42.48,2.17.7.94.29,1.88.64,2.82,1a11.34,11.34,0,0,1,2.56,1.43,7.28,7.28,0,0,1,1.88,2.07,5.78,5.78,0,0,1,.73,3v.1A8.19,8.19,0,0,1,127,847.31Z"/><path class="cls-1" d="M147.68,825.83v4.87H141v20.65H135V830.7h-3.26v-4.92H135v-1.85q0-4.29,2.07-6.36A7.91,7.91,0,0,1,143,815.5a16,16,0,0,1,2.68.19,19.1,19.1,0,0,1,2.1.49v5a14.25,14.25,0,0,0-1.68-.46,8.19,8.19,0,0,0-1.78-.18c-2.28,0-3.41,1.31-3.41,3.9v1.42Z"/><path class="cls-1" d="M176.49,843.7a13.35,13.35,0,0,1-7.23,7.16,14.71,14.71,0,0,1-10.94,0A13.38,13.38,0,0,1,154,848a13.22,13.22,0,0,1-2.84-4.24,13,13,0,0,1-1-5.18,13.22,13.22,0,0,1,1-5.24,13.35,13.35,0,0,1,7.21-7.18,13.7,13.7,0,0,1,5.48-1.07,14,14,0,0,1,5.48,1,13.22,13.22,0,0,1,8.21,12.35A13,13,0,0,1,176.49,843.7ZM171,835.37a8.15,8.15,0,0,0-1.62-2.65,7.36,7.36,0,0,0-2.47-1.8,7.94,7.94,0,0,0-6.34,0,7.37,7.37,0,0,0-2.44,1.77,7.64,7.64,0,0,0-1.55,2.61,9.25,9.25,0,0,0-.54,3.19,9,9,0,0,0,.59,3.24,7.89,7.89,0,0,0,1.62,2.66,7.75,7.75,0,0,0,2.47,1.77,7.33,7.33,0,0,0,3.12.66,7.6,7.6,0,0,0,3.22-.66,7.51,7.51,0,0,0,2.44-1.77,7.64,7.64,0,0,0,1.55-2.61,9.29,9.29,0,0,0,.53-3.19A8.84,8.84,0,0,0,171,835.37Z"/><path class="cls-1" d="M189.47,851.35h-5.94V825.63h5.94v5.8a11.35,11.35,0,0,1,3.46-4.68,8.33,8.33,0,0,1,5.65-1.61v6.24h-.34a9.63,9.63,0,0,0-3.55.63,7.42,7.42,0,0,0-2.78,1.9,8.61,8.61,0,0,0-1.8,3.19,14.07,14.07,0,0,0-.64,4.46Z"/><path class="cls-1" d="M228.75,826.35a9.73,9.73,0,0,1,5.05-1.25,8.63,8.63,0,0,1,6.62,2.55c1.6,1.71,2.39,4.13,2.39,7.29v16.41h-5.94V836.77a7,7,0,0,0-1.36-4.66,4.73,4.73,0,0,0-3.83-1.61,5.15,5.15,0,0,0-4,1.63,6.67,6.67,0,0,0-1.53,4.74v14.48h-5.94V836.72a6.91,6.91,0,0,0-1.36-4.61,4.73,4.73,0,0,0-3.83-1.61,5,5,0,0,0-4,1.7,6.86,6.86,0,0,0-1.51,4.72v14.43h-5.94V825.63h5.94v3.94A17.06,17.06,0,0,1,211,827.9a9.75,9.75,0,0,1,1.68-1.43,8.51,8.51,0,0,1,2.15-1,9.08,9.08,0,0,1,2.65-.36,8.41,8.41,0,0,1,4.7,1.25,8.21,8.21,0,0,1,2.94,3.32A12.6,12.6,0,0,1,228.75,826.35Z"/><path class="cls-1" d="M265.66,851.35v-3.17a11.19,11.19,0,0,1-3.36,2.64,10.67,10.67,0,0,1-5,1.07,11.6,11.6,0,0,1-3.51-.52,8.61,8.61,0,0,1-2.9-1.51,7.47,7.47,0,0,1-2-2.48,7.38,7.38,0,0,1-.76-3.43v-.1a8.09,8.09,0,0,1,.78-3.66,7.21,7.21,0,0,1,2.17-2.58,9.71,9.71,0,0,1,3.31-1.53,16.21,16.21,0,0,1,4.17-.51,22.36,22.36,0,0,1,4,.29,24.16,24.16,0,0,1,3.15.78V836a5.17,5.17,0,0,0-1.63-4.1,7,7,0,0,0-4.7-1.41,15.74,15.74,0,0,0-3.9.44,24.75,24.75,0,0,0-3.46,1.17l-1.61-4.73a26,26,0,0,1,4.39-1.55,21.57,21.57,0,0,1,5.4-.59q5.76,0,8.53,2.85t2.77,8v15.25Zm.15-10.91a15.08,15.08,0,0,0-2.66-.73,16.83,16.83,0,0,0-3.24-.29,7.49,7.49,0,0,0-4.33,1.07,3.5,3.5,0,0,0-1.56,3.07v.09a3.19,3.19,0,0,0,1.43,2.83,6.16,6.16,0,0,0,3.53,1,9,9,0,0,0,2.71-.39,7,7,0,0,0,2.17-1.09,5,5,0,0,0,1.43-1.71,4.65,4.65,0,0,0,.52-2.21Z"/><path class="cls-1" d="M296.15,847.31a7.08,7.08,0,0,1-2,2.51,9.12,9.12,0,0,1-3,1.51,13.4,13.4,0,0,1-3.76.51,17.28,17.28,0,0,1-5.62-1,18,18,0,0,1-5.29-2.87l2.63-4a17.3,17.3,0,0,0,4.27,2.37,12,12,0,0,0,4.16.8,5,5,0,0,0,2.95-.75,2.37,2.37,0,0,0,1-2v-.1A1.87,1.87,0,0,0,291,843a4.25,4.25,0,0,0-1.26-.95,11.64,11.64,0,0,0-1.86-.73l-2.16-.66c-.94-.29-1.9-.61-2.85-1a10.28,10.28,0,0,1-2.58-1.39,7,7,0,0,1-1.88-2.1,5.94,5.94,0,0,1-.73-3.09V833a7.44,7.44,0,0,1,.71-3.27,7.36,7.36,0,0,1,1.94-2.48,8.49,8.49,0,0,1,2.93-1.56,11.62,11.62,0,0,1,3.58-.54,16.39,16.39,0,0,1,4.92.78,18.15,18.15,0,0,1,4.53,2.14L294,832.3a20.22,20.22,0,0,0-3.75-1.77,10.79,10.79,0,0,0-3.51-.66,4.22,4.22,0,0,0-2.65.73,2.22,2.22,0,0,0-.95,1.85v.1a1.69,1.69,0,0,0,.48,1.19,5,5,0,0,0,1.3.93,15.87,15.87,0,0,0,1.85.78c.69.24,1.42.48,2.16.7.95.29,1.89.64,2.83,1a11.57,11.57,0,0,1,2.56,1.43,7.25,7.25,0,0,1,1.87,2.07,5.69,5.69,0,0,1,.73,3v.1A8.05,8.05,0,0,1,296.15,847.31Z"/><path class="cls-1" d="M303,821.69v-5.61h6.38v5.61Zm.25,29.66V825.63h5.94v25.72Z"/><path class="cls-1" d="M361.62,841a16,16,0,0,1-3.72,5.43,17.72,17.72,0,0,1-5.75,3.61,20,20,0,0,1-7.33,1.31H332.1v-34.1h12.72a20.19,20.19,0,0,1,7.33,1.29,17.48,17.48,0,0,1,5.75,3.58,16,16,0,0,1,3.72,5.41,17.84,17.84,0,0,1,0,13.47Zm-5.82-11.32a11.13,11.13,0,0,0-2.39-3.69,10.85,10.85,0,0,0-3.74-2.45,13,13,0,0,0-4.89-.88H338v23.28h6.74a13.42,13.42,0,0,0,4.89-.85,10.74,10.74,0,0,0,3.74-2.4A11,11,0,0,0,355.8,839a13.25,13.25,0,0,0,0-9.34Z"/><path class="cls-1" d="M376.53,845.43a7.3,7.3,0,0,0,4.87,1.68,8.62,8.62,0,0,0,3.8-.78,12.34,12.34,0,0,0,3.17-2.29l3.45,3.07a14.29,14.29,0,0,1-4.4,3.51,13.22,13.22,0,0,1-6.12,1.31,13.73,13.73,0,0,1-5.19-1,12.54,12.54,0,0,1-7-6.94,14.19,14.19,0,0,1-1-5.48,14.46,14.46,0,0,1,.93-5.21,12.81,12.81,0,0,1,2.6-4.26,12.56,12.56,0,0,1,4-2.9,11.75,11.75,0,0,1,5.07-1.07,12.31,12.31,0,0,1,5.38,1.11,11.09,11.09,0,0,1,3.85,3,13.07,13.07,0,0,1,2.31,4.43A18,18,0,0,1,393,839c0,.26,0,.52,0,.78s0,.53-.07.83H374A7.72,7.72,0,0,0,376.53,845.43Zm10.62-8.74a10.05,10.05,0,0,0-.64-2.66,6.8,6.8,0,0,0-1.31-2.14,6.31,6.31,0,0,0-2-1.44,6.21,6.21,0,0,0-2.61-.53,6,6,0,0,0-4.51,1.87,8.49,8.49,0,0,0-2.16,4.9Z"/><path class="cls-1" d="M416.57,847.31a7.08,7.08,0,0,1-2,2.51,9.17,9.17,0,0,1-3.05,1.51,13.38,13.38,0,0,1-3.75.51,17.28,17.28,0,0,1-5.62-1,17.92,17.92,0,0,1-5.29-2.87l2.63-4a17.43,17.43,0,0,0,4.26,2.37,12.15,12.15,0,0,0,4.17.8,5,5,0,0,0,3-.75,2.39,2.39,0,0,0,1-2v-.1a1.87,1.87,0,0,0-.46-1.27,4.18,4.18,0,0,0-1.27-.95,11.15,11.15,0,0,0-1.85-.73l-2.17-.66c-.94-.29-1.89-.61-2.85-1a10.64,10.64,0,0,1-2.58-1.39,7,7,0,0,1-1.87-2.1,5.94,5.94,0,0,1-.73-3.09V833a7.43,7.43,0,0,1,.7-3.27,7.26,7.26,0,0,1,1.95-2.48,8.54,8.54,0,0,1,2.92-1.56,11.71,11.71,0,0,1,3.58-.54,16.41,16.41,0,0,1,4.93.78,18.15,18.15,0,0,1,4.53,2.14l-2.34,4.19a20.53,20.53,0,0,0-3.75-1.77,10.79,10.79,0,0,0-3.51-.66,4.22,4.22,0,0,0-2.65.73,2.23,2.23,0,0,0-1,1.85v.1a1.7,1.7,0,0,0,.49,1.19,4.93,4.93,0,0,0,1.29.93,16.64,16.64,0,0,0,1.85.78c.7.24,1.42.48,2.17.7.94.29,1.88.64,2.83,1a11.27,11.27,0,0,1,2.55,1.43,7.14,7.14,0,0,1,1.88,2.07,5.69,5.69,0,0,1,.73,3v.1A8.05,8.05,0,0,1,416.57,847.31Z"/><path class="cls-1" d="M439,851.35v-3.17a11.12,11.12,0,0,1-3.37,2.64,10.64,10.64,0,0,1-5,1.07,11.49,11.49,0,0,1-3.5-.52,8.52,8.52,0,0,1-2.9-1.51,7.29,7.29,0,0,1-2.75-5.91v-.1a8.09,8.09,0,0,1,.78-3.66,7.29,7.29,0,0,1,2.16-2.58,9.77,9.77,0,0,1,3.32-1.53,16.18,16.18,0,0,1,4.16-.51,22.48,22.48,0,0,1,4,.29,23.62,23.62,0,0,1,3.14.78V836a5.13,5.13,0,0,0-1.63-4.1,7,7,0,0,0-4.7-1.41,15.86,15.86,0,0,0-3.9.44,24.63,24.63,0,0,0-3.45,1.17l-1.61-4.73a26.26,26.26,0,0,1,4.38-1.55,21.71,21.71,0,0,1,5.41-.59q5.74,0,8.52,2.85t2.78,8v15.25Zm.14-10.91a15,15,0,0,0-2.65-.73,17,17,0,0,0-3.24-.29,7.55,7.55,0,0,0-4.34,1.07,3.5,3.5,0,0,0-1.56,3.07v.09a3.2,3.2,0,0,0,1.44,2.83,6.16,6.16,0,0,0,3.53,1,9,9,0,0,0,2.71-.39,7,7,0,0,0,2.16-1.09,4.92,4.92,0,0,0,1.44-1.71,4.76,4.76,0,0,0,.51-2.21Z"/><path class="cls-1" d="M496.7,841a15.92,15.92,0,0,1-3.73,5.43,17.57,17.57,0,0,1-5.74,3.61,20,20,0,0,1-7.33,1.31H467.18v-34.1H479.9a20.19,20.19,0,0,1,7.33,1.29,17.34,17.34,0,0,1,5.74,3.58,15.93,15.93,0,0,1,3.73,5.41,17.84,17.84,0,0,1,0,13.47Zm-5.82-11.32a11,11,0,0,0-2.4-3.69,10.72,10.72,0,0,0-3.73-2.45,13,13,0,0,0-4.89-.88h-6.74v23.28h6.74a13.42,13.42,0,0,0,4.89-.85,10.61,10.61,0,0,0,3.73-2.4,10.82,10.82,0,0,0,2.4-3.67,13.25,13.25,0,0,0,0-9.34Z"/><path class="cls-1" d="M504.69,821.69v-5.61h6.38v5.61Zm.24,29.66V825.63h5.95v25.72Z"/><path class="cls-1" d="M540.2,856.08q-3.6,3.17-10.23,3.16a21.72,21.72,0,0,1-11.5-3.07l2.2-4.43a20.06,20.06,0,0,0,4.28,2,15.58,15.58,0,0,0,4.87.73,8.37,8.37,0,0,0,6-2,7.82,7.82,0,0,0,2.1-5.92v-2a13.93,13.93,0,0,1-3.75,3.45,10,10,0,0,1-5.31,1.32,12.07,12.07,0,0,1-4.39-.8,11.11,11.11,0,0,1-3.72-2.36,11.58,11.58,0,0,1-2.61-3.8,14,14,0,0,1,0-10.23,11.58,11.58,0,0,1,2.61-3.8,11.33,11.33,0,0,1,3.75-2.39,11.88,11.88,0,0,1,4.36-.82,10.11,10.11,0,0,1,5.38,1.3,14.82,14.82,0,0,1,3.63,3.12v-3.89h5.89v20.46C543.8,850.64,542.6,854,540.2,856.08Zm-2.8-21.78a6.79,6.79,0,0,0-1.63-2.25,7.55,7.55,0,0,0-2.41-1.43,8.39,8.39,0,0,0-2.9-.51,7.93,7.93,0,0,0-2.88.51,7.3,7.3,0,0,0-2.31,1.43,6.29,6.29,0,0,0-1.56,2.22,7.37,7.37,0,0,0-.56,2.91,6.87,6.87,0,0,0,.59,2.9,7,7,0,0,0,1.55,2.25,6.66,6.66,0,0,0,2.32,1.45,7.92,7.92,0,0,0,2.85.51,8.39,8.39,0,0,0,2.9-.51,7.05,7.05,0,0,0,4-3.68,6.69,6.69,0,0,0,.61-2.88A7,7,0,0,0,537.4,834.3Z"/><path class="cls-1" d="M551.26,821.69v-5.61h6.38v5.61Zm.24,29.66V825.63h6v25.72Z"/><path class="cls-1" d="M572.25,843.3a3.21,3.21,0,0,0,.83,2.47,3.31,3.31,0,0,0,2.34.76,8,8,0,0,0,3.65-.88v4.82a10.12,10.12,0,0,1-2.38,1,11.68,11.68,0,0,1-2.93.34,10.9,10.9,0,0,1-3-.39,6.14,6.14,0,0,1-2.38-1.27,5.68,5.68,0,0,1-1.55-2.32,10.32,10.32,0,0,1-.54-3.59V830.65h-3.26v-5h3.26v-7.06h5.94v7.06h6.92v5h-6.92Z"/><path class="cls-1" d="M600.8,851.35v-3.17a11.19,11.19,0,0,1-3.36,2.64,10.67,10.67,0,0,1-5,1.07,11.56,11.56,0,0,1-3.51-.52,8.61,8.61,0,0,1-2.9-1.51,7.37,7.37,0,0,1-2.75-5.91v-.1a8.09,8.09,0,0,1,.78-3.66,7.21,7.21,0,0,1,2.17-2.58,9.71,9.71,0,0,1,3.31-1.53,16.21,16.21,0,0,1,4.17-.51,22.36,22.36,0,0,1,4,.29,24.16,24.16,0,0,1,3.15.78V836a5.17,5.17,0,0,0-1.63-4.1,7,7,0,0,0-4.71-1.41,15.72,15.72,0,0,0-3.89.44,24.75,24.75,0,0,0-3.46,1.17l-1.61-4.73a26,26,0,0,1,4.39-1.55,21.57,21.57,0,0,1,5.4-.59c3.83,0,6.68,1,8.53,2.85s2.77,4.57,2.77,8v15.25Zm.14-10.91a14.71,14.71,0,0,0-2.65-.73,16.83,16.83,0,0,0-3.24-.29,7.55,7.55,0,0,0-4.34,1.07,3.5,3.5,0,0,0-1.56,3.07v.09a3.2,3.2,0,0,0,1.44,2.83,6.16,6.16,0,0,0,3.53,1,9,9,0,0,0,2.71-.39A7,7,0,0,0,599,846a5,5,0,0,0,1.43-1.71,4.76,4.76,0,0,0,.51-2.21Z"/><path class="cls-1" d="M614,851.35V815.79h5.94v35.56Z"/></g></g></svg>