<svg xmlns="http://www.w3.org/2000/svg" viewBox="0 0 380.84 603.49"><defs><style>.cls-1{fill:#27b45f;}</style></defs><title>logo3_green</title><g id="Layer_2" data-name="Layer 2"><g id="Layer_1-2" data-name="Layer 1"><path class="cls-1" d="M52.85,431.54c.46,2.13,1,4.23,1.51,6.31C53.8,435.77,53.31,433.67,52.85,431.54Z"/><path class="cls-1" d="M54.36,437.85c.55,2.1,1.14,4.16,1.77,6.22C55.5,442,54.9,440,54.36,437.85Z"/><path class="cls-1" d="M50.16,414.88,50,413.12C50,413.71,50.09,414.3,50.16,414.88Z"/><path class="cls-1" d="M50,413.12c-.34-3.53-.56-7.08-.66-10.67,0,1,.06,2,.11,2.93C49.55,408,49.74,410.56,50,413.12Z"/><path class="cls-1" d="M49.32,402.45c0-.78,0-1.56,0-2.35C49.28,400.89,49.3,401.67,49.32,402.45Z"/><path class="cls-1" d="M49.23,398.08a155.42,155.42,0,0,1,33.33-96.41,155.55,155.55,0,0,0-33.31,96.41c0,.68,0,1.35,0,2C49.27,399.43,49.23,398.76,49.23,398.08Z"/><path class="cls-1" d="M51.18,422.7c-.26-1.63-.48-3.27-.69-4.92C50.7,419.43,50.92,421.07,51.18,422.7Z"/><path class="cls-1" d="M50.49,417.78c-.12-1-.23-1.93-.33-2.9C50.26,415.85,50.37,416.82,50.49,417.78Z"/><path class="cls-1" d="M70.94,477.51a157.86,157.86,0,0,0,10.3,15.25A148.14,148.14,0,0,1,70.94,477.51Z"/><path class="cls-1" d="M84.91,298.75c1.59-1.94,3.22-3.82,4.91-5.67C88.15,294.93,86.51,296.81,84.91,298.75Z"/><path class="cls-1" d="M297.23,219A24.18,24.18,0,0,0,292.3,213h0a21.52,21.52,0,0,0-2.46-1.93c-.43-.3-.88-.59-1.33-.86h0a24.07,24.07,0,0,0-6.23-2.65h0c-3.3-1.32-6.61-2.57-10-3.72-.9-.32-1.8-.61-2.69-.9s-2-.67-3.08-1c-5.47-1.69-11-3.17-16.69-4.42l-.48-.1c-1.63-.36-3.26-.69-4.9-1-2-.39-4-.75-6.06-1.06-.71-.12-1.41-.23-2.12-.33-1.92-.3-3.85-.55-5.78-.79-.82-.11-1.66-.2-2.49-.29l-2.78-.28-2.34-.21c-3-.26-5.92-.44-8.89-.56l-2.84-.1c-1.89,0-3.79-.08-5.7-.08-2.24,0-4.49,0-6.72.11C88.35,196.34,0,286.9,0,398.08c0,1.28,0,2.55,0,3.83s.06,2.32.1,3.47.08,2.1.14,3.13c.06,1.25.13,2.48.21,3.7.06.92.13,1.85.21,2.76.06.73.12,1.47.19,2.2s.11,1.28.18,1.91q.41,4,1,8c.1.72.19,1.42.31,2.14.3,2,.65,4,1,6q.2,1.2.45,2.37c.18.94.37,1.89.57,2.83.67,3.24,1.43,6.46,2.27,9.64.26,1,.53,2,.81,3s.57,2,.87,3c.24.82.5,1.65.75,2.49q.74,2.4,1.54,4.81c.84,2.47,1.71,4.94,2.64,7.37l.64,1.71q2.16,5.5,4.6,10.86c.24.54.48,1.06.74,1.59q1.55,3.35,3.23,6.6c.36.74.75,1.46,1.13,2.18.1.21.21.4.31.6.75,1.4,1.52,2.81,2.31,4.21s1.47,2.6,2.23,3.89c.18.29.35.56.51.84.68,1.14,1.37,2.26,2.07,3.39.15.24.3.48.45.7.87,1.39,1.77,2.79,2.68,4.15.75,1.15,1.53,2.29,2.31,3.42.48.69.94,1.36,1.42,2,.63.9,1.28,1.77,1.92,2.65l1,1.34,2.11,2.77c.08.09.14.18.21.27,1,1.29,2,2.56,3,3.82.77.94,1.55,1.87,2.33,2.8.13.15.25.28.37.43q1.37,1.6,2.76,3.18a.53.53,0,0,0,.09.11c.91,1,1.81,2,2.74,3s1.9,2,2.88,3.06,2,2,3,3,2,2,3,2.95c1.92,1.82,3.86,3.62,5.84,5.39l.35.3c1.06.93,2.11,1.86,3.19,2.76s2.14,1.81,3.23,2.69l2.69,2.15.78.6c1,.81,2.08,1.61,3.14,2.41,0,0,0,0,0,0,1.12.84,2.26,1.66,3.4,2.49l.54.39c1,.67,1.93,1.36,2.92,2,1.15.8,2.32,1.58,3.5,2.36l3.32,2.12c.19.11.37.23.55.35,2.29,1.42,4.6,2.81,6.95,4.15,1.14.64,2.28,1.29,3.43,1.92.18.09.35.18.51.28,1.17.61,2.34,1.24,3.52,1.84l.69.36c1,.5,1.92,1,2.88,1.44.19.11.39.2.58.29q3.65,1.78,7.38,3.43l.43.19c1.15.5,2.32,1,3.49,1.48l3.43,1.4.56.21c1.29.51,2.57,1,3.88,1.47l.27.1c1.29.48,2.59.93,3.88,1.38l3.25,1.09,1.18.38c1.26.39,2.52.78,3.78,1.15s2.35.69,3.53,1c1.65.46,3.32.9,5,1.32,1.2.3,2.4.58,3.62.87l.44.1c3,.69,6.1,1.32,9.2,1.88a2.14,2.14,0,0,0,.38.07l1.8.32h0a25.15,25.15,0,0,0,3.16.21,24.68,24.68,0,0,0,24.62-23.41c0-.42,0-.85,0-1.27a24.85,24.85,0,0,0-8.26-18.42h0A19.55,19.55,0,0,0,188,555.8c-.43-.3-.88-.59-1.32-.86h0a23.28,23.28,0,0,0-6.22-2.63l0,0c-.22-.06-.45-.12-.67-.16a19.36,19.36,0,0,0-2.84-.48c-2.26-.42-4.51-.9-6.74-1.41-1-.23-1.93-.45-2.89-.71-.54-.12-1.08-.27-1.6-.4-1.08-.29-2.15-.57-3.21-.89a152.57,152.57,0,0,1-27.84-11c-.82-.42-1.65-.84-2.45-1.29a151.93,151.93,0,0,1-16.55-10.17c-.91-.64-1.82-1.29-2.72-2-1.17-.86-2.33-1.73-3.45-2.61-.88-.69-1.77-1.39-2.64-2.11s-1.55-1.28-2.32-1.94c-.27-.21-.52-.43-.78-.65-.84-.72-1.68-1.46-2.48-2.19s-1.83-1.65-2.72-2.49-1.78-1.69-2.65-2.56-1.74-1.72-2.59-2.61-1.69-1.77-2.53-2.68-1.65-1.81-2.46-2.73-1.62-1.86-2.41-2.78l-2.34-2.85c-.76-1-1.51-1.93-2.26-2.91a148.14,148.14,0,0,1-10.3-15.25c-.44-.75-.89-1.51-1.33-2.28s-.87-1.53-1.29-2.31-.84-1.54-1.24-2.32-.81-1.57-1.21-2.35c-.84-1.68-1.67-3.39-2.46-5.09-1-2.31-2-4.63-3-7-.39-1-.78-2-1.15-3-.32-.83-.63-1.65-.92-2.48-.15-.41-.3-.83-.43-1.24-.29-.78-.54-1.54-.79-2.32-.35-1-.66-2-1-3.07-.63-2.06-1.23-4.12-1.77-6.22s-1-4.18-1.51-6.31c-.23-1.06-.45-2.13-.66-3.19s-.36-1.87-.53-2.82-.33-1.88-.48-2.83a156.16,156.16,0,0,1,31.38-121c.78-1,1.55-2,2.35-2.92,1.59-1.94,3.22-3.82,4.91-5.67s3.4-3.65,5.17-5.42a155.5,155.5,0,0,1,103.69-45.59c2.23-.11,4.46-.15,6.72-.15,1,0,2,0,3,0l2,.06c.87,0,1.74,0,2.61.1,1.29,0,2.56.12,3.83.23.59,0,1.19.07,1.77.13.77.06,1.52.14,2.28.21.27,0,.54,0,.81.09,1.2.11,2.38.24,3.57.4h0c1.21.15,2.41.33,3.62.51.23,0,.45.06.68.11,1,.15,2,.31,3,.49,1.5.26,3,.54,4.46.86,1,.19,2,.4,2.95.64.6.12,1.19.26,1.77.41,1.8.43,3.58.88,5.35,1.37.9.26,1.77.5,2.65.77,1.16.34,2.29.69,3.43,1.06s2.21.72,3.3,1.1,2,.7,3,1.06l1.62.61c.73.27,1.47.57,2.2.86.56.22,1.11.45,1.67.69a27.83,27.83,0,0,0,2.57,1.08,24.47,24.47,0,0,0,8.29,1.42,24.76,24.76,0,0,0,24.72-23.48c0-.42,0-.85,0-1.27A24.38,24.38,0,0,0,297.23,219Z"/><rect class="cls-1" x="330.06" width="50.78" height="603.49" rx="11.67" ry="11.67"/><path class="cls-1" d="M224.06,405.38a25.39,25.39,0,0,0,0,50.78h25.72V578.09a25.39,25.39,0,1,0,50.78,0V405.38Z"/></g></g></svg>