<svg xmlns="http://www.w3.org/2000/svg" viewBox="0 0 619.94 794.41"><defs><style>.cls-1{fill:#27b45f;}</style></defs><title>logo2_green</title><g id="Layer_2" data-name="Layer 2"><g id="Layer_1-2" data-name="Layer 1"><path class="cls-1" d="M90.59,760.84a48.53,48.53,0,0,1-11.43,16.67,54.14,54.14,0,0,1-17.64,11.06,60.68,60.68,0,0,1-22.5,4H0V688H39a61.91,61.91,0,0,1,22.5,4,53.16,53.16,0,0,1,17.64,11,48.69,48.69,0,0,1,11.43,16.59,52.57,52.57,0,0,1,4,20.63A53,53,0,0,1,90.59,760.84ZM72.72,726.1a34.23,34.23,0,0,0-7.34-11.33,33.28,33.28,0,0,0-11.47-7.51,40,40,0,0,0-15-2.7H18.24V776H38.92a41,41,0,0,0,15-2.63A32.78,32.78,0,0,0,65.38,766a33.47,33.47,0,0,0,7.34-11.27,40.53,40.53,0,0,0,0-28.67Z"/><path class="cls-1" d="M136.19,688V792.61H118V688Z"/><path class="cls-1" d="M249,784.39a64.86,64.86,0,0,1-10.17,5.23,63.61,63.61,0,0,1-11.73,3.51,66,66,0,0,1-13.16,1.28,58.12,58.12,0,0,1-22.27-4.12,50.27,50.27,0,0,1-17.12-11.36,50.8,50.8,0,0,1-11-17.11,57.87,57.87,0,0,1-3.88-21.38,55.65,55.65,0,0,1,4-20.93,52.28,52.28,0,0,1,28.25-29,53.84,53.84,0,0,1,21.75-4.34,74.28,74.28,0,0,1,12.49,1,57.79,57.79,0,0,1,10.39,2.77,52.53,52.53,0,0,1,9,4.41,66.08,66.08,0,0,1,8.3,6l-11.66,13.91a67.17,67.17,0,0,0-6.13-4.64,38.9,38.9,0,0,0-6.58-3.51,39.74,39.74,0,0,0-7.55-2.24,46,46,0,0,0-9-.83A30.94,30.94,0,0,0,199.5,706a33.48,33.48,0,0,0-10.77,8,38.35,38.35,0,0,0-7.17,11.83,39.31,39.31,0,0,0-2.62,14.38,43,43,0,0,0,2.54,15,34.72,34.72,0,0,0,7.25,11.91A33.61,33.61,0,0,0,199.94,775a36,36,0,0,0,14.58,2.85,43.85,43.85,0,0,0,14-2.18,39.62,39.62,0,0,0,11.29-5.78v-19.7H213v-16h44.55v44A77.7,77.7,0,0,1,249,784.39Z"/><path class="cls-1" d="M300.78,688V792.61H282.54V688Z"/><path class="cls-1" d="M419.47,760.84A48.53,48.53,0,0,1,408,777.51a54.08,54.08,0,0,1-17.65,11.06,60.59,60.59,0,0,1-22.49,4h-39V688h39a61.82,61.82,0,0,1,22.49,4,53.1,53.1,0,0,1,17.65,11,48.69,48.69,0,0,1,11.43,16.59,54.87,54.87,0,0,1,0,41.33ZM401.6,726.1a34.23,34.23,0,0,0-7.34-11.33,33.28,33.28,0,0,0-11.47-7.51,40,40,0,0,0-15-2.7H347.12V776H367.8a41.06,41.06,0,0,0,15-2.63A32.78,32.78,0,0,0,394.26,766a33.47,33.47,0,0,0,7.34-11.27,40.53,40.53,0,0,0,0-28.67Z"/><path class="cls-1" d="M523.22,704.56H464v26.91h52.47v16.59H464v28h60v16.59H445.78V688h77.44Z"/><path class="cls-1" d="M562.39,720.7a10.93,10.93,0,0,0,3.82,4.19,30.58,30.58,0,0,0,7.64,3.59q4.88,1.65,12.37,3.44a117.77,117.77,0,0,1,14.61,4.63,36.43,36.43,0,0,1,10.57,6.21,24.47,24.47,0,0,1,6.37,8.52,27.91,27.91,0,0,1,2.17,11.43A30.89,30.89,0,0,1,617.2,776a28.24,28.24,0,0,1-7.64,9.86A33.55,33.55,0,0,1,597.8,792a51.32,51.32,0,0,1-15.08,2.1A65.94,65.94,0,0,1,559.55,790a62.94,62.94,0,0,1-20.48-12.63l11.06-13.15a64.18,64.18,0,0,0,15.4,10.09,42.39,42.39,0,0,0,17.63,3.51c5.69,0,10.19-1.19,13.53-3.59a11.33,11.33,0,0,0,5-9.71,12.66,12.66,0,0,0-1-5.09,10.23,10.23,0,0,0-3.6-4.11,30.65,30.65,0,0,0-7.19-3.51A121.69,121.69,0,0,0,578,748.36,125.4,125.4,0,0,1,563.11,744a38.13,38.13,0,0,1-10.94-6,23.77,23.77,0,0,1-6.75-8.68A29.83,29.83,0,0,1,543.1,717a28.61,28.61,0,0,1,2.67-12.48,29.24,29.24,0,0,1,7.34-9.65,32.5,32.5,0,0,1,11.23-6.2,45.39,45.39,0,0,1,14.34-2.17,60.06,60.06,0,0,1,20.71,3.36,61.63,61.63,0,0,1,17.26,9.8l-9.86,13.9a64.38,64.38,0,0,0-14.21-8,38.56,38.56,0,0,0-14.2-2.77q-8.07,0-12.56,3.67a11.11,11.11,0,0,0-4.48,8.89A12.56,12.56,0,0,0,562.39,720.7Z"/><path class="cls-1" d="M132.29,431.54q.71,3.19,1.52,6.31C133.25,435.77,132.76,433.67,132.29,431.54Z"/><path class="cls-1" d="M133.81,437.85c.55,2.1,1.14,4.16,1.76,6.22C135,442,134.35,440,133.81,437.85Z"/><path class="cls-1" d="M129.61,414.88c-.07-.58-.12-1.17-.18-1.76C129.49,413.71,129.54,414.3,129.61,414.88Z"/><path class="cls-1" d="M129.43,413.12c-.34-3.53-.56-7.08-.66-10.67,0,1,.06,2,.11,2.93C129,408,129.19,410.56,129.43,413.12Z"/><path class="cls-1" d="M128.77,402.45c0-.78,0-1.56-.05-2.35C128.73,400.89,128.75,401.67,128.77,402.45Z"/><path class="cls-1" d="M128.68,398.08A155.41,155.41,0,0,1,162,301.67a155.6,155.6,0,0,0-33.3,96.41c0,.68,0,1.35,0,2C128.71,399.43,128.68,398.76,128.68,398.08Z"/><path class="cls-1" d="M130.63,422.7c-.26-1.63-.48-3.27-.69-4.92C130.15,419.43,130.37,421.07,130.63,422.7Z"/><path class="cls-1" d="M129.94,417.78c-.12-1-.23-1.93-.33-2.9C129.71,415.85,129.82,416.82,129.94,417.78Z"/><path class="cls-1" d="M150.39,477.51a156.05,156.05,0,0,0,10.3,15.25A148.14,148.14,0,0,1,150.39,477.51Z"/><path class="cls-1" d="M164.36,298.75c1.59-1.94,3.22-3.82,4.91-5.67C167.59,294.93,166,296.81,164.36,298.75Z"/><path class="cls-1" d="M376.68,219a24.18,24.18,0,0,0-4.93-6.05h0a22.43,22.43,0,0,0-2.46-1.93c-.43-.3-.88-.59-1.33-.86h0a24.07,24.07,0,0,0-6.23-2.65h0c-3.3-1.32-6.61-2.57-10-3.72-.9-.32-1.8-.61-2.7-.9s-2-.67-3.07-1q-8.21-2.53-16.69-4.42l-.48-.1c-1.63-.36-3.27-.69-4.9-1-2-.39-4-.75-6.07-1.06-.7-.12-1.41-.23-2.11-.33-1.92-.3-3.85-.55-5.78-.79-.83-.11-1.67-.2-2.49-.29l-2.79-.28-2.33-.21c-3-.26-5.92-.44-8.89-.56l-2.85-.1c-1.88,0-3.79-.08-5.69-.08-2.25,0-4.49,0-6.73.11C167.8,196.34,79.45,286.9,79.45,398.08c0,1.28,0,2.55,0,3.83s.06,2.32.1,3.47.08,2.1.14,3.13c.06,1.25.13,2.48.21,3.7.06.92.13,1.85.21,2.76.06.73.12,1.47.19,2.2s.11,1.28.18,1.91q.4,4,1,8c.1.72.19,1.42.31,2.14.3,2,.64,4,1,6q.21,1.2.45,2.37c.18.94.38,1.89.57,2.83.68,3.24,1.44,6.46,2.28,9.64.26,1,.52,2,.81,3s.57,2,.87,3q.36,1.23.75,2.49.73,2.4,1.54,4.81c.84,2.47,1.71,4.94,2.64,7.37l.64,1.71Q95.51,478,98,483.4c.24.54.48,1.06.74,1.59q1.55,3.35,3.23,6.6c.36.74.75,1.46,1.13,2.18.1.21.21.4.31.6.75,1.4,1.51,2.81,2.31,4.21s1.47,2.6,2.23,3.89c.18.29.35.56.51.84.67,1.14,1.36,2.26,2.07,3.39.15.24.3.48.45.7.87,1.39,1.77,2.79,2.68,4.15.75,1.15,1.53,2.29,2.31,3.42.48.69.94,1.36,1.42,2,.63.9,1.27,1.77,1.92,2.65l1,1.34,2.11,2.77c.07.09.13.18.21.27q1.5,1.93,3,3.82c.76.94,1.54,1.87,2.32,2.8.14.15.26.28.38.43.91,1.07,1.83,2.13,2.75,3.18a.53.53,0,0,0,.09.11c.92,1,1.82,2,2.75,3s1.9,2,2.87,3.06l2.95,3c1,1,2,2,3,2.95q2.87,2.73,5.84,5.39c.12.11.24.2.34.3,1.07.93,2.12,1.86,3.2,2.76s2.14,1.81,3.23,2.69l2.68,2.15.78.6c1,.81,2.09,1.61,3.15,2.41a.05.05,0,0,1,0,0c1.13.84,2.27,1.66,3.41,2.49l.54.39c1,.67,1.93,1.36,2.92,2,1.15.8,2.32,1.58,3.5,2.36l3.31,2.12c.2.11.38.23.56.35,2.29,1.42,4.6,2.81,6.95,4.15,1.14.64,2.28,1.29,3.43,1.92.18.09.35.18.51.28,1.17.61,2.34,1.24,3.52,1.84l.69.36c.95.5,1.92,1,2.88,1.44.19.11.39.2.58.29q3.64,1.78,7.37,3.43l.44.19c1.15.5,2.32,1,3.49,1.48l3.43,1.4.56.21c1.28.51,2.57,1,3.88,1.47l.27.1c1.28.48,2.59.93,3.88,1.38,1.07.37,2.17.73,3.25,1.09l1.18.38c1.26.39,2.52.78,3.78,1.15s2.35.69,3.53,1q2.47.69,5,1.32c1.2.3,2.4.58,3.61.87l.45.1c3,.69,6.1,1.32,9.2,1.88a2.14,2.14,0,0,0,.38.07l1.79.32h0a25.44,25.44,0,0,0,3.17.21,24.67,24.67,0,0,0,24.61-23.41c0-.42,0-.85,0-1.27a24.8,24.8,0,0,0-8.25-18.42h0a20.31,20.31,0,0,0-2.44-1.91c-.43-.3-.88-.59-1.32-.86h0a23.42,23.42,0,0,0-6.22-2.63s0,0,0,0c-.23-.06-.45-.12-.68-.16a19,19,0,0,0-2.83-.48c-2.26-.42-4.51-.9-6.74-1.41-1-.23-1.93-.45-2.89-.71-.54-.12-1.08-.27-1.6-.4-1.08-.29-2.15-.57-3.21-.89a152.57,152.57,0,0,1-27.84-11c-.82-.42-1.65-.84-2.46-1.29A151.8,151.8,0,0,1,195,525.83c-.91-.64-1.83-1.29-2.72-2-1.17-.86-2.33-1.73-3.45-2.61-.88-.69-1.77-1.39-2.64-2.11s-1.56-1.28-2.32-1.94c-.27-.21-.52-.43-.78-.65-.84-.72-1.68-1.46-2.49-2.19s-1.82-1.65-2.71-2.49-1.78-1.69-2.65-2.56-1.74-1.72-2.59-2.61-1.7-1.77-2.53-2.68-1.65-1.81-2.46-2.73-1.62-1.86-2.41-2.78L163,495.67c-.77-1-1.51-1.93-2.26-2.91a148.14,148.14,0,0,1-10.3-15.25c-.45-.75-.9-1.51-1.33-2.28s-.87-1.53-1.29-2.31-.84-1.54-1.24-2.32l-1.22-2.35c-.84-1.68-1.66-3.39-2.45-5.09-1.05-2.31-2.06-4.63-3-7-.39-1-.78-2-1.15-3-.32-.83-.63-1.65-.92-2.48-.15-.41-.3-.83-.43-1.24-.29-.78-.54-1.54-.8-2.32-.34-1-.66-2-1-3.07-.62-2.06-1.22-4.12-1.76-6.22s-1.05-4.18-1.52-6.31c-.22-1.06-.45-2.13-.66-3.19s-.36-1.87-.52-2.82-.33-1.88-.48-2.83a156.19,156.19,0,0,1,31.37-121c.78-1,1.56-2,2.36-2.92,1.59-1.94,3.22-3.82,4.91-5.67s3.4-3.65,5.17-5.42a155.49,155.49,0,0,1,103.68-45.59c2.24-.11,4.47-.15,6.73-.15,1,0,2,0,3,0l2,.06c.87,0,1.74,0,2.61.1,1.29,0,2.56.12,3.83.23.59,0,1.19.07,1.77.13l2.28.21c.27,0,.54,0,.81.09,1.2.11,2.38.24,3.56.4h0c1.22.15,2.42.33,3.63.51.22,0,.45.06.67.11,1,.15,2,.31,3,.49,1.5.26,3,.54,4.47.86,1,.19,2,.4,2.95.64.6.12,1.19.26,1.77.41,1.8.43,3.58.88,5.35,1.37.9.26,1.77.5,2.65.77,1.15.34,2.29.69,3.43,1.06s2.2.72,3.3,1.1,2,.7,3,1.06l1.62.61c.73.27,1.47.57,2.2.86.55.22,1.11.45,1.66.69q1.26.6,2.58,1.08a24.47,24.47,0,0,0,8.29,1.42A24.76,24.76,0,0,0,380,232.73c0-.42,0-.85,0-1.27A24.48,24.48,0,0,0,376.68,219Z"/><rect class="cls-1" x="409.51" width="50.78" height="603.49" rx="11.67" ry="11.67"/><path class="cls-1" d="M303.5,405.38a25.39,25.39,0,0,0,0,50.78h25.73V578.09a25.39,25.39,0,1,0,50.78,0V405.38Z"/></g></g></svg>