<?xml version="1.0" encoding="utf-8"?>
<!-- Generator: Adobe Illustrator 24.2.3, SVG Export Plug-In . SVG Version: 6.00 Build 0)  -->
<svg version="1.1" xmlns="http://www.w3.org/2000/svg" xmlns:xlink="http://www.w3.org/1999/xlink" x="0px" y="0px"
	 viewBox="0 0 564.2 895.2" style="enable-background:new 0 0 564.2 895.2;" xml:space="preserve">
<style type="text/css">
	.st0{fill:#FFFFFF;}
	.st1{fill:#F0F0F0;}
	.st2{fill:#27B45F;}
	.st3{fill:#EAF8EF;}
	.st4{fill:#CEE6D6;}
	.st5{fill:#327A6D;}
	.st6{fill:#BED4C5;}
	.st7{fill:#B05856;}
	.st8{fill:#323D43;}
	.st9{fill:#31E378;}
	.st10{fill:#595959;}
	.st11{fill:#777777;}
	.st12{fill:#90A195;}
	.st13{fill:#BDBDBD;}
	.st14{fill:#51A1A0;}
	.st15{fill:#AE5952;}
	.st16{fill:#B4C9BB;}
</style>
<g id="Layer_2">
</g>
<g id="Layer_3">
</g>
<g id="Layer_4">
	<g>
		<g>
			<polygon class="st0" points="356,500.3 355.2,541.3 353.9,617.9 309.7,625.5 309,622 308.2,618.1 297.7,568.6 290.9,536.7 
				280.4,539 260.2,616.8 221.3,635 220.1,635.5 219.4,632.9 214.5,616.3 212,500.3 			"/>
			<path class="st1" d="M355.2,541.3l-1.3,76.6l-44.2,7.7L309,622c9.5-7,21.5-16.8,23.5-23.5c3.3-11.2-1.8-25.5,7.9-38.3
				C347.6,550.7,351.7,549.1,355.2,541.3z"/>
			<path class="st1" d="M303.2,556.1c-1.3,1.6-3.3,6.3-5.6,12.5l-6.8-31.9l-10.5,2.3l-20.2,77.9L221.3,635c-0.8-0.5-1.5-1.2-1.9-2.1
				c0,0,16.8-33.7,23-37c6.1-3.3,23.7-3.8,27.3-20.9c3.6-17.1-16.6-23.8-5.6-32.7c11-8.9,51.8-10,56.4-13.3
				C325.1,525.7,308.7,549.2,303.2,556.1z"/>
			<path class="st2" d="M361.9,499.8c0,0-1.3,6.3-7.4,7.3c-10.8,2.3-35.1,3.3-61,3.3c-41.8,0-87.9-2.6-88.1-6
				c-0.3-5.3,10.2-26.5,11.8-38c0.1-0.4,0.1-0.8,0.1-1.1c1-11.2-0.3-33.2,3.9-55.8c0.1-0.7,0.3-1.5,0.4-2.2
				c3.9-23,4.4-61.3,4.4-61.3s0,0,0,0c0.3-0.7,5.3-13.1,7.4-38.2c1.5-17.2,4.4-25.6,6.2-29.3c0.9-1.9,1.5-2.6,1.5-2.6
				c15.8-8.5,18-2.1,18-2.1s-4.7,7.4-3,21.9c1.7,14.5-0.2,29.4,16.2,33.2c16.4,3.8,43.9,0,50.6-6c5.7-5.1,6.1-33,5.7-42.4
				c-0.1-1.5-0.2-2.5-0.3-2.9c-0.6-2.4,8.6-4.1,15.2-1.3c1.3,0.5,2.5,1.3,3.5,2.2c0.9,0.8,1.6,2.8,2.4,5.7c4.3,17.9,6,69.2,6,73.3
				c0,0.8,0.2,5.3,0.5,12.2c0.7,15.7,2,44.1,3.2,70.4c-1.9-0.2-3.7,0.3-4.9,2.4c-0.8,1.4-0.8,2.8-0.5,4c0.6,2.1,2.2,3.7,2.2,3.7
				c-2.5,1.2-5.4,2.9-8.1,4.9c-5.8,4.1-11.1,9.4-11.1,13.8c0,1.6,0.8,2.5,2.1,3c3.8,1.4,11.5-1.1,11.9-1.2c-0.2,0.2-3.4,3.5-6.1,7
				c-1.8,2.4-3.5,4.8-4,6.6c-0.1,0.4-0.2,0.8-0.2,1.1c0.2,3.7,6.2,2.8,6.6,2.7c-0.2,0.1-2.7,1.9-0.4,5.2c2.4,3.4,6.9,1.8,6.9,1.8
				S355.4,502.2,361.9,499.8z"/>
			<path class="st3" d="M239.7,278.4c-1.8,3.7-4.7,12.1-6.2,29.3c-2.2,25.1-7.1,37.4-7.4,38.2c0,0,0,0,0,0c-3,4.7-11,17.3-12.6,21.2
				c-2,4.8-21.1-28.3-21.3-43.2c0-3.5,2-7.8,5.3-12.3c2.5-3.4,5.8-6.9,9.4-10.3c3.2-3,6.7-6,10.3-8.8c2.3-1.8,4.6-3.5,6.9-5
				C229.9,283.3,235.5,280.1,239.7,278.4z"/>
			<path class="st6" d="M239.7,278.4c-1.8,3.7-4.7,12.1-6.2,29.3c-2.2,25.1-7.1,37.4-7.4,38.2c0,0,0,0,0,0c-3,4.7-11,17.3-12.6,21.2
				c-2,4.8-21.1-28.3-21.3-43.2c0-3.5,2-7.8,5.3-12.3c2.2-2.9,4.8-5.9,7.9-8.8c0.3-0.3,0.5-0.5,0.8-0.8s0.5-0.5,0.8-0.8
				c1.4,4.2,3.4,10.4,6,19.5c0.1,0.4,0.3,0.9,0.4,1.3c6.3,21.8,8.2,30.7,7.3,8.3c-0.6-16.7,2-34.4,3.4-42.9
				C229.9,283.3,235.5,280.1,239.7,278.4z"/>
			<path class="st5" d="M213.3,322l-7.9,8.3l-7.9-18.7c2.2-2.9,4.8-5.9,7.9-8.8c0.3-0.3,0.5-0.5,0.8-0.8s0.5-0.5,0.8-0.8
				c1.4,4.2,3.4,10.4,6,19.5C213,321.1,213.2,321.5,213.3,322z"/>
			<path class="st3" d="M359.9,230.9c-1.6,2.2-8.1,4.8-13.2,6.2c-2.4,0.6-4.5,1-5.7,0.9c0,0-6.6,10.2-18.6,17.3
				c-0.4,0.3-0.9,0.5-1.3,0.8c-0.5,0.3-1,0.5-1.5,0.8c-3.9,2-8.2,3.6-13,4.4c0,0-0.3,2.6-0.3,4.8c0,1.1,0.2,2.1,0.5,2.6
				c0.1,0.2,0.6,0.5,1.2,1c0.2,0.1,0.5,0.3,0.7,0.5c0.3,0.2,0.6,0.3,0.9,0.5c0.9,0.5,1.9,1.1,3,1.7c6.4,3.5,15.6,8.1,15.6,8.1
				s0.1,0,0.3,0c0.1,2.4,0.2,6,0.1,10.1c0,0.2,0,0.4,0,0.6c0,0.3,0,0.7,0,1c-0.1,2.7-0.2,5.7-0.4,8.6c-0.7,9.7-2.2,19.3-5.4,22.2
				c-6.5,5.8-32.9,9.5-49.4,6.2c-0.4-0.1-0.8-0.2-1.2-0.3c-16.3-3.7-14.5-18.7-16.2-33.2c-0.1-1-0.2-2-0.3-2.9c0-0.3,0-0.7-0.1-1
				c0-1.1-0.1-2.1,0-3c0.1-9.9,3.3-14.9,3.3-14.9c3-0.8,5.9-1.8,8.7-3.4c1.2-0.7,2.5-1.5,3.7-2.5c0.3-0.2,0.5-0.4,0.8-0.7
				c0.4-0.4,0.9-0.8,1.3-1.2l-0.1-0.5l-0.2-1.5l-0.2-1.8c0,0-0.1,0-0.1,0c0,0-0.1,0-0.1,0c-0.3,0-1.1-0.1-2.1-0.2c0,0,0,0-0.1,0
				c-3-0.4-8.4-1.5-14.4-3.9c-0.4-0.2-0.8-0.3-1.2-0.5h0c-7.4-3.3-15.4-8.8-20.3-18.2c-0.4-0.8-0.8-1.6-1.2-2.5
				c-1-0.2-2.1-0.5-3.2-0.8c-7.7-2.1-16-6.2-17.4-8.7c-1.5-2.9-4.1-17.9-3.1-32.2c2-2.7,4.3-4.4,4.3-4.4s-5.6-56.2,56.9-70.5
				c62.6-14.3,80.4,32.9,85,70.5c2.6,1.5,4.3,2.5,5.4,3.3c1.2,0.8,2,2.2,2.1,3.6C364.3,203.6,364.9,221.1,359.9,230.9z"/>
			<path class="st4" d="M346.7,237.9c-2.4,0.6-4.5,1-5.7,0.9c0,0-7.7,11.8-21.3,18.8c5.4-6,12.3-14.4,13.4-20.4
				c-6.3-4.4-24.5-18.6-43.2-18.2c-18.7,0.4-45.1,13.8-47.1,15c-2.1,1.2-7.2,4.8-7.2,4.8l-0.5,1.3c-0.4-0.8-0.8-1.6-1.2-2.5
				c-1-0.2-2.1-0.5-3.2-0.8v-27.3l101.6-13.1C332.2,196.4,344.4,224.8,346.7,237.9z"/>
			<g>
				<path class="st4" d="M330.4,227c-0.2,0.9-4.3,17.6-7.9,28.3c-0.4,0.3-0.9,0.5-1.3,0.8c3.8-10.7,8.2-29.1,8.3-29.3L330.4,227z"/>
			</g>
			<g>
				<path class="st4" d="M252.7,244.5c0.6,2.8,1.3,5.7,2.1,8.5c0.5,1.7,1.1,3.4,1.8,5c-0.4-0.2-0.8-0.3-1.2-0.5h0
					c-0.6-1.4-1.1-2.8-1.6-4.2c-0.9-2.8-1.8-5.6-2.4-8.5c-0.7-2.9-1.3-5.8-1.7-8.7c-0.5-2.9-0.9-5.8-1.2-8.8l2-0.1
					c0.2,2.9,0.5,5.8,0.8,8.7"/>
			</g>
			<path class="st0" d="M338.1,206.8c0,0.2-0.1,0.4-0.1,0.5c-1.2,5-1.4,10.9-0.8,16.3c-11.1,4.3-20.1-1-30.4-7.1l-2-1.2
				c-10.4-6.1-22.4-1.3-37.6,4.8c-3.5,1.4-7.1,2.8-10.9,4.3c-10.2,3.8-16,3-19,1.7c-0.2-0.1-0.3-0.2-0.5-0.2
				c0.2-4-0.4-11.2-1.1-18.1c-0.9-8.8-1.9-17-1.9-17s4.1-11.7,18.2-11.6c14.1,0.2,24.5,10.9,37.3,10.2c12.8-0.7,25.5-11.4,33.9-11.8
				c8.3-0.3,15.8,4.1,15.8,4.1S340.5,196.3,338.1,206.8z"/>
			<path class="st3" d="M338.1,206.8c-3.4-2.5-6.8-5.6-8.1-7.5c-2.7-3.9-36.3-6.5-65.4-1.9c-16.3,2.6-24.7,7.1-28.9,10.5
				c-0.9-8.8-1.9-17-1.9-17s4.1-11.7,18.2-11.6c14.1,0.2,24.5,10.9,37.3,10.2c12.8-0.7,25.5-11.4,33.9-11.8
				c8.3-0.3,15.8,4.1,15.8,4.1S340.5,196.3,338.1,206.8z"/>
			<path class="st3" d="M203.8,388.8c-9,7.7-16.9,1.8-22.1-3.7c-0.3-0.4-0.7-0.7-1-1.1c0-0.1-0.1-0.1-0.1-0.2c-0.5-0.6-1-1.3-1.5-2
				c-0.2-0.3-0.4-0.6-0.6-1c-0.2-0.3-0.4-0.7-0.7-1c-1.7-2.7-3.3-5.8-4.8-8.8c-2.4-4.9-4.1-9.1-4.1-9.1c-0.5-5,33.1-18,40.1-6.9
				C215.9,366.2,213.5,380.5,203.8,388.8z"/>
			<path class="st6" d="M203.8,388.8c-9,7.7-16.9,1.8-22.1-3.7c9.6-2.6,18.8-7.4,20.3-13.4c-12.8,4.3-22.6,2.3-29.1-0.6
				c-2.4-4.9-4.1-9.1-4.1-9.1c-0.5-5,33.1-18,40.1-6.9C215.9,366.2,213.5,380.5,203.8,388.8z"/>
			<path class="st3" d="M206.6,349.5c0,0,2.2,6.9,1,9.5c-0.7,1.6-5.1,5.8-10.6,9.1c-4.2,2.2-8.4,3.9-11.6,4.1
				c-9.6,0.6-11.9-7.9-11.9-7.9s-7.4-0.1-9.9-2.2c-0.5-0.4-0.8-0.8-1.1-1.2c-1-1.5-1.2-3.4-0.9-5.2c0.4-2.5,1.7-5,2.6-6.6
				c0.6-1.1,1.1-1.8,1.1-1.8c-3.9,0.3-8.9-3.3-11.2-7.3c-0.3-0.6-0.6-1.2-0.8-1.8c-0.2-0.6-0.4-1.3-0.4-1.9c-0.3-3.2,1-7.2,2.1-9.8
				c0.4-0.8,0.7-1.6,0.9-2.1c0.3-0.5,0.4-0.9,0.4-0.9s-0.3-0.9-0.8-2.2c-0.7-1.8-1.7-4.4-2.5-6.4c-0.3-0.7-0.2-1.7,0.2-2.9
				c0.2-0.5,0.3-1,0.5-1.6c0.1-0.3,0.3-0.7,0.4-1.1c2-4.8,5.8-11.5,6.8-17c1.4-8.3-7.4-20.9-11.6-27.2c-4.2-6.3,0-17.7,15.5-13.7
				c15.5,4.1,12.3,21.7,11.4,25.9c-0.7,3.4-2.9,8.7,2.9,11.8c1.3,0.7,3,1.3,5.2,1.7c0.5,0.1,1.1,0.2,1.6,0.4
				c7.1,1.6,10.9,4.2,12.7,7.8c0.1,0.2,0.2,0.3,0.2,0.5c0.7,1.5,1,3.1,1.1,4.9c0,0.4,0,0.7,0,1.1c3.1,0.7,5.4,2.1,7,3.8
				c4.1,4.5,3.4,11.7,0.5,16.8c0.1,0.2,0.2,0.3,0.3,0.5C213.5,334.8,206.6,349.5,206.6,349.5z"/>
			<path class="st14" d="M361.9,499.8c-6.5,2.4-8.4-4.9-8.4-4.9s-4.5,1.7-6.9-1.8c-2.3-3.3,0.2-5.1,0.4-5.2c-0.4,0.1-6.4,1-6.6-2.7
				c0-0.3,0-0.7,0.2-1.1c0.5-1.8,2.2-4.2,4-6.6c2.8-3.5,5.9-6.8,6.1-7c-0.4,0.1-8.1,2.6-11.9,1.2c-1.3-0.5-2.1-1.4-2.1-3
				c0-4.4,5.3-9.7,11.1-13.8c2.8-2,5.7-3.7,8.1-4.9c0,0-1.6-1.5-2.2-3.7c-0.3-1.2-0.3-2.6,0.5-4c1.2-2.1,3-2.6,4.9-2.4
				C360.6,471.4,361.9,499.8,361.9,499.8z"/>
			<path class="st2" d="M359.9,230.9c-2.3,3.2-15.5,7.4-18.9,7.1c-1.6-2.6-2.9-7.2-3.6-12.4c-0.1-0.7-0.2-1.4-0.2-2.1
				c-0.5-5.4-0.4-11.4,0.8-16.3c0-0.2,0.1-0.3,0.1-0.5c2.4-10.4,0.9-24.9,0.9-24.9s-7.5-4.4-15.8-4.1c-8.3,0.4-21.1,11.1-33.9,11.8
				c-12.8,0.7-23.1-10-37.3-10.2c-14.1-0.2-18.2,11.6-18.2,11.6s1.1,8.2,1.9,17c0.7,6.9,1.3,14.2,1.1,18.1v0.1c0,0.7-0.1,1.4-0.1,2
				c-0.7,7.2-2.9,8.7-2.9,8.7c-8.3-1.7-19.1-6.6-20.6-9.5c-1-1.8-2.4-8.6-3-17c-0.3-4.4-0.4-9.3-0.1-14.1c0-0.4,0-0.7,0.1-1
				c1.4-1.8,2.8-3.2,3.7-3.9c0.4-0.4,0.7-0.5,0.7-0.5s-1.4-14.4,5.3-30.5c0.3-0.8,0.6-1.5,1-2.3c6.9-15.1,21.3-31,50.7-37.8
				c42.1-9.6,64,8.6,75.2,33c0.3,0.6,0.6,1.2,0.8,1.9c1,2.2,1.8,4.5,2.6,6.8c1.7,4.9,3.1,9.9,4.1,15c1,4.7,1.7,9.3,2.3,13.9
				c1.7,1,3,1.8,4,2.4c0.5,0.3,1,0.6,1.3,0.9c1.2,0.8,2,2.2,2.1,3.6c0.1,1.5,0.2,3.8,0.3,6.5C364.3,212.1,363.7,223.6,359.9,230.9z"
				/>
			<path class="st2" d="M337.4,225.7c-11.7,4.3-21-1.2-31.6-7.4l-2-1.2c-9.5-5.6-21.1-0.9-35.8,5c-3.5,1.4-7.1,2.8-11,4.3
				c-5.3,1.9-9.9,2.9-13.7,2.9c-2.5,0-4.7-0.4-6.5-1.2c0.1-0.6,0.1-1.3,0.1-2V226c0.2,0.1,0.3,0.2,0.5,0.2c3,1.3,8.7,2.1,19-1.7
				c3.8-1.4,7.4-2.9,10.9-4.3c15.2-6.1,27.2-10.9,37.6-4.8l2,1.2c10.3,6.1,19.3,11.4,30.4,7.1C337.2,224.3,337.3,225,337.4,225.7z"
				/>
			<ellipse class="st8" cx="269.4" cy="199.3" rx="4.7" ry="10.9"/>
			<circle class="st0" cx="270.6" cy="195.2" r="1.5"/>
			<ellipse class="st8" cx="311.7" cy="199.3" rx="4.7" ry="10.9"/>
			<circle class="st0" cx="313.4" cy="193.7" r="1.5"/>
			<path class="st0" d="M271,262c0.7,0.1,1.5,0.2,2.3,0.2C273,262.2,272.2,262.1,271,262z"/>
			<path class="st4" d="M308.1,269.7c-11.7,2.9-23-3.6-26.4-4c-1.8-0.3-5.1-0.3-8-0.2l-0.4-3.3c23.3,2.7,33.4-0.9,33.4-0.9
				s-0.8,5.9,0.3,7.4C307.1,268.9,307.5,269.2,308.1,269.7z"/>
			<path class="st3" d="M404,441.4c-0.4,0.5-0.8,1-1.1,1.5c-0.3,0.3-0.5,0.7-0.8,1c-12.9,17.4-15.4,20.4-19.7,34.2
				c-4.5,14.4-14,19.3-20.5,21.7c-6.5,2.4-8.4-4.9-8.4-4.9s-4.5,1.7-6.9-1.8c-2.3-3.3,0.2-5.1,0.4-5.2c-0.4,0.1-6.4,1-6.6-2.7
				c0-0.3,0-0.7,0.2-1.1c0.5-1.8,2.2-4.2,4-6.6c0.4-0.5,0.8-1,1.2-1.5c2.4-2.9,4.8-5.3,5-5.5c-0.4,0.1-8.1,2.6-11.9,1.2
				c-1-0.3-1.7-1-2-1.9c-0.1-0.3-0.1-0.7-0.1-1.1c0-4.4,5.3-9.7,11.1-13.8c2.8-2,5.7-3.7,8.1-4.9c0,0-1.6-1.5-2.2-3.7
				c-0.3-1.2-0.3-2.6,0.5-4c1.2-2.1,3-2.6,4.9-2.4c1.7,0.2,3.5,1.1,5,2.1c3.1,2.2,9.3,4,9.3,4s1.1-3.9,2.4-12.3
				c0.1-0.4,0.1-0.8,0.2-1.2c0.3-2.1,0.6-4.5,0.9-7.1c1.7-14,4.5-21.8,4.5-21.8s-0.1-0.2-0.4-0.5c-0.1-0.1-0.2-0.3-0.3-0.4
				c-0.2-0.3-0.5-0.7-0.8-1.1c-0.1-0.1-0.2-0.2-0.3-0.3c-0.8-1.1-2-2.7-3.3-4.4c-0.2-0.3-0.4-0.6-0.6-0.9c-2.1-2.8-4.7-6.3-7.4-9.9
				c-0.3-0.5-0.7-0.9-1-1.4c-3.3-4.4-6.6-8.9-9.6-13c-0.4-0.5-0.8-1.1-1.2-1.6c-0.2-0.2-0.3-0.4-0.4-0.6c-0.3-6.9-0.5-11.4-0.5-12.2
				c0-4.1-1.6-55.3-6-73.2v0c0.1,0,0.1,0.1,0.2,0.1c1,0.5,2,1.1,3,1.7c3.2,2,6.3,4.8,9.1,8.5c1.1,1.4,2.3,3.2,3.7,5.1
				c10,14.4,26.8,41,37.7,62.8c3.6,7.2,6.6,13.8,8.5,19.4c0.7,2.1,1.3,4.1,1.7,5.8C418.5,410,418.5,421.8,404,441.4z"/>
			<g>
				<g>
					<path class="st4" d="M328.8,290.5c-0.1,3.2-0.2,6.7-0.4,10.1l-1.6-3c0,0-7.8-0.5-16.2-1.4c-8.3-0.8-13.4,3.2-19.9,2.2
						c-6.4-1-20-1.2-30.4,0.5c1.7,11.7,7.7,22.4,13.2,30c-0.4-0.1-0.8-0.2-1.2-0.3c-16.3-3.7-14.5-18.7-16.2-33.2
						c-0.3-2.5-0.4-4.9-0.4-7c8.1,0.4,24.3,1.4,20.1-4.8c-3.1-4.6-6.1-9.9-8.1-13.6c1.9-1.1,3.9-2.5,5.8-4.3l-0.1-0.5l-0.2-1.5
						c9.7-0.2,24.8,1.9,24.8,1.9s4.1-0.1,8.1,0.2c0,1.1,0.2,2.1,0.5,2.6c0.1,0.2,0.6,0.5,1.2,1c1.1,0.7,2.7,1.6,4.6,2.7
						c-2.6,6.3-8,18-4.6,18.1C310.9,290.6,321.7,290.5,328.8,290.5z"/>
					<path class="st4" d="M396,395.5c-10.2,4-14.6,8.2-14.6,8.2s-0.1-0.2-0.4-0.5c-0.1-0.1-0.2-0.3-0.3-0.4
						c-0.2-0.3-0.5-0.7-0.8-1.1c-0.1-0.1-0.2-0.2-0.3-0.3c-0.8-1.1-2-2.7-3.3-4.4c-0.2-0.3-0.4-0.6-0.6-0.9
						c-2.1-2.8-4.7-6.3-7.4-9.9c-0.3-0.5-0.7-0.9-1-1.4c-3.3-4.4-6.6-8.9-9.6-13c-0.4-0.5-0.8-1.1-1.2-1.6c-0.2-0.2-0.3-0.4-0.4-0.6
						c-0.3-6.9-0.5-11.4-0.5-12.2c0-4.1-1.6-55.3-6-73.2c0.1,0,0.1,0.1,0.2,0.1c1,0.5,2,1.1,3,1.7c2.6,24.5,7.6,70.3,9.2,78.9
						c2.1,11.9,18.1,31.3,18.1,31.3S392,393.1,396,395.5z"/>
					<path class="st4" d="M404,441.4c-14.5,19.7-17.1,22.3-21.6,36.7c-4.5,14.4-14,19.3-20.5,21.7c-6.5,2.4-8.4-4.9-8.4-4.9
						s-4.5,1.7-6.9-1.8c-2.3-3.3,0.2-5.1,0.4-5.2c-0.4,0.1-6.4,1-6.6-2.7c0-0.3,0-0.7,0.2-1.1c3,0.4,8.1,0.7,14.4-0.6
						c10.4-2.2,18.9-14.7,20.9-23.4c2-8.7,16.8-20.7,27.3-44.4c3.4-7.8,3.7-20.6,2.5-34.4c-0.6-6.3-1.4-12.8-2.5-19
						c0.5,0.9,0.9,1.8,1.3,2.7s0.9,1.8,1.3,2.6c0,0.1,0.1,0.1,0.1,0.2c0.4,0.8,0.7,1.6,1.1,2.4c0.4,0.8,0.8,1.7,1.1,2.5
						c0.7,1.6,1.4,3.2,2,4.7c0.1,0.4,0.3,0.8,0.4,1.1c0.3,0.8,0.6,1.5,0.8,2.2c0.1,0.4,0.3,0.7,0.4,1.1c0.7,2.1,1.3,4.1,1.7,5.8
						C418.5,410,418.5,421.8,404,441.4z"/>
					<path class="st4" d="M347.8,454.9c2.8-2,5.7-3.7,8.1-4.9c0,0-1.6-1.5-2.2-3.7c6.4-1.2,15.3-1.2,11.3,1.2
						C362.8,448.9,355.2,451.8,347.8,454.9z"/>
				</g>
			</g>
			<path class="st4" d="M345.8,476.1c2.4-2.9,4.8-5.3,5-5.5c-0.4,0.1-8.1,2.6-11.9,1.2c-1-0.3-1.7-1-2-1.9c4.9-0.5,14.2-2,20.1-6.2
				C365,457.9,369.7,469.4,345.8,476.1z"/>
			<path class="st8" d="M310.4,228.5c0,0,0.2,2.5-0.2,5.8c-0.8,6.1-3.6,15-13.6,16.7c-13.8,2.4-21.7-0.7-24.8-16
				c-0.4-1.9-0.7-3.9-0.9-6.1c-1.2-1.7-1.2-1.7-1.2-1.7s1.2,0.1,3.3,0.3c6,0.4,19.8,1.1,36-0.4c0.9-0.1,1.8-0.2,2.6-0.3L310.4,228.5
				z"/>
			<path class="st15" d="M310.2,234.3c-0.8,6.1-3.6,15-13.6,16.7c-13.8,2.4-21.7-0.7-24.8-16c1.3-0.8,3.3-1.7,6.2-2.4
				c1.8-0.5,4-0.9,6.6-1.2c9-1.1,15.3-1.2,20,0.1C306.8,232.2,308.6,233.1,310.2,234.3z"/>
			<path class="st0" d="M309.1,227.2c-1.1,1.7-2.6,3.2-4.4,4.4c-5.8,3.9-14.5,5-21.6,3.1c-2-0.5-3.7-1.3-5-2.1
				c-2.7-1.6-4.2-3.5-5-5.1C279.1,228,292.9,228.7,309.1,227.2z"/>
			<path class="st5" d="M359.9,230.9c-2.3,3.2-15.5,7.4-18.9,7.1c-1.6-2.6-2.9-7.2-3.6-12.4c-0.1-0.7-0.2-1.4-0.2-2.1
				c-0.5-5.4-0.4-11.4,0.8-16.3c0-0.2,0.1-0.3,0.1-0.5c2.4-10.4,0.9-24.9,0.9-24.9s-7.5-4.4-15.8-4.1c-8.3,0.4-21.1,11.1-33.9,11.8
				c-12.8,0.7-23.1-10-37.3-10.2c-14.1-0.2-18.2,11.6-18.2,11.6s1.1,8.2,1.9,17c0.7,6.9,1.3,14.2,1.1,18.1v0.1c0,0.7-0.1,1.4-0.1,2
				c-0.7,7.2-2.9,8.7-2.9,8.7c-8.3-1.7-19.1-6.6-20.6-9.5c-1-1.8-2.4-8.6-3-17c0.6-1.7,1.4-4,2.3-6.8c2.1-7.1,4.8-6.6,5.4-2.9
				c0.6,3.7,0.7,6,0.7,6s0.6,2.4,6,2.2c5.5-0.2,9.6,0.3,9.6,0.3s-2.3-15.7-4.9-20.1c-1.8-3.1-12.8,3.2-19.3,7.3c0-0.4,0-0.7,0.1-1
				c1.4-1.8,2.8-3.2,3.7-3.9l30.5-16.7c0,0-6.8-10.9-7.7-11.2c-0.6-0.3-11.5-2.1-17-3.1c0.3-0.8,0.6-1.5,1-2.3
				c5.6,1.3,17.8,4.1,19.9,4.6c2.7,0.7,6.8,8.9,21.6,10.2c14.8,1.4,25.1,3.1,41-0.3c15.9-3.4,21.2-2,21.2-2s8.5-12.3,13-14.8
				c2.4-1.3,6.2-2,9.2-2.4c0.3,0.6,0.6,1.2,0.8,1.9c-4.2,1.1-9.7,2.6-10,3.2c-0.6,1-5.7,12.8-5.7,12.8s14.4,2.8,22.5,5.7
				c1,4.7,1.7,9.3,2.3,13.9c0,0-8-5.6-9.8-5.2c-1.8,0.4-5.6,18.8-5.7,21.1c-0.1,2.3,1.9,4.3,8.5,3.2c6.6-1.2,8-1.9,8-1.9
				s-1.9-17.6,6.7-3.7C364.3,212.1,363.7,223.6,359.9,230.9z"/>
			<path class="st16" d="M159.3,305.4c-2.1,1.9-4,3.7-5.6,5.2c0.1-0.3,0.3-0.7,0.4-1.1C155.7,308.1,157.4,306.7,159.3,305.4z"/>
			<path class="st4" d="M185.9,291.4c-7,2.8-17.8,7.6-26.6,14c5.3-4.8,12.3-10.8,19.8-16.1c1.3,0.7,3,1.3,5.2,1.7
				C184.8,291.2,185.3,291.3,185.9,291.4z"/>
			<path class="st4" d="M206.6,349.5c0,0,2.2,6.9,1,9.5c-0.7,1.6-5.1,5.8-10.6,9.1c-3.6,2.1-7.8,3.9-11.6,4.1
				c-9.6,0.6-11.9-7.9-11.9-7.9s-7.4-0.1-9.9-2.2c-0.5-0.4-0.8-0.8-1.1-1.2c-1-1.5-1.2-3.4-0.9-5.2c2.7,0.5,10.4,1.7,18.8-0.2
				c10.4-2.4,22.5-13.3,24-16.8c1.5-3.6-4.6-5.3-4.6-5.3s-21.5,9.3-34.4,14c-3.9,0.3-8.9-3.3-11.2-7.3c3.5,0,10.1-0.4,19.6-2.3
				c15-2.9,28.2-15,30.9-25.2c0,0-1.3-4.1-5.2-3.5c-4.6,3.5-30.6,16.9-43.5,15.4c0.3-0.5,0.4-0.9,0.4-0.9s-0.3-0.9-0.8-2.2
				c6.7-3.2,24.9-8,32.7-12.4c4.8-2.7,8.2-6.2,10.6-9.3c0.7,1.5,1,3.1,1.1,4.9c0,0.4,0,0.7,0,1.1c3.1,0.7,5.4,2.1,7,3.8
				c4.1,4.5,3.4,11.7,0.5,16.8c0.1,0.2,0.2,0.3,0.3,0.5C213.5,334.8,206.6,349.5,206.6,349.5z"/>
			<path class="st2" d="M265.8,623.2c-1.9,2.7-3.6,12.4-5.6,11.1c-0.9,16.5-13.6,83.9-13.1,89.3c0.5,5.4,21.3,53.5-0.7,53.5
				c-21.8,0-43.1,3-43.4-8.2c0-0.1,0-0.1,0-0.2c0-11.5,8.2-35.2,8.9-47.5c0.8-12.3,0-87.3,0-87.3c0,0-0.1,0-0.1,0
				c-0.4-0.1-1.8-0.4-2.2-2.4c-0.2-1-0.2-2.4,0.5-4.5c-0.1-2.3-4.3-7.1,0-10.1c0,0,0,0,0,0c0,0,7.9-1.7,29.2-1.9
				C260.7,614.9,269.2,613.9,265.8,623.2z"/>
			<path class="st2" d="M365.9,774.6c-9.2,1.5-49.3,2-51.1,0c-0.4-0.5-0.3-2.9,0-6.4c1.3-12.2,5.9-38,5.1-42.4
				c-0.9-5.2-11.8-79.7-12.5-92.4c-0.1-1,0-1.6,0-1.8c0.3-0.7-0.1-1.3-0.7-2c-1.6-1.7-4.9-3.9-3.7-9c0.1-0.3,0.1-0.6,0.2-0.9
				c0,0,4.6-4.7,27.3-5.6c22.7-0.9,30-1.2,29.1,2.8c-0.9,4,0.5,13.4-3.7,13.8c-0.9,6.1,3.7,81.1,3.8,89.8
				C359.8,729.2,375.1,773.1,365.9,774.6z"/>
			<path class="st5" d="M265.8,623.2c-1.9,2.7-3.6,12.4-5.6,11.1c-0.9,16.5-13.6,83.9-13.1,89.3c0.5,5.4,21.3,53.5-0.7,53.5
				c-21.8,0-43.1,3-43.4-8.2c17,0.6,39.1-1.5,37.8-9.9c-1.8-11-9.2-28.6-11.5-36c-2.3-7.4,6.6-11.7,6.9-16.8
				c0.3-5.1,5.5-65.6,4.2-67.7c-1.3-2-19.2-3.6-28.5-4.6c0,0-0.1,0-0.1,0c-0.4-0.1-1.8-0.4-2.2-2.4c4,0.4,13.3,0.1,37.3,1.4
				c-0.3-13.7-13.7-14.4-13.7-14.4l-23.1-1.5c0,0,0,0,0,0c0,0,7.9-1.7,29.2-1.9C260.7,614.9,269.2,613.9,265.8,623.2z"/>
			<path class="st5" d="M365.9,774.6c-9.2,1.5-49.3,2-51.1,0c-0.4-0.5-0.3-2.9,0-6.4c6.4-0.1,15.6-0.3,23.8-0.7
				c14.6-0.7,12.3-3.6,10-19.4c-2.2-15.8-10.4-26.7-11.6-32.7c-1.2-6-4.3-73.2-5-74.7c-0.8-1.5-3.2-6.8-18-6.8
				c-2.3,0-4.6-0.2-6.7-0.5c-0.1-1,0-1.6,0-1.8c0.3-0.7-0.1-1.3-0.7-2c11.5,0.7,21.9-2.2,21.9-2.2s-1.1-7.3-9.1-8.4
				c-5.3-0.8-12.5,0.6-16.6,1.7c0.1-0.3,0.1-0.6,0.2-0.9c0,0,4.6-4.7,27.3-5.6c22.7-0.9,30-1.2,29.1,2.8c-0.9,4,0.5,13.4-3.7,13.8
				c-0.9,6.1,3.7,81.1,3.8,89.8C359.8,729.2,375.1,773.1,365.9,774.6z"/>
			<path class="st5" d="M227.5,454.9l-10.3,11.5c0.1-0.4,0.1-0.8,0.1-1.1c1-11.2-0.3-33.2,3.9-55.8c0.1-0.7,0.3-1.5,0.4-2.2
				L227.5,454.9z"/>
			<path class="st5" d="M361.9,499.8c0,0-1.3,6.3-7.4,7.3c-10.8,2.3-35.1,3.3-61,3.3c14.8-9.7,32.3-21.8,35.3-26.1
				c5.4-7.7-8-13.3,0-24c8-10.7,13.1-44.2,14.6-113.9c1.1-51.1,0.6-66,0.2-70.3c1.3,0.5,2.5,1.3,3.5,2.2c0.9,0.8,1.6,2.8,2.4,5.7
				c4.3,17.9,6,69.2,6,73.3c0,0.8,0.2,5.3,0.5,12.2c0.7,15.7,2,44.1,3.2,70.4c-1.9-0.2-3.7,0.3-4.9,2.4c-0.8,1.4-0.8,2.8-0.5,4
				c0.6,2.1,2.2,3.7,2.2,3.7c-2.5,1.2-5.4,2.9-8.1,4.9c-5.8,4.1-11.1,9.4-11.1,13.8c0,1.6,0.8,2.5,2.1,3c3.8,1.4,11.5-1.1,11.9-1.2
				c-0.2,0.2-3.4,3.5-6.1,7c-1.8,2.4-3.5,4.8-4,6.6c-0.1,0.4-0.2,0.8-0.2,1.1c0.2,3.7,6.2,2.8,6.6,2.7c-0.2,0.1-2.7,1.9-0.4,5.2
				c2.4,3.4,6.9,1.8,6.9,1.8S355.4,502.2,361.9,499.8z"/>
			
				<ellipse transform="matrix(0.9778 -0.2097 0.2097 0.9778 -22.2299 57.6045)" class="st9" cx="260.5" cy="133.6" rx="13.8" ry="4.9"/>
			<path class="st9" d="M405.6,381.3l-17-1.1c0,0-23.7-32.7-24.5-36.3c-0.5-2.5,0.6-28.9,1.3-44.4c10,14.4,26.8,41,37.7,62.8
				C404.2,368.6,405.1,375,405.6,381.3z"/>
			<path class="st5" d="M411.7,381.7l-6-0.4c-0.6-6.3-1.4-12.8-2.5-19c0.5,0.9,0.9,1.8,1.3,2.7s0.9,1.8,1.3,2.6
				c0,0.1,0.1,0.1,0.1,0.2c0.4,0.8,0.7,1.6,1.1,2.4c0.4,0.8,0.8,1.7,1.1,2.5c0.7,1.6,1.4,3.2,2,4.7c0.1,0.4,0.3,0.8,0.4,1.1
				c0.3,0.8,0.6,1.5,0.8,2.2C411.4,381,411.6,381.4,411.7,381.7z"/>
			<path class="st2" d="M217.2,292.4v25.5l-3.9,4.1c-0.1-0.4-0.3-0.8-0.4-1.3c-2.6-9.1-4.6-15.3-6-19.5
				C210.1,298.2,213.6,295.2,217.2,292.4z"/>
			<g>
				<path class="st2" d="M292.1,299.5c-0.8,0-1.6-0.2-2.4-0.7c-3.4-2.3-11.5-7.7-15.9-8.2c-4.3-0.5-22.1,2.9-22.3,2.9l-0.2-1
					c0.7-0.1,18.1-3.4,22.6-2.9c4.7,0.5,12.5,5.8,16.3,8.4c2.8,1.9,7-1.6,10.1-4.2c0.8-0.7,1.5-1.3,2.1-1.7c3-2.2,26.3-0.9,28.9-0.8
					l-0.1,1c-10.2-0.6-26.2-0.9-28.3,0.6c-0.6,0.4-1.3,1-2.1,1.7C298.4,296.7,295.1,299.5,292.1,299.5z"/>
			</g>
			<g>
				<path class="st2" d="M309.7,270.6c-4.7,11.3-15.8,23.5-15.9,23.7l-0.3,0.4l-0.4-0.3c-0.1-0.1-10.5-8.2-14.5-12.4
					c-3.5-3.5-6.1-11.4-6.9-14.2c-0.2-0.5-0.3-0.9-0.3-1l1-0.3c0,0,0.1,0.2,0.2,0.6c0.7,2.3,3.4,10.6,6.8,14.2
					c3.6,3.7,12.2,10.6,14.1,12c1.8-2.1,11.3-13,15.5-23.2C309.1,270.3,309.4,270.5,309.7,270.6z"/>
			</g>
			<g>
				<path class="st2" d="M402.8,443c-0.3,0.3-0.5,0.7-0.8,1c-0.7-2.3-1.5-4.6-2.2-6.7c-0.1-0.3-0.2-0.7-0.3-1
					c-1.9-5.4-3.5-9.4-4.2-9.9c-1.1,0.2-6.6,2.3-12.2,4.5c-0.3,0.1-0.7,0.3-1,0.4c-2.2,0.9-4.5,1.7-6.4,2.5c0.1-0.4,0.1-0.8,0.2-1.2
					c6.6-2.6,18-7,19.4-7.2C396.6,425.2,399.1,431.1,402.8,443z"/>
			</g>
			<g>
				<path class="st2" d="M399.6,436.3l-8.4,3.7l-8-9.1c5.6-2.2,11.1-4.2,12.2-4.5C396.1,426.9,397.7,430.9,399.6,436.3z"/>
				<polygon class="st2" points="400.4,437 399.9,437.2 390.9,441.1 382.2,431.2 381.9,431 382.7,430.3 383.2,430.8 391.2,439.9 
					399.6,436.3 400,436.1 				"/>
			</g>
			<g>
				<path class="st2" d="M209.7,365.1c-8.9,13.8-22.9,16.4-30.7,16.8c-0.2-0.3-0.4-0.6-0.6-1c7.4-0.2,21.6-2.5,30.5-16.3
					L209.7,365.1z"/>
			</g>
			<path class="st2" d="M180.7,384c0-0.1-0.1-0.1-0.1-0.2c-0.5-0.6-1-1.3-1.5-2c-0.2-0.3-0.4-0.6-0.6-1c-0.2-0.3-0.4-0.7-0.7-1
				l2.7,1.4L180.7,384z"/>
		</g>
		<g>
			<g>
				<path class="st0" d="M282.4,374.3c1.4,0,2.7,0.3,3.9,0.8c0.6,0.2,0.9,0.9,0.7,1.6c-0.2,0.6-0.9,0.9-1.5,0.8
					c-0.7-0.2-1.4-0.4-2.1-0.5c-0.6-0.1-1.3-0.1-1.9-0.1c-0.9,0.1-1.8,0.4-2.6,0.8c-2.1,1.1-3.5,2.8-4,5.1c-0.6,2.3-0.1,4.4,1.3,6.3
					c1.2,1.6,2.8,2.7,4.8,3c0.9,0.2,1.2,0.8,1.1,1.5c-0.1,0.7-0.7,1.1-1.6,0.9c-1.4-0.3-2.7-0.8-3.8-1.6c-2.3-1.6-3.7-3.8-4.2-6.5
					c-0.1-0.7-0.2-1.3-0.2-2c0.1-2.4,0.8-4.5,2.3-6.4c0.9-1.1,2-2,3.3-2.6c1-0.5,2.1-0.9,3.3-1C281.5,374.4,282,374.3,282.4,374.3z"
					/>
				<path class="st0" d="M288.5,379.7c0-4.6,0-9.1,0-13.7c0-0.7,0.5-1.2,1.1-1.3c0.7-0.1,1.2,0.4,1.3,1.1c0,0.2,0.1,0.5,0.1,0.7
					c0,8.9,0,17.7,0,26.6c0,0.9-0.3,1.3-0.9,1.5c-0.8,0.3-1.6-0.3-1.6-1.2C288.5,388.9,288.5,384.3,288.5,379.7z"/>
				<path class="st0" d="M287.1,384.9c0,0.2,0,0.3,0,0.4c0,2.7,0,5.4,0,8c0,0.8-0.5,1.4-1.3,1.3c-0.7,0-1.3-0.6-1.3-1.3
					c0-1.8,0-3.6,0-5.4c0-0.1,0-0.3,0-0.4c-0.5,0-1-0.1-1.5-0.1c-0.6-0.1-1-0.6-1-1.2c0-0.6,0.4-1.2,1-1.2
					C284.4,384.8,285.7,384.9,287.1,384.9z"/>
			</g>
			<g>
				<path class="st0" d="M244.8,416.8c0-4.4,0-8.7,0-13c0,0,0.1-0.1,0.1-0.1c2.2,0,4.5-0.2,6.7,0.2c3.3,0.6,5.1,3.2,5.1,6.3
					c0,3.7-2.7,6.5-6.5,6.6C248.5,416.8,246.7,416.8,244.8,416.8z M247.2,405.6c0,3.1,0,6.1,0,9.3c1.4-0.2,2.8-0.2,4.1-0.5
					c1.9-0.4,2.7-1.9,2.9-3.6c0.2-1.8-0.3-3.3-1.8-4.4C250.8,405.4,249,405.6,247.2,405.6z"/>
				<path class="st0" d="M286.3,416.8c0-4.4,0-8.7,0-13.1c1.8,0,3.6,0,5.4,0c2.9,0,5.4,1.8,6.2,4.6c1.3,4.3-1.7,8.4-6.2,8.5
					C289.9,416.8,288.2,416.8,286.3,416.8z M288.6,414.9c1.3-0.1,2.5-0.1,3.7-0.3c2-0.3,3-1.8,3.4-3.6c0.4-1.7-0.5-3.6-1.9-4.6
					c-1.6-1.1-3.4-0.8-5.1-0.8C288.6,408.8,288.6,411.7,288.6,414.9z"/>
				<path class="st0" d="M275.1,411.3c-1.2,0-2.2,0-3.3,0c0-0.6,0-1.1,0-1.7c1.9,0,3.7,0,5.7,0c0,1.7,0,3.5,0,5.2
					c0,0.2-0.1,0.4-0.3,0.5c-3.1,2.4-7.9,2.5-10.5-0.4c-1-1.1-1.5-2.4-1.6-3.9c-0.2-2.7,0.7-4.9,3-6.4c2.6-1.8,6.4-1.5,8.9,0.7
					c-0.5,0.6-1,1.1-1.3,1.5c-1-0.4-1.9-0.9-2.9-1.1c-2-0.5-4.1,0.6-4.8,2.6c-1.2,2.9,0.2,6.1,3.5,6.8c1.3,0.3,2.5-0.2,3.5-0.9
					c0.2-0.1,0.3-0.4,0.3-0.6C275.1,412.8,275.1,412.1,275.1,411.3z"/>
				<path class="st0" d="M301.1,416.7c0-4.4,0-8.6,0-13c3.2,0,6.4,0,9.6,0c0,0.6,0,1.1,0,1.9c-2.4,0-4.8,0-7.2,0c0,1.2,0,2.3,0,3.5
					c2.2,0,4.3,0,6.5,0c0,0.7,0,1.3,0,2c-2.2,0-4.3,0-6.5,0c0,1.3,0,2.4,0,3.7c2.5,0,4.9,0,7.4,0c0,0.7,0,1.3,0,1.9
					C307.6,416.7,304.4,416.7,301.1,416.7z"/>
				<path class="st0" d="M312.7,414.9c0.5-0.5,1-1,1.3-1.4c1.3,0.5,2.4,1.2,3.7,1.5c0.7,0.2,1.6-0.1,2.3-0.5
					c0.4-0.2,0.8-0.9,0.7-1.3c-0.1-0.5-0.6-1.1-1-1.3c-1.3-0.5-2.6-0.9-3.9-1.3c-2.2-0.7-2.4-2-2.3-4c0.1-1.3,1.3-2.6,2.8-2.9
					c2.3-0.5,4.5-0.2,6.4,1.4c0,0.1,0,0.1-0.1,0.2c-0.4,0.5-0.7,1.2-1.2,1.3c-0.4,0.1-1-0.5-1.5-0.7c-1-0.4-2-0.8-3-0.3
					c-0.5,0.3-0.9,0.8-1.1,1.4c-0.2,0.7,0.3,1.1,0.9,1.4c1.3,0.5,2.6,0.9,3.9,1.3c1.9,0.6,2.7,1.9,2.6,3.7c-0.1,1.5-1.4,3-3,3.3
					C317.4,417.4,315,416.8,312.7,414.9z"/>
				<path class="st0" d="M259.6,403.7c0.8,0,1.5,0,2.2,0c0,4.4,0,8.7,0,13.1c-0.7,0-1.4,0-2.2,0
					C259.6,412.4,259.6,408.1,259.6,403.7z"/>
				<path class="st0" d="M282.7,416.8c-0.8,0-1.4,0-2.2,0c0-4.3,0-8.7,0-13c0.7,0,1.4,0,2.2,0C282.7,408.1,282.7,412.3,282.7,416.8z
					"/>
			</g>
		</g>
	</g>
</g>
</svg>
