<?xml version="1.0" encoding="utf-8"?>
<!-- Generator: Adobe Illustrator 24.2.3, SVG Export Plug-In . SVG Version: 6.00 Build 0)  -->
<svg version="1.1" xmlns="http://www.w3.org/2000/svg" xmlns:xlink="http://www.w3.org/1999/xlink" x="0px" y="0px"
	 viewBox="0 0 564.2 895.2" style="enable-background:new 0 0 564.2 895.2;" xml:space="preserve">
<style type="text/css">
	.st0{fill:#FFFFFF;}
	.st1{fill:#F0F0F0;}
	.st2{fill:#27B45F;}
	.st3{fill:#EAF8EF;}
	.st4{fill:#CEE6D6;}
	.st5{fill:#327A6D;}
	.st6{fill:#BED4C5;}
	.st7{fill:#B05856;}
	.st8{fill:#323D43;}
	.st9{fill:#31E378;}
	.st10{fill:#595959;}
	.st11{fill:#777777;}
	.st12{fill:#90A195;}
	.st13{fill:#BDBDBD;}
	.st14{fill:#51A1A0;}
	.st15{fill:#AE5952;}
	.st16{fill:#B4C9BB;}
</style>
<g id="Layer_2">
</g>
<g id="Layer_3">
</g>
<g id="Layer_4">
	<g>
		<path class="st0" d="M392.2,575.3c-4.2,4.4-9.3,9.1-15.6,14.2c-2.5,2-5.2,4.1-8,6.2c-30,22.2-41.9,36.4-49.9,47.6
			c-2.9,4.1-5.3,7.7-7.9,11.2c-9.6,13-15.9,25.8-21.7,15.2c-4.7-8.5,0.6-36.9,4.6-50.6c1-3.3,1.9-5.8,2.6-6.9
			c3.6-6,7.7,0.2,15.2-13.5c6.5-12,28.4-41.8,36-52.2c1.1-1.5,1.9-2.6,2.3-3.2c-9.6-0.7-35.9-26.3-44.1-27.9
			c-8.2-1.7-19.7-1.2-19.7-1.2s-10.6,60.3-10.6,62.8c0,0,0,0,0,0c0,2.4,3.1,2.4,2.4,4.8c-0.2,0.6-1.6,6.7-3.7,15.8
			c-6.4,28.1-19,84.2-19.7,90.4c-1,8.2,8.9,50.8,8.7,63.6c-0.2,12.8-9.9,40.9-22.4,16.4c-12.5-24.6-26.7-55.1-25.5-58.5
			c1.2-3.4,3.4-2.4,3.6-7.7c0.2-5.3,1-107.2,0.7-113.2c-0.2-5.9-5.3-7.4-1-9.5c0.1,0,0.2-0.1,0.3-0.1c-0.2-2.3-2.7-13.4-6-27.5
			c-0.8-3.6-1.7-7.4-2.6-11.3c-3.4-14.9-7-31.5-9.4-44.7c-1.6-8.8-2.6-16.1-2.5-20.4c1-0.6,2.6-1.3,4.7-2l0,0
			c15.3-5,56.7-10.8,90.5-15l0.1,0c0.1,0,0.1,0,0.2,0l0,0c27.1-3.4,49.2-5.7,49.2-5.7s-0.2,5.7,4.3,12.3c0.3,0.5,0.7,0.9,1,1.4
			c16.2,21.3,52.6,62.5,57.3,70.1C410.4,543.5,410.2,556.4,392.2,575.3z"/>
		<path class="st1" d="M347.3,464.4c-2.1-0.3-3.3-0.4-3.3-0.4s-68.9,13.1-101.6,29.5c-25.4,12.7-31.2,31.8-32.2,46.4
			c-5.7-24.9-12-54.4-11.9-65.1c14.7-9,144.7-22.7,144.7-22.7S342.9,457.8,347.3,464.4z"/>
		<path class="st2" d="M143.8,415.7l-7.2,5.1l-4.3-6.7l8.5-6.2C141.3,409.3,142.4,412.3,143.8,415.7z"/>
		<path class="st3" d="M452.5,134.3c-1.6-3.5-4.2-3.3-4.2-3.3s-1.9-5.4-4.8-6c-2.9-0.6-3.8,0.5-3.8,0.5s-0.3-5.2-3.8-5.7
			c-3.5-0.5-4.1-0.5-4.1-0.5s-2.8-4.1-9.6,0.5c-5.3,3.6-9.7,5.4-10.8,9.4c-0.3,1.1-0.4,2.4-0.1,3.9c1.2,6.9,1.8,7.5,1.8,7.5
			s-4.1,2.6-4.4,7c0,0.5,0,1,0.1,1.4c0.5,2.3,2.7,4.6,4.8,6.5c0,0,0.1,0,0.1,0.1c1.4,1.3,2.8,2.4,3.6,3.2c2.3,2.2,2.6,4.4,0.7,6.7
			c-0.6,0.7-6.1,6.9-13.5,15.1c-0.3,0.3-0.6,0.6-0.8,0.9c-15.4,17.1-38,42.3-42.1,47.6c-3.1,4-13.1,13-22.6,21.7
			c-0.3,0.3-0.7,0.6-1,0.9c-1.9,1.7-3.7,3.4-5.4,5c-0.3,0.2-0.5,0.5-0.8,0.7c-6.5,6-11.8,11-13,12.9l-6.1,2.6
			c-2.3-0.6-5.4-1-8.4-1.4c-2.8-0.4-5.5-0.7-7.3-1.2c-0.4-0.1-0.7-0.2-1-0.3c-0.6-0.2-1-0.5-1.1-0.7c-0.9-1.5,0.1-7.1,0.7-8.9
			c0.1-0.3,0.2-0.4,0.3-0.5c0.6-0.6,18.6-0.3,26.1-4.2c3.3-1.7,6.9-4.3,10.4-7.9c0.3-0.3,0.7-0.7,1-1c0.4-0.5,0.8-0.9,1.3-1.4
			c3.6-4.1,7-9.3,10-15.7c5.1-11,5-26.5,4.7-32.7c-0.1-1.7-0.2-2.7-0.2-2.7s-68.4-17.2-99,2.7c-1.2,0.8-2.4,1.7-3.6,2.6c0,0,0,0,0,0
			c-2.1,1.8-4,3.8-5.6,6.2c-2.9,4.2-4.7,9.3-5.2,15.4c0,0-1.4,8.5,1.4,12.7c1.2,1.8,5.9,5.1,10.8,8.2c0.2,0.1,0.5,0.3,0.7,0.5
			c0.2,0.1,0.3,0.2,0.5,0.3c0,0,0.1,0.1,0.1,0.1c5.3,3.3,10.6,6.3,11.6,6.9c0,0,0,0,0,0c0.1,0.1,0.2,0.1,0.2,0.1s0,0.4,0,1.1
			c-0.1,2.1-0.7,6.7-3.7,10.2c-0.3,0.3-0.6,0.7-0.9,0.9c-2,1.8-4.9,3.1-9.1,3.2c-0.5,0-1.1,0-1.7,0c-0.9,0-1.8,0-2.8,0.1
			c-0.6,0-1.3,0.1-2,0.1c-0.2,0-0.5,0-0.7,0.1c-2.9,0.2-6,0.6-9.4,1.2c-0.4,0.1-0.8,0.2-1.2,0.3c-2.3,0.5-4.7,1.1-7.2,1.9
			c-0.6,0.2-1.2,0.4-1.8,0.6c-2.7,1-5.5,2.2-8.3,3.7c-0.5,0.2-0.9,0.5-1.4,0.7c-0.5,0.3-0.9,0.5-1.4,0.8c-3.6,2.1-7.3,4.7-10.8,7.9
			c-6.5,5.7-12.7,13.4-18.4,23.6c-7.6,13.6-15.9,28.6-23.9,43.9c-10.5,19.9-20.5,40.3-27.8,58.6c-0.1,0.2-0.2,0.4-0.3,0.6
			c-1.1,2.8-2.2,5.6-3.2,8.3c-0.2,0.6-0.4,1.2-0.7,1.8c-1.4,4-2.7,8-3.8,11.7c-10.1,35.4-11,52.3-9.5,55.4c0.8,1.9,2,4.1,5.1,6
			c2.2,1.3,5.3,2.5,10,3.2c11.4,1.8,25.4-5.8,28.2-8.2c1.8-1.6,1.2-6,0.6-8.8c-0.3-1.4-0.7-2.4-0.7-2.4s0.4-4,0.7-7.8
			c0.2-2.8,0.3-5.5,0.1-6.5c-0.5-2.4-9.3-2.3-10.8-7.6c-1.6-5.3,1.1-18,4.8-23.1c0.2-0.2,0.3-0.5,0.6-0.8c0.2-0.3,0.4-0.7,0.7-1.1
			c7.1-11.2,35.5-59,39.6-63.6c2-2.2,4.9-5.1,7.5-7.5c0.3-0.3,0.6-0.5,0.8-0.8c2.7-2.5,4.8-4.4,4.8-4.4s-0.6,21.5-1.2,45.6
			c-0.8,29.1-1.9,61.9-2.5,64.9c-1.1,5.4-1.1,10.8-1.1,10.8s56.7,1.1,78.7,0c22-1.1,73.3-4,73.3-4s-13.2-99.8-16.6-133
			c-0.5-5.3-0.8-8.8-0.8-10.1c0.1-3.2,4.5-8.4,10.9-15.3c0.3-0.3,0.5-0.6,0.8-0.8c10.1-10.8,24.9-25.5,36.6-42.9
			c0.2-0.3,0.4-0.7,0.6-1c1.7-2.6,3.4-5.2,4.9-7.9c9.3-16.4,22.7-36.8,34.7-54.9c3.3-5,6.5-9.8,9.5-14.4v0c0.3-0.5,0.7-1,1-1.5
			c8-12.1,14.3-21.8,16.5-26.4C454.8,150.1,454.2,137.9,452.5,134.3z M136.6,420.8l-4.3-6.7l8.5-6.2c0.5,1.4,1.7,4.3,3,7.8
			L136.6,420.8z"/>
		<path class="st4" d="M344.6,229.8c-3.6,7.8-7.9,13.7-12.2,18.1c0.9-5.4,2.6-15.2,4-19.5c2.1-6.1-26.4-17.9-26.4-17.9
			s-34.1,12.1-44,14.6c-9.9,2.4-16.9,5.1-16.9,5.1s0.1,7.1,0.1,13.1c-5.3-3.4-10.8-7.1-12.1-9.1c-2.8-4.2-1.4-12.7-1.4-12.7
			c0.5-6.1,2.3-11.2,5.2-15.4c2.4-2.6,4.4-4.8,5.6-6.2c0,0,0,0,0,0c0.8-1,2.1-1.8,3.6-2.6c15.8-8.2,64.2-7.1,77.9-5.6
			c7.3,0.8,15.1,2.2,21.3,5.7C349.6,203.4,349.7,218.8,344.6,229.8z"/>
		<g>
			<g>
				<path class="st4" d="M269.1,253.5c-6.8-14.3-4.8-38.1-4.8-38.4l1.1,0.1c0,0.2-1.9,23.8,4.7,37.8L269.1,253.5z"/>
			</g>
		</g>
		<g>
			<g>
				<path class="st4" d="M249,243.1c-0.2-0.1-0.3-0.2-0.5-0.3c-0.2-0.2-0.5-0.3-0.7-0.5l-5.2-27l1-0.2L249,243.1z"/>
			</g>
		</g>
		<g>
			<g>
				<path class="st4" d="M336.9,217c0,0.9-0.7,16.2-2.3,28.5c-0.4,0.5-0.8,1-1.3,1.4c1.8-12.7,2.5-29.8,2.5-30L336.9,217z"/>
			</g>
		</g>
		<path class="st2" d="M358.7,202.9c0,7.9-1.2,23.2-11.7,26.4c-0.8,0.2-1.6,0.4-2.4,0.5l1.4-12.7c0,0-4.2,15.6-34-7.1
			c-25.5,5.7-65.1,21.2-65.1-4.2c-2.8,21.2-9.9,28.3-9.9,28.3s-25.5,0-25.5-17c0-10.2,0-17.9,1.5-23c0.7-2.4,1.8-4.2,3.3-5.5
			c0.6-0.5,1.4-0.9,2.2-1.3c0,0-0.1-0.9-0.2-2.5c-0.2-6.3,0.5-23.3,13.5-38.1c1.4-1.6,2.9-3.1,4.5-4.6c5.5-4.9,12.6-9.4,21.8-12.8
			c33.2-12.4,65.6-3.6,82.2,23.1c0.6,1,1.2,1.9,1.7,3c1.1,2,2.1,4.1,3.1,6.3c3.4,7.9,5.6,16.9,6.4,27c0,0,5.2,4.2,6.7,10.7
			C358.6,200.6,358.7,201.7,358.7,202.9z"/>
		<path class="st5" d="M358.3,199.5c-2.5-0.4-6.1-1-6.1,0.3c0,1.7-1.1,20.5-5.2,29.5c-0.8,0.2-1.6,0.4-2.4,0.5l1.4-12.7
			c0,0-4.2,15.6-34-7.1c-25.5,5.7-65.1,21.2-65.1-4.2c-2.8,21.2-9.9,28.3-9.9,28.3s-25.5,0-25.5-17c0-10.2,0-17.9,1.5-23
			c1.8-1.3,4.2-2.1,7.1-1.2c6.7,2.2,2.5,24,2.5,24s11.8,2,14.6-4c2.8-6,4-22.6,4.5-24.7c0.6-2.2-3.8-5.1-3.8-5.1s-16.1,5-21.6,5.5
			c0.6-0.5,1.4-0.9,2.2-1.3c0,0-0.1-0.9-0.2-2.5c8.2-1.2,20.8-3.2,21.8-4c1.4-1.3,5.4-9.3,17-11.7c11.6-2.4,11.6-2.4,11.6-2.4
			s-3.1-9.8-12.1-12.3c-6.3-1.8-18.2-5.6-24.8-7.7c1.4-1.6,2.9-3.1,4.5-4.6c8.8,2.3,25,6.6,28.4,8.8c4.7,3.1,11,15.7,11,15.7
			s13.1,2.9,23.3,6.9c10.3,4,33.4-2.5,33.4-2.5s5.9-15.2,7.9-18.6c0.6,1,1.2,1.9,1.7,3c-1.9,3.3-4.2,8-4.8,12.6
			c1.8-1,5.4-4.1,7.9-6.3c3.4,7.9,5.6,16.9,6.4,27C351.6,188.8,356.9,193,358.3,199.5z"/>
		<path class="st2" d="M249.8,206.5c0,0,0-0.5-0.1-1.4c0.1,0.2,0.1,0.4,0.1,0.7C249.8,206,249.8,206.3,249.8,206.5z"/>
		<path class="st2" d="M340.5,219c-1.2,0.6-2.6,0.7-4.1,0.4c0.4,0.1,0.8,0.1,1.2,0.1C338.8,219.5,339.7,219.3,340.5,219z"/>
		<path class="st2" d="M349.1,190.1c-0.2-0.3-0.3-0.7-0.3-1.1c-0.2-2.5-0.5-5-0.9-7.4C348.5,183.4,348.9,186.4,349.1,190.1z"/>
		<path class="st0" d="M348.9,199.8c-0.5,5.4-1.7,10.8-3.8,14.6c-0.8,1.4-1.8,2.6-2.9,3.6c0,0,0,0-0.1,0.1c-0.2,0.1-0.3,0.2-0.5,0.4
			c-0.2,0.1-0.3,0.2-0.5,0.3c0,0,0,0,0,0c-0.1,0-0.1,0.1-0.2,0.1c-0.1,0.1-0.3,0.1-0.4,0.2c-0.7,0.3-1.7,0.5-2.9,0.5
			c-0.4,0-0.8,0-1.2-0.1c0,0,0,0,0,0c-4.1-0.4-11.1-2.9-22.6-11.6c-0.5-0.4-1.1-0.6-1.7-0.6c-0.2,0-0.4,0-0.6,0.1
			c-4.3,1-9,2.2-13.9,3.5c-11.9,3.1-24.2,6.4-33.6,6.4c-4.7,0-8.3-0.8-10.5-2.5c-2.2-1.7-3.4-4.3-3.6-8v0c0-0.2,0-0.5,0-0.7
			c0-0.2,0-0.5-0.1-0.7c-0.1-1.6-0.3-4.6-0.5-8c-0.2-6.6-0.2-15,1.1-19.8c2.4-8.8,24.3-11.9,39.1-1.7c14.8,10.2,19.9,13.7,31.3,7.7
			c11.4-6,25-8.1,27.1-1.7c0,0,0,0,0,0c0.4,2.4,0.7,4.9,0.9,7.4c0,0.4,0.1,0.7,0.3,1.1C349.3,193.1,349.2,196.4,348.9,199.8z"/>
		<path class="st3" d="M348.9,199.8c-11.5-8.4-45.8-12.9-71.8-10.5c-13.7,1.3-22.6,4.8-27.9,7.8c-0.2-6.6-0.2-15,1.1-19.8
			c2.4-8.8,24.3-11.9,39.1-1.7c14.8,10.2,19.9,13.7,31.3,7.7c11.4-6,25-8.1,27.1-1.7c0,0,0,0,0,0c0.4,2.4,0.7,4.9,0.9,7.4
			c0,0.4,0.1,0.7,0.3,1.1C349.3,193.1,349.2,196.4,348.9,199.8z"/>
		<g>
			
				<ellipse transform="matrix(0.1352 -0.9908 0.9908 0.1352 51.8759 446.5205)" class="st5" cx="281.7" cy="193.5" rx="10.3" ry="4.3"/>
			<circle class="st3" cx="284" cy="190.2" r="1.3"/>
		</g>
		<g>
			
				<ellipse transform="matrix(0.1352 -0.9908 0.9908 0.1352 84.7607 491.009)" class="st5" cx="323.6" cy="197" rx="10.3" ry="4.3"/>
			<circle class="st3" cx="326" cy="193.6" r="1.3"/>
		</g>
		<path class="st4" d="M304.3,271.6c-0.8,3.7-3.6,7.7-11.4,8.1c-0.4,0-0.8,0-1.3,0h0c-2.7,0-6-0.4-9.9-1.3
			c-5.4-1.3-9.7-2.3-13.3-3.3c-1-0.3-2-0.5-2.8-0.7c-11.6-3.1-12-3.8-12-3.8s6.1,18.2,11.2,29.4c4.3,9.6-44.9,71.1-62.9,99.1
			c0.7-24.1,1.2-45.6,1.2-45.6s-8.7,7.7-13.1,12.6c-4.5,4.9-37.2,60.3-40.9,65.5c-3.7,5.2-6.4,17.8-4.8,23.1
			c1.6,5.3,10.3,5.2,10.8,7.6c0.2,1,0.1,3.7-0.1,6.5c-0.3,3.8-0.7,7.8-0.7,7.8s0.3,1,0.7,2.4c0.6,2.8,1.3,7.2-0.6,8.8
			c-2.8,2.4-16.7,10-28.2,8.2c-4.7-0.7-7.8-1.9-10-3.2c0.9-0.1,1.9-0.1,2.9,0c6,0.6,17.7-2.6,21.4-5.3c3.7-2.6,5.3-5.5-0.6-8.3
			c-5.9-2.8-5.2-7.6,2.8-8.1c8-0.5,12-7.8,3.6-10.7c-8.4-2.9-14.2-7.5-9-17.1c5.2-9.6,27.3-46,32.1-59.2
			c4.8-13.2,15.2-35.2,34.4-57.1c18.9-21.4,31.6-45.4,5.6-52.1c0.5-0.3,0.9-0.5,1.4-0.8c0.5-0.3,0.9-0.5,1.4-0.7
			c2.8-1.5,5.6-2.7,8.3-3.7c0.6-0.2,1.2-0.4,1.8-0.6c2.5-0.8,4.9-1.4,7.2-1.9c0.4-0.1,0.8-0.2,1.2-0.3c3.4-0.7,6.5-1,9.4-1.2
			c0.3,0,0.5,0,0.7-0.1c0.7,0,1.3-0.1,2-0.1c1,0,1.9-0.1,2.8-0.1c0.6,0,1.1,0,1.7,0c4.2-0.1,7.1-1.3,9.1-3.2
			c0.3-0.3,0.7-0.6,0.9-0.9c4-4.6,3.7-11.2,3.7-11.2s27.7,10.4,34.8,9.8c-0.6,0.6-2,7.7-1,9.4c0.2,0.3,0.6,0.5,1.1,0.7
			c0.3,0.1,0.6,0.2,1,0.3C298.8,270.9,301.5,271.2,304.3,271.6z"/>
		<path class="st2" d="M350.4,470.9c0,0-14.6,0.8-31.6,1.8c-14.8,0.8-31.4,1.7-41.7,2.2c-22,1.1-78.7,0-78.7,0s0-5.4,1.1-10.8
			c0.6-3,1.7-35.8,2.5-64.9c0.7-24.1,1.2-45.6,1.2-45.6c12.5,0,24.8-26.2,25.5-53.5c0.4-14.4-2.1-24.8-4.6-31.5
			c5.3-1.6,10.3-2.4,14.7-2.8c1.4-0.1,2.7-0.2,4-0.3c0.5,1.4,1,3,1.5,4.6c1.5,4.6,2.9,9.7,4.5,14.7c0.1,0.4,0.2,0.7,0.3,1.1
			c2.8,8.8,5.9,17,9.9,21c8.7,8.8,37.9,9.3,54.2,0c1.6-5.5,1.3-15.3,0.7-22.9c0-0.4-0.1-0.7-0.1-1.1c-0.5-5.8-1.1-10.1-1.1-10.1
			l6.1-2.6c11.4,11.3,14.3,57.6,14.3,57.6c-0.3,7,10.2,88.4,15,125.2C349.5,463.9,350.4,470.9,350.4,470.9z"/>
		<path class="st5" d="M318.8,472.7c-14.8,0.8-31.4,1.7-41.7,2.2c-22,1.1-78.7,0-78.7,0s0-5.4,1.1-10.8c0.6-3,1.7-35.8,2.5-64.9
			c0.7-24.1,1.2-45.6,1.2-45.6c12.5,0,24.8-26.2,25.5-53.5c0.4-14.4-2.1-24.8-4.6-31.5c5.3-1.6,10.3-2.4,14.7-2.8
			c3.3,28.2,7.6,70.5,7,93.2c-1,36.1-10.5,80.9-10.5,80.9s33.6,8.2,42.3,16.8C281.7,461.1,298.9,467.3,318.8,472.7z"/>
		<path class="st4" d="M443.7,152.2c-3,0.5-5.8,6-7.4,7.5c-1.6,1.5-16.7,1.3-22.6-4c0,0-0.1-0.1-0.1-0.1c-0.3-0.3-0.7-0.7-1-1.1
			c-1.3-1.5-2.6-3.4-3.7-5.4c-0.1-0.5-0.2-1-0.1-1.4c0.2-2.2,1.3-4,2.4-5.2c1-1.2,2-1.8,2-1.8s-0.4-0.3-1.1-3.7
			c-0.2-0.8-0.4-1.8-0.6-3c0-0.2-0.1-0.5-0.1-0.7c-0.3-1.5-0.2-2.8,0.1-3.9c0,0,5.2-2.7,8.8,0.7c3.6,3.5,11.2,2.1,12.5,4.9
			c1.3,2.9,9.7,4.6,10.3,6.4c0.6,1.8,5.5-4.9,7.8,0C453.4,146.1,446.7,151.7,443.7,152.2z"/>
		<path class="st6" d="M428.4,149.5c-2.9,0.9-8,0-8,0s6.8-0.5,8-1.4c1.2-1,1.8-5.8,1.8-5.8s-9.1-2-12.4-2c-1.7,0-4.4,1.1-6.6,2.1
			c1-1.2,2-1.8,2-1.8s-0.4-0.3-1.1-3.7c-0.2-0.8-0.4-1.8-0.6-3c3.5,2.5,20.6,5.1,20.9,8.4C432.8,145.6,431.3,148.6,428.4,149.5z"/>
		<path class="st2" d="M381.3,268.9c-11.6,17.4-26.5,32.1-36.6,42.9l-3.7-7.7l13-17.4l0.6-0.8l14.1-18.8L381.3,268.9z"/>
		<path class="st4" d="M421.6,205c-12,18.1-25.4,38.6-34.7,54.9c-1.5,2.7-3.2,5.3-4.9,7.9c-0.2,0.3-0.4,0.7-0.6,1h0l-12.5-1.8
			l-14.1,18.8l-0.6,0.8l-13,17.4l3.7,7.7v0c-0.3,0.3-0.5,0.6-0.8,0.8c-6.4,6.9-10.8,12.1-10.9,15.3c0,1.2,0.2,4.8,0.8,10.1l-5.9-46
			l12.5-6.4C358.7,263.1,396.9,227.4,421.6,205z"/>
		<path class="st6" d="M154.3,476.8c0,0,0.3,1,0.7,2.4c-1.4-1.5-2.6-3-2.6-3.4c0.1-0.8-6.1,2.1-6.9,1.8c-0.7-0.2,0.5-4.3,3.4-6.5
			c1.4-1,3.9-1.7,6.1-2.2C154.7,472.8,154.3,476.8,154.3,476.8z"/>
		<path class="st7" d="M320.8,226.6c-2.4,3.3-2.4,3.3-2.4,3.3s-0.1,16.6-12.6,16.4c-12.5-0.2-23.6-2.8-23.6-19.6c0,0,1.5,0,3.9,0
			c7.5-0.1,23.7-0.2,31.1-0.1C319.1,226.5,320.5,226.5,320.8,226.6z"/>
		<path class="st0" d="M317.1,226.5c-5.5,7.2-16.5,5.9-23.4,5.2c-3.8-0.4-6.2-2.8-7.7-5.1C293.5,226.5,309.7,226.4,317.1,226.5z"/>
		<path class="st1" d="M376.6,589.5c-2.5,2-5.2,4.1-8,6.2c-30,22.2-41.9,36.4-49.9,47.6c-3.4-1.5-5.3-2.5-5.5-2.8
			c-0.9-1.1-9.8-11-19.4-21.5c1-3.3,1.9-5.8,2.6-6.9c3.6-6,7.7,0.2,15.2-13.5c7.5-13.7,34.9-50.6,38.3-55.4
			c-9.6-0.7-35.9-26.3-44.1-27.9c-8.2-1.7-19.7-1.2-19.7-1.2s-10.6,60.5-10.6,62.9c0,2.4,3.1,2.4,2.4,4.8c-0.2,0.6-1.6,6.7-3.7,15.8
			c-2.9-3.2-4.8-5.2-4.8-5.2s-1-22.6,1.4-34.7c2.4-12,1.9-34.7-6-34.2c-8,0.5-3.1-10.1,17.3-21.7c20.5-11.6,40.7-10.6,36.6-5.3
			c-4.1,5.3-6.1,3.8,21.4,25C367.6,542.7,349.8,543.2,376.6,589.5z"/>
		<path class="st2" d="M392.2,575.3c-4.2,4.4-9.3,9.1-15.6,14.2c-2.5,2-5.2,4.1-8,6.2c-30,22.2-41.9,36.4-49.9,47.6
			c-2.9,4.1-5.3,7.7-7.9,11.2c-2.7,3.7-5.2,7.4-7.5,10.5c-5.7,7.9-10.1,12.2-14.2,4.6c-4.7-8.5,0.6-36.9,4.6-50.6
			c1-3.3,1.9-5.8,2.6-6.9c3.6-6,7.7,0.2,15.2-13.5c6.5-12,28.4-41.8,36-52.2c5,1.3,10.6,3.1,14.8,5.5c3,1.7,6.7,5,10.7,8.6
			C379.1,566,386,572.4,392.2,575.3z"/>
		<path class="st2" d="M277.8,581.7c-0.1,0.2-0.3,1.4-0.8,3.3c-0.7,2.8-1.7,7.1-2.9,12.5c-6.4,28.1-19,84.2-19.7,90.4
			c-1,8.2,8.9,50.8,8.7,63.6c-0.1,6.5-2.7,16.9-6.8,22.4c-4,5.3-9.5,6-15.6-6.1c-12.5-24.6-26.7-55.1-25.5-58.5
			c1.2-3.4,3.4-2.4,3.6-7.7c0.2-5.3,1-107.2,0.7-113.2c-0.2-5.9-5.3-7.4-1-9.5c1.9-0.5,4.1-1,6.7-1.6c13.6-2.7,36.2-4.3,50.1-0.5
			c0,0,0,0,0,0C275.4,579.3,278.5,579.3,277.8,581.7z"/>
		<path class="st5" d="M277.8,581.7c-0.1,0.2-0.3,1.4-0.8,3.3c-4.6,1.3-10.7,2.2-18.4,1.9c-23.7-1.1-29.5,4.3-29.5,4.3
			s8.8,39.7,3.7,69.7c-5.1,30,3.2,71.2,6.1,78.4c1.6,4,9.5,20.2,17.6,34.6c-4,5.3-9.5,6-15.6-6.1c-12.5-24.6-26.7-55.1-25.5-58.5
			c1.2-3.4,3.4-2.4,3.6-7.7c0.2-5.3,1-107.2,0.7-113.2c-0.2-5.9-5.3-7.4-1-9.5c1.9-0.5,4.1-1,6.7-1.6c0.6-0.1,1.2-0.2,1.8-0.3
			c13.8-2.4,35-3.8,48.3-0.2c0,0,0,0,0,0c0,0.9,0.5,1.5,1,2C277.3,579.6,278.2,580.2,277.8,581.7z"/>
		<path class="st5" d="M373,560.4c-7.1-1.1-13.2-1.9-15.4-2.1c-6.1-0.4-30.3,26.7-35,40.8c-4.7,14.1-21.4,23.3-22.8,26.4
			c-1.4,3.2-4.9,34.4,3.5,39.4c-5.7,7.9-10.1,12.2-14.2,4.6c-4.7-8.5,0.6-36.9,4.6-50.6c1-3.3,1.9-5.8,2.6-6.9
			c3.6-6,7.7,0.2,15.2-13.5c6.5-12,28.4-41.8,36-52.2c5,1.3,10.6,3.1,14.8,5.5C365.3,553.5,369,556.8,373,560.4z"/>
		<path class="st2" d="M276.4,578.9c-1,0.1-2.2,0.1-3.6,0c-14.9-0.7-45.4,2.2-45.4,2.2l-0.3-4.1c13.8-2.4,35-3.8,48.3-0.2
			c0,0,0,0,0,0C275.4,577.8,275.9,578.4,276.4,578.9z"/>
		<path class="st2" d="M200.1,319.7c-16.8,19.3-28,36.3-28,36.3s-7.8-1.3-15.8-5.6c8-15.3,16.4-30.3,23.9-43.9
			c5.7-10.2,12-17.8,18.4-23.6C199.3,293.5,200.7,316.5,200.1,319.7z"/>
		<g>
			<g>
				<g>
					<path class="st2" d="M198.3,358c-0.3,0.3-0.6,0.5-0.8,0.8c-4.6-11.5-13.9-24.1-14-24.3l0.9-0.6
						C184.8,334.5,193.7,346.6,198.3,358z"/>
				</g>
				<g>
					<path class="st2" d="M150.4,429.8c-0.3,0.4-0.5,0.8-0.7,1.1c-1.6-4-3.7-9.5-5.5-14.2c-0.1-0.3-0.3-0.7-0.4-1
						c-1.3-3.5-2.5-6.4-3-7.8l-8.5,6.2l-0.8,0.6l-7,5.1c0.2-0.6,0.4-1.2,0.7-1.8l5.8-4.2l0.9-0.6l9.5-6.9l0.3,0.6
						c1,2.5,2,5.3,3.2,8.2c0.1,0.3,0.3,0.7,0.4,1C147,421.1,148.9,426.1,150.4,429.8z"/>
				</g>
				<g>
					<path class="st2" d="M145,416.1l-0.9,0.6l-7.9,5.5l-4.8-7.6l-0.6-0.9l-2.6-4.1c0.1-0.2,0.2-0.4,0.3-0.6l0.4-0.3l2.8,4.4
						l0.6,0.9l4.3,6.7l7.2-5.1l0.9-0.6C144.8,415.4,144.9,415.8,145,416.1z"/>
				</g>
				<g>
					<path class="st2" d="M355.3,286.2l-0.5,0.9c-0.3-0.1-0.5-0.3-0.7-0.4c-0.3-0.2-0.6-0.3-0.9-0.6c-12.2-7.8-14.8-25.4-15.2-34.4
						c0.3-0.3,0.7-0.6,1-0.9c0.3,8.5,2.5,26.7,14.9,34.5c0.3,0.2,0.6,0.4,0.9,0.6C354.9,286,355.1,286.1,355.3,286.2z"/>
				</g>
				<g>
					<path class="st2" d="M382,267.9c-0.2,0.3-0.4,0.7-0.6,1h0l-12.5-1.8l-14.1,18.8l-0.6,0.8l-13,17.4l3.7,7.7v0
						c-0.3,0.3-0.5,0.6-0.8,0.8l-4.1-8.6l13.3-17.8l0.6-0.8l14.6-19.4L382,267.9z"/>
				</g>
				<g>
					<path class="st2" d="M313.8,284.1l-16.1,3c-0.4,1.8-2.4,9.2-11.6,9.2c-0.4,0-0.8,0-1.2,0c-10.7-0.7-19.1-8.9-20.3-10.2h-15.4
						c-0.1-0.4-0.2-0.7-0.3-1.1H265l0.2,0.2c0.1,0.1,8.9,9.4,19.8,10.1c10.6,0.7,11.7-8.2,11.8-8.6l0-0.4l16.9-3.2
						C313.8,283.4,313.8,283.8,313.8,284.1z"/>
				</g>
				<g>
					<path class="st2" d="M297,270.4c-1.2,3.5-2.6,6.6-4.1,9.3c-2.6,4.4-5.7,7.7-9.3,9.8c-0.2,0.1-0.4,0.2-0.5,0.3
						c-0.2,0.1-0.4,0.2-0.6,0.2c-0.6,0-1.2-0.7-2-1.8c-1.7-2.2-5.2-6.9-13.8-13c-0.4-0.3-0.8-0.6-1.1-0.8c-6.2-4.7-8.5-8.9-9.3-12
						c0.3-0.3,0.7-0.6,0.9-0.9c0.6,3.1,2.9,7.8,10.1,12.9c0.4,0.3,0.8,0.5,1.1,0.8c7.8,5.7,11.2,10.2,12.9,12.4
						c0.5,0.7,1,1.3,1.2,1.4c0-0.1,0.2-0.2,0.4-0.3c3.3-2,6.2-5,8.6-8.9h0c1.7-2.7,3.2-6,4.4-9.6C296.3,270.2,296.6,270.3,297,270.4
						z"/>
				</g>
				<g>
					<path class="st2" d="M432.1,189.2c-0.3,0.5-0.7,1-1,1.5v0c-4.2,1.5-8.2,2.8-11.8,3.8c-0.3,0.1-0.7,0.2-1,0.3
						c-5.8,1.7-9.8,2.6-10,2.6l-0.5,0.1l-3-11.5l-0.3-1l-0.9-3.5c0.3-0.3,0.6-0.6,0.8-0.9l1.1,4.4l0.3,1l2.7,10.3
						c1.3-0.3,4.8-1.2,9.5-2.5c0.3-0.1,0.7-0.2,1-0.3C423,192.3,427.6,190.9,432.1,189.2z"/>
				</g>
				<g>
					<path class="st2" d="M418.1,193.8c-4.6,1.3-8.2,2.2-9.5,2.5L406,186l10.1-1L418.1,193.8z"/>
					<path class="st2" d="M419.4,194.5c-0.3,0.1-0.7,0.2-1,0.3l-0.2-1l-2-8.7l-10.1,1l-1.1,0.1l-0.3-1l1.1-0.1l11.2-1.1l2.2,9.6
						L419.4,194.5z"/>
				</g>
			</g>
		</g>
		<g>
			<path class="st0" d="M285.1,353c2.4,0,4.6,0.5,6.8,1.4c1.1,0.4,1.6,1.7,1.2,2.7c-0.4,1.1-1.5,1.7-2.7,1.3
				c-1.2-0.3-2.4-0.7-3.6-0.9c-1.1-0.2-2.2-0.2-3.3-0.1c-1.6,0.1-3.2,0.6-4.6,1.4c-3.7,1.9-6.1,4.9-7,8.9c-1,4-0.2,7.7,2.2,11
				c2.1,2.8,4.9,4.6,8.4,5.3c1.5,0.3,2.1,1.4,1.9,2.6c-0.3,1.3-1.2,1.9-2.7,1.6c-2.4-0.5-4.6-1.4-6.7-2.8c-4-2.8-6.5-6.6-7.4-11.4
				c-0.2-1.1-0.4-2.3-0.4-3.5c0.1-4.2,1.4-7.9,4.1-11.2c1.6-1.9,3.5-3.5,5.8-4.6c1.8-0.9,3.7-1.6,5.8-1.7
				C283.6,353.1,284.4,353,285.1,353z"/>
			<path class="st0" d="M295.8,362.4c0-8,0-15.9,0-23.9c0-1.3,0.8-2.1,2-2.2c1.2-0.1,2.1,0.6,2.4,1.9c0.1,0.4,0.1,0.8,0.1,1.2
				c0,15.5,0,30.9,0,46.4c0,1.6-0.6,2.3-1.7,2.6c-1.4,0.4-2.8-0.5-2.8-2C295.8,378.4,295.8,370.4,295.8,362.4z"/>
			<path class="st0" d="M293.3,371.4c0,0.3,0,0.5,0,0.7c0,4.7,0,9.4,0,14c0,1.4-0.9,2.4-2.2,2.4c-1.3,0-2.2-1-2.2-2.3
				c0-3.2,0-6.3,0-9.5c0-0.3,0-0.5,0-0.8c-0.9-0.1-1.8-0.1-2.7-0.2c-1-0.1-1.7-1.1-1.7-2.1c0-1.1,0.7-2.1,1.7-2.1
				C288.5,371.4,290.9,371.4,293.3,371.4z"/>
			<path class="st0" d="M260.6,404.8c0-3,0-5.9,0-8.9c0,0,0.1-0.1,0.1-0.1c1.5,0,3.1-0.1,4.6,0.1c2.3,0.4,3.5,2.2,3.5,4.3
				c0,2.5-1.8,4.4-4.4,4.5C263,404.9,261.8,404.8,260.6,404.8z M262.2,397.2c0,2.1,0,4.2,0,6.4c1-0.1,1.9-0.2,2.8-0.4
				c1.3-0.3,1.8-1.3,2-2.4c0.2-1.2-0.2-2.3-1.3-3C264.6,397,263.4,397.2,262.2,397.2z"/>
			<path class="st0" d="M288.9,404.8c0-3,0-6,0-9c1.2,0,2.5,0,3.7,0c2,0,3.7,1.3,4.3,3.2c0.9,2.9-1.2,5.7-4.3,5.8
				C291.4,404.9,290.1,404.8,288.9,404.8z M290.5,403.6c0.9-0.1,1.7-0.1,2.5-0.2c1.4-0.2,2-1.2,2.3-2.5c0.2-1.1-0.3-2.5-1.3-3.1
				c-1.1-0.7-2.3-0.6-3.5-0.5C290.5,399.3,290.5,401.4,290.5,403.6z"/>
			<path class="st0" d="M281.2,401.1c-0.8,0-1.5,0-2.3,0c0-0.4,0-0.8,0-1.2c1.3,0,2.5,0,3.9,0c0,1.2,0,2.4,0,3.5
				c0,0.1-0.1,0.2-0.2,0.3c-2.1,1.6-5.4,1.7-7.2-0.3c-0.7-0.7-1-1.6-1.1-2.7c-0.2-1.9,0.5-3.3,2-4.4c1.8-1.2,4.4-1,6.1,0.4
				c-0.3,0.4-0.7,0.8-0.9,1c-0.7-0.3-1.3-0.6-2-0.8c-1.4-0.3-2.8,0.4-3.3,1.7c-0.8,2,0.1,4.2,2.4,4.6c0.9,0.2,1.7-0.1,2.4-0.6
				c0.1-0.1,0.2-0.3,0.2-0.4C281.2,402.1,281.2,401.7,281.2,401.1z"/>
			<path class="st0" d="M299,404.8c0-3,0-5.9,0-8.9c2.2,0,4.3,0,6.6,0c0,0.4,0,0.8,0,1.3c-1.6,0-3.3,0-5,0c0,0.8,0,1.6,0,2.4
				c1.5,0,2.9,0,4.4,0c0,0.5,0,0.9,0,1.3c-1.5,0-2.9,0-4.4,0c0,0.9,0,1.7,0,2.5c1.7,0,3.4,0,5.1,0c0,0.5,0,0.9,0,1.3
				C303.5,404.8,301.2,404.8,299,404.8z"/>
			<path class="st0" d="M306.9,403.5c0.3-0.4,0.7-0.7,0.9-1c0.9,0.4,1.7,0.8,2.5,1c0.5,0.1,1.1-0.1,1.6-0.3c0.3-0.1,0.5-0.6,0.5-0.9
				c-0.1-0.3-0.4-0.7-0.7-0.9c-0.9-0.4-1.8-0.6-2.7-0.9c-1.5-0.5-1.7-1.4-1.6-2.7c0.1-0.9,0.9-1.8,1.9-2c1.6-0.3,3.1-0.1,4.4,1
				c0,0,0,0.1-0.1,0.1c-0.3,0.3-0.5,0.8-0.8,0.9c-0.3,0.1-0.7-0.3-1.1-0.5c-0.7-0.3-1.4-0.6-2.1-0.2c-0.3,0.2-0.6,0.6-0.7,0.9
				c-0.2,0.4,0.2,0.8,0.6,0.9c0.9,0.3,1.8,0.6,2.6,0.9c1.3,0.4,1.9,1.3,1.8,2.5c-0.1,1-0.9,2.1-2,2.3
				C310.1,405.2,308.5,404.9,306.9,403.5z"/>
			<path class="st0" d="M270.6,395.9c0.5,0,1,0,1.5,0c0,3,0,5.9,0,8.9c-0.5,0-1,0-1.5,0C270.6,401.8,270.6,398.9,270.6,395.9z"/>
			<path class="st0" d="M286.4,404.8c-0.5,0-1,0-1.5,0c0-3,0-5.9,0-8.9c0.5,0,1,0,1.5,0C286.4,398.9,286.4,401.8,286.4,404.8z"/>
		</g>
	</g>
</g>
</svg>
