<?xml version="1.0" encoding="UTF-8" standalone="no"?>
<!-- Generator: Adobe Illustrator 24.2.3, SVG Export Plug-In . SVG Version: 6.00 Build 0)  -->

<svg
   version="1.1"
   x="0px"
   y="0px"
   viewBox="0 0 154.82371 145.50232"
   xml:space="preserve"
   id="svg334"
   sodipodi:docname="maskot digides-head-only.svg"
   width="154.82372"
   height="145.50232"
   inkscape:version="1.2.2 (732a01da63, 2022-12-09)"
   xmlns:inkscape="http://www.inkscape.org/namespaces/inkscape"
   xmlns:sodipodi="http://sodipodi.sourceforge.net/DTD/sodipodi-0.dtd"
   xmlns="http://www.w3.org/2000/svg"
   xmlns:svg="http://www.w3.org/2000/svg"><defs
   id="defs338">
	

		
		
	</defs><sodipodi:namedview
   id="namedview336"
   pagecolor="#ffffff"
   bordercolor="#000000"
   borderopacity="0.25"
   inkscape:showpageshadow="2"
   inkscape:pageopacity="0.0"
   inkscape:pagecheckerboard="0"
   inkscape:deskcolor="#d1d1d1"
   showgrid="false"
   inkscape:zoom="1.3048932"
   inkscape:cx="-82.765395"
   inkscape:cy="110.73703"
   inkscape:window-width="1920"
   inkscape:window-height="1013"
   inkscape:window-x="-9"
   inkscape:window-y="-9"
   inkscape:window-maximized="1"
   inkscape:current-layer="svg334" />
<style
   type="text/css"
   id="style171">
	.st0{fill:#FFFFFF;}
	.st1{fill:#F0F0F0;}
	.st2{fill:#27B45F;}
	.st3{fill:#EAF8EF;}
	.st4{fill:#CEE6D6;}
	.st5{fill:#327A6D;}
	.st6{fill:#BED4C5;}
	.st7{fill:#B05856;}
	.st8{fill:#323D43;}
	.st9{fill:#31E378;}
	.st10{fill:#595959;}
	.st11{fill:#777777;}
	.st12{fill:#90A195;}
	.st13{fill:#BDBDBD;}
	.st14{fill:#51A1A0;}
	.st15{fill:#AE5952;}
	.st16{fill:#B4C9BB;}
</style>


<g
   id="g303"
   transform="translate(-209.47629,-117.58951)">
			
			
			
			
			
			
			
			<path
   id="path189"
   class="st3"
   d="m 292.33594,117.78125 c -6.48671,0.004 -13.61056,0.83164 -21.43555,2.61914 -62.49994,14.29999 -56.90039,70.5 -56.90039,70.5 0,0 -2.30078,1.70039 -4.30078,4.40039 -1,14.29999 1.60156,29.29922 3.10156,32.19922 1.4,2.5 9.69845,6.59922 17.39844,8.69922 1.1,0.3 2.20117,0.60078 3.20117,0.80078 0.4,0.9 0.79922,1.7 1.19922,2.5 4.89999,9.39999 12.90079,14.89922 20.30078,18.19922 0.4,0.2 0.79922,0.3 1.19922,0.5 5.99999,2.4 11.40039,3.50039 14.40039,3.90039 h 0.0996 c 1,0.1 1.79961,0.20117 2.09961,0.20117 h 0.10156 0.0996 l 0.008,0.0703 c 22.27755,2.30202 36.04297,-1.64648 36.04297,-1.64648 0,0 0.11076,0.0544 0.11133,0.0547 3.81536,-0.88097 7.32162,-2.22994 10.53711,-3.87891 0.5,-0.3 1,-0.50078 1.5,-0.80078 0.4,-0.3 0.90078,-0.49883 1.30078,-0.79883 C 334.40038,248.20079 341,238 341,238 c 1.2,0.1 3.29922,-0.30039 5.69922,-0.90039 5.09999,-1.4 11.60117,-3.99922 13.20117,-6.19922 5,-9.79999 4.4,-27.29961 3.5,-33.09961 -0.1,-1.4 -0.89961,-2.80156 -2.09961,-3.60156 -1.1,-0.8 -2.80039,-1.79883 -5.40039,-3.29883 -4.025,-32.89997 -18.15747,-73.15059 -63.56445,-73.11914 z" />
			<path
   class="st4"
   d="m 346.7,237.9 c -2.4,0.6 -4.5,1 -5.7,0.9 0,0 -7.7,11.8 -21.3,18.8 5.4,-6 12.3,-14.4 13.4,-20.4 -6.3,-4.4 -24.5,-18.6 -43.2,-18.2 -18.7,0.4 -45.1,13.8 -47.1,15 -2.1,1.2 -7.2,4.8 -7.2,4.8 l -0.5,1.3 c -0.4,-0.8 -0.8,-1.6 -1.2,-2.5 -1,-0.2 -2.1,-0.5 -3.2,-0.8 v -27.3 l 101.6,-13.1 c -0.1,0 12.1,28.4 14.4,41.5 z"
   id="path191" />
			<g
   id="g195">
				<path
   class="st4"
   d="m 330.4,227 c -0.2,0.9 -4.3,17.6 -7.9,28.3 -0.4,0.3 -0.9,0.5 -1.3,0.8 3.8,-10.7 8.2,-29.1 8.3,-29.3 z"
   id="path193" />
			</g>
			<g
   id="g199">
				<path
   class="st4"
   d="m 252.7,244.5 c 0.6,2.8 1.3,5.7 2.1,8.5 0.5,1.7 1.1,3.4 1.8,5 -0.4,-0.2 -0.8,-0.3 -1.2,-0.5 v 0 c -0.6,-1.4 -1.1,-2.8 -1.6,-4.2 -0.9,-2.8 -1.8,-5.6 -2.4,-8.5 -0.7,-2.9 -1.3,-5.8 -1.7,-8.7 -0.5,-2.9 -0.9,-5.8 -1.2,-8.8 l 2,-0.1 c 0.2,2.9 0.5,5.8 0.8,8.7"
   id="path197" />
			</g>
			<path
   class="st0"
   d="m 338.1,206.8 c 0,0.2 -0.1,0.4 -0.1,0.5 -1.2,5 -1.4,10.9 -0.8,16.3 -11.1,4.3 -20.1,-1 -30.4,-7.1 l -2,-1.2 c -10.4,-6.1 -22.4,-1.3 -37.6,4.8 -3.5,1.4 -7.1,2.8 -10.9,4.3 -10.2,3.8 -16,3 -19,1.7 -0.2,-0.1 -0.3,-0.2 -0.5,-0.2 0.2,-4 -0.4,-11.2 -1.1,-18.1 -0.9,-8.8 -1.9,-17 -1.9,-17 0,0 4.1,-11.7 18.2,-11.6 14.1,0.2 24.5,10.9 37.3,10.2 12.8,-0.7 25.5,-11.4 33.9,-11.8 8.3,-0.3 15.8,4.1 15.8,4.1 0,0 1.5,14.6 -0.9,25.1 z"
   id="path201" />
			<path
   class="st3"
   d="m 338.1,206.8 c -3.4,-2.5 -6.8,-5.6 -8.1,-7.5 -2.7,-3.9 -36.3,-6.5 -65.4,-1.9 -16.3,2.6 -24.7,7.1 -28.9,10.5 -0.9,-8.8 -1.9,-17 -1.9,-17 0,0 4.1,-11.7 18.2,-11.6 14.1,0.2 24.5,10.9 37.3,10.2 12.8,-0.7 25.5,-11.4 33.9,-11.8 8.3,-0.3 15.8,4.1 15.8,4.1 0,0 1.5,14.5 -0.9,25 z"
   id="path203" />
			
			
			
			
			<path
   class="st2"
   d="m 359.9,230.9 c -2.3,3.2 -15.5,7.4 -18.9,7.1 -1.6,-2.6 -2.9,-7.2 -3.6,-12.4 -0.1,-0.7 -0.2,-1.4 -0.2,-2.1 -0.5,-5.4 -0.4,-11.4 0.8,-16.3 0,-0.2 0.1,-0.3 0.1,-0.5 2.4,-10.4 0.9,-24.9 0.9,-24.9 0,0 -7.5,-4.4 -15.8,-4.1 -8.3,0.4 -21.1,11.1 -33.9,11.8 -12.8,0.7 -23.1,-10 -37.3,-10.2 -14.1,-0.2 -18.2,11.6 -18.2,11.6 0,0 1.1,8.2 1.9,17 0.7,6.9 1.3,14.2 1.1,18.1 v 0.1 c 0,0.7 -0.1,1.4 -0.1,2 -0.7,7.2 -2.9,8.7 -2.9,8.7 -8.3,-1.7 -19.1,-6.6 -20.6,-9.5 -1,-1.8 -2.4,-8.6 -3,-17 -0.3,-4.4 -0.4,-9.3 -0.1,-14.1 0,-0.4 0,-0.7 0.1,-1 1.4,-1.8 2.8,-3.2 3.7,-3.9 0.4,-0.4 0.7,-0.5 0.7,-0.5 0,0 -1.4,-14.4 5.3,-30.5 0.3,-0.8 0.6,-1.5 1,-2.3 6.9,-15.1 21.3,-31 50.7,-37.8 42.1,-9.6 64,8.6 75.2,33 0.3,0.6 0.6,1.2 0.8,1.9 1,2.2 1.8,4.5 2.6,6.8 1.7,4.9 3.1,9.9 4.1,15 1,4.7 1.7,9.3 2.3,13.9 1.7,1 3,1.8 4,2.4 0.5,0.3 1,0.6 1.3,0.9 1.2,0.8 2,2.2 2.1,3.6 0.1,1.5 0.2,3.8 0.3,6.5 0,7.9 -0.6,19.4 -4.4,26.7 z"
   id="path213" />
			<path
   class="st2"
   d="m 337.4,225.7 c -11.7,4.3 -21,-1.2 -31.6,-7.4 l -2,-1.2 c -9.5,-5.6 -21.1,-0.9 -35.8,5 -3.5,1.4 -7.1,2.8 -11,4.3 -5.3,1.9 -9.9,2.9 -13.7,2.9 -2.5,0 -4.7,-0.4 -6.5,-1.2 0.1,-0.6 0.1,-1.3 0.1,-2 V 226 c 0.2,0.1 0.3,0.2 0.5,0.2 3,1.3 8.7,2.1 19,-1.7 3.8,-1.4 7.4,-2.9 10.9,-4.3 15.2,-6.1 27.2,-10.9 37.6,-4.8 l 2,1.2 c 10.3,6.1 19.3,11.4 30.4,7.1 -0.1,0.6 0,1.3 0.1,2 z"
   id="path215" />
			<ellipse
   class="st8"
   cx="269.39999"
   cy="199.3"
   rx="4.6999998"
   ry="10.9"
   id="ellipse217" />
			<circle
   class="st0"
   cx="270.60001"
   cy="195.2"
   r="1.5"
   id="circle219" />
			<ellipse
   class="st8"
   cx="311.70001"
   cy="199.3"
   rx="4.6999998"
   ry="10.9"
   id="ellipse221" />
			<circle
   class="st0"
   cx="313.39999"
   cy="193.7"
   r="1.5"
   id="circle223" />
			<path
   class="st0"
   d="m 271,262 c 0.7,0.1 1.5,0.2 2.3,0.2 -0.3,0 -1.1,-0.1 -2.3,-0.2 z"
   id="path225" />
			
			
			
			
			<path
   class="st8"
   d="m 310.4,228.5 c 0,0 0.2,2.5 -0.2,5.8 -0.8,6.1 -3.6,15 -13.6,16.7 -13.8,2.4 -21.7,-0.7 -24.8,-16 -0.4,-1.9 -0.7,-3.9 -0.9,-6.1 -1.2,-1.7 -1.2,-1.7 -1.2,-1.7 0,0 1.2,0.1 3.3,0.3 6,0.4 19.8,1.1 36,-0.4 0.9,-0.1 1.8,-0.2 2.6,-0.3 z"
   id="path245" />
			<path
   class="st15"
   d="m 310.2,234.3 c -0.8,6.1 -3.6,15 -13.6,16.7 -13.8,2.4 -21.7,-0.7 -24.8,-16 1.3,-0.8 3.3,-1.7 6.2,-2.4 1.8,-0.5 4,-0.9 6.6,-1.2 9,-1.1 15.3,-1.2 20,0.1 2.2,0.7 4,1.6 5.6,2.8 z"
   id="path247" />
			<path
   class="st0"
   d="m 309.1,227.2 c -1.1,1.7 -2.6,3.2 -4.4,4.4 -5.8,3.9 -14.5,5 -21.6,3.1 -2,-0.5 -3.7,-1.3 -5,-2.1 -2.7,-1.6 -4.2,-3.5 -5,-5.1 6,0.5 19.8,1.2 36,-0.3 z"
   id="path249" />
			<path
   class="st5"
   d="m 359.9,230.9 c -2.3,3.2 -15.5,7.4 -18.9,7.1 -1.6,-2.6 -2.9,-7.2 -3.6,-12.4 -0.1,-0.7 -0.2,-1.4 -0.2,-2.1 -0.5,-5.4 -0.4,-11.4 0.8,-16.3 0,-0.2 0.1,-0.3 0.1,-0.5 2.4,-10.4 0.9,-24.9 0.9,-24.9 0,0 -7.5,-4.4 -15.8,-4.1 -8.3,0.4 -21.1,11.1 -33.9,11.8 -12.8,0.7 -23.1,-10 -37.3,-10.2 -14.1,-0.2 -18.2,11.6 -18.2,11.6 0,0 1.1,8.2 1.9,17 0.7,6.9 1.3,14.2 1.1,18.1 v 0.1 c 0,0.7 -0.1,1.4 -0.1,2 -0.7,7.2 -2.9,8.7 -2.9,8.7 -8.3,-1.7 -19.1,-6.6 -20.6,-9.5 -1,-1.8 -2.4,-8.6 -3,-17 0.6,-1.7 1.4,-4 2.3,-6.8 2.1,-7.1 4.8,-6.6 5.4,-2.9 0.6,3.7 0.7,6 0.7,6 0,0 0.6,2.4 6,2.2 5.5,-0.2 9.6,0.3 9.6,0.3 0,0 -2.3,-15.7 -4.9,-20.1 -1.8,-3.1 -12.8,3.2 -19.3,7.3 0,-0.4 0,-0.7 0.1,-1 1.4,-1.8 2.8,-3.2 3.7,-3.9 l 30.5,-16.7 c 0,0 -6.8,-10.9 -7.7,-11.2 -0.6,-0.3 -11.5,-2.1 -17,-3.1 0.3,-0.8 0.6,-1.5 1,-2.3 5.6,1.3 17.8,4.1 19.9,4.6 2.7,0.7 6.8,8.9 21.6,10.2 14.8,1.4 25.1,3.1 41,-0.3 15.9,-3.4 21.2,-2 21.2,-2 0,0 8.5,-12.3 13,-14.8 2.4,-1.3 6.2,-2 9.2,-2.4 0.3,0.6 0.6,1.2 0.8,1.9 -4.2,1.1 -9.7,2.6 -10,3.2 -0.6,1 -5.7,12.8 -5.7,12.8 0,0 14.4,2.8 22.5,5.7 1,4.7 1.7,9.3 2.3,13.9 0,0 -8,-5.6 -9.8,-5.2 -1.8,0.4 -5.6,18.8 -5.7,21.1 -0.1,2.3 1.9,4.3 8.5,3.2 6.6,-1.2 8,-1.9 8,-1.9 0,0 -1.9,-17.6 6.7,-3.7 0.2,7.7 -0.4,19.2 -4.2,26.5 z"
   id="path251" />
			
			
			
			
			
			
			
			
			
			
				<ellipse
   transform="matrix(0.9778,-0.2097,0.2097,0.9778,-22.2299,57.6045)"
   class="st9"
   cx="260.5"
   cy="133.60001"
   rx="13.8"
   ry="4.9000001"
   id="ellipse271" />
			
			
			
			
			
			
			
			
			
		</g>
</svg>
