<?xml version="1.0" encoding="utf-8"?>
<!-- Generator: Adobe Illustrator 24.2.3, SVG Export Plug-In . SVG Version: 6.00 Build 0)  -->
<svg version="1.1" xmlns="http://www.w3.org/2000/svg" xmlns:xlink="http://www.w3.org/1999/xlink" x="0px" y="0px"
	 viewBox="0 0 564.2 895.2" style="enable-background:new 0 0 564.2 895.2;" xml:space="preserve">
<style type="text/css">
	.st0{fill:#FFFFFF;}
	.st1{fill:#F0F0F0;}
	.st2{fill:#27B45F;}
	.st3{fill:#EAF8EF;}
	.st4{fill:#CEE6D6;}
	.st5{fill:#327A6D;}
	.st6{fill:#BED4C5;}
	.st7{fill:#B05856;}
	.st8{fill:#323D43;}
	.st9{fill:#31E378;}
	.st10{fill:#595959;}
	.st11{fill:#777777;}
	.st12{fill:#90A195;}
	.st13{fill:#BDBDBD;}
	.st14{fill:#51A1A0;}
	.st15{fill:#AE5952;}
	.st16{fill:#B4C9BB;}
</style>
<g id="Layer_2">
</g>
<g id="Layer_3">
</g>
<g id="Layer_4">
	<g>
		<path class="st2" d="M362.3,772.4c0,1.3-0.4,2.4-1.2,3c-0.1,0.1-0.3,0.2-0.5,0.3c-0.2,0.1-0.3,0.2-0.5,0.2
			c-5.1,1.8-65.7,2.2-70.1-0.9c-3.8-2.7-3-19.7-1.9-27.4v0c0.2-1.3,0.4-2.3,0.6-3c1-3.4,6.6-67.8,9.2-98.8
			c0.8-9.9,1.4-16.4,1.4-16.4s0.1-0.9,0.5-2c0.6-1.6,1.9-3.5,4.4-3.5c1.6,0,10.9-0.1,21.5-0.1c1.2,0,2.4,0,3.5,0
			c12-0.1,24.8-0.1,30.4,0c0,0,0,0,0,0c0.8,0.4-2.3,6.1-2.6,7.6c-0.3,1.5-1.8,8.5-3.7,8.5c0,0-0.1,0-0.1,0c-1.9-0.3-1.9-0.3-1.9-0.3
			s-17.6,79.9-16.3,84.8c0.1,0.4,0.3,0.9,0.5,1.5c0.1,0.2,0.2,0.4,0.3,0.7c0.1,0.3,0.3,0.6,0.5,1c0,0,0,0,0,0c0,0,0,0,0,0.1
			c0,0.1,0.1,0.2,0.1,0.3c0.1,0.1,0.2,0.3,0.2,0.5c0.1,0.3,0.3,0.5,0.4,0.8c0.6,1.2,1.4,2.6,2.3,4c0.2,0.4,0.5,0.8,0.7,1.2
			c0.1,0.2,0.2,0.4,0.4,0.6c0.2,0.4,0.5,0.8,0.8,1.3c0.1,0.2,0.2,0.4,0.4,0.7c0.2,0.4,0.4,0.7,0.6,1c3.3,5.4,7.1,11.3,10,15.5
			c0.4,0.6,0.8,1.1,1.1,1.6c0.5,0.7,1,1.4,1.5,2c0.1,0.2,0.3,0.4,0.4,0.5c0.1,0.2,0.3,0.3,0.4,0.5c0.3,0.3,0.6,0.7,0.8,1.1
			c0.3,0.4,0.6,0.8,0.8,1.2c0.5,0.7,0.9,1.3,1.3,2c0.2,0.3,0.4,0.6,0.5,0.9c0.4,0.8,0.8,1.5,1.2,2.3c0.2,0.4,0.4,0.8,0.5,1.2
			c0.2,0.4,0.4,0.9,0.5,1.3c0.3,0.9,0.6,1.8,0.7,2.6c0,0.2,0.1,0.4,0.1,0.6c0,0.1,0,0.2,0,0.3C362.3,772,362.3,772.2,362.3,772.4z"
			/>
		<path class="st2" d="M298.9,777.5c-2-0.2-66.8,0-68.8-1.8c-0.6-0.5-0.7-3.2-0.5-6.8c0.6-8.2,2.8-21.4,4.7-27.6
			c2.2-7.5,3.8-72.4,4.3-93.1c0.1-3.9,0.1-6.3,0.1-6.3s-6.2,0.3-5.4-4.1c0.2-0.9,0.2-1.9,0.1-3.1c-0.1-4.5-1.4-10.1-0.5-10.1
			c0,0,6.9,0,16.1,0c18.9,0,47.7,0,49.5,0c2.7,0.1,2,15.5-1,16.1c-3,0.6-3,0.6-3,0.6s-17.7,92-17.7,94c0,2,23.5,25.7,25.7,32.8
			C304.9,775.3,300.9,777.8,298.9,777.5z"/>
		<path class="st5" d="M298.9,777.5c-2-0.2-66.8,0-68.8-1.8c-0.6-0.5-0.7-3.2-0.5-6.8c3.5-0.5,7.2-0.7,10.8-0.5
			c30.7,1.3,39.4,3,41.7,0.3c2.3-2.7-15.5-11.6-15.8-35.9c-0.3-24.3,0-87.5,0-87.5l-27.8,3c0.1-3.9,0.1-6.3,0.1-6.3
			s-6.2,0.3-5.4-4.1c0.2-0.9,0.2-1.9,0.1-3.1c4,0,9.5,0.1,16.5,0.5c19,1.2,22.6-6.5,22.6-6.5l-23.5-4.2c18.9,0,47.7,0,49.5,0
			c2.7,0.1,2,15.5-1,16.1c-3,0.6-3,0.6-3,0.6s-17.7,92-17.7,94c0,2,23.5,25.7,25.7,32.8C304.9,775.3,300.9,777.8,298.9,777.5z"/>
		<path class="st2" d="M293.2,605.1c0-0.7,0-1.3,0-1.6L293.2,605.1z"/>
		<path class="st5" d="M362.3,772.4c0,1.3-0.4,2.4-1.2,3c-0.1,0.1-0.3,0.2-0.5,0.3c-0.2,0.1-0.3,0.2-0.5,0.2
			c-5.1,1.8-65.7,2.2-70.1-0.9c-3.8-2.7-3-19.7-1.9-27.4l26.3,17.1c0,0,11.3-0.3,12.6,0.3c1.3,0.7-18-26-16.5-32.9
			c1.5-7,11.5-59.9,16.5-73.8c4-11.1-19.4-12.4-29.1-12.4c0.8-9.9,1.4-16.4,1.4-16.4s0.1-0.9,0.5-2c1.5,1.6,3.3,2.7,5.5,3.2
			c12.7,2.6,22,0,22,0l-1.7-6.9c1.2,0,2.4,0,3.5,0c15-0.1,29.5-0.2,30.4,0c0,0,0,0,0,0c0.8,0.4-2.3,6.1-2.6,7.6
			c-0.3,1.5-1.8,8.5-3.7,8.5c0,0-0.1,0-0.1,0c-1.9-0.3-1.9-0.3-1.9-0.3s-17.6,79.9-16.3,84.8c0.1,0.4,0.3,0.9,0.5,1.5
			c0.1,0.2,0.2,0.4,0.3,0.7c0.1,0.3,0.3,0.6,0.5,1c0,0,0,0,0,0c0,0,0,0,0,0.1c0,0.1,0.1,0.2,0.1,0.3c0.1,0.1,0.2,0.3,0.2,0.5
			c0.1,0.3,0.3,0.5,0.4,0.8c0.6,1.2,1.4,2.6,2.3,4c0.2,0.4,0.5,0.8,0.7,1.2c0.1,0.2,0.2,0.4,0.4,0.6c0.2,0.4,0.5,0.8,0.8,1.3
			c0.1,0.2,0.2,0.4,0.4,0.7c0.2,0.4,0.4,0.7,0.6,1c3.3,5.4,7.1,11.3,10,15.5c0.4,0.6,0.8,1.1,1.1,1.6c0.5,0.7,1,1.4,1.5,2
			c0.1,0.2,0.3,0.4,0.4,0.5c0.1,0.2,0.3,0.3,0.4,0.5c0.3,0.3,0.6,0.7,0.8,1.1c0.3,0.4,0.6,0.8,0.8,1.2c0.5,0.7,0.9,1.3,1.3,2
			c0.2,0.3,0.4,0.6,0.5,0.9c0.4,0.8,0.8,1.5,1.2,2.3c0.2,0.4,0.4,0.8,0.5,1.2c0.2,0.4,0.4,0.9,0.5,1.3c0.3,0.9,0.6,1.8,0.7,2.6
			c0,0.2,0.1,0.4,0.1,0.6c0,0.1,0,0.2,0,0.3C362.3,772,362.3,772.2,362.3,772.4z"/>
		<path class="st0" d="M380.4,504.1c-7.2,49.3-25.1,120.3-25.1,120.3l-54.2,1.7l1.3-7.2l2.6-15.1l6.9-39.6l-16.1,61.2
			c0,0-18.3,0.5-34.1,0.7c-11.7,0.1-22,0-22.3-0.7c-0.7-1.7-9.3-132.6-9.3-132.6s130.2-31.5,148.4-0.1
			C380.4,495.9,381.1,499.6,380.4,504.1z"/>
		<path class="st1" d="M311.9,564.2l-16.1,61.2c0,0-18.3,0.5-34.1,0.7c12.7-6.7,25.9-16.1,31.1-27.3c11-23.9,14.5-36.9,14.9-37.9
			c0.4-1-24.7,0-2.3-12.6c22.4-12.6,39.7-18.3,33-10c-6.7,8.3-25.1,31.9-26.5,41.9c-0.7,5.1-3.9,15-6.9,23.7L311.9,564.2z"/>
		<path class="st1" d="M380.4,504.1c-7.2,49.3-25.1,120.3-25.1,120.3l-54.2,1.7l1.3-7.2c8.4-1.4,31.8-5.7,34-8.1
			c2.7-3,11-49.6,17-55.6c6-6,22.8-40.9,22.8-40.9s-112.9,2.7-132.9-8c-20-10.6,75.5-20.3,75.5-20.3l59.8,6.7
			C380.4,495.9,381.1,499.6,380.4,504.1z"/>
		<path class="st4" d="M372,468.8c-5,1.3-7.8-2.9-1.6-10.6c6.2-7.8,11.1-12.2,11.1-12.2c1.5,4.1,3.3,8.9,3.7,14.6
			c0,0.4,0.1,0.8,0.1,1.3v0C382.5,463.3,375.6,467.9,372,468.8z"/>
		<path class="st4" d="M387.6,497.9C387.6,498,387.6,498,387.6,497.9c-1.5,3-3.8,5.7-7.2,6.2c-7.2,1-3.1-7.1-3.1-7.1
			s-6.1,0.3-2.8-8.8c-2.7-0.4-4.5-7.1-2.1-10c2.1-2.5,9.9-10.8,13-14.8c0.5,10.5-0.4,27.2,1,30.7C387,495.6,387.4,496.8,387.6,497.9
			z"/>
		<path class="st3" d="M381.5,446L257.7,336.2l-48.4-6.4l11.5-26.4c0,0,20.8-18,24.5-19.2c0,0,0,0,0,0c0.7-0.2,2-0.7,3.9-1.3
			c3.4-1.2,8.3-2.9,13-4.5c2.1-0.7,4.1-1.4,6-2.1c4.2-1.5,7.5-2.7,8.7-3.1c0.3-0.1,0.5-0.2,0.8-0.4c3.3-2.2,5.7-9.9,5.7-14.6
			c0-5,36.4,6.5,36.4,6.5s-1,7.2,0,9.6c0.7,1.8,9.6,5.8,16.4,8.8c1,0.4,1.9,0.8,2.8,1.2c1.5,0.6,2.8,1.1,3.7,1.5
			c3.3,1.4,10.7,8.9,16.1,15c1.4,6.3,3.5,19.9,5.6,34.9v0c2.9,20.8,5.7,44.3,7,54.7c0.6,4.7,1,9.4,1.4,14c1.3,15,2,28,3.4,28.8
			c1.8,1,3.2-0.7,3.2,4.7C379.5,440.1,380.4,442.8,381.5,446z"/>
		<path class="st4" d="M309.1,339.7c-1.9,0.1-3.9-0.3-5.8-1c-13.3-5.5-46.9-19.1-47.2-34.1c-0.2-7.2-3.5-15.3-6.9-21.7
			c3.4-1.2,8.3-2.9,13-4.5c2.1,6.7,4.2,15.4,7.9,24.9C275.1,315.8,292.3,329.1,309.1,339.7z"/>
		<path class="st4" d="M372.9,404.3c-1.9,1.4-3.4,2.9-4.2,4.5c-3.3,6.7-22.3-48.9-22.3-48.9s-18.4-8.4-37.3-20.2
			c11.6-0.4,23.1-14.2,27.6-22.3c5.3-9.5-4.2-24.3-4.2-24.3s-13.3,0.3-15.5,0.3c-2.1,0-12.8,9.1-21.3,0c-6.1-6.6-14.2-16-18.2-20.7
			c3.3-2.2,5.7-9.9,5.7-14.6c0-5,36.4,6.5,36.4,6.5s-1,7.2,0,9.6c0.7,1.8,9.6,5.8,16.4,8.8c1,0.4,1.9,0.8,2.8,1.2
			c12.5,17.1,22.6,36.9,25.4,51.4c0,0,0,0,0,0v0c0,0.1,0,0.2,0,0.3c0.2,1.1,0.3,2.3,0.5,3.4c0.1,0.6,0.2,1.1,0.2,1.7
			c0.2,1.7,0.5,3.4,0.7,5.1c0.1,0.6,0.2,1.1,0.2,1.7c0.2,1.1,0.3,2.3,0.5,3.4c0.5,4,1,7.9,1.5,11.7c0.1,0.5,0.1,1.1,0.2,1.6
			c0.4,2.8,0.7,5.6,1,8.2c0.1,0.8,0.2,1.7,0.3,2.5c0.4,2.9,0.7,5.5,1,7.9c0.1,0.7,0.2,1.4,0.3,2.1c0.1,1.2,0.3,2.2,0.4,3.2
			c0.1,0.6,0.2,1.2,0.2,1.8c0.3,2.5,0.6,5,0.8,7.5c0.1,0.9,0.2,1.9,0.3,2.8C372.7,401.9,372.8,403.1,372.9,404.3z"/>
		<path class="st3" d="M367.2,200.1c-0.3,3.7-1,7.5-2.3,11.2c-0.7,2.1-1.6,4.1-2.6,6c-1.5,10.5-1.5,20.5-1.5,20.5s-1.5,2.1-4.2,5.1
			c-8,9.1-26.7,26.9-48,25c-15.7-1.4-33.4-9.9-46-17.3c-5.7-3.3-10.4-6.4-13.4-8.5c3-4.7,6.7-13.2,7.4-26.6c0.2-4.2,0.4-7.8,0.6-11
			c0.3-5.4,0.6-9.5,0.8-12.6c0.4-5.2,0.6-7.2,0.6-7.2s12.9-13.1,23.7-9.2c10.8,4,27.7,13.8,37.7,12.7c10-1.2,20.8-9.7,30.4-12.1
			c9.6-2.5,15.6,3.7,15.6,3.7S368.2,189.1,367.2,200.1z"/>
		<path class="st4" d="M365,211.3c-0.7,2.1-1.6,4.1-2.6,6c-1.5,10.5-1.5,20.5-1.5,20.5s-1.5,2.1-4.2,5.1c0.4-5.5,1-12.4,1.2-17.8
			c-9.1,5.9-18.3,2.2-26.9-2.6c-8.7-4.8-16.5-2-28.3,0c-11.8,2-35.8,8.2-41.9,7.3c-0.7,5.3,0.4,13.3,1.9,20.8
			c-5.7-3.3-10.4-6.4-13.4-8.5c3-4.7,6.7-13.2,7.4-26.6c0.2-4.2,0.4-7.8,0.6-11c0.3-5.4,0.6-9.5,0.8-12.6
			C286.9,185.8,343.8,197.5,365,211.3z"/>
		<path class="st2" d="M369.5,232.7c0,0-2,3.5-8.7,5c0,0,0-10,1.5-20.5c8.8-15.6,3.7-37.6,3.7-37.6s-6-6.2-15.6-3.7
			c-9.7,2.5-20.5,11-30.4,12.1c-10,1.2-27-8.7-37.7-12.7c-10.8-4-23.7,9.2-23.7,9.2s-0.8,7.3-2,30.8c-0.7,13.5-4.4,21.9-7.4,26.6
			c-2.4-1.7-3.8-2.7-3.8-2.7s-13,0.2-19.5-5.3c-5.9-9.1-7.1-21.4-1.8-37.7c1.8-1.4,3.1-1.9,3.1-1.9s-3-46.9,39.9-68.2
			c42.9-21.3,75.8,0.5,92.5,25.3c16.6,24.8,9.3,47.9,9.3,47.9s4.5,5,5.7,6.5C375.8,207.4,373.5,225.9,369.5,232.7z"/>
		<path class="st2" d="M369.5,232.7c0,0-2,3.5-8.7,5c0,0,0-7.9,1.1-17c0.1-1.1,0.3-2.3,0.4-3.4c0.1-0.2,0.2-0.3,0.2-0.5
			c8.5-15.6,3.4-37.1,3.4-37.1s-6-6.2-15.6-3.7c-9.7,2.5-20.5,11-30.4,12.1c-10,1.2-27-8.7-37.7-12.7c-10.8-4-23.7,9.2-23.7,9.2
			s-0.8,7.1-1.9,29.6c0,0.4,0,0.8-0.1,1.1c-0.1,1.5-0.2,3-0.4,4.4c-1.2,10.9-4.4,18-7,22.2c-2.4-1.7-3.8-2.7-3.8-2.7
			s-13,0.2-19.5-5.3c-5.3-8.2-6.8-19-3.2-33c0.4-1.5,0.9-3.1,1.4-4.7c1.8-1.4,3.1-1.9,3.1-1.9s0-0.2,0-0.6c0-0.4,0-1,0-1.8
			c0-6.2,1.2-23.5,11.4-40.1c0.1-0.2,0.2-0.4,0.3-0.5c5.9-9.4,14.9-18.6,28.2-25.2c36.2-18,65.3-5.3,83.5,14c3.4,3.6,6.4,7.4,9,11.2
			c16.6,24.8,9.3,47.9,9.3,47.9s4.5,5,5.7,6.5C375.8,207.4,373.5,225.9,369.5,232.7z"/>
		<g>
			<path class="st0" d="M362.6,216.8c-3.7,3.2-9.1,6.4-15.4,5.6c-6.5-0.8-11.9-3.9-16.6-6.6c-4.1-2.3-7.6-4.4-10.9-4.2
				c-2.1,0.1-7.2,1.8-14.3,4.1c-13.7,4.5-36.7,12.1-42.3,8.3c-3.1-2.1-5.1-5.8-6.5-9.7c1.1-22.5,1.9-29.6,1.9-29.6
				s12.9-13.1,23.7-9.2c10.8,4,27.7,13.8,37.7,12.7c10-1.2,20.8-9.7,30.4-12.1c9.6-2.5,15.6,3.7,15.6,3.7S371,201.2,362.6,216.8z"/>
			<path class="st3" d="M367.2,200.1c-8.1-2.7-22.4-2.7-22.4-2.7s-15.4,0.1-26.8,0c-11.4-0.1-38.6,0-50.1,2.5
				c-3.7,0.8-7.4,2.5-10.7,4.5c0.8-14.8,1.4-19.7,1.4-19.7s12.9-13.1,23.7-9.2c10.8,4,27.7,13.8,37.7,12.7
				c10-1.2,20.8-9.7,30.4-12.1c9.6-2.5,15.6,3.7,15.6,3.7S368.2,189.1,367.2,200.1z"/>
			<path class="st2" d="M369.7,213c-0.2,0.3-3.1,4.3-7.8,7.7c-3.9,2.8-9.1,5.1-15,4.4c-7-0.8-12.9-4.2-17.6-6.9
				c-3.7-2.1-6.9-4-9.4-3.9c-1.8,0.1-7.3,1.9-13.6,4c-15.2,5-29.5,9.4-38.1,9.4c-2.7,0-4.9-0.4-6.4-1.4c-2.3-1.5-4-3.8-5.4-6.3
				c-4.3-7.8-4.9-18.4-5-19l2.6-0.1c0,0.1,0.4,7,2.7,13.6c1.4,3.9,3.4,7.6,6.5,9.7c5.6,3.8,28.5-3.8,42.3-8.3
				c7.1-2.3,12.2-4,14.3-4.1c3.3-0.2,6.8,1.9,10.9,4.2c4.7,2.7,10.1,5.8,16.6,6.6c6.3,0.8,11.7-2.5,15.4-5.6c3.1-2.6,5-5.2,5-5.3
				L369.7,213z"/>
		</g>
		<g>
			
				<ellipse transform="matrix(5.597417e-02 -0.9984 0.9984 5.597417e-02 115.6312 521.2707)" class="st8" cx="333.5" cy="199.5" rx="11.4" ry="4.3"/>
			<circle class="st0" cx="335.3" cy="195" r="1.4"/>
		</g>
		<g>
			
				<ellipse transform="matrix(3.860526e-03 -1 1 3.860526e-03 89.1586 487.8018)" class="st8" cx="289.4" cy="199.1" rx="11.4" ry="4.6"/>
			<circle class="st0" cx="291.1" cy="195.1" r="1.4"/>
		</g>
		<path class="st2" d="M335.4,229.7c-0.7,0-1.2,0.5-1.2,1.2c0,0.1,0,0.2,0.1,0.3c-16.9,14.8-34,4.6-38.5,1.4c0,0,0,0,0-0.1
			c0-0.7-0.5-1.2-1.2-1.2c-0.7,0-1.2,0.5-1.2,1.2s0.5,1.2,1.2,1.2c0.2,0,0.3,0,0.5-0.1c2.8,2,10.5,6.6,20,6.6c6.3,0,13.3-2,20.2-8.1
			c0.1,0,0.1,0,0.2,0c0.7,0,1.2-0.5,1.2-1.2S336.1,229.7,335.4,229.7z"/>
		<path class="st5" d="M369.5,232.7c0,0-2,3.5-8.7,5c0,0,0-7.9,1.1-17c0.1-1.1,0.3-2.3,0.4-3.4c0.1-0.2,0.2-0.3,0.2-0.5
			c8.5-15.6,3.4-37.1,3.4-37.1s-6-6.2-15.6-3.7c-9.7,2.5-20.5,11-30.4,12.1c-10,1.2-27-8.7-37.7-12.7c-10.8-4-23.7,9.2-23.7,9.2
			s-0.8,7.1-1.9,29.6c0,0.4,0,0.8-0.1,1.1c-0.1,1.5-0.2,3-0.4,4.4c-1.2,10.9-4.4,18-7,22.2c-2.4-1.7-3.8-2.7-3.8-2.7
			s-13,0.2-19.5-5.3c-5.3-8.2-6.8-19-3.2-33c2.2-1.4,4.4-2.4,5.8-2c3.8,1.1,7.8,19.2,1.9,31.4c2.8,2.9,13.3-4.3,17.7-12.3
			c4.5-8,2.6-25-2.3-29.2c-3.3-2.9-12.9,1.6-18.7,4.8c-2.7,1.5-4.5,2.6-4.5,2.6l1.8-2.9c0,0,1.1-0.6,2.7-1.5
			c3.5-1.9,9.6-5.1,12.9-6.1c4.8-1.4,9.8,3.8,11.1,8.5c3.9-2.3,3.9-2.3,3.9-2.3s-0.7-9.8,6.7-15.7c7.3-6,12.2-5.4,12.2-5.4
			s-8.7-13-9.5-13.3c-0.8-0.3-17.2-4.9-25.8-5.7c-1.5-0.1-2.8-0.1-3.7,0c-0.5-0.7,1.2-0.8,4-0.5c8.1,0.8,25.5,4.7,26.8,4.9
			c1.8,0.2,11.6,13,12.4,13.4c0.8,0.4,17.8,0.6,27.6,5c9.8,4.4,16.2,8.8,31.6,1.6c15.4-7.2,15-20.2,15-20.2s-0.3-8.1-1.6-15.8
			c3.4,3.6,6.4,7.4,9,11.2c16.6,24.8,9.3,47.9,9.3,47.9s4.5,5,5.7,6.5C375.8,207.4,373.5,225.9,369.5,232.7z"/>
		
			<ellipse transform="matrix(0.8919 -0.4523 0.4523 0.8919 -29.4941 142.3527)" class="st9" cx="283" cy="132.9" rx="15.2" ry="8.1"/>
		<path class="st2" d="M388.4,502.8c0.2,1.6-19.4,4.4-39.2,5.9c-8.8,0.7-17.7,1-24.8,0.9c-23.3-0.3-87.6-5.7-94.8-13
			c-7.2-7.3,2.2-13.5,4.5-20.3c0.5-1.5,0.9-4.5,1.2-8.3c1-13,0.8-34.8,0.8-34.8l3.8-16.9l17.9-80.2l6.1-27.5c0,0-4.3-24.5-18.6-24.5
			c0,0,0,0,0,0c0.2-0.3,3.1-5.2,11.8-7.3c5.1-1.2,7.8-1.5,9.4-1.3c1,0.1,1.5,0.4,1.7,0.7c0,0.1,0.1,0.1,0.1,0.2
			c0.1,0.1,0.3,0.7,0.7,1.7c0.4,1,1,2.3,1.6,3.9c0,0,0,0,0,0c2.6,6.3,6.7,16,8.2,19.7c2.2,5.6,20.8,28.8,51.2,25.1
			c10.2-1.6,15-5.8,13.5-19.5c-1.4-13-8.8-21.4-7.3-24.1c0.1-0.2,0.2-0.3,0.3-0.4c2.7-2.2,18.4,9.5,21.3,14.7c0.3,0.5,0.6,1.7,1,3.4
			c0.7,3.1,1.6,7.9,2.5,13.8c1.7,11,3.7,25.6,5.5,39.5c2,14.9,3.7,28.9,4.6,36.3c2.4,20,3,41.8,4.9,42.8c1.8,1,3.2-0.7,3.2,4.7
			c0,2.3,1,5.1,2.1,8.2c1.5,4.1,3.3,8.9,3.7,14.6c0,0.4,0.1,0.8,0.1,1.3c0,0.5,0.1,1.1,0.1,1.7c0.5,10.5-0.4,27.2,1,30.7
			c0.5,1.4,0.9,2.7,1.2,3.8C388.1,499.8,388.2,501.4,388.4,502.8z"/>
		<path class="st5" d="M388.4,502.8c0.2,1.6-19.4,4.4-39.2,5.9l6.9-9l13.6-15.8c0,0-3.4-10.8-8.3-17.4c-2.8-3.9-6.7-11.2-9.5-16.6
			c-0.8-1.5-1.4-2.8-2-3.9c-0.9-1.8-1.4-2.9-1.4-2.9l-3.8,0.8l-2.4,0.5l-3.5,0.8l-8.9,2l-3,0.7l-2.8,0.6l-6.6,1.5l-2.3,0.5l-3.6,0.8
			l-2.2,0.5l-74.1,16.5c1-13,0.8-34.8,0.8-34.8l3.8-16.9l77.7-11.7l1.1-0.2l-1.1-2.5l-41.7-89.4l-5.3-30.7c2.6,6.3,6.7,16,8.2,19.7
			c2.2,5.5,20.8,28.8,51.2,25.1c10.2-1.5,15-5.8,13.5-19.5c-1.4-13-8.8-21.4-7.3-24.1c0.1-0.2,0.2-0.3,0.3-0.4
			c2.6-2.2,18.4,9.5,21.3,14.8c0.3,0.5,0.6,1.7,1,3.4c0.7,3.1,1.6,7.9,2.5,13.8l-11.8-5.5l-28.4,62l15.6,35.2
			c0,0,16.3-16.1,24.3-40.1c1.1-3.3,3.2-7.5,5.8-12.1c2,14.9,3.7,28.9,4.6,36.3c2.4,20,3,41.8,4.9,42.8c1.8,1,3.2-0.7,3.2,4.6
			c0,2.3,1,5.1,2.1,8.2c1.5,4.1,3.3,8.9,3.7,14.6c0,0.4,0.1,0.8,0.1,1.3c0,0.5,0.1,1.1,0.1,1.6c0.5,10.5-0.4,27.2,1,30.7
			c0.5,1.4,0.9,2.7,1.2,3.8C388.1,499.8,388.2,501.4,388.4,502.8z"/>
		<g>
			<g>
				<path class="st4" d="M311.4,410.2c1.4,0,2.7,0.3,3.9,0.8c0.6,0.2,0.9,0.9,0.7,1.6c-0.2,0.6-0.9,0.9-1.5,0.8
					c-0.7-0.2-1.4-0.4-2.1-0.5c-0.6-0.1-1.3-0.1-1.9-0.1c-0.9,0.1-1.8,0.4-2.6,0.8c-2.1,1.1-3.5,2.8-4,5.1c-0.6,2.3-0.1,4.4,1.3,6.3
					c1.2,1.6,2.8,2.7,4.8,3c0.9,0.2,1.2,0.8,1.1,1.5c-0.1,0.7-0.7,1.1-1.6,0.9c-1.4-0.3-2.7-0.8-3.8-1.6c-2.3-1.6-3.7-3.8-4.2-6.5
					c-0.1-0.7-0.2-1.3-0.2-2c0.1-2.4,0.8-4.5,2.3-6.4c0.9-1.1,2-2,3.3-2.6c1-0.5,2.1-0.9,3.3-1C310.5,410.2,310.9,410.2,311.4,410.2
					z"/>
				<path class="st4" d="M317.5,415.6c0-4.6,0-9.1,0-13.7c0-0.7,0.5-1.2,1.1-1.3c0.7-0.1,1.2,0.4,1.3,1.1c0,0.2,0.1,0.5,0.1,0.7
					c0,8.9,0,17.7,0,26.6c0,0.9-0.3,1.3-0.9,1.5c-0.8,0.3-1.6-0.3-1.6-1.2C317.5,424.7,317.5,420.2,317.5,415.6z"/>
				<path class="st4" d="M316.1,420.7c0,0.2,0,0.3,0,0.4c0,2.7,0,5.4,0,8c0,0.8-0.5,1.4-1.3,1.3c-0.7,0-1.3-0.6-1.3-1.3
					c0-1.8,0-3.6,0-5.4c0-0.1,0-0.3,0-0.4c-0.5,0-1-0.1-1.5-0.1c-0.6-0.1-1-0.6-1-1.2c0-0.6,0.4-1.2,1-1.2
					C313.3,420.7,314.7,420.7,316.1,420.7z"/>
			</g>
			<g>
				<path class="st4" d="M273.8,452.7c0-4.4,0-8.7,0-13c0,0,0.1-0.1,0.1-0.1c2.2,0,4.5-0.2,6.7,0.2c3.3,0.6,5.1,3.2,5.1,6.3
					c0,3.7-2.7,6.5-6.5,6.6C277.5,452.7,275.7,452.7,273.8,452.7z M276.2,441.5c0,3.1,0,6.1,0,9.3c1.4-0.2,2.8-0.2,4.1-0.5
					c1.9-0.4,2.7-1.9,2.9-3.6c0.2-1.8-0.3-3.3-1.8-4.4C279.8,441.2,278,441.5,276.2,441.5z"/>
				<path class="st4" d="M326.9,444.2c-0.8-2.8-3.3-4.6-6.2-4.6h-5.4v10.8l2.3-0.5v-8.3c1.8,0,3.5-0.3,5.1,0.8
					c1.4,1,2.3,2.9,1.9,4.6c-0.1,0.5-0.3,1-0.5,1.4l2.8-0.6C327.3,446.6,327.3,445.4,326.9,444.2z"/>
				<path class="st0" d="M327,447.7c-0.7,2.8-3.1,4.9-6.3,5c-1.8,0-3.5,0-5.4,0v-2.4l2.3-0.5v1c1.3-0.1,2.5-0.1,3.7-0.3
					c1.4-0.3,2.4-1,2.9-2.2L327,447.7z"/>
				<path class="st4" d="M304.1,447.2c-1.2,0-2.2,0-3.3,0c0-0.6,0-1.1,0-1.7c1.9,0,3.7,0,5.7,0c0,1.7,0,3.5,0,5.2
					c0,0.2-0.1,0.4-0.3,0.5c-3.1,2.4-7.9,2.5-10.5-0.4c-1-1.1-1.5-2.4-1.6-3.9c-0.2-2.7,0.7-4.9,3-6.4c2.6-1.8,6.4-1.5,8.9,0.7
					c-0.5,0.6-1,1.1-1.3,1.5c-1-0.4-1.9-0.9-2.9-1.1c-2-0.5-4.1,0.6-4.8,2.6c-1.2,2.9,0.2,6.1,3.5,6.8c1.3,0.3,2.5-0.2,3.5-0.9
					c0.2-0.1,0.3-0.4,0.3-0.6C304.1,448.7,304.1,448,304.1,447.2z"/>
				<polygon class="st0" points="339.9,450.7 339.9,452.6 330,452.6 330,447 338.9,445 338.9,447 332.4,447 332.4,450.7 				"/>
				<polygon class="st4" points="332.4,441.5 332.4,445 338.9,445 338.9,445 330,447 330,439.6 339.7,439.6 339.7,441.5 				"/>
				<path class="st0" d="M352,449.8c-0.3,1.4-1.4,2.6-2.9,2.9c-2.7,0.6-5.1,0.1-7.4-1.9c0.5-0.5,1-1,1.3-1.4
					c1.3,0.5,2.4,1.2,3.7,1.5c0.7,0.2,1.6-0.1,2.3-0.5c0.4-0.2,0.8-0.9,0.7-1.3c-0.1-0.5-0.6-1.1-1-1.3c-1.3-0.5-2.6-0.9-4-1.3
					c-1.4-0.5-2-1.2-2.3-2.2l2.4-0.5c0.2,0.3,0.5,0.4,0.8,0.5c1.3,0.5,2.6,0.9,3.9,1.3c0.2,0.1,0.4,0.1,0.6,0.2
					C350.5,446.9,351.2,448.3,352,449.8z"/>
				<path class="st4" d="M348.8,441.8c-1-0.4-2-0.8-3-0.3c-0.5,0.3-0.9,0.8-1.1,1.4c-0.1,0.3-0.1,0.6,0.1,0.8l-2.4,0.5
					c-0.1-0.5-0.1-1.1-0.1-1.9c0.1-1.3,1.3-2.6,2.8-2.9c2.3-0.5,4.5-0.2,6.4,1.4c0,0.1,0,0.1-0.1,0.2c-0.4,0.5-0.7,1.2-1.2,1.4
					C349.9,442.6,349.3,442,348.8,441.8z"/>
				<path class="st4" d="M352,449.3c0,0.2,0,0.3-0.1,0.4c-0.8-1.5-1.4-2.8-2-3.9C351.5,446.5,352.1,447.7,352,449.3z"/>
				<path class="st4" d="M288.6,439.6c0.8,0,1.5,0,2.2,0c0,4.4,0,8.7,0,13.1c-0.7,0-1.4,0-2.2,0C288.6,448.3,288.6,444,288.6,439.6z
					"/>
				<polygon class="st0" points="311.6,451.1 311.6,452.6 309.4,452.6 309.4,451.6 				"/>
				<polygon class="st4" points="311.6,439.6 311.6,451.1 309.4,451.6 309.4,439.6 				"/>
			</g>
		</g>
		<g>
			<path class="st3" d="M397.2,442.3c0.9,21.4,2,28.5-1.3,33.7c-1.6,7-5.4,12.3-5.8,14.2c-0.2,1-0.9,4.5-2.5,7.7
				c-1.5,2.9-3.8,5.7-7.2,6.2c-7.2,1-3.1-7.1-3.1-7.1s-1,0.1-2-0.5c-1-0.6-2-1.9-1.7-4.6c0.1-1,0.4-2.2,0.9-3.6
				c-2-0.3-3.5-4.1-3.2-7.2c0.1-1.1,0.4-2.1,1.1-2.8c2.1-2.5,9.9-10.8,13-14.8c0.6-0.7,1-1.3,1.2-1.6c0.4-0.7-0.2-0.5-1.3,0
				c-2.9,1.4-9.7,6-13.4,7c-5,1.3-7.8-2.9-1.6-10.6c6.2-7.8,11.1-12.2,11.1-12.2c-1.1-3.2-2.1-5.9-2.1-8.2c0-5.3-1.3-3.6-3.2-4.7
				c-0.2-0.1-0.4-0.6-0.6-1.3c0-0.2-0.1-0.4-0.1-0.6c-0.1-0.7-0.3-1.4-0.4-2.4c-0.1-0.3-0.1-0.6-0.1-1c-0.1-0.8-0.2-1.8-0.3-2.8
				c0-0.3-0.1-0.6-0.1-1c-0.1-1.2-0.2-2.4-0.3-3.8c0-0.2-0.1-0.5-0.1-0.7c-0.1-0.7-0.1-1.5-0.2-2.3c-0.1-1.1-0.2-2.1-0.3-3.2
				c0-0.1,0-0.2,0-0.3c-0.1-0.8-0.1-1.7-0.2-2.6c0-0.2,0-0.3,0-0.5c-0.1-0.7-0.1-1.4-0.2-2.2c0-0.5-0.1-0.9-0.1-1.4
				c-0.1-0.9-0.2-1.9-0.2-2.8c-0.1-1.2-0.2-2.4-0.3-3.7c-0.1-0.9-0.2-1.8-0.3-2.8c-0.2-2.5-0.5-5-0.8-7.5c-0.1-0.6-0.1-1.2-0.2-1.8
				c-0.1-1-0.2-2.1-0.4-3.2c-0.1-0.7-0.2-1.4-0.3-2.1c-0.3-2.4-0.6-5.1-1-7.9c-0.1-0.8-0.2-1.7-0.3-2.5c-0.3-2.6-0.7-5.3-1-8.2
				c-0.1-0.5-0.1-1.1-0.2-1.6c-0.5-3.8-1-7.7-1.5-11.7c-0.1-1.1-0.3-2.3-0.5-3.4c-0.1-0.6-0.1-1.1-0.2-1.7c-0.2-1.7-0.5-3.4-0.7-5.1
				c-0.1-0.6-0.2-1.1-0.2-1.7c-0.1-1.1-0.3-2.3-0.5-3.4c0-0.1,0-0.2,0-0.3v0c0,0,0,0,0,0c-0.1-0.4-0.1-0.9-0.2-1.3
				c-0.1-1.1-0.3-2.2-0.5-3.3c-0.2-1.6-0.5-3.2-0.7-4.8c-0.2-1.1-0.3-2.1-0.5-3.1c-0.4-2.9-0.8-5.6-1.2-8.1
				c-0.2-1.1-0.3-2.1-0.5-3.2c0,0,0-0.1,0-0.1c-0.1-0.7-0.2-1.4-0.4-2.1c-0.6-3.6-1.2-6.7-1.7-8.8c3.2,3.6,5.6,6.7,6.2,7.8
				c0.4,0.9,3.2,6.5,6.8,14.4c4.7,10,10.9,23.7,16.1,36.1c2.5,6,4.8,11.8,6.5,16.6c1.3,3.6,2.3,6.8,2.8,9.2
				c3.6,16.6,2.5,34.2,0.3,54c-0.1,0.8-0.2,1.7-0.3,2.5C397.2,441.7,397.2,442,397.2,442.3z"/>
		</g>
		<path class="st4" d="M397.2,442.3c0.9,21.4,2,28.5-1.3,33.7c-1.6,7-5.4,12.3-5.8,14.2c-0.2,1-0.9,4.5-2.5,7.7
			c-1.5,2.9-3.8,5.7-7.2,6.2c-7.2,1-3.1-7.1-3.1-7.1s-1,0.1-2-0.5c3.8-3.3,7.7-6.4,9.5-9.6c3.3-5.8-5.2,0.8-10.5,4.5
			c-0.2,0.2-0.5,0.3-0.7,0.4c0.1-1,0.4-2.2,0.9-3.6c-2-0.3-3.5-4.1-3.2-7.2c5.6-1.2,12.7-3.2,16.3-5.7c6.3-4.5,6.1-10.2,6.1-16.1
			c0-1.9-0.6-9.4-1.3-18.5c-0.2-2.2-0.4-4.5-0.6-6.9c-1.5-17.5-3.3-37.3-3.3-37.3s-9.5,3.3-15.6,7.8c-0.1-1.2-0.2-2.4-0.3-3.7
			c-0.1-0.9-0.2-1.8-0.3-2.8c-0.2-2.5-0.5-5-0.8-7.5c-0.1-0.6-0.1-1.2-0.2-1.8c-0.1-1-0.2-2.1-0.4-3.2c-0.1-0.7-0.2-1.4-0.3-2.1
			c-0.3-2.4-0.6-5.1-1-7.9c-0.1-0.8-0.2-1.7-0.3-2.5c-0.3-2.6-0.7-5.3-1-8.2c-0.1-0.5-0.1-1.1-0.2-1.6c-0.5-3.8-1-7.7-1.5-11.7
			c-0.1-1.1-0.3-2.3-0.5-3.4c-0.1-0.6-0.1-1.1-0.2-1.7c-0.2-1.7-0.5-3.4-0.7-5.1c-0.1-0.6-0.2-1.1-0.2-1.7c-0.1-1.1-0.3-2.3-0.5-3.4
			c0-0.1,0-0.2,0-0.3c6.2,32.3,12.3,47.9,14.7,48.9c2.5,1,14,0,14,0s-0.8-3.9-2-9.6c-0.9-4.5-2.1-10.1-3.3-15.9
			c2.5,6,4.8,11.8,6.5,16.6c1.3,3.6,2.3,6.8,2.8,9.2c3.6,16.6,2.5,34.2,0.3,54c-0.1,0.8-0.2,1.7-0.3,2.5
			C397.2,441.7,397.2,442,397.2,442.3z"/>
		<path class="st3" d="M266.4,275.5c1,0.1,1.5,0.4,1.7,0.7c0,0.1,0.1,0.1,0.1,0.2c0.1,0.1,0.3,0.7,0.7,1.7
			C268.2,277.1,267.4,276.3,266.4,275.5z"/>
		<path class="st2" d="M392.4,440.8l-4.7,3.7l-8.2-8.1l8.2-6.1l4.1,3.6C392,436.2,392.2,438.6,392.4,440.8z"/>
		<path class="st5" d="M397.1,441.3c0,0.3,0,0.7,0,1l-3-3l-1.8,1.4c-0.2-2.2-0.4-4.5-0.6-6.9l5.7,4.9
			C397.3,439.6,397.2,440.5,397.1,441.3z"/>
		<path class="st2" d="M391.2,374.9l-11.7-2.5L365.5,331l6.3-8.1c4.7,10,10.9,23.7,16.1,36.1C389.1,364.8,390.2,370.4,391.2,374.9z"
			/>
		<path class="st5" d="M394.4,375.6l-3.2-0.7c-0.9-4.5-2.1-10.1-3.3-15.9C390.4,365.1,392.7,370.8,394.4,375.6z"/>
		<polygon class="st2" points="367.6,359.5 373.8,355.7 375.5,357 367.9,362 		"/>
		<polygon class="st10" points="347.4,423.2 164.7,423.2 180.3,397.9 331.8,397.9 		"/>
		<rect x="164.7" y="423.2" class="st11" width="182.6" height="5.1"/>
		<g>
			<path class="st12" d="M198.7,430.6c0,0,3,6.6,8.6,8.6s15.6,4.5,20.1,2.7c4.6-1.8-10.1-9.4-10.1-9.4L198.7,430.6z"/>
			<path class="st3" d="M260.5,431.5c-4.7,4.8-10.2,5.7-12.1,7.1c-1.8,1.4-6.9,0.9-8.2,0.5c-1.3-0.4-3,1.5-8.2,2.5
				c-5.2,1-15.9-1.9-18.5-3.8c-2.6-1.9-5-4.2-8.1-5.4c-3.1-1.2-9.8,1.5-11.5-1.1c-1.7-2.6,1.1-3.3,1.1-3.3l19.5-0.2
				c0,0,0.1-1-0.1-2.9c-0.1-1-0.3-2.2-0.6-3.7c-0.9-4.2,1.4-9.9,5.5-15.7c4.1-5.8,9.6-2.6,8.7,1.7c-0.2,1-0.5,2.5-0.8,4.1
				c-0.9,5.2-1.9,12.6-1.7,15.3c0.3,3.6,5.2,1.5,6.4,0.1c0.1-0.1,0.2-0.3,0.3-0.6c1.2-2.9,2.6-13.7,2.4-19.7
				c-0.2-6.6,6.4-6.2,7.9-5.2c0.8,0.5,1.8,6,2.5,11.8c0.5,4.6,0.8,9.5,0.7,12.6c0,0.5,0,0.8,0,0.8c4.7-12,2.3-18.2,2.2-20.7
				c-0.2-2.5,4.2-3.7,6.3-2.6c2.1,1.1,3.5,6.1,3.5,6.1c0.1,0.1,0.3,0.2,0.5,0.4c0.5,0.4,1,0.9,1.6,1.5c2.4,2.5,5.5,6.3,5.5,7.4
				c0,0.1,0,0.1,0,0.2C265.3,420.7,264.9,426.9,260.5,431.5z"/>
			<path class="st4" d="M260.5,431.5c-4.7,4.8-10.2,5.7-12.1,7.1c-1.8,1.4-6.9,0.9-8.2,0.5c-1.3-0.4-3,1.5-8.2,2.5
				c-5.2,1-15.9-1.9-18.5-3.8c-2.6-1.9-5-4.2-8.1-5.4c-3.1-1.2-9.8,1.5-11.5-1.1c-1.7-2.6,1.1-3.3,1.1-3.3l19.5-0.2
				c0,0,0.1-1-0.1-2.9c2.3,0.8,4.9,1.6,6.4,1.3c3-0.4,0.5-9,4.3-13.8c0.7-0.9,1.4-1.2,2.1-1.1c-0.9,5.2-1.9,12.6-1.7,15.3
				c0.3,3.6,5.2,1.5,6.4,0.1c0.1-0.1,0.2-0.3,0.3-0.6c0.1,1.1,0.2,2.2,0.3,2.9c0.6,2.5,5.8,0,5.8,0s4.7-11.1,6.7-15.9
				c0.5,4.6,0.8,9.5,0.7,12.6c0,0.5,0,0.8,0,0.8s1.3,3.6,5.3,1.6c4-2,5.7-2.6,5.9-3.3c0.2-0.7,1.1-9,1.3-15.1c0.5,0.4,1,0.9,1.6,1.5
				c0.4,1.6,0.8,3.5,1.1,4.7c0.7,2.5,2.9,2.9,4.4,2.9C265.3,420.7,264.9,426.9,260.5,431.5z"/>
		</g>
		<path class="st13" d="M328.1,311.8H184c-2.1,0-3.7,1.7-3.7,3.7v82.3h151.6v-82.3C331.8,313.5,330.2,311.8,328.1,311.8z"/>
		<path class="st0" d="M325.3,315.5H186.8c-1.3,0-2.4,1.1-2.4,2.4v73.9c0,1.3,1.1,2.4,2.4,2.4h138.5c1.3,0,2.4-1.1,2.4-2.4v-73.9
			C327.7,316.6,326.6,315.5,325.3,315.5z"/>
		<path class="st2" d="M361.4,768.2c-2.5,0.5-4.5,0.3-5.3-1.1c-2-3.6-16.6-33.1-19.3-38.6c4.3,8.4,15,25,18.9,29.7
			C357.9,761,360.2,764.8,361.4,768.2z"/>
	</g>
</g>
</svg>
